G04 #@! TF.GenerationSoftware,KiCad,Pcbnew,6.0.7+dfsg-1~bpo11+1*
G04 #@! TF.ProjectId,wiscale,77697363-616c-4652-9e6b-696361645f70,1.0a*
G04 #@! TF.SameCoordinates,Original*
G04 #@! TF.FileFunction,Copper,L2,Bot*
G04 #@! TF.FilePolarity,Positive*
%FSLAX46Y46*%
G04 Gerber Fmt 4.6, Leading zero omitted, Abs format (unit mm)*
%MOMM*%
%LPD*%
G01*
G04 APERTURE LIST*
G04 #@! TA.AperFunction,ComponentPad*
%ADD10O,3.440000X6.880000*%
G04 #@! TD*
G04 #@! TA.AperFunction,ComponentPad*
%ADD11C,2.000000*%
G04 #@! TD*
G04 #@! TA.AperFunction,ComponentPad*
%ADD12R,2.000000X2.000000*%
G04 #@! TD*
G04 #@! TA.AperFunction,ComponentPad*
%ADD13O,5.000000X2.000000*%
G04 #@! TD*
G04 #@! TA.AperFunction,ComponentPad*
%ADD14R,1.700000X1.700000*%
G04 #@! TD*
G04 #@! TA.AperFunction,ComponentPad*
%ADD15O,1.700000X1.700000*%
G04 #@! TD*
G04 #@! TA.AperFunction,ComponentPad*
%ADD16C,0.800000*%
G04 #@! TD*
G04 #@! TA.AperFunction,ComponentPad*
%ADD17C,7.000000*%
G04 #@! TD*
G04 #@! TA.AperFunction,ComponentPad*
%ADD18R,1.050000X1.500000*%
G04 #@! TD*
G04 #@! TA.AperFunction,ComponentPad*
%ADD19O,1.050000X1.500000*%
G04 #@! TD*
G04 #@! TA.AperFunction,ViaPad*
%ADD20C,0.800000*%
G04 #@! TD*
G04 #@! TA.AperFunction,Conductor*
%ADD21C,1.500000*%
G04 #@! TD*
G04 #@! TA.AperFunction,Conductor*
%ADD22C,1.000000*%
G04 #@! TD*
G04 #@! TA.AperFunction,Conductor*
%ADD23C,0.700000*%
G04 #@! TD*
G04 #@! TA.AperFunction,Conductor*
%ADD24C,0.500000*%
G04 #@! TD*
G04 APERTURE END LIST*
D10*
X184620000Y-70000000D03*
X111720000Y-70000000D03*
D11*
X182022500Y-109900714D03*
X187222500Y-109900714D03*
X187222500Y-113300714D03*
X182022500Y-113300714D03*
X182022500Y-106400714D03*
X187222500Y-106400714D03*
D12*
X174870000Y-96850000D03*
X174870000Y-89650000D03*
X197870000Y-100250000D03*
X197870000Y-86250000D03*
X174870000Y-100250000D03*
X174870000Y-86250000D03*
D13*
X145170000Y-65750000D03*
X145170000Y-80750000D03*
D14*
X162192500Y-86935714D03*
D15*
X159652500Y-86935714D03*
X157112500Y-86935714D03*
X154572500Y-86935714D03*
D16*
X197545000Y-80500000D03*
D17*
X194920000Y-80500000D03*
D16*
X192295000Y-80500000D03*
X194920000Y-77875000D03*
X194920000Y-83125000D03*
X196776155Y-78643845D03*
X196776155Y-82356155D03*
X193063845Y-82356155D03*
X193063845Y-78643845D03*
X197545000Y-110500000D03*
X196776155Y-112356155D03*
X194920000Y-113125000D03*
X192295000Y-110500000D03*
X194920000Y-107875000D03*
X193063845Y-108643845D03*
D17*
X194920000Y-110500000D03*
D16*
X193063845Y-112356155D03*
X196776155Y-108643845D03*
D18*
X174546612Y-104500714D03*
D19*
X173276612Y-104500714D03*
X172006612Y-104500714D03*
D18*
X184892500Y-104440714D03*
D19*
X183622500Y-104440714D03*
X182352500Y-104440714D03*
D16*
X106776155Y-108643845D03*
X107545000Y-110500000D03*
X106776155Y-112356155D03*
D17*
X104920000Y-110500000D03*
D16*
X103063845Y-112356155D03*
X104920000Y-107875000D03*
X102295000Y-110500000D03*
X104920000Y-113125000D03*
X103063845Y-108643845D03*
D11*
X171676612Y-109875714D03*
X176876612Y-109875714D03*
X176876612Y-113275714D03*
X171676612Y-113275714D03*
X171676612Y-106375714D03*
X176876612Y-106375714D03*
D16*
X107545000Y-80500000D03*
X103063845Y-82356155D03*
X102295000Y-80500000D03*
X104920000Y-77875000D03*
X103063845Y-78643845D03*
X106776155Y-78643845D03*
D17*
X104920000Y-80500000D03*
D16*
X104920000Y-83125000D03*
X106776155Y-82356155D03*
D14*
X174982500Y-82587500D03*
D15*
X177522500Y-82587500D03*
D20*
X198085000Y-73915000D03*
X115420000Y-86200000D03*
X124762500Y-108171607D03*
X152562500Y-114171607D03*
X140420000Y-110000000D03*
X119362500Y-113471607D03*
X102420000Y-98000000D03*
X151420000Y-95500000D03*
X115420000Y-87100000D03*
X153562500Y-112771607D03*
X172984918Y-83656152D03*
X145062500Y-98971607D03*
X133462500Y-111971607D03*
X149462500Y-111971607D03*
X149462500Y-112771607D03*
X119562500Y-114171607D03*
X195885000Y-73915000D03*
X152562500Y-112771607D03*
X125055000Y-90527736D03*
X123475000Y-102927736D03*
X166462500Y-112771607D03*
X119562500Y-112771607D03*
X149462500Y-114171607D03*
X102420000Y-93000000D03*
X159025179Y-90677736D03*
X123420000Y-114000000D03*
X135562500Y-113471607D03*
X123420000Y-110000000D03*
X153362500Y-113471607D03*
X153562500Y-111971607D03*
X133462500Y-113471607D03*
X142920000Y-110000000D03*
X169252500Y-97501607D03*
X136662500Y-106271607D03*
X141920000Y-94500000D03*
X112420000Y-98000000D03*
X150462500Y-114171607D03*
X115420000Y-85300000D03*
X109920000Y-98000000D03*
X124762500Y-105771607D03*
X119562500Y-106271607D03*
X162420000Y-110000000D03*
X102420000Y-95500000D03*
X150462500Y-111971607D03*
X149662500Y-113471607D03*
X148420000Y-108000000D03*
X133462500Y-112771607D03*
X158762500Y-105771607D03*
X162862500Y-97471607D03*
X125920000Y-110000000D03*
X145420000Y-114000000D03*
X125920000Y-114000000D03*
X170282500Y-92062500D03*
X128862500Y-96571607D03*
X114735000Y-109473214D03*
X149020000Y-87700000D03*
X169182500Y-94162500D03*
X132662500Y-113471607D03*
X127937500Y-98996607D03*
X169182500Y-95062500D03*
X135562500Y-111971607D03*
X136562500Y-111971607D03*
X165920000Y-86500000D03*
X113770000Y-113223214D03*
X159920000Y-114000000D03*
X140420000Y-114000000D03*
X109920000Y-90500000D03*
X142920000Y-114000000D03*
X136562500Y-90671607D03*
X162420000Y-114000000D03*
X158762500Y-107371607D03*
X134420000Y-97000000D03*
X151420000Y-97000000D03*
X119662500Y-94671607D03*
X135562500Y-114171607D03*
X161862500Y-98871607D03*
X158762500Y-104971607D03*
X141762500Y-105071607D03*
X197585000Y-75615000D03*
X145420000Y-110000000D03*
X129920000Y-94500000D03*
X165420000Y-108000000D03*
X127937500Y-100927736D03*
X136562500Y-112771607D03*
X119562500Y-111971607D03*
X107420000Y-90500000D03*
X132462500Y-111971607D03*
X118562500Y-114171607D03*
X124762500Y-106571607D03*
X115770000Y-109473214D03*
X141762500Y-106681843D03*
X141962500Y-90471607D03*
X141762500Y-108271607D03*
X132462500Y-114171607D03*
X160285179Y-90677736D03*
X198085000Y-66515000D03*
X153662500Y-94671607D03*
X128865000Y-97369107D03*
X166462500Y-114171607D03*
X128420000Y-110000000D03*
X165920000Y-87313000D03*
X165782500Y-82962500D03*
X136362500Y-113471607D03*
X132462500Y-112771607D03*
X153562500Y-114171607D03*
X135562500Y-112771607D03*
X162862500Y-96671607D03*
X128420000Y-114000000D03*
X150462500Y-113471607D03*
X136562500Y-114171607D03*
X115770000Y-113185714D03*
X167462500Y-111971607D03*
X163920000Y-94500000D03*
X102420000Y-90500000D03*
X167762500Y-100871607D03*
X140530893Y-102927736D03*
X145093393Y-100927736D03*
X158762500Y-106571607D03*
X141762500Y-105871607D03*
X157563572Y-102923629D03*
X193185000Y-66915000D03*
X133462500Y-114171607D03*
X119662500Y-90671607D03*
X118562500Y-112771607D03*
X153662500Y-90671607D03*
X157420000Y-114000000D03*
X151420000Y-94000000D03*
X166662500Y-113471607D03*
X118562500Y-111971607D03*
X137420000Y-108000000D03*
X153562500Y-106171607D03*
X124762500Y-104971607D03*
X133762500Y-100971607D03*
X141762500Y-107471607D03*
X150462500Y-112771607D03*
X154420000Y-108000000D03*
X118562500Y-113471607D03*
X169252500Y-98301607D03*
X109920000Y-93000000D03*
X146920000Y-94500000D03*
X195885000Y-66515000D03*
X150918393Y-100927736D03*
X159920000Y-110000000D03*
X134420000Y-95500000D03*
X158762500Y-108171607D03*
X113770000Y-109473214D03*
X143162500Y-90471607D03*
X167462500Y-112771607D03*
X152562500Y-111971607D03*
X145762500Y-96671607D03*
X167462500Y-114171607D03*
X152562500Y-113471607D03*
X166462500Y-111971607D03*
X136562500Y-94671607D03*
X131420000Y-108000000D03*
X161907679Y-100927736D03*
X145762500Y-97471607D03*
X120420000Y-108000000D03*
X124762500Y-107371607D03*
X124920000Y-94500000D03*
X158920000Y-94500000D03*
X167462500Y-113471607D03*
X197620000Y-104200000D03*
X134420000Y-94000000D03*
X170282500Y-92762500D03*
X104920000Y-98000000D03*
X157420000Y-110000000D03*
X126315000Y-90527736D03*
X115372500Y-102935714D03*
X129762500Y-92671607D03*
X113522500Y-107385714D03*
X116022500Y-107385714D03*
X146762500Y-92671607D03*
X153732679Y-92677736D03*
X163762500Y-92671607D03*
X168520000Y-92900000D03*
X171245714Y-88462500D03*
X168504602Y-89327398D03*
X114222500Y-107385714D03*
X115372500Y-102185714D03*
X157745179Y-90677736D03*
X136605893Y-92677736D03*
X115372500Y-101435714D03*
X115322500Y-107385714D03*
X168782500Y-86962500D03*
X169720000Y-86962500D03*
X167820000Y-86962500D03*
X112622500Y-80185714D03*
X112622500Y-94685714D03*
X117622500Y-91185714D03*
X117622500Y-84185714D03*
X175022500Y-77585714D03*
D21*
X176876612Y-106375714D02*
X181997500Y-106375714D01*
X115372500Y-106735714D02*
X116022500Y-107385714D01*
D22*
X169745714Y-86962500D02*
X167820000Y-86962500D01*
D23*
X168291607Y-92671607D02*
X168520000Y-92900000D01*
X163762500Y-92671607D02*
X168291607Y-92671607D01*
X157745179Y-90677736D02*
X157745179Y-88843035D01*
X153726550Y-92671607D02*
X153732679Y-92677736D01*
D21*
X116022500Y-107385714D02*
X113522500Y-107385714D01*
D23*
X129762500Y-92671607D02*
X136599764Y-92671607D01*
D22*
X171245714Y-88462500D02*
X169745714Y-86962500D01*
D23*
X136599764Y-92671607D02*
X136605893Y-92677736D01*
D21*
X169720000Y-88112000D02*
X168504602Y-89327398D01*
X115372500Y-101435714D02*
X115372500Y-106735714D01*
D23*
X146762500Y-92671607D02*
X153726550Y-92671607D01*
X157745179Y-88843035D02*
X159652500Y-86935714D01*
D21*
X169720000Y-86962500D02*
X169720000Y-88112000D01*
X181997500Y-106375714D02*
X182022500Y-106400714D01*
D24*
X112622500Y-80185714D02*
X112622500Y-94685714D01*
X117622500Y-91185714D02*
X117622500Y-84185714D01*
X175022500Y-80585714D02*
X174982500Y-80625714D01*
X175022500Y-77585714D02*
X175022500Y-80585714D01*
X174982500Y-80625714D02*
X174982500Y-82587500D01*
G04 #@! TA.AperFunction,Conductor*
G36*
X110249666Y-66020502D02*
G01*
X110296159Y-66074158D01*
X110306263Y-66144432D01*
X110276769Y-66209012D01*
X110255606Y-66228436D01*
X110110197Y-66334082D01*
X110107311Y-66336793D01*
X110107310Y-66336793D01*
X109987086Y-66449691D01*
X109879002Y-66551188D01*
X109876478Y-66554239D01*
X109876477Y-66554240D01*
X109787170Y-66662194D01*
X109676841Y-66795558D01*
X109506902Y-67063339D01*
X109505218Y-67066918D01*
X109505214Y-67066925D01*
X109373554Y-67346718D01*
X109371865Y-67350308D01*
X109370639Y-67354080D01*
X109370639Y-67354081D01*
X109362327Y-67379662D01*
X109273860Y-67651938D01*
X109214431Y-67963473D01*
X109211768Y-68005798D01*
X109199625Y-68198802D01*
X109199624Y-68198818D01*
X109199500Y-68200797D01*
X109199500Y-71799203D01*
X109199624Y-71801182D01*
X109199625Y-71801198D01*
X109202997Y-71854784D01*
X109214431Y-72036527D01*
X109273860Y-72348062D01*
X109275087Y-72351838D01*
X109353492Y-72593144D01*
X109371865Y-72649692D01*
X109373552Y-72653278D01*
X109373554Y-72653282D01*
X109505214Y-72933075D01*
X109505218Y-72933082D01*
X109506902Y-72936661D01*
X109676841Y-73204442D01*
X109879002Y-73448812D01*
X110110197Y-73665918D01*
X110366779Y-73852336D01*
X110644702Y-74005125D01*
X110804993Y-74068589D01*
X110935900Y-74120419D01*
X110935903Y-74120420D01*
X110939583Y-74121877D01*
X110943417Y-74122861D01*
X110943425Y-74122864D01*
X111133766Y-74171735D01*
X111246772Y-74200750D01*
X111250700Y-74201246D01*
X111250704Y-74201247D01*
X111375041Y-74216954D01*
X111561424Y-74240500D01*
X111878576Y-74240500D01*
X112064959Y-74216954D01*
X112189296Y-74201247D01*
X112189300Y-74201246D01*
X112193228Y-74200750D01*
X112306234Y-74171735D01*
X112496575Y-74122864D01*
X112496583Y-74122861D01*
X112500417Y-74121877D01*
X112504097Y-74120420D01*
X112504100Y-74120419D01*
X112635007Y-74068589D01*
X112795298Y-74005125D01*
X113073221Y-73852336D01*
X113329803Y-73665918D01*
X113560998Y-73448812D01*
X113763159Y-73204442D01*
X113933098Y-72936661D01*
X113934782Y-72933082D01*
X113934786Y-72933075D01*
X114066446Y-72653282D01*
X114066448Y-72653278D01*
X114068135Y-72649692D01*
X114086509Y-72593144D01*
X114164913Y-72351838D01*
X114166140Y-72348062D01*
X114225569Y-72036527D01*
X114237003Y-71854784D01*
X114240375Y-71801198D01*
X114240376Y-71801182D01*
X114240500Y-71799203D01*
X114240500Y-69899271D01*
X117596668Y-69899271D01*
X117596755Y-69903273D01*
X117596755Y-69903280D01*
X117603261Y-70201448D01*
X117603349Y-70205465D01*
X117648883Y-70508330D01*
X117649979Y-70512190D01*
X117649980Y-70512195D01*
X117658456Y-70542049D01*
X117732531Y-70802953D01*
X117852937Y-71084560D01*
X118008149Y-71348585D01*
X118195651Y-71590747D01*
X118412404Y-71807122D01*
X118415585Y-71809576D01*
X118415586Y-71809577D01*
X118651701Y-71991739D01*
X118651705Y-71991742D01*
X118654894Y-71994202D01*
X118658373Y-71996239D01*
X118835179Y-72099763D01*
X118919189Y-72148953D01*
X118922874Y-72150521D01*
X118922878Y-72150523D01*
X119060098Y-72208910D01*
X119201006Y-72268867D01*
X119495775Y-72352001D01*
X119642942Y-72373864D01*
X119795419Y-72396516D01*
X119795421Y-72396516D01*
X119798718Y-72397006D01*
X119802049Y-72397146D01*
X119802053Y-72397146D01*
X119838737Y-72398683D01*
X119882084Y-72400500D01*
X120077474Y-72400500D01*
X120200915Y-72392626D01*
X120301639Y-72386201D01*
X120301644Y-72386200D01*
X120305647Y-72385945D01*
X120309584Y-72385183D01*
X120309586Y-72385183D01*
X120602401Y-72328530D01*
X120602405Y-72328529D01*
X120606338Y-72327768D01*
X120897200Y-72231856D01*
X121173518Y-72099763D01*
X121340818Y-71991739D01*
X121427439Y-71935809D01*
X121427440Y-71935808D01*
X121430812Y-71933631D01*
X121664910Y-71736152D01*
X121872019Y-71510529D01*
X122048780Y-71260418D01*
X122192328Y-70989874D01*
X122249996Y-70836856D01*
X122298919Y-70707044D01*
X122298921Y-70707038D01*
X122300336Y-70703283D01*
X122345646Y-70512354D01*
X122370124Y-70409207D01*
X122370125Y-70409202D01*
X122371053Y-70405291D01*
X122403332Y-70100729D01*
X122402125Y-70045384D01*
X122398937Y-69899271D01*
X173206668Y-69899271D01*
X173206755Y-69903273D01*
X173206755Y-69903280D01*
X173213261Y-70201448D01*
X173213349Y-70205465D01*
X173258883Y-70508330D01*
X173259979Y-70512190D01*
X173259980Y-70512195D01*
X173268456Y-70542049D01*
X173342531Y-70802953D01*
X173462937Y-71084560D01*
X173618149Y-71348585D01*
X173805651Y-71590747D01*
X174022404Y-71807122D01*
X174025585Y-71809576D01*
X174025586Y-71809577D01*
X174261701Y-71991739D01*
X174261705Y-71991742D01*
X174264894Y-71994202D01*
X174268373Y-71996239D01*
X174445179Y-72099763D01*
X174529189Y-72148953D01*
X174532874Y-72150521D01*
X174532878Y-72150523D01*
X174670098Y-72208910D01*
X174811006Y-72268867D01*
X175105775Y-72352001D01*
X175252942Y-72373864D01*
X175405419Y-72396516D01*
X175405421Y-72396516D01*
X175408718Y-72397006D01*
X175412049Y-72397146D01*
X175412053Y-72397146D01*
X175448737Y-72398683D01*
X175492084Y-72400500D01*
X175687474Y-72400500D01*
X175810915Y-72392626D01*
X175911639Y-72386201D01*
X175911644Y-72386200D01*
X175915647Y-72385945D01*
X175919584Y-72385183D01*
X175919586Y-72385183D01*
X176212401Y-72328530D01*
X176212405Y-72328529D01*
X176216338Y-72327768D01*
X176507200Y-72231856D01*
X176783518Y-72099763D01*
X176950818Y-71991739D01*
X177037439Y-71935809D01*
X177037440Y-71935808D01*
X177040812Y-71933631D01*
X177274910Y-71736152D01*
X177482019Y-71510529D01*
X177658780Y-71260418D01*
X177802328Y-70989874D01*
X177859996Y-70836856D01*
X177908919Y-70707044D01*
X177908921Y-70707038D01*
X177910336Y-70703283D01*
X177955646Y-70512354D01*
X177980124Y-70409207D01*
X177980125Y-70409202D01*
X177981053Y-70405291D01*
X178013332Y-70100729D01*
X178012125Y-70045384D01*
X178006739Y-69798552D01*
X178006739Y-69798547D01*
X178006651Y-69794535D01*
X177961117Y-69491670D01*
X177877469Y-69197047D01*
X177757063Y-68915440D01*
X177601851Y-68651415D01*
X177414349Y-68409253D01*
X177197596Y-68192878D01*
X177125806Y-68137492D01*
X176958299Y-68008261D01*
X176958295Y-68008258D01*
X176955106Y-68005798D01*
X176826459Y-67930472D01*
X176694275Y-67853075D01*
X176694272Y-67853073D01*
X176690811Y-67851047D01*
X176687126Y-67849479D01*
X176687122Y-67849477D01*
X176500051Y-67769878D01*
X176408994Y-67731133D01*
X176114225Y-67647999D01*
X175843478Y-67607777D01*
X175814581Y-67603484D01*
X175814579Y-67603484D01*
X175811282Y-67602994D01*
X175807951Y-67602854D01*
X175807947Y-67602854D01*
X175771263Y-67601317D01*
X175727916Y-67599500D01*
X175532526Y-67599500D01*
X175409085Y-67607374D01*
X175308361Y-67613799D01*
X175308356Y-67613800D01*
X175304353Y-67614055D01*
X175300416Y-67614817D01*
X175300414Y-67614817D01*
X175007599Y-67671470D01*
X175007595Y-67671471D01*
X175003662Y-67672232D01*
X174712800Y-67768144D01*
X174436482Y-67900237D01*
X174179188Y-68066369D01*
X173945090Y-68263848D01*
X173836657Y-68381974D01*
X173749061Y-68477401D01*
X173737981Y-68489471D01*
X173561220Y-68739582D01*
X173417672Y-69010126D01*
X173416257Y-69013882D01*
X173416256Y-69013883D01*
X173338092Y-69221286D01*
X173309664Y-69296717D01*
X173308735Y-69300632D01*
X173240054Y-69590046D01*
X173238947Y-69594709D01*
X173206668Y-69899271D01*
X122398937Y-69899271D01*
X122396739Y-69798552D01*
X122396739Y-69798547D01*
X122396651Y-69794535D01*
X122351117Y-69491670D01*
X122267469Y-69197047D01*
X122147063Y-68915440D01*
X121991851Y-68651415D01*
X121804349Y-68409253D01*
X121587596Y-68192878D01*
X121515806Y-68137492D01*
X121348299Y-68008261D01*
X121348295Y-68008258D01*
X121345106Y-68005798D01*
X121216459Y-67930472D01*
X121084275Y-67853075D01*
X121084272Y-67853073D01*
X121080811Y-67851047D01*
X121077126Y-67849479D01*
X121077122Y-67849477D01*
X120890051Y-67769878D01*
X120798994Y-67731133D01*
X120504225Y-67647999D01*
X120233478Y-67607777D01*
X120204581Y-67603484D01*
X120204579Y-67603484D01*
X120201282Y-67602994D01*
X120197951Y-67602854D01*
X120197947Y-67602854D01*
X120161263Y-67601317D01*
X120117916Y-67599500D01*
X119922526Y-67599500D01*
X119799085Y-67607374D01*
X119698361Y-67613799D01*
X119698356Y-67613800D01*
X119694353Y-67614055D01*
X119690416Y-67614817D01*
X119690414Y-67614817D01*
X119397599Y-67671470D01*
X119397595Y-67671471D01*
X119393662Y-67672232D01*
X119102800Y-67768144D01*
X118826482Y-67900237D01*
X118569188Y-68066369D01*
X118335090Y-68263848D01*
X118226657Y-68381974D01*
X118139061Y-68477401D01*
X118127981Y-68489471D01*
X117951220Y-68739582D01*
X117807672Y-69010126D01*
X117806257Y-69013882D01*
X117806256Y-69013883D01*
X117728092Y-69221286D01*
X117699664Y-69296717D01*
X117698735Y-69300632D01*
X117630054Y-69590046D01*
X117628947Y-69594709D01*
X117596668Y-69899271D01*
X114240500Y-69899271D01*
X114240500Y-68200797D01*
X114240376Y-68198818D01*
X114240375Y-68198802D01*
X114228232Y-68005798D01*
X114225569Y-67963473D01*
X114166140Y-67651938D01*
X114077673Y-67379662D01*
X114069361Y-67354081D01*
X114069361Y-67354080D01*
X114068135Y-67350308D01*
X114066446Y-67346718D01*
X113934786Y-67066925D01*
X113934782Y-67066918D01*
X113933098Y-67063339D01*
X113763159Y-66795558D01*
X113652830Y-66662194D01*
X113563523Y-66554240D01*
X113563522Y-66554239D01*
X113560998Y-66551188D01*
X113452915Y-66449691D01*
X113332690Y-66336793D01*
X113332689Y-66336793D01*
X113329803Y-66334082D01*
X113184394Y-66228436D01*
X113141040Y-66172214D01*
X113134965Y-66101478D01*
X113168096Y-66038686D01*
X113229917Y-66003774D01*
X113258455Y-66000500D01*
X141776896Y-66000500D01*
X141845017Y-66020502D01*
X141891510Y-66074158D01*
X141901745Y-66109510D01*
X141903907Y-66125395D01*
X141978792Y-66382317D01*
X142090831Y-66625348D01*
X142123072Y-66674524D01*
X142234996Y-66845236D01*
X142235000Y-66845241D01*
X142237562Y-66849149D01*
X142415760Y-67048803D01*
X142621512Y-67219925D01*
X142625505Y-67222348D01*
X142846306Y-67356334D01*
X142846310Y-67356336D01*
X142850298Y-67358756D01*
X142854606Y-67360563D01*
X142854607Y-67360563D01*
X143092776Y-67460436D01*
X143092781Y-67460438D01*
X143097091Y-67462245D01*
X143101623Y-67463396D01*
X143101626Y-67463397D01*
X143351933Y-67526967D01*
X143351936Y-67526968D01*
X143356470Y-67528119D01*
X143361126Y-67528588D01*
X143361127Y-67528588D01*
X143575602Y-67550184D01*
X143575603Y-67550184D01*
X143578741Y-67550500D01*
X146737944Y-67550500D01*
X146740267Y-67550327D01*
X146740277Y-67550327D01*
X146932212Y-67536064D01*
X146932216Y-67536063D01*
X146936877Y-67535717D01*
X146941441Y-67534684D01*
X146941443Y-67534684D01*
X147143604Y-67488939D01*
X147197891Y-67476655D01*
X147231984Y-67463397D01*
X147442956Y-67381355D01*
X147442958Y-67381354D01*
X147447309Y-67379662D01*
X147488125Y-67356334D01*
X147561046Y-67314656D01*
X147679650Y-67246868D01*
X147889811Y-67081190D01*
X148073175Y-66886269D01*
X148225714Y-66666385D01*
X148256815Y-66603319D01*
X148342011Y-66430559D01*
X148342012Y-66430556D01*
X148344076Y-66426371D01*
X148425662Y-66171497D01*
X148436288Y-66106247D01*
X148466980Y-66042228D01*
X148527410Y-66004963D01*
X148560650Y-66000500D01*
X183081545Y-66000500D01*
X183149666Y-66020502D01*
X183196159Y-66074158D01*
X183206263Y-66144432D01*
X183176769Y-66209012D01*
X183155606Y-66228436D01*
X183010197Y-66334082D01*
X183007311Y-66336793D01*
X183007310Y-66336793D01*
X182887086Y-66449691D01*
X182779002Y-66551188D01*
X182776478Y-66554239D01*
X182776477Y-66554240D01*
X182687170Y-66662194D01*
X182576841Y-66795558D01*
X182406902Y-67063339D01*
X182405218Y-67066918D01*
X182405214Y-67066925D01*
X182273554Y-67346718D01*
X182271865Y-67350308D01*
X182270639Y-67354080D01*
X182270639Y-67354081D01*
X182262327Y-67379662D01*
X182173860Y-67651938D01*
X182114431Y-67963473D01*
X182111768Y-68005798D01*
X182099625Y-68198802D01*
X182099624Y-68198818D01*
X182099500Y-68200797D01*
X182099500Y-71799203D01*
X182099624Y-71801182D01*
X182099625Y-71801198D01*
X182102997Y-71854784D01*
X182114431Y-72036527D01*
X182173860Y-72348062D01*
X182175087Y-72351838D01*
X182253492Y-72593144D01*
X182271865Y-72649692D01*
X182273552Y-72653278D01*
X182273554Y-72653282D01*
X182405214Y-72933075D01*
X182405218Y-72933082D01*
X182406902Y-72936661D01*
X182576841Y-73204442D01*
X182779002Y-73448812D01*
X183010197Y-73665918D01*
X183266779Y-73852336D01*
X183544702Y-74005125D01*
X183704993Y-74068589D01*
X183835900Y-74120419D01*
X183835903Y-74120420D01*
X183839583Y-74121877D01*
X183843417Y-74122861D01*
X183843425Y-74122864D01*
X184033766Y-74171735D01*
X184146772Y-74200750D01*
X184150700Y-74201246D01*
X184150704Y-74201247D01*
X184275041Y-74216954D01*
X184461424Y-74240500D01*
X184778576Y-74240500D01*
X184964959Y-74216954D01*
X185089296Y-74201247D01*
X185089300Y-74201246D01*
X185093228Y-74200750D01*
X185206234Y-74171735D01*
X185396575Y-74122864D01*
X185396583Y-74122861D01*
X185400417Y-74121877D01*
X185404097Y-74120420D01*
X185404100Y-74120419D01*
X185535007Y-74068589D01*
X185695298Y-74005125D01*
X185973221Y-73852336D01*
X186229803Y-73665918D01*
X186460998Y-73448812D01*
X186663159Y-73204442D01*
X186833098Y-72936661D01*
X186834782Y-72933082D01*
X186834786Y-72933075D01*
X186966446Y-72653282D01*
X186966448Y-72653278D01*
X186968135Y-72649692D01*
X186986509Y-72593144D01*
X187064913Y-72351838D01*
X187066140Y-72348062D01*
X187125569Y-72036527D01*
X187137003Y-71854784D01*
X187140375Y-71801198D01*
X187140376Y-71801182D01*
X187140500Y-71799203D01*
X187140500Y-71761671D01*
X196060739Y-71761671D01*
X196089614Y-71952599D01*
X196091820Y-71958594D01*
X196091820Y-71958595D01*
X196154086Y-72127832D01*
X196154088Y-72127836D01*
X196156290Y-72133821D01*
X196258045Y-72297934D01*
X196390721Y-72438235D01*
X196395951Y-72441897D01*
X196395952Y-72441898D01*
X196478257Y-72499528D01*
X196548898Y-72548991D01*
X196726115Y-72625680D01*
X196732363Y-72626985D01*
X196732362Y-72626985D01*
X196910388Y-72664177D01*
X196910392Y-72664177D01*
X196915133Y-72665168D01*
X196921468Y-72665500D01*
X197063259Y-72665500D01*
X197183542Y-72653282D01*
X197200761Y-72651533D01*
X197200762Y-72651533D01*
X197207110Y-72650888D01*
X197391373Y-72593144D01*
X197560261Y-72499528D01*
X197706875Y-72373864D01*
X197710787Y-72368821D01*
X197821311Y-72226335D01*
X197821313Y-72226332D01*
X197825227Y-72221286D01*
X197910481Y-72048026D01*
X197912088Y-72041856D01*
X197912090Y-72041851D01*
X197957545Y-71867345D01*
X197957545Y-71867342D01*
X197959155Y-71861163D01*
X197969261Y-71668329D01*
X197940386Y-71477401D01*
X197894159Y-71351758D01*
X197875914Y-71302168D01*
X197875912Y-71302164D01*
X197873710Y-71296179D01*
X197771955Y-71132066D01*
X197639279Y-70991765D01*
X197557672Y-70934623D01*
X197486335Y-70884673D01*
X197486334Y-70884672D01*
X197481102Y-70881009D01*
X197303885Y-70804320D01*
X197262853Y-70795748D01*
X197119612Y-70765823D01*
X197119608Y-70765823D01*
X197114867Y-70764832D01*
X197108532Y-70764500D01*
X196966741Y-70764500D01*
X196896351Y-70771650D01*
X196829239Y-70778467D01*
X196829238Y-70778467D01*
X196822890Y-70779112D01*
X196638627Y-70836856D01*
X196469739Y-70930472D01*
X196323125Y-71056136D01*
X196319214Y-71061178D01*
X196319213Y-71061179D01*
X196260019Y-71137492D01*
X196204773Y-71208714D01*
X196119519Y-71381974D01*
X196117912Y-71388144D01*
X196117910Y-71388149D01*
X196072455Y-71562655D01*
X196070845Y-71568837D01*
X196060739Y-71761671D01*
X187140500Y-71761671D01*
X187140500Y-68761671D01*
X196060739Y-68761671D01*
X196089614Y-68952599D01*
X196091820Y-68958594D01*
X196091820Y-68958595D01*
X196154086Y-69127832D01*
X196154088Y-69127836D01*
X196156290Y-69133821D01*
X196258045Y-69297934D01*
X196390721Y-69438235D01*
X196395951Y-69441897D01*
X196395952Y-69441898D01*
X196472700Y-69495637D01*
X196548898Y-69548991D01*
X196726115Y-69625680D01*
X196732363Y-69626985D01*
X196732362Y-69626985D01*
X196910388Y-69664177D01*
X196910392Y-69664177D01*
X196915133Y-69665168D01*
X196921468Y-69665500D01*
X197063259Y-69665500D01*
X197133649Y-69658350D01*
X197200761Y-69651533D01*
X197200762Y-69651533D01*
X197207110Y-69650888D01*
X197391373Y-69593144D01*
X197560261Y-69499528D01*
X197706875Y-69373864D01*
X197740746Y-69330198D01*
X197821311Y-69226335D01*
X197821313Y-69226332D01*
X197825227Y-69221286D01*
X197910481Y-69048026D01*
X197912088Y-69041856D01*
X197912090Y-69041851D01*
X197957545Y-68867345D01*
X197957545Y-68867342D01*
X197959155Y-68861163D01*
X197965527Y-68739582D01*
X197968927Y-68674710D01*
X197968927Y-68674706D01*
X197969261Y-68668329D01*
X197940386Y-68477401D01*
X197903170Y-68376250D01*
X197875914Y-68302168D01*
X197875912Y-68302164D01*
X197873710Y-68296179D01*
X197771955Y-68132066D01*
X197694002Y-68049633D01*
X197643666Y-67996404D01*
X197643665Y-67996403D01*
X197639279Y-67991765D01*
X197604534Y-67967436D01*
X197486335Y-67884673D01*
X197486334Y-67884672D01*
X197481102Y-67881009D01*
X197303885Y-67804320D01*
X197262853Y-67795748D01*
X197119612Y-67765823D01*
X197119608Y-67765823D01*
X197114867Y-67764832D01*
X197108532Y-67764500D01*
X196966741Y-67764500D01*
X196943252Y-67766886D01*
X196829239Y-67778467D01*
X196829238Y-67778467D01*
X196822890Y-67779112D01*
X196638627Y-67836856D01*
X196469739Y-67930472D01*
X196323125Y-68056136D01*
X196319214Y-68061178D01*
X196319213Y-68061179D01*
X196212462Y-68198802D01*
X196204773Y-68208714D01*
X196119519Y-68381974D01*
X196117912Y-68388144D01*
X196117910Y-68388149D01*
X196091518Y-68489471D01*
X196070845Y-68568837D01*
X196069294Y-68598429D01*
X196061897Y-68739582D01*
X196060739Y-68761671D01*
X187140500Y-68761671D01*
X187140500Y-68200797D01*
X187140376Y-68198818D01*
X187140375Y-68198802D01*
X187128232Y-68005798D01*
X187125569Y-67963473D01*
X187066140Y-67651938D01*
X186977673Y-67379662D01*
X186969361Y-67354081D01*
X186969361Y-67354080D01*
X186968135Y-67350308D01*
X186966446Y-67346718D01*
X186834786Y-67066925D01*
X186834782Y-67066918D01*
X186833098Y-67063339D01*
X186663159Y-66795558D01*
X186552830Y-66662194D01*
X186463523Y-66554240D01*
X186463522Y-66554239D01*
X186460998Y-66551188D01*
X186352915Y-66449691D01*
X186232690Y-66336793D01*
X186232689Y-66336793D01*
X186229803Y-66334082D01*
X186084394Y-66228436D01*
X186041040Y-66172214D01*
X186034965Y-66101478D01*
X186068096Y-66038686D01*
X186129917Y-66003774D01*
X186158455Y-66000500D01*
X199293500Y-66000500D01*
X199361621Y-66020502D01*
X199408114Y-66074158D01*
X199419500Y-66126500D01*
X199419500Y-98784425D01*
X199399498Y-98852546D01*
X199345842Y-98899039D01*
X199275568Y-98909143D01*
X199217935Y-98885251D01*
X199120005Y-98811856D01*
X199112824Y-98806474D01*
X199023439Y-98772966D01*
X198985975Y-98758921D01*
X198985973Y-98758921D01*
X198978580Y-98756149D01*
X198970730Y-98755296D01*
X198970729Y-98755296D01*
X198920774Y-98749869D01*
X198920773Y-98749869D01*
X198917377Y-98749500D01*
X197870154Y-98749500D01*
X196822624Y-98749501D01*
X196819230Y-98749870D01*
X196819224Y-98749870D01*
X196769278Y-98755295D01*
X196769274Y-98755296D01*
X196761420Y-98756149D01*
X196627176Y-98806474D01*
X196619997Y-98811854D01*
X196619994Y-98811856D01*
X196522065Y-98885251D01*
X196512454Y-98892454D01*
X196507072Y-98899635D01*
X196431856Y-98999994D01*
X196431854Y-98999997D01*
X196426474Y-99007176D01*
X196376149Y-99141420D01*
X196369500Y-99202623D01*
X196369501Y-101297376D01*
X196369870Y-101300770D01*
X196369870Y-101300776D01*
X196375205Y-101349887D01*
X196376149Y-101358580D01*
X196426474Y-101492824D01*
X196431854Y-101500003D01*
X196431856Y-101500006D01*
X196499230Y-101589901D01*
X196512454Y-101607546D01*
X196519635Y-101612928D01*
X196619994Y-101688144D01*
X196619997Y-101688146D01*
X196627176Y-101693526D01*
X196685993Y-101715575D01*
X196754025Y-101741079D01*
X196754027Y-101741079D01*
X196761420Y-101743851D01*
X196769270Y-101744704D01*
X196769271Y-101744704D01*
X196819217Y-101750130D01*
X196822623Y-101750500D01*
X197869846Y-101750500D01*
X198917376Y-101750499D01*
X198920770Y-101750130D01*
X198920776Y-101750130D01*
X198970722Y-101744705D01*
X198970726Y-101744704D01*
X198978580Y-101743851D01*
X199112824Y-101693526D01*
X199217935Y-101614749D01*
X199284441Y-101589901D01*
X199353823Y-101604954D01*
X199404054Y-101655128D01*
X199419500Y-101715575D01*
X199419500Y-110451259D01*
X199418000Y-110470643D01*
X199414391Y-110493823D01*
X199415555Y-110502726D01*
X199415555Y-110502728D01*
X199417001Y-110513791D01*
X199417944Y-110535620D01*
X199402618Y-110886661D01*
X199401660Y-110897610D01*
X199353899Y-111260395D01*
X199351860Y-111275879D01*
X199349952Y-111286696D01*
X199279045Y-111606540D01*
X199267374Y-111659184D01*
X199264529Y-111669801D01*
X199168225Y-111975243D01*
X199149803Y-112033669D01*
X199146047Y-112043991D01*
X199012301Y-112366883D01*
X199000035Y-112396495D01*
X198995398Y-112406439D01*
X198819217Y-112744878D01*
X198813727Y-112754387D01*
X198608734Y-113076162D01*
X198602430Y-113085166D01*
X198498106Y-113221124D01*
X198395811Y-113354438D01*
X198370162Y-113387864D01*
X198363098Y-113396281D01*
X198129496Y-113651214D01*
X198105344Y-113677571D01*
X198097571Y-113685344D01*
X197816284Y-113943096D01*
X197807864Y-113950162D01*
X197505166Y-114182430D01*
X197496162Y-114188734D01*
X197174387Y-114393727D01*
X197164878Y-114399217D01*
X196826439Y-114575398D01*
X196816504Y-114580031D01*
X196463991Y-114726047D01*
X196453677Y-114729800D01*
X196090278Y-114844379D01*
X196089802Y-114844529D01*
X196079185Y-114847374D01*
X195706696Y-114929952D01*
X195695887Y-114931859D01*
X195317611Y-114981660D01*
X195306662Y-114982618D01*
X194962957Y-114997624D01*
X194938080Y-114996244D01*
X194936430Y-114995987D01*
X194935049Y-114995772D01*
X194935048Y-114995772D01*
X194926177Y-114994391D01*
X194917275Y-114995555D01*
X194917272Y-114995555D01*
X194895244Y-114998436D01*
X194878907Y-114999500D01*
X104968741Y-114999500D01*
X104949357Y-114998000D01*
X104935048Y-114995772D01*
X104935047Y-114995772D01*
X104926177Y-114994391D01*
X104917274Y-114995555D01*
X104917272Y-114995555D01*
X104906209Y-114997001D01*
X104884380Y-114997944D01*
X104562245Y-114983880D01*
X104533338Y-114982618D01*
X104522389Y-114981660D01*
X104144113Y-114931859D01*
X104133304Y-114929952D01*
X103760815Y-114847374D01*
X103750198Y-114844529D01*
X103749722Y-114844379D01*
X103386323Y-114729800D01*
X103376009Y-114726047D01*
X103023496Y-114580031D01*
X103013561Y-114575398D01*
X102675122Y-114399217D01*
X102665613Y-114393727D01*
X102343838Y-114188734D01*
X102334834Y-114182430D01*
X102032136Y-113950162D01*
X102023716Y-113943096D01*
X101742429Y-113685344D01*
X101734656Y-113677571D01*
X101710505Y-113651214D01*
X101476902Y-113396281D01*
X101469838Y-113387864D01*
X101444190Y-113354438D01*
X101341894Y-113221124D01*
X101237570Y-113085166D01*
X101231266Y-113076162D01*
X101026273Y-112754387D01*
X101020783Y-112744878D01*
X100849138Y-112415152D01*
X173021678Y-112415152D01*
X173048495Y-112636758D01*
X173114131Y-112850114D01*
X173216513Y-113048473D01*
X173219922Y-113052915D01*
X173219924Y-113052919D01*
X173348992Y-113221124D01*
X173352402Y-113225568D01*
X173517505Y-113375800D01*
X173706602Y-113494421D01*
X173773999Y-113521514D01*
X173907319Y-113575108D01*
X173913717Y-113577680D01*
X173919205Y-113578817D01*
X173919210Y-113578818D01*
X174069508Y-113609943D01*
X174132302Y-113622947D01*
X174136915Y-113623213D01*
X174187138Y-113626109D01*
X174187142Y-113626109D01*
X174188961Y-113626214D01*
X174333242Y-113626214D01*
X174336029Y-113625965D01*
X174336035Y-113625965D01*
X174405609Y-113619755D01*
X174498951Y-113611425D01*
X174504365Y-113609944D01*
X174504370Y-113609943D01*
X174631716Y-113575104D01*
X174714263Y-113552522D01*
X174719321Y-113550110D01*
X174719325Y-113550108D01*
X174836074Y-113494421D01*
X174915741Y-113456422D01*
X175097017Y-113326162D01*
X175170273Y-113250568D01*
X175248458Y-113169888D01*
X175248460Y-113169885D01*
X175252361Y-113165860D01*
X175376862Y-112980582D01*
X175466586Y-112776185D01*
X175467894Y-112770737D01*
X175467896Y-112770731D01*
X175517387Y-112564586D01*
X175517387Y-112564585D01*
X175518697Y-112559129D01*
X175525557Y-112440152D01*
X183367566Y-112440152D01*
X183394383Y-112661758D01*
X183460019Y-112875114D01*
X183462595Y-112880104D01*
X183462595Y-112880105D01*
X183524702Y-113000434D01*
X183562401Y-113073473D01*
X183565810Y-113077915D01*
X183565812Y-113077919D01*
X183652475Y-113190860D01*
X183698290Y-113250568D01*
X183863393Y-113400800D01*
X184052490Y-113519421D01*
X184259605Y-113602680D01*
X184265093Y-113603817D01*
X184265098Y-113603818D01*
X184415396Y-113634943D01*
X184478190Y-113647947D01*
X184482803Y-113648213D01*
X184533026Y-113651109D01*
X184533030Y-113651109D01*
X184534849Y-113651214D01*
X184679130Y-113651214D01*
X184681917Y-113650965D01*
X184681923Y-113650965D01*
X184751497Y-113644755D01*
X184844839Y-113636425D01*
X184850253Y-113634944D01*
X184850258Y-113634943D01*
X184977604Y-113600104D01*
X185060151Y-113577522D01*
X185065209Y-113575110D01*
X185065213Y-113575108D01*
X185181962Y-113519421D01*
X185261629Y-113481422D01*
X185442905Y-113351162D01*
X185560962Y-113229337D01*
X185594346Y-113194888D01*
X185594348Y-113194885D01*
X185598249Y-113190860D01*
X185722750Y-113005582D01*
X185812474Y-112801185D01*
X185813782Y-112795737D01*
X185813784Y-112795731D01*
X185863275Y-112589586D01*
X185863275Y-112589585D01*
X185864585Y-112584129D01*
X185875111Y-112401571D01*
X185877111Y-112366883D01*
X185877111Y-112366880D01*
X185877434Y-112361276D01*
X185850617Y-112139670D01*
X185784981Y-111926314D01*
X185682599Y-111727955D01*
X185679190Y-111723513D01*
X185679188Y-111723509D01*
X185550120Y-111555304D01*
X185546710Y-111550860D01*
X185381607Y-111400628D01*
X185192510Y-111282007D01*
X185035509Y-111218893D01*
X184990597Y-111200839D01*
X184990595Y-111200838D01*
X184985395Y-111198748D01*
X184979907Y-111197611D01*
X184979902Y-111197610D01*
X184815345Y-111163532D01*
X184766810Y-111153481D01*
X184762197Y-111153215D01*
X184711974Y-111150319D01*
X184711970Y-111150319D01*
X184710151Y-111150214D01*
X184565870Y-111150214D01*
X184563083Y-111150463D01*
X184563077Y-111150463D01*
X184493503Y-111156673D01*
X184400161Y-111165003D01*
X184394747Y-111166484D01*
X184394742Y-111166485D01*
X184285832Y-111196280D01*
X184184849Y-111223906D01*
X184179791Y-111226318D01*
X184179787Y-111226320D01*
X184115451Y-111257007D01*
X183983371Y-111320006D01*
X183802095Y-111450266D01*
X183798188Y-111454298D01*
X183666468Y-111590222D01*
X183646751Y-111610568D01*
X183522250Y-111795846D01*
X183432526Y-112000243D01*
X183431218Y-112005691D01*
X183431216Y-112005697D01*
X183387727Y-112186842D01*
X183380415Y-112217299D01*
X183380092Y-112222904D01*
X183369331Y-112409545D01*
X183367566Y-112440152D01*
X175525557Y-112440152D01*
X175528074Y-112396495D01*
X175531223Y-112341883D01*
X175531223Y-112341880D01*
X175531546Y-112336276D01*
X175504729Y-112114670D01*
X175439093Y-111901314D01*
X175382251Y-111791185D01*
X175339284Y-111707940D01*
X175336711Y-111702955D01*
X175333302Y-111698513D01*
X175333300Y-111698509D01*
X175204232Y-111530304D01*
X175200822Y-111525860D01*
X175035719Y-111375628D01*
X174846622Y-111257007D01*
X174639507Y-111173748D01*
X174634019Y-111172611D01*
X174634014Y-111172610D01*
X174447886Y-111134065D01*
X174420922Y-111128481D01*
X174416309Y-111128215D01*
X174366086Y-111125319D01*
X174366082Y-111125319D01*
X174364263Y-111125214D01*
X174219982Y-111125214D01*
X174217195Y-111125463D01*
X174217189Y-111125463D01*
X174147615Y-111131673D01*
X174054273Y-111140003D01*
X174048859Y-111141484D01*
X174048854Y-111141485D01*
X173939944Y-111171280D01*
X173838961Y-111198906D01*
X173833903Y-111201318D01*
X173833899Y-111201320D01*
X173766324Y-111233552D01*
X173637483Y-111295006D01*
X173456207Y-111425266D01*
X173452300Y-111429298D01*
X173334498Y-111550860D01*
X173300863Y-111585568D01*
X173176362Y-111770846D01*
X173086638Y-111975243D01*
X173085330Y-111980691D01*
X173085328Y-111980697D01*
X173047162Y-112139670D01*
X173034527Y-112192299D01*
X173029671Y-112276517D01*
X173022754Y-112396495D01*
X173021678Y-112415152D01*
X100849138Y-112415152D01*
X100844602Y-112406439D01*
X100839965Y-112396495D01*
X100827700Y-112366883D01*
X100693953Y-112043991D01*
X100690197Y-112033669D01*
X100671776Y-111975243D01*
X100575471Y-111669801D01*
X100572626Y-111659184D01*
X100560955Y-111606540D01*
X100490048Y-111286696D01*
X100488140Y-111275879D01*
X100486102Y-111260395D01*
X100438340Y-110897610D01*
X100437382Y-110886661D01*
X100422538Y-110546671D01*
X100424164Y-110520272D01*
X100424689Y-110517153D01*
X100424689Y-110517149D01*
X100425496Y-110512354D01*
X100425647Y-110500000D01*
X100421773Y-110472949D01*
X100420500Y-110455087D01*
X100420500Y-109838928D01*
X170171418Y-109838928D01*
X170171715Y-109844080D01*
X170171715Y-109844084D01*
X170177587Y-109945911D01*
X170185622Y-110085259D01*
X170186759Y-110090305D01*
X170186760Y-110090311D01*
X170208948Y-110188765D01*
X170239867Y-110325963D01*
X170332696Y-110554575D01*
X170461618Y-110764955D01*
X170623169Y-110951455D01*
X170627144Y-110954755D01*
X170627147Y-110954758D01*
X170657260Y-110979758D01*
X170813011Y-111109065D01*
X171026045Y-111233552D01*
X171030865Y-111235392D01*
X171030870Y-111235395D01*
X171145159Y-111279037D01*
X171256551Y-111321573D01*
X171261619Y-111322604D01*
X171261622Y-111322605D01*
X171370359Y-111344728D01*
X171498338Y-111370766D01*
X171503511Y-111370956D01*
X171503514Y-111370956D01*
X171739748Y-111379618D01*
X171739752Y-111379618D01*
X171744912Y-111379807D01*
X171750032Y-111379151D01*
X171750034Y-111379151D01*
X171826315Y-111369379D01*
X171989653Y-111348455D01*
X171994602Y-111346970D01*
X171994608Y-111346969D01*
X172221036Y-111279037D01*
X172221035Y-111279037D01*
X172225986Y-111277552D01*
X172382577Y-111200839D01*
X172442915Y-111171280D01*
X172442920Y-111171277D01*
X172447566Y-111169001D01*
X172451776Y-111165998D01*
X172451781Y-111165995D01*
X172644229Y-111028723D01*
X172644234Y-111028719D01*
X172648441Y-111025718D01*
X172823217Y-110851551D01*
X172967200Y-110651177D01*
X173076523Y-110429978D01*
X173139151Y-110223846D01*
X173146747Y-110198846D01*
X173146748Y-110198840D01*
X173148251Y-110193894D01*
X173163234Y-110080090D01*
X173180020Y-109952586D01*
X173180021Y-109952580D01*
X173180457Y-109949264D01*
X173182255Y-109875714D01*
X173179231Y-109838928D01*
X175371418Y-109838928D01*
X175371715Y-109844080D01*
X175371715Y-109844084D01*
X175377587Y-109945911D01*
X175385622Y-110085259D01*
X175386759Y-110090305D01*
X175386760Y-110090311D01*
X175408948Y-110188765D01*
X175439867Y-110325963D01*
X175532696Y-110554575D01*
X175661618Y-110764955D01*
X175823169Y-110951455D01*
X175827144Y-110954755D01*
X175827147Y-110954758D01*
X175857260Y-110979758D01*
X176013011Y-111109065D01*
X176226045Y-111233552D01*
X176230865Y-111235392D01*
X176230870Y-111235395D01*
X176345159Y-111279037D01*
X176456551Y-111321573D01*
X176461619Y-111322604D01*
X176461622Y-111322605D01*
X176570359Y-111344728D01*
X176698338Y-111370766D01*
X176703511Y-111370956D01*
X176703514Y-111370956D01*
X176939748Y-111379618D01*
X176939752Y-111379618D01*
X176944912Y-111379807D01*
X176950032Y-111379151D01*
X176950034Y-111379151D01*
X177026315Y-111369379D01*
X177189653Y-111348455D01*
X177194602Y-111346970D01*
X177194608Y-111346969D01*
X177421036Y-111279037D01*
X177421035Y-111279037D01*
X177425986Y-111277552D01*
X177582577Y-111200839D01*
X177642915Y-111171280D01*
X177642920Y-111171277D01*
X177647566Y-111169001D01*
X177651776Y-111165998D01*
X177651781Y-111165995D01*
X177844229Y-111028723D01*
X177844234Y-111028719D01*
X177848441Y-111025718D01*
X178023217Y-110851551D01*
X178167200Y-110651177D01*
X178276523Y-110429978D01*
X178339151Y-110223846D01*
X178346747Y-110198846D01*
X178346748Y-110198840D01*
X178348251Y-110193894D01*
X178363234Y-110080090D01*
X178380020Y-109952586D01*
X178380021Y-109952580D01*
X178380457Y-109949264D01*
X178382255Y-109875714D01*
X178381286Y-109863928D01*
X180517306Y-109863928D01*
X180517603Y-109869080D01*
X180517603Y-109869084D01*
X180522418Y-109952586D01*
X180531510Y-110110259D01*
X180532647Y-110115305D01*
X180532648Y-110115311D01*
X180549202Y-110188765D01*
X180585755Y-110350963D01*
X180678584Y-110579575D01*
X180807506Y-110789955D01*
X180969057Y-110976455D01*
X180973032Y-110979755D01*
X180973035Y-110979758D01*
X181032014Y-111028723D01*
X181158899Y-111134065D01*
X181371933Y-111258552D01*
X181376753Y-111260392D01*
X181376758Y-111260395D01*
X181491047Y-111304037D01*
X181602439Y-111346573D01*
X181607507Y-111347604D01*
X181607510Y-111347605D01*
X181716272Y-111369733D01*
X181844226Y-111395766D01*
X181849399Y-111395956D01*
X181849402Y-111395956D01*
X182085636Y-111404618D01*
X182085640Y-111404618D01*
X182090800Y-111404807D01*
X182095920Y-111404151D01*
X182095922Y-111404151D01*
X182172203Y-111394379D01*
X182335541Y-111373455D01*
X182340490Y-111371970D01*
X182340496Y-111371969D01*
X182566924Y-111304037D01*
X182566923Y-111304037D01*
X182571874Y-111302552D01*
X182675766Y-111251656D01*
X182788803Y-111196280D01*
X182788808Y-111196277D01*
X182793454Y-111194001D01*
X182797664Y-111190998D01*
X182797669Y-111190995D01*
X182990117Y-111053723D01*
X182990122Y-111053719D01*
X182994329Y-111050718D01*
X183169105Y-110876551D01*
X183313088Y-110676177D01*
X183327737Y-110646538D01*
X183394054Y-110512354D01*
X183422411Y-110454978D01*
X183463141Y-110320921D01*
X183492635Y-110223846D01*
X183492636Y-110223840D01*
X183494139Y-110218894D01*
X183526345Y-109974264D01*
X183528143Y-109900714D01*
X183525118Y-109863928D01*
X185717306Y-109863928D01*
X185717603Y-109869080D01*
X185717603Y-109869084D01*
X185722418Y-109952586D01*
X185731510Y-110110259D01*
X185732647Y-110115305D01*
X185732648Y-110115311D01*
X185749202Y-110188765D01*
X185785755Y-110350963D01*
X185878584Y-110579575D01*
X186007506Y-110789955D01*
X186169057Y-110976455D01*
X186173032Y-110979755D01*
X186173035Y-110979758D01*
X186232014Y-111028723D01*
X186358899Y-111134065D01*
X186571933Y-111258552D01*
X186576753Y-111260392D01*
X186576758Y-111260395D01*
X186691047Y-111304037D01*
X186802439Y-111346573D01*
X186807507Y-111347604D01*
X186807510Y-111347605D01*
X186916272Y-111369733D01*
X187044226Y-111395766D01*
X187049399Y-111395956D01*
X187049402Y-111395956D01*
X187285636Y-111404618D01*
X187285640Y-111404618D01*
X187290800Y-111404807D01*
X187295920Y-111404151D01*
X187295922Y-111404151D01*
X187372203Y-111394379D01*
X187535541Y-111373455D01*
X187540490Y-111371970D01*
X187540496Y-111371969D01*
X187766924Y-111304037D01*
X187766923Y-111304037D01*
X187771874Y-111302552D01*
X187875766Y-111251656D01*
X187988803Y-111196280D01*
X187988808Y-111196277D01*
X187993454Y-111194001D01*
X187997664Y-111190998D01*
X187997669Y-111190995D01*
X188190117Y-111053723D01*
X188190122Y-111053719D01*
X188194329Y-111050718D01*
X188369105Y-110876551D01*
X188513088Y-110676177D01*
X188527737Y-110646538D01*
X188594054Y-110512354D01*
X188622411Y-110454978D01*
X188663141Y-110320921D01*
X188692635Y-110223846D01*
X188692636Y-110223840D01*
X188694139Y-110218894D01*
X188726345Y-109974264D01*
X188728143Y-109900714D01*
X188720160Y-109803620D01*
X188708349Y-109659954D01*
X188708348Y-109659948D01*
X188707925Y-109654803D01*
X188647816Y-109415497D01*
X188549428Y-109189221D01*
X188415405Y-108982053D01*
X188389135Y-108953182D01*
X188362743Y-108924178D01*
X188249346Y-108799556D01*
X188245295Y-108796357D01*
X188245291Y-108796353D01*
X188059764Y-108649833D01*
X188059759Y-108649830D01*
X188055710Y-108646632D01*
X188051194Y-108644139D01*
X188051191Y-108644137D01*
X187844222Y-108529884D01*
X187844218Y-108529882D01*
X187839698Y-108527387D01*
X187834829Y-108525663D01*
X187834825Y-108525661D01*
X187611985Y-108446749D01*
X187611981Y-108446748D01*
X187607110Y-108445023D01*
X187602017Y-108444116D01*
X187602014Y-108444115D01*
X187369283Y-108402659D01*
X187369277Y-108402658D01*
X187364194Y-108401753D01*
X187284824Y-108400783D01*
X187122642Y-108398802D01*
X187122640Y-108398802D01*
X187117472Y-108398739D01*
X186873570Y-108436061D01*
X186639040Y-108512717D01*
X186634448Y-108515107D01*
X186634449Y-108515107D01*
X186429256Y-108621924D01*
X186420179Y-108626649D01*
X186416046Y-108629752D01*
X186416043Y-108629754D01*
X186251182Y-108753535D01*
X186222864Y-108774797D01*
X186219292Y-108778535D01*
X186079858Y-108924445D01*
X186052396Y-108953182D01*
X186049482Y-108957454D01*
X186049481Y-108957455D01*
X186029738Y-108986397D01*
X185913351Y-109157014D01*
X185898401Y-109189221D01*
X185821070Y-109355818D01*
X185809465Y-109380818D01*
X185743526Y-109618585D01*
X185717306Y-109863928D01*
X183525118Y-109863928D01*
X183520160Y-109803620D01*
X183508349Y-109659954D01*
X183508348Y-109659948D01*
X183507925Y-109654803D01*
X183447816Y-109415497D01*
X183349428Y-109189221D01*
X183215405Y-108982053D01*
X183189135Y-108953182D01*
X183162743Y-108924178D01*
X183049346Y-108799556D01*
X183045295Y-108796357D01*
X183045291Y-108796353D01*
X182859764Y-108649833D01*
X182859759Y-108649830D01*
X182855710Y-108646632D01*
X182851194Y-108644139D01*
X182851191Y-108644137D01*
X182644222Y-108529884D01*
X182644218Y-108529882D01*
X182639698Y-108527387D01*
X182634829Y-108525663D01*
X182634825Y-108525661D01*
X182411985Y-108446749D01*
X182411981Y-108446748D01*
X182407110Y-108445023D01*
X182402017Y-108444116D01*
X182402014Y-108444115D01*
X182169283Y-108402659D01*
X182169277Y-108402658D01*
X182164194Y-108401753D01*
X182084824Y-108400783D01*
X181922642Y-108398802D01*
X181922640Y-108398802D01*
X181917472Y-108398739D01*
X181673570Y-108436061D01*
X181439040Y-108512717D01*
X181434448Y-108515107D01*
X181434449Y-108515107D01*
X181229256Y-108621924D01*
X181220179Y-108626649D01*
X181216046Y-108629752D01*
X181216043Y-108629754D01*
X181051182Y-108753535D01*
X181022864Y-108774797D01*
X181019292Y-108778535D01*
X180879858Y-108924445D01*
X180852396Y-108953182D01*
X180849482Y-108957454D01*
X180849481Y-108957455D01*
X180829738Y-108986397D01*
X180713351Y-109157014D01*
X180698401Y-109189221D01*
X180621070Y-109355818D01*
X180609465Y-109380818D01*
X180543526Y-109618585D01*
X180517306Y-109863928D01*
X178381286Y-109863928D01*
X178364516Y-109659954D01*
X178362461Y-109634954D01*
X178362460Y-109634948D01*
X178362037Y-109629803D01*
X178301928Y-109390497D01*
X178203540Y-109164221D01*
X178069517Y-108957053D01*
X178062595Y-108949445D01*
X178016855Y-108899178D01*
X177903458Y-108774556D01*
X177899407Y-108771357D01*
X177899403Y-108771353D01*
X177713876Y-108624833D01*
X177713871Y-108624830D01*
X177709822Y-108621632D01*
X177705306Y-108619139D01*
X177705303Y-108619137D01*
X177498334Y-108504884D01*
X177498330Y-108504882D01*
X177493810Y-108502387D01*
X177488941Y-108500663D01*
X177488937Y-108500661D01*
X177266097Y-108421749D01*
X177266093Y-108421748D01*
X177261222Y-108420023D01*
X177256129Y-108419116D01*
X177256126Y-108419115D01*
X177023395Y-108377659D01*
X177023389Y-108377658D01*
X177018306Y-108376753D01*
X176938936Y-108375783D01*
X176776754Y-108373802D01*
X176776752Y-108373802D01*
X176771584Y-108373739D01*
X176527682Y-108411061D01*
X176293152Y-108487717D01*
X176074291Y-108601649D01*
X176070158Y-108604752D01*
X176070155Y-108604754D01*
X175881111Y-108746692D01*
X175876976Y-108749797D01*
X175706508Y-108928182D01*
X175703594Y-108932454D01*
X175703593Y-108932455D01*
X175686539Y-108957455D01*
X175567463Y-109132014D01*
X175463577Y-109355818D01*
X175397638Y-109593585D01*
X175371418Y-109838928D01*
X173179231Y-109838928D01*
X173164516Y-109659954D01*
X173162461Y-109634954D01*
X173162460Y-109634948D01*
X173162037Y-109629803D01*
X173101928Y-109390497D01*
X173003540Y-109164221D01*
X172869517Y-108957053D01*
X172862595Y-108949445D01*
X172816855Y-108899178D01*
X172703458Y-108774556D01*
X172699407Y-108771357D01*
X172699403Y-108771353D01*
X172513876Y-108624833D01*
X172513871Y-108624830D01*
X172509822Y-108621632D01*
X172505306Y-108619139D01*
X172505303Y-108619137D01*
X172298334Y-108504884D01*
X172298330Y-108504882D01*
X172293810Y-108502387D01*
X172288941Y-108500663D01*
X172288937Y-108500661D01*
X172066097Y-108421749D01*
X172066093Y-108421748D01*
X172061222Y-108420023D01*
X172056129Y-108419116D01*
X172056126Y-108419115D01*
X171823395Y-108377659D01*
X171823389Y-108377658D01*
X171818306Y-108376753D01*
X171738936Y-108375783D01*
X171576754Y-108373802D01*
X171576752Y-108373802D01*
X171571584Y-108373739D01*
X171327682Y-108411061D01*
X171093152Y-108487717D01*
X170874291Y-108601649D01*
X170870158Y-108604752D01*
X170870155Y-108604754D01*
X170681111Y-108746692D01*
X170676976Y-108749797D01*
X170506508Y-108928182D01*
X170503594Y-108932454D01*
X170503593Y-108932455D01*
X170486539Y-108957455D01*
X170367463Y-109132014D01*
X170263577Y-109355818D01*
X170197638Y-109593585D01*
X170171418Y-109838928D01*
X100420500Y-109838928D01*
X100420500Y-107425152D01*
X112267566Y-107425152D01*
X112294383Y-107646758D01*
X112360019Y-107860114D01*
X112362595Y-107865104D01*
X112362595Y-107865105D01*
X112398471Y-107934612D01*
X112462401Y-108058473D01*
X112465810Y-108062915D01*
X112465812Y-108062919D01*
X112510593Y-108121279D01*
X112598290Y-108235568D01*
X112763393Y-108385800D01*
X112952490Y-108504421D01*
X113097022Y-108562522D01*
X113133227Y-108577076D01*
X113159605Y-108587680D01*
X113165093Y-108588817D01*
X113165098Y-108588818D01*
X113311504Y-108619137D01*
X113378190Y-108632947D01*
X113382803Y-108633213D01*
X113433026Y-108636109D01*
X113433030Y-108636109D01*
X113434849Y-108636214D01*
X115910026Y-108636214D01*
X115919381Y-108636974D01*
X115919410Y-108636578D01*
X115925006Y-108636989D01*
X115930546Y-108637896D01*
X115936160Y-108637808D01*
X115936162Y-108637808D01*
X116036605Y-108636230D01*
X116038584Y-108636214D01*
X116079130Y-108636214D01*
X116081914Y-108635966D01*
X116081928Y-108635965D01*
X116083402Y-108635833D01*
X116092621Y-108635350D01*
X116153741Y-108634390D01*
X116159248Y-108633310D01*
X116159253Y-108633309D01*
X116192474Y-108626791D01*
X116205531Y-108624933D01*
X116244839Y-108621425D01*
X116303808Y-108605293D01*
X116312781Y-108603188D01*
X116333251Y-108599172D01*
X116367280Y-108592496D01*
X116367284Y-108592495D01*
X116372788Y-108591415D01*
X116387731Y-108585589D01*
X116409567Y-108577076D01*
X116422088Y-108572935D01*
X116454737Y-108564003D01*
X116454736Y-108564003D01*
X116460151Y-108562522D01*
X116515345Y-108536196D01*
X116523799Y-108532538D01*
X116575539Y-108512366D01*
X116575542Y-108512365D01*
X116580763Y-108510329D01*
X116593724Y-108502387D01*
X116614422Y-108489703D01*
X116625993Y-108483420D01*
X116661629Y-108466422D01*
X116711290Y-108430737D01*
X116718938Y-108425655D01*
X116771093Y-108393695D01*
X116775286Y-108389959D01*
X116775289Y-108389957D01*
X116800562Y-108367439D01*
X116810855Y-108359193D01*
X116838347Y-108339438D01*
X116838352Y-108339434D01*
X116842905Y-108336162D01*
X116885446Y-108292263D01*
X116892111Y-108285872D01*
X116933567Y-108248936D01*
X116933573Y-108248929D01*
X116937759Y-108245200D01*
X116945312Y-108235568D01*
X116962113Y-108214142D01*
X116970779Y-108204208D01*
X116994341Y-108179893D01*
X116994342Y-108179892D01*
X116998249Y-108175860D01*
X117032345Y-108125119D01*
X117037774Y-108117647D01*
X117072027Y-108073963D01*
X117072030Y-108073958D01*
X117075496Y-108069538D01*
X117093969Y-108034649D01*
X117100735Y-108023345D01*
X117119621Y-107995238D01*
X117122750Y-107990582D01*
X117125001Y-107985454D01*
X117125006Y-107985445D01*
X117147319Y-107934612D01*
X117151328Y-107926318D01*
X117179950Y-107872261D01*
X117183827Y-107860114D01*
X117191956Y-107834643D01*
X117196617Y-107822308D01*
X117197750Y-107819728D01*
X117212474Y-107786185D01*
X117224668Y-107735395D01*
X117226743Y-107726753D01*
X117229225Y-107717861D01*
X117245776Y-107665996D01*
X117247816Y-107659605D01*
X117252968Y-107620472D01*
X117255369Y-107607516D01*
X117264585Y-107569129D01*
X117268104Y-107508097D01*
X117268973Y-107498906D01*
X117269564Y-107494421D01*
X117272443Y-107472548D01*
X117276220Y-107443862D01*
X117276220Y-107443859D01*
X117276953Y-107438292D01*
X117275093Y-107398860D01*
X117275162Y-107385673D01*
X117275560Y-107378782D01*
X117275953Y-107371954D01*
X117277111Y-107351882D01*
X117277111Y-107351879D01*
X117277434Y-107346276D01*
X117270089Y-107285578D01*
X117269318Y-107276391D01*
X117267098Y-107229337D01*
X117266437Y-107215316D01*
X117257623Y-107176832D01*
X117255358Y-107163849D01*
X117254333Y-107155377D01*
X117250617Y-107124670D01*
X117232639Y-107066229D01*
X117230250Y-107057315D01*
X117229623Y-107054575D01*
X117216603Y-106997727D01*
X117213605Y-106990697D01*
X117201119Y-106961425D01*
X117196587Y-106949040D01*
X117186632Y-106916679D01*
X117186630Y-106916674D01*
X117184981Y-106911314D01*
X117156938Y-106856982D01*
X117153009Y-106848634D01*
X117145797Y-106831724D01*
X117129024Y-106792401D01*
X117125946Y-106787715D01*
X117125940Y-106787704D01*
X117107353Y-106759408D01*
X117100700Y-106748023D01*
X117085171Y-106717938D01*
X117082599Y-106712955D01*
X117079191Y-106708514D01*
X117079185Y-106708504D01*
X117045386Y-106664456D01*
X117040038Y-106656931D01*
X117009007Y-106609692D01*
X117009006Y-106609691D01*
X117006470Y-106605830D01*
X116988142Y-106585259D01*
X116969939Y-106564828D01*
X116969929Y-106564817D01*
X116968716Y-106563456D01*
X116968477Y-106563217D01*
X116960673Y-106554057D01*
X116950123Y-106540307D01*
X116950119Y-106540302D01*
X116946710Y-106535860D01*
X116886824Y-106481368D01*
X116882529Y-106477269D01*
X116744188Y-106338928D01*
X170171418Y-106338928D01*
X170171715Y-106344080D01*
X170171715Y-106344084D01*
X170179028Y-106470911D01*
X170185622Y-106585259D01*
X170186759Y-106590305D01*
X170186760Y-106590311D01*
X170215738Y-106718894D01*
X170239867Y-106825963D01*
X170332696Y-107054575D01*
X170461618Y-107264955D01*
X170623169Y-107451455D01*
X170627144Y-107454755D01*
X170627147Y-107454758D01*
X170655323Y-107478150D01*
X170813011Y-107609065D01*
X171026045Y-107733552D01*
X171030865Y-107735392D01*
X171030870Y-107735395D01*
X171163878Y-107786185D01*
X171256551Y-107821573D01*
X171261619Y-107822604D01*
X171261622Y-107822605D01*
X171370359Y-107844728D01*
X171498338Y-107870766D01*
X171503511Y-107870956D01*
X171503514Y-107870956D01*
X171739748Y-107879618D01*
X171739752Y-107879618D01*
X171744912Y-107879807D01*
X171750032Y-107879151D01*
X171750034Y-107879151D01*
X171859679Y-107865105D01*
X171989653Y-107848455D01*
X171994602Y-107846970D01*
X171994608Y-107846969D01*
X172221036Y-107779037D01*
X172221035Y-107779037D01*
X172225986Y-107777552D01*
X172338865Y-107722253D01*
X172442915Y-107671280D01*
X172442920Y-107671277D01*
X172447566Y-107669001D01*
X172451779Y-107665996D01*
X172451781Y-107665995D01*
X172644229Y-107528723D01*
X172644234Y-107528719D01*
X172648441Y-107525718D01*
X172823217Y-107351551D01*
X172827008Y-107346276D01*
X172964182Y-107155377D01*
X172967200Y-107151177D01*
X173006056Y-107072558D01*
X173054168Y-107020352D01*
X173122869Y-107002445D01*
X173190346Y-107024523D01*
X173218975Y-107051682D01*
X173330360Y-107196842D01*
X173352402Y-107225568D01*
X173517505Y-107375800D01*
X173706602Y-107494421D01*
X173851134Y-107552522D01*
X173907319Y-107575108D01*
X173913717Y-107577680D01*
X173919205Y-107578817D01*
X173919210Y-107578818D01*
X174069508Y-107609943D01*
X174132302Y-107622947D01*
X174136915Y-107623213D01*
X174187138Y-107626109D01*
X174187142Y-107626109D01*
X174188961Y-107626214D01*
X174333242Y-107626214D01*
X174336029Y-107625965D01*
X174336035Y-107625965D01*
X174405609Y-107619755D01*
X174498951Y-107611425D01*
X174504365Y-107609944D01*
X174504370Y-107609943D01*
X174653558Y-107569129D01*
X174714263Y-107552522D01*
X174719321Y-107550110D01*
X174719325Y-107550108D01*
X174836074Y-107494421D01*
X174915741Y-107456422D01*
X175097017Y-107326162D01*
X175170273Y-107250568D01*
X175248458Y-107169888D01*
X175248460Y-107169885D01*
X175252361Y-107165860D01*
X175255492Y-107161201D01*
X175325186Y-107057485D01*
X175379782Y-107012099D01*
X175450248Y-107003436D01*
X175514212Y-107034244D01*
X175537200Y-107061925D01*
X175661618Y-107264955D01*
X175823169Y-107451455D01*
X175827144Y-107454755D01*
X175827147Y-107454758D01*
X175855323Y-107478150D01*
X176013011Y-107609065D01*
X176226045Y-107733552D01*
X176230865Y-107735392D01*
X176230870Y-107735395D01*
X176363878Y-107786185D01*
X176456551Y-107821573D01*
X176461619Y-107822604D01*
X176461622Y-107822605D01*
X176570359Y-107844728D01*
X176698338Y-107870766D01*
X176703511Y-107870956D01*
X176703514Y-107870956D01*
X176939748Y-107879618D01*
X176939752Y-107879618D01*
X176944912Y-107879807D01*
X176950032Y-107879151D01*
X176950034Y-107879151D01*
X177059679Y-107865105D01*
X177189653Y-107848455D01*
X177194602Y-107846970D01*
X177194608Y-107846969D01*
X177421036Y-107779037D01*
X177421035Y-107779037D01*
X177425986Y-107777552D01*
X177538865Y-107722253D01*
X177642915Y-107671280D01*
X177642920Y-107671277D01*
X177647566Y-107669001D01*
X177674716Y-107649635D01*
X177747884Y-107626214D01*
X181111348Y-107626214D01*
X181174918Y-107643426D01*
X181213542Y-107665996D01*
X181371933Y-107758552D01*
X181376753Y-107760392D01*
X181376758Y-107760395D01*
X181491047Y-107804037D01*
X181602439Y-107846573D01*
X181607507Y-107847604D01*
X181607510Y-107847605D01*
X181693525Y-107865105D01*
X181844226Y-107895766D01*
X181849399Y-107895956D01*
X181849402Y-107895956D01*
X182085636Y-107904618D01*
X182085640Y-107904618D01*
X182090800Y-107904807D01*
X182095920Y-107904151D01*
X182095922Y-107904151D01*
X182172203Y-107894379D01*
X182335541Y-107873455D01*
X182340490Y-107871970D01*
X182340496Y-107871969D01*
X182566924Y-107804037D01*
X182566923Y-107804037D01*
X182571874Y-107802552D01*
X182675766Y-107751656D01*
X182788803Y-107696280D01*
X182788808Y-107696277D01*
X182793454Y-107694001D01*
X182797664Y-107690998D01*
X182797669Y-107690995D01*
X182990117Y-107553723D01*
X182990122Y-107553719D01*
X182994329Y-107550718D01*
X183169105Y-107376551D01*
X183186832Y-107351882D01*
X183310070Y-107180377D01*
X183313088Y-107176177D01*
X183351944Y-107097558D01*
X183400056Y-107045352D01*
X183468757Y-107027445D01*
X183536234Y-107049523D01*
X183564863Y-107076682D01*
X183636382Y-107169888D01*
X183698290Y-107250568D01*
X183863393Y-107400800D01*
X184052490Y-107519421D01*
X184259605Y-107602680D01*
X184265093Y-107603817D01*
X184265098Y-107603818D01*
X184415396Y-107634943D01*
X184478190Y-107647947D01*
X184482803Y-107648213D01*
X184533026Y-107651109D01*
X184533030Y-107651109D01*
X184534849Y-107651214D01*
X184679130Y-107651214D01*
X184681917Y-107650965D01*
X184681923Y-107650965D01*
X184751497Y-107644755D01*
X184844839Y-107636425D01*
X184850253Y-107634944D01*
X184850258Y-107634943D01*
X184977604Y-107600104D01*
X185060151Y-107577522D01*
X185065209Y-107575110D01*
X185065213Y-107575108D01*
X185181962Y-107519421D01*
X185261629Y-107481422D01*
X185442905Y-107351162D01*
X185515363Y-107276391D01*
X185594346Y-107194888D01*
X185594348Y-107194885D01*
X185598249Y-107190860D01*
X185601380Y-107186201D01*
X185671074Y-107082485D01*
X185725670Y-107037099D01*
X185796136Y-107028436D01*
X185860100Y-107059244D01*
X185883088Y-107086925D01*
X186007506Y-107289955D01*
X186169057Y-107476455D01*
X186173032Y-107479755D01*
X186173035Y-107479758D01*
X186232014Y-107528723D01*
X186358899Y-107634065D01*
X186571933Y-107758552D01*
X186576753Y-107760392D01*
X186576758Y-107760395D01*
X186691047Y-107804037D01*
X186802439Y-107846573D01*
X186807507Y-107847604D01*
X186807510Y-107847605D01*
X186893525Y-107865105D01*
X187044226Y-107895766D01*
X187049399Y-107895956D01*
X187049402Y-107895956D01*
X187285636Y-107904618D01*
X187285640Y-107904618D01*
X187290800Y-107904807D01*
X187295920Y-107904151D01*
X187295922Y-107904151D01*
X187372203Y-107894379D01*
X187535541Y-107873455D01*
X187540490Y-107871970D01*
X187540496Y-107871969D01*
X187766924Y-107804037D01*
X187766923Y-107804037D01*
X187771874Y-107802552D01*
X187875766Y-107751656D01*
X187988803Y-107696280D01*
X187988808Y-107696277D01*
X187993454Y-107694001D01*
X187997664Y-107690998D01*
X187997669Y-107690995D01*
X188190117Y-107553723D01*
X188190122Y-107553719D01*
X188194329Y-107550718D01*
X188369105Y-107376551D01*
X188386832Y-107351882D01*
X188510070Y-107180377D01*
X188513088Y-107176177D01*
X188535791Y-107130242D01*
X188576203Y-107048473D01*
X188622411Y-106954978D01*
X188663141Y-106820921D01*
X188692635Y-106723846D01*
X188692636Y-106723840D01*
X188694139Y-106718894D01*
X188715840Y-106554057D01*
X188725908Y-106477586D01*
X188725909Y-106477580D01*
X188726345Y-106474264D01*
X188727298Y-106435266D01*
X188728061Y-106404078D01*
X188728061Y-106404074D01*
X188728143Y-106400714D01*
X188716134Y-106254645D01*
X188708349Y-106159954D01*
X188708348Y-106159948D01*
X188707925Y-106154803D01*
X188647816Y-105915497D01*
X188549428Y-105689221D01*
X188415405Y-105482053D01*
X188389135Y-105453182D01*
X188318566Y-105375628D01*
X188249346Y-105299556D01*
X188245295Y-105296357D01*
X188245291Y-105296353D01*
X188059764Y-105149833D01*
X188059759Y-105149830D01*
X188055710Y-105146632D01*
X188051194Y-105144139D01*
X188051191Y-105144137D01*
X187844222Y-105029884D01*
X187844218Y-105029882D01*
X187839698Y-105027387D01*
X187834829Y-105025663D01*
X187834825Y-105025661D01*
X187611985Y-104946749D01*
X187611981Y-104946748D01*
X187607110Y-104945023D01*
X187602017Y-104944116D01*
X187602014Y-104944115D01*
X187369283Y-104902659D01*
X187369277Y-104902658D01*
X187364194Y-104901753D01*
X187284824Y-104900783D01*
X187122642Y-104898802D01*
X187122640Y-104898802D01*
X187117472Y-104898739D01*
X186873570Y-104936061D01*
X186639040Y-105012717D01*
X186634448Y-105015107D01*
X186634449Y-105015107D01*
X186429817Y-105121632D01*
X186420179Y-105126649D01*
X186416046Y-105129752D01*
X186416043Y-105129754D01*
X186246558Y-105257007D01*
X186222864Y-105274797D01*
X186202265Y-105296353D01*
X186079858Y-105424445D01*
X186052396Y-105453182D01*
X186049482Y-105457454D01*
X186049481Y-105457455D01*
X185985764Y-105550860D01*
X185913351Y-105657014D01*
X185911173Y-105661707D01*
X185911168Y-105661715D01*
X185893454Y-105699877D01*
X185846630Y-105753244D01*
X185778387Y-105772824D01*
X185710391Y-105752400D01*
X185679204Y-105723530D01*
X185550120Y-105555304D01*
X185546710Y-105550860D01*
X185381607Y-105400628D01*
X185192510Y-105282007D01*
X184985395Y-105198748D01*
X184979907Y-105197611D01*
X184979902Y-105197610D01*
X184815345Y-105163532D01*
X184766810Y-105153481D01*
X184710151Y-105150214D01*
X184710199Y-105149377D01*
X184645685Y-105128412D01*
X184600746Y-105073448D01*
X184592657Y-105002914D01*
X184596708Y-104986307D01*
X184596771Y-104986110D01*
X184630444Y-104879959D01*
X184648000Y-104723446D01*
X184648000Y-104165108D01*
X184633337Y-104015563D01*
X184575210Y-103823035D01*
X184565289Y-103804377D01*
X184483690Y-103650911D01*
X184483689Y-103650909D01*
X184480794Y-103645465D01*
X184402621Y-103549615D01*
X184357581Y-103494390D01*
X184357578Y-103494387D01*
X184353686Y-103489615D01*
X184347138Y-103484198D01*
X184203477Y-103365351D01*
X184203474Y-103365349D01*
X184198727Y-103361422D01*
X184021820Y-103265769D01*
X183925762Y-103236034D01*
X183835590Y-103208121D01*
X183835587Y-103208120D01*
X183829703Y-103206299D01*
X183823578Y-103205655D01*
X183823577Y-103205655D01*
X183635822Y-103185921D01*
X183635821Y-103185921D01*
X183629694Y-103185277D01*
X183545556Y-103192934D01*
X183435550Y-103202945D01*
X183435547Y-103202946D01*
X183429411Y-103203504D01*
X183423505Y-103205242D01*
X183423501Y-103205243D01*
X183287478Y-103245277D01*
X183236482Y-103260286D01*
X183058257Y-103353460D01*
X183055551Y-103355636D01*
X182988489Y-103375930D01*
X182927522Y-103360771D01*
X182751820Y-103265769D01*
X182655762Y-103236034D01*
X182565590Y-103208121D01*
X182565587Y-103208120D01*
X182559703Y-103206299D01*
X182553578Y-103205655D01*
X182553577Y-103205655D01*
X182365822Y-103185921D01*
X182365821Y-103185921D01*
X182359694Y-103185277D01*
X182275556Y-103192934D01*
X182165550Y-103202945D01*
X182165547Y-103202946D01*
X182159411Y-103203504D01*
X182153505Y-103205242D01*
X182153501Y-103205243D01*
X182017478Y-103245277D01*
X181966482Y-103260286D01*
X181788257Y-103353460D01*
X181631524Y-103479477D01*
X181502252Y-103633537D01*
X181499288Y-103638929D01*
X181499285Y-103638933D01*
X181462709Y-103705465D01*
X181405366Y-103809772D01*
X181403505Y-103815639D01*
X181403504Y-103815641D01*
X181380254Y-103888935D01*
X181344556Y-104001469D01*
X181327000Y-104157982D01*
X181327000Y-104716320D01*
X181341663Y-104865865D01*
X181343445Y-104871767D01*
X181363023Y-104936613D01*
X181363564Y-105007608D01*
X181325636Y-105067624D01*
X181300582Y-105084794D01*
X181250284Y-105110977D01*
X181192105Y-105125214D01*
X177748781Y-105125214D01*
X177687888Y-105109523D01*
X177498339Y-105004887D01*
X177498338Y-105004886D01*
X177493810Y-105002387D01*
X177488941Y-105000663D01*
X177488937Y-105000661D01*
X177266097Y-104921749D01*
X177266093Y-104921748D01*
X177261222Y-104920023D01*
X177256129Y-104919116D01*
X177256126Y-104919115D01*
X177023395Y-104877659D01*
X177023389Y-104877658D01*
X177018306Y-104876753D01*
X176938936Y-104875783D01*
X176776754Y-104873802D01*
X176776752Y-104873802D01*
X176771584Y-104873739D01*
X176527682Y-104911061D01*
X176293152Y-104987717D01*
X176288560Y-104990107D01*
X176288561Y-104990107D01*
X176128465Y-105073448D01*
X176074291Y-105101649D01*
X176070158Y-105104752D01*
X176070155Y-105104754D01*
X175944967Y-105198748D01*
X175876976Y-105249797D01*
X175848196Y-105279914D01*
X175729234Y-105404401D01*
X175706508Y-105428182D01*
X175703594Y-105432454D01*
X175703593Y-105432455D01*
X175639876Y-105525860D01*
X175567463Y-105632014D01*
X175565285Y-105636707D01*
X175565280Y-105636715D01*
X175547566Y-105674877D01*
X175500742Y-105728244D01*
X175432499Y-105747824D01*
X175364503Y-105727400D01*
X175333316Y-105698530D01*
X175204232Y-105530304D01*
X175200822Y-105525860D01*
X175035719Y-105375628D01*
X174846622Y-105257007D01*
X174639507Y-105173748D01*
X174634019Y-105172611D01*
X174634014Y-105172610D01*
X174469457Y-105138532D01*
X174420922Y-105128481D01*
X174416311Y-105128215D01*
X174416310Y-105128215D01*
X174406012Y-105127621D01*
X174390154Y-105126707D01*
X174323298Y-105102817D01*
X174279970Y-105046574D01*
X174273928Y-104975835D01*
X174277305Y-104962819D01*
X174282692Y-104945836D01*
X174282693Y-104945833D01*
X174284556Y-104939959D01*
X174286793Y-104920023D01*
X174301719Y-104786946D01*
X174302112Y-104783446D01*
X174302112Y-104225108D01*
X174287449Y-104075563D01*
X174229322Y-103883035D01*
X174219401Y-103864377D01*
X174137802Y-103710911D01*
X174137801Y-103710909D01*
X174134906Y-103705465D01*
X174072395Y-103628819D01*
X174011693Y-103554390D01*
X174011690Y-103554387D01*
X174007798Y-103549615D01*
X174001250Y-103544198D01*
X173857589Y-103425351D01*
X173857586Y-103425349D01*
X173852839Y-103421422D01*
X173675932Y-103325769D01*
X173579874Y-103296034D01*
X173489702Y-103268121D01*
X173489699Y-103268120D01*
X173483815Y-103266299D01*
X173477690Y-103265655D01*
X173477689Y-103265655D01*
X173289934Y-103245921D01*
X173289933Y-103245921D01*
X173283806Y-103245277D01*
X173199668Y-103252934D01*
X173089662Y-103262945D01*
X173089659Y-103262946D01*
X173083523Y-103263504D01*
X173077617Y-103265242D01*
X173077613Y-103265243D01*
X172935327Y-103307121D01*
X172890594Y-103320286D01*
X172712369Y-103413460D01*
X172709663Y-103415636D01*
X172642601Y-103435930D01*
X172581634Y-103420771D01*
X172405932Y-103325769D01*
X172309874Y-103296034D01*
X172219702Y-103268121D01*
X172219699Y-103268120D01*
X172213815Y-103266299D01*
X172207690Y-103265655D01*
X172207689Y-103265655D01*
X172019934Y-103245921D01*
X172019933Y-103245921D01*
X172013806Y-103245277D01*
X171929668Y-103252934D01*
X171819662Y-103262945D01*
X171819659Y-103262946D01*
X171813523Y-103263504D01*
X171807617Y-103265242D01*
X171807613Y-103265243D01*
X171665327Y-103307121D01*
X171620594Y-103320286D01*
X171442369Y-103413460D01*
X171285636Y-103539477D01*
X171156364Y-103693537D01*
X171153400Y-103698929D01*
X171153397Y-103698933D01*
X171095429Y-103804377D01*
X171059478Y-103869772D01*
X171057617Y-103875639D01*
X171057616Y-103875641D01*
X171013230Y-104015563D01*
X170998668Y-104061469D01*
X170981112Y-104217982D01*
X170981112Y-104776320D01*
X170995775Y-104925865D01*
X170997556Y-104931764D01*
X170998191Y-104934972D01*
X170991800Y-105005681D01*
X170948196Y-105061709D01*
X170932783Y-105071200D01*
X170874291Y-105101649D01*
X170870158Y-105104752D01*
X170870155Y-105104754D01*
X170744967Y-105198748D01*
X170676976Y-105249797D01*
X170648196Y-105279914D01*
X170529234Y-105404401D01*
X170506508Y-105428182D01*
X170503594Y-105432454D01*
X170503593Y-105432455D01*
X170439876Y-105525860D01*
X170367463Y-105632014D01*
X170325416Y-105722596D01*
X170303020Y-105770846D01*
X170263577Y-105855818D01*
X170197638Y-106093585D01*
X170171418Y-106338928D01*
X116744188Y-106338928D01*
X116659905Y-106254645D01*
X116625879Y-106192333D01*
X116623000Y-106165550D01*
X116623000Y-101379084D01*
X116620470Y-101350729D01*
X116615708Y-101297376D01*
X116608211Y-101213375D01*
X116549308Y-100998063D01*
X116453208Y-100796585D01*
X116322948Y-100615309D01*
X116162646Y-100459965D01*
X115977368Y-100335464D01*
X115772971Y-100245740D01*
X115767523Y-100244432D01*
X115767517Y-100244430D01*
X115561372Y-100194939D01*
X115561371Y-100194939D01*
X115555915Y-100193629D01*
X115471697Y-100188773D01*
X115338669Y-100181103D01*
X115338666Y-100181103D01*
X115333062Y-100180780D01*
X115111456Y-100207597D01*
X114898100Y-100273233D01*
X114699741Y-100375615D01*
X114695299Y-100379024D01*
X114695295Y-100379026D01*
X114589813Y-100459965D01*
X114522646Y-100511504D01*
X114372414Y-100676607D01*
X114253793Y-100865704D01*
X114170534Y-101072819D01*
X114125267Y-101291404D01*
X114122000Y-101348063D01*
X114122000Y-106009214D01*
X114101998Y-106077335D01*
X114048342Y-106123828D01*
X113996000Y-106135214D01*
X113465870Y-106135214D01*
X113463083Y-106135463D01*
X113463077Y-106135463D01*
X113393503Y-106141673D01*
X113300161Y-106150003D01*
X113294747Y-106151484D01*
X113294742Y-106151485D01*
X113167396Y-106186324D01*
X113084849Y-106208906D01*
X113079791Y-106211318D01*
X113079787Y-106211320D01*
X112988955Y-106254645D01*
X112883371Y-106305006D01*
X112702095Y-106435266D01*
X112546751Y-106595568D01*
X112422250Y-106780846D01*
X112419991Y-106785992D01*
X112419990Y-106785994D01*
X112417178Y-106792401D01*
X112332526Y-106985243D01*
X112331218Y-106990691D01*
X112331216Y-106990697D01*
X112293801Y-107146543D01*
X112280415Y-107202299D01*
X112278856Y-107229337D01*
X112269082Y-107398864D01*
X112267566Y-107425152D01*
X100420500Y-107425152D01*
X100420500Y-99202623D01*
X173369500Y-99202623D01*
X173369501Y-101297376D01*
X173369870Y-101300770D01*
X173369870Y-101300776D01*
X173375205Y-101349887D01*
X173376149Y-101358580D01*
X173426474Y-101492824D01*
X173431854Y-101500003D01*
X173431856Y-101500006D01*
X173499230Y-101589901D01*
X173512454Y-101607546D01*
X173519635Y-101612928D01*
X173619994Y-101688144D01*
X173619997Y-101688146D01*
X173627176Y-101693526D01*
X173685993Y-101715575D01*
X173754025Y-101741079D01*
X173754027Y-101741079D01*
X173761420Y-101743851D01*
X173769270Y-101744704D01*
X173769271Y-101744704D01*
X173819217Y-101750130D01*
X173822623Y-101750500D01*
X174869846Y-101750500D01*
X175917376Y-101750499D01*
X175920770Y-101750130D01*
X175920776Y-101750130D01*
X175970722Y-101744705D01*
X175970726Y-101744704D01*
X175978580Y-101743851D01*
X176112824Y-101693526D01*
X176120003Y-101688146D01*
X176120006Y-101688144D01*
X176220365Y-101612928D01*
X176227546Y-101607546D01*
X176240770Y-101589901D01*
X176308144Y-101500006D01*
X176308146Y-101500003D01*
X176313526Y-101492824D01*
X176363851Y-101358580D01*
X176370500Y-101297377D01*
X176370499Y-99202624D01*
X176363851Y-99141420D01*
X176313526Y-99007176D01*
X176308146Y-98999997D01*
X176308144Y-98999994D01*
X176232928Y-98899635D01*
X176227546Y-98892454D01*
X176217935Y-98885251D01*
X176120006Y-98811856D01*
X176120003Y-98811854D01*
X176112824Y-98806474D01*
X176023439Y-98772966D01*
X175985975Y-98758921D01*
X175985973Y-98758921D01*
X175978580Y-98756149D01*
X175970730Y-98755296D01*
X175970729Y-98755296D01*
X175920774Y-98749869D01*
X175920773Y-98749869D01*
X175917377Y-98749500D01*
X174870154Y-98749500D01*
X173822624Y-98749501D01*
X173819230Y-98749870D01*
X173819224Y-98749870D01*
X173769278Y-98755295D01*
X173769274Y-98755296D01*
X173761420Y-98756149D01*
X173627176Y-98806474D01*
X173619997Y-98811854D01*
X173619994Y-98811856D01*
X173522065Y-98885251D01*
X173512454Y-98892454D01*
X173507072Y-98899635D01*
X173431856Y-98999994D01*
X173431854Y-98999997D01*
X173426474Y-99007176D01*
X173376149Y-99141420D01*
X173369500Y-99202623D01*
X100420500Y-99202623D01*
X100420500Y-95802623D01*
X173369500Y-95802623D01*
X173369501Y-97897376D01*
X173376149Y-97958580D01*
X173426474Y-98092824D01*
X173431854Y-98100003D01*
X173431856Y-98100006D01*
X173507072Y-98200365D01*
X173512454Y-98207546D01*
X173519635Y-98212928D01*
X173619994Y-98288144D01*
X173619997Y-98288146D01*
X173627176Y-98293526D01*
X173716561Y-98327034D01*
X173754025Y-98341079D01*
X173754027Y-98341079D01*
X173761420Y-98343851D01*
X173769270Y-98344704D01*
X173769271Y-98344704D01*
X173819217Y-98350130D01*
X173822623Y-98350500D01*
X174869846Y-98350500D01*
X175917376Y-98350499D01*
X175920770Y-98350130D01*
X175920776Y-98350130D01*
X175970722Y-98344705D01*
X175970726Y-98344704D01*
X175978580Y-98343851D01*
X176112824Y-98293526D01*
X176120003Y-98288146D01*
X176120006Y-98288144D01*
X176220365Y-98212928D01*
X176227546Y-98207546D01*
X176232928Y-98200365D01*
X176308144Y-98100006D01*
X176308146Y-98100003D01*
X176313526Y-98092824D01*
X176363851Y-97958580D01*
X176370500Y-97897377D01*
X176370499Y-95802624D01*
X176363851Y-95741420D01*
X176313526Y-95607176D01*
X176308146Y-95599997D01*
X176308144Y-95599994D01*
X176232928Y-95499635D01*
X176227546Y-95492454D01*
X176197406Y-95469865D01*
X176120006Y-95411856D01*
X176120003Y-95411854D01*
X176112824Y-95406474D01*
X175995471Y-95362481D01*
X175985975Y-95358921D01*
X175985973Y-95358921D01*
X175978580Y-95356149D01*
X175970730Y-95355296D01*
X175970729Y-95355296D01*
X175920774Y-95349869D01*
X175920773Y-95349869D01*
X175917377Y-95349500D01*
X174870154Y-95349500D01*
X173822624Y-95349501D01*
X173819230Y-95349870D01*
X173819224Y-95349870D01*
X173769278Y-95355295D01*
X173769274Y-95355296D01*
X173761420Y-95356149D01*
X173627176Y-95406474D01*
X173619997Y-95411854D01*
X173619994Y-95411856D01*
X173542594Y-95469865D01*
X173512454Y-95492454D01*
X173507072Y-95499635D01*
X173431856Y-95599994D01*
X173431854Y-95599997D01*
X173426474Y-95607176D01*
X173376149Y-95741420D01*
X173369500Y-95802623D01*
X100420500Y-95802623D01*
X100420500Y-94685714D01*
X111717040Y-94685714D01*
X111736826Y-94873970D01*
X111795321Y-95053998D01*
X111889967Y-95217930D01*
X111894385Y-95222837D01*
X111894386Y-95222838D01*
X112008767Y-95349870D01*
X112016629Y-95358602D01*
X112169770Y-95469865D01*
X112342697Y-95546858D01*
X112440712Y-95567692D01*
X112521397Y-95584842D01*
X112521401Y-95584842D01*
X112527854Y-95586214D01*
X112717146Y-95586214D01*
X112723599Y-95584842D01*
X112723603Y-95584842D01*
X112804288Y-95567692D01*
X112902303Y-95546858D01*
X113075230Y-95469865D01*
X113228371Y-95358602D01*
X113236234Y-95349870D01*
X113350614Y-95222838D01*
X113350615Y-95222837D01*
X113355033Y-95217930D01*
X113449679Y-95053998D01*
X113508174Y-94873970D01*
X113527960Y-94685714D01*
X113508174Y-94497458D01*
X113449679Y-94317430D01*
X113389881Y-94213857D01*
X113373000Y-94150857D01*
X113373000Y-92671607D01*
X128857040Y-92671607D01*
X128876826Y-92859863D01*
X128935321Y-93039891D01*
X128938624Y-93045613D01*
X128938625Y-93045614D01*
X128942164Y-93051743D01*
X129029967Y-93203823D01*
X129034385Y-93208730D01*
X129034386Y-93208731D01*
X129035486Y-93209952D01*
X129156629Y-93344495D01*
X129309770Y-93455758D01*
X129482697Y-93532751D01*
X129580712Y-93553585D01*
X129661397Y-93570735D01*
X129661401Y-93570735D01*
X129667854Y-93572107D01*
X129857146Y-93572107D01*
X129863599Y-93570735D01*
X129863603Y-93570735D01*
X130013468Y-93538880D01*
X130042303Y-93532751D01*
X130048338Y-93530064D01*
X130053847Y-93528274D01*
X130092785Y-93522107D01*
X136261636Y-93522107D01*
X136312886Y-93533001D01*
X136326090Y-93538880D01*
X136332545Y-93540252D01*
X136332548Y-93540253D01*
X136504790Y-93576864D01*
X136504794Y-93576864D01*
X136511247Y-93578236D01*
X136700539Y-93578236D01*
X136706992Y-93576864D01*
X136706996Y-93576864D01*
X136787681Y-93559714D01*
X136885696Y-93538880D01*
X137058623Y-93461887D01*
X137092707Y-93437124D01*
X137206425Y-93354503D01*
X137211764Y-93350624D01*
X137221698Y-93339592D01*
X137334007Y-93214860D01*
X137334008Y-93214859D01*
X137338426Y-93209952D01*
X137348661Y-93192224D01*
X137429768Y-93051743D01*
X137429769Y-93051742D01*
X137433072Y-93046020D01*
X137491567Y-92865992D01*
X137511353Y-92677736D01*
X137510709Y-92671607D01*
X145857040Y-92671607D01*
X145876826Y-92859863D01*
X145935321Y-93039891D01*
X145938624Y-93045613D01*
X145938625Y-93045614D01*
X145942164Y-93051743D01*
X146029967Y-93203823D01*
X146034385Y-93208730D01*
X146034386Y-93208731D01*
X146035486Y-93209952D01*
X146156629Y-93344495D01*
X146309770Y-93455758D01*
X146482697Y-93532751D01*
X146580712Y-93553585D01*
X146661397Y-93570735D01*
X146661401Y-93570735D01*
X146667854Y-93572107D01*
X146857146Y-93572107D01*
X146863599Y-93570735D01*
X146863603Y-93570735D01*
X147013468Y-93538880D01*
X147042303Y-93532751D01*
X147048338Y-93530064D01*
X147053847Y-93528274D01*
X147092785Y-93522107D01*
X153388422Y-93522107D01*
X153439672Y-93533001D01*
X153452876Y-93538880D01*
X153459331Y-93540252D01*
X153459334Y-93540253D01*
X153631576Y-93576864D01*
X153631580Y-93576864D01*
X153638033Y-93578236D01*
X153827325Y-93578236D01*
X153833778Y-93576864D01*
X153833782Y-93576864D01*
X153914467Y-93559714D01*
X154012482Y-93538880D01*
X154185409Y-93461887D01*
X154219493Y-93437124D01*
X154333211Y-93354503D01*
X154338550Y-93350624D01*
X154348484Y-93339592D01*
X154460793Y-93214860D01*
X154460794Y-93214859D01*
X154465212Y-93209952D01*
X154475447Y-93192224D01*
X154556554Y-93051743D01*
X154556555Y-93051742D01*
X154559858Y-93046020D01*
X154618353Y-92865992D01*
X154638139Y-92677736D01*
X154637495Y-92671607D01*
X162857040Y-92671607D01*
X162876826Y-92859863D01*
X162935321Y-93039891D01*
X162938624Y-93045613D01*
X162938625Y-93045614D01*
X162942164Y-93051743D01*
X163029967Y-93203823D01*
X163034385Y-93208730D01*
X163034386Y-93208731D01*
X163035486Y-93209952D01*
X163156629Y-93344495D01*
X163309770Y-93455758D01*
X163482697Y-93532751D01*
X163580712Y-93553585D01*
X163661397Y-93570735D01*
X163661401Y-93570735D01*
X163667854Y-93572107D01*
X163857146Y-93572107D01*
X163863599Y-93570735D01*
X163863603Y-93570735D01*
X164013468Y-93538880D01*
X164042303Y-93532751D01*
X164048338Y-93530064D01*
X164053847Y-93528274D01*
X164092785Y-93522107D01*
X167812306Y-93522107D01*
X167880427Y-93542109D01*
X167905940Y-93563794D01*
X167909712Y-93567983D01*
X167914129Y-93572888D01*
X168067270Y-93684151D01*
X168240197Y-93761144D01*
X168338212Y-93781978D01*
X168418897Y-93799128D01*
X168418901Y-93799128D01*
X168425354Y-93800500D01*
X168614646Y-93800500D01*
X168621099Y-93799128D01*
X168621103Y-93799128D01*
X168701788Y-93781978D01*
X168799803Y-93761144D01*
X168972730Y-93684151D01*
X169125871Y-93572888D01*
X169130288Y-93567983D01*
X169248114Y-93437124D01*
X169248115Y-93437123D01*
X169252533Y-93432216D01*
X169347179Y-93268284D01*
X169405674Y-93088256D01*
X169425460Y-92900000D01*
X169405674Y-92711744D01*
X169347179Y-92531716D01*
X169319170Y-92483202D01*
X169255836Y-92373505D01*
X169252533Y-92367784D01*
X169200151Y-92309608D01*
X169130286Y-92232015D01*
X169130284Y-92232014D01*
X169125871Y-92227112D01*
X169013007Y-92145112D01*
X168978072Y-92119730D01*
X168978071Y-92119729D01*
X168972730Y-92115849D01*
X168966699Y-92113164D01*
X168966694Y-92113161D01*
X168939386Y-92101003D01*
X168894394Y-92067223D01*
X168881587Y-92052067D01*
X168817669Y-92003198D01*
X168815254Y-92001305D01*
X168757854Y-91955153D01*
X168757851Y-91955151D01*
X168752534Y-91950876D01*
X168746417Y-91947839D01*
X168743805Y-91946169D01*
X168743411Y-91945893D01*
X168743287Y-91945816D01*
X168742865Y-91945584D01*
X168740212Y-91943977D01*
X168734787Y-91939830D01*
X168661869Y-91905828D01*
X168659102Y-91904497D01*
X168593127Y-91871746D01*
X168593123Y-91871744D01*
X168587014Y-91868712D01*
X168580389Y-91867060D01*
X168577486Y-91865992D01*
X168577034Y-91865804D01*
X168576899Y-91865756D01*
X168576440Y-91865621D01*
X168573499Y-91864620D01*
X168567310Y-91861734D01*
X168531362Y-91853699D01*
X168488776Y-91844180D01*
X168485779Y-91843471D01*
X168414335Y-91825658D01*
X168414334Y-91825658D01*
X168407713Y-91824007D01*
X168400893Y-91823817D01*
X168397815Y-91823395D01*
X168396898Y-91823230D01*
X168392022Y-91822553D01*
X168386970Y-91821424D01*
X168381300Y-91821107D01*
X168305643Y-91821107D01*
X168302125Y-91821058D01*
X168300395Y-91821010D01*
X168222996Y-91818848D01*
X168216290Y-91820127D01*
X168209493Y-91820674D01*
X168209450Y-91820145D01*
X168199244Y-91821107D01*
X164092785Y-91821107D01*
X164053847Y-91814940D01*
X164048338Y-91813150D01*
X164042303Y-91810463D01*
X164004495Y-91802427D01*
X163863603Y-91772479D01*
X163863599Y-91772479D01*
X163857146Y-91771107D01*
X163667854Y-91771107D01*
X163661401Y-91772479D01*
X163661397Y-91772479D01*
X163580712Y-91789629D01*
X163482697Y-91810463D01*
X163309770Y-91887456D01*
X163304429Y-91891336D01*
X163304428Y-91891337D01*
X163216593Y-91955153D01*
X163156629Y-91998719D01*
X163152216Y-92003621D01*
X163152214Y-92003622D01*
X163051164Y-92115849D01*
X163029967Y-92139391D01*
X162935321Y-92303323D01*
X162876826Y-92483351D01*
X162857040Y-92671607D01*
X154637495Y-92671607D01*
X154618353Y-92489480D01*
X154559858Y-92309452D01*
X154556320Y-92303323D01*
X154468515Y-92151241D01*
X154465212Y-92145520D01*
X154460793Y-92140612D01*
X154342965Y-92009751D01*
X154342963Y-92009750D01*
X154338550Y-92004848D01*
X154285058Y-91965984D01*
X154190751Y-91897466D01*
X154190750Y-91897465D01*
X154185409Y-91893585D01*
X154012482Y-91816592D01*
X153914467Y-91795758D01*
X153833782Y-91778608D01*
X153833778Y-91778608D01*
X153827325Y-91777236D01*
X153638033Y-91777236D01*
X153631580Y-91778608D01*
X153631576Y-91778608D01*
X153452876Y-91816592D01*
X153452775Y-91816115D01*
X153421256Y-91821107D01*
X147092785Y-91821107D01*
X147053847Y-91814940D01*
X147048338Y-91813150D01*
X147042303Y-91810463D01*
X147004495Y-91802427D01*
X146863603Y-91772479D01*
X146863599Y-91772479D01*
X146857146Y-91771107D01*
X146667854Y-91771107D01*
X146661401Y-91772479D01*
X146661397Y-91772479D01*
X146580712Y-91789629D01*
X146482697Y-91810463D01*
X146309770Y-91887456D01*
X146304429Y-91891336D01*
X146304428Y-91891337D01*
X146216593Y-91955153D01*
X146156629Y-91998719D01*
X146152216Y-92003621D01*
X146152214Y-92003622D01*
X146051164Y-92115849D01*
X146029967Y-92139391D01*
X145935321Y-92303323D01*
X145876826Y-92483351D01*
X145857040Y-92671607D01*
X137510709Y-92671607D01*
X137491567Y-92489480D01*
X137433072Y-92309452D01*
X137429534Y-92303323D01*
X137341729Y-92151241D01*
X137338426Y-92145520D01*
X137334007Y-92140612D01*
X137216179Y-92009751D01*
X137216177Y-92009750D01*
X137211764Y-92004848D01*
X137158272Y-91965984D01*
X137063965Y-91897466D01*
X137063964Y-91897465D01*
X137058623Y-91893585D01*
X136885696Y-91816592D01*
X136787681Y-91795758D01*
X136706996Y-91778608D01*
X136706992Y-91778608D01*
X136700539Y-91777236D01*
X136511247Y-91777236D01*
X136504794Y-91778608D01*
X136504790Y-91778608D01*
X136326090Y-91816592D01*
X136325989Y-91816115D01*
X136294470Y-91821107D01*
X130092785Y-91821107D01*
X130053847Y-91814940D01*
X130048338Y-91813150D01*
X130042303Y-91810463D01*
X130004495Y-91802427D01*
X129863603Y-91772479D01*
X129863599Y-91772479D01*
X129857146Y-91771107D01*
X129667854Y-91771107D01*
X129661401Y-91772479D01*
X129661397Y-91772479D01*
X129580712Y-91789629D01*
X129482697Y-91810463D01*
X129309770Y-91887456D01*
X129304429Y-91891336D01*
X129304428Y-91891337D01*
X129216593Y-91955153D01*
X129156629Y-91998719D01*
X129152216Y-92003621D01*
X129152214Y-92003622D01*
X129051164Y-92115849D01*
X129029967Y-92139391D01*
X128935321Y-92303323D01*
X128876826Y-92483351D01*
X128857040Y-92671607D01*
X113373000Y-92671607D01*
X113373000Y-91185714D01*
X116717040Y-91185714D01*
X116736826Y-91373970D01*
X116795321Y-91553998D01*
X116889967Y-91717930D01*
X116894385Y-91722837D01*
X116894386Y-91722838D01*
X117003344Y-91843847D01*
X117016629Y-91858602D01*
X117021968Y-91862481D01*
X117149521Y-91955153D01*
X117169770Y-91969865D01*
X117342697Y-92046858D01*
X117438498Y-92067221D01*
X117521397Y-92084842D01*
X117521401Y-92084842D01*
X117527854Y-92086214D01*
X117717146Y-92086214D01*
X117723599Y-92084842D01*
X117723603Y-92084842D01*
X117806502Y-92067221D01*
X117902303Y-92046858D01*
X118075230Y-91969865D01*
X118095480Y-91955153D01*
X118223032Y-91862481D01*
X118228371Y-91858602D01*
X118241657Y-91843847D01*
X118350614Y-91722838D01*
X118350615Y-91722837D01*
X118355033Y-91717930D01*
X118449679Y-91553998D01*
X118508174Y-91373970D01*
X118527960Y-91185714D01*
X118523269Y-91141079D01*
X118508864Y-91004021D01*
X118508864Y-91004019D01*
X118508174Y-90997458D01*
X118449679Y-90817430D01*
X118434217Y-90790648D01*
X118389881Y-90713857D01*
X118373000Y-90650857D01*
X118373000Y-86935714D01*
X153216841Y-86935714D01*
X153237437Y-87171122D01*
X153238861Y-87176436D01*
X153238861Y-87176437D01*
X153248737Y-87213293D01*
X153298597Y-87399377D01*
X153300919Y-87404357D01*
X153300920Y-87404359D01*
X153392447Y-87600637D01*
X153398465Y-87613543D01*
X153534005Y-87807115D01*
X153701099Y-87974209D01*
X153705607Y-87977366D01*
X153705610Y-87977368D01*
X153890161Y-88106592D01*
X153894670Y-88109749D01*
X153899652Y-88112072D01*
X153899657Y-88112075D01*
X154102097Y-88206474D01*
X154108837Y-88209617D01*
X154114145Y-88211039D01*
X154114147Y-88211040D01*
X154331777Y-88269353D01*
X154337092Y-88270777D01*
X154572500Y-88291373D01*
X154807908Y-88270777D01*
X154813223Y-88269353D01*
X155030853Y-88211040D01*
X155030855Y-88211039D01*
X155036163Y-88209617D01*
X155042903Y-88206474D01*
X155245343Y-88112075D01*
X155245348Y-88112072D01*
X155250330Y-88109749D01*
X155254839Y-88106592D01*
X155439390Y-87977368D01*
X155439393Y-87977366D01*
X155443901Y-87974209D01*
X155610995Y-87807115D01*
X155739287Y-87623894D01*
X155794744Y-87579565D01*
X155865363Y-87572256D01*
X155928724Y-87604286D01*
X155945712Y-87623893D01*
X156074005Y-87807115D01*
X156241099Y-87974209D01*
X156245607Y-87977366D01*
X156245610Y-87977368D01*
X156430161Y-88106592D01*
X156434670Y-88109749D01*
X156439652Y-88112072D01*
X156439657Y-88112075D01*
X156642097Y-88206474D01*
X156648837Y-88209617D01*
X156654145Y-88211039D01*
X156654147Y-88211040D01*
X156871777Y-88269353D01*
X156877092Y-88270777D01*
X156882570Y-88271256D01*
X156882574Y-88271257D01*
X156886624Y-88271611D01*
X156952743Y-88297472D01*
X156994384Y-88354975D01*
X156998327Y-88425862D01*
X156989842Y-88450378D01*
X156979405Y-88472762D01*
X156978069Y-88475540D01*
X156945318Y-88541515D01*
X156945316Y-88541519D01*
X156942284Y-88547628D01*
X156940632Y-88554253D01*
X156939564Y-88557156D01*
X156939376Y-88557608D01*
X156939328Y-88557743D01*
X156939193Y-88558202D01*
X156938192Y-88561143D01*
X156935306Y-88567332D01*
X156933817Y-88573994D01*
X156917752Y-88645866D01*
X156917043Y-88648863D01*
X156899230Y-88720307D01*
X156897579Y-88726929D01*
X156897389Y-88733749D01*
X156896967Y-88736827D01*
X156896802Y-88737744D01*
X156896125Y-88742620D01*
X156894996Y-88747672D01*
X156894679Y-88753342D01*
X156894679Y-88828999D01*
X156894630Y-88832517D01*
X156892420Y-88911646D01*
X156893699Y-88918352D01*
X156894246Y-88925149D01*
X156893717Y-88925192D01*
X156894679Y-88935398D01*
X156894679Y-90361270D01*
X156888512Y-90400206D01*
X156859505Y-90489480D01*
X156858815Y-90496041D01*
X156858815Y-90496043D01*
X156847262Y-90605968D01*
X156839719Y-90677736D01*
X156840409Y-90684301D01*
X156855062Y-90823715D01*
X156859505Y-90865992D01*
X156918000Y-91046020D01*
X156921303Y-91051742D01*
X156921304Y-91051743D01*
X156972882Y-91141079D01*
X157012646Y-91209952D01*
X157139308Y-91350624D01*
X157292449Y-91461887D01*
X157465376Y-91538880D01*
X157563391Y-91559714D01*
X157644076Y-91576864D01*
X157644080Y-91576864D01*
X157650533Y-91578236D01*
X157839825Y-91578236D01*
X157846278Y-91576864D01*
X157846282Y-91576864D01*
X157926967Y-91559714D01*
X158024982Y-91538880D01*
X158197909Y-91461887D01*
X158351050Y-91350624D01*
X158477712Y-91209952D01*
X158517476Y-91141079D01*
X158569054Y-91051743D01*
X158569055Y-91051742D01*
X158572358Y-91046020D01*
X158630853Y-90865992D01*
X158635297Y-90823715D01*
X158649949Y-90684301D01*
X158650639Y-90677736D01*
X158643096Y-90605968D01*
X158631543Y-90496043D01*
X158631543Y-90496041D01*
X158630853Y-90489480D01*
X158601846Y-90400206D01*
X158595679Y-90361270D01*
X158595679Y-89247514D01*
X158615681Y-89179393D01*
X158632584Y-89158419D01*
X159470383Y-88320620D01*
X159532695Y-88286594D01*
X159570460Y-88284195D01*
X159652500Y-88291373D01*
X159657975Y-88290894D01*
X159657978Y-88290894D01*
X159743027Y-88283453D01*
X159887908Y-88270777D01*
X159893223Y-88269353D01*
X160110853Y-88211040D01*
X160110855Y-88211039D01*
X160116163Y-88209617D01*
X160122903Y-88206474D01*
X160325343Y-88112075D01*
X160325348Y-88112072D01*
X160330330Y-88109749D01*
X160334839Y-88106592D01*
X160475299Y-88008241D01*
X166415040Y-88008241D01*
X166416122Y-88041303D01*
X166416187Y-88042292D01*
X166416188Y-88042316D01*
X166423831Y-88158921D01*
X166436430Y-88351135D01*
X166439672Y-88384048D01*
X166441823Y-88400388D01*
X166441986Y-88401378D01*
X166441990Y-88401402D01*
X166444331Y-88415580D01*
X166447212Y-88433029D01*
X166507787Y-88737566D01*
X166515299Y-88769787D01*
X166515575Y-88770817D01*
X166515579Y-88770833D01*
X166519283Y-88784657D01*
X166519291Y-88784686D01*
X166519563Y-88785700D01*
X166529165Y-88817351D01*
X166529487Y-88818298D01*
X166529490Y-88818309D01*
X166569237Y-88935398D01*
X166628973Y-89111376D01*
X166640627Y-89142339D01*
X166646934Y-89157565D01*
X166660584Y-89187691D01*
X166797914Y-89466169D01*
X166813506Y-89495340D01*
X166821747Y-89509614D01*
X166839217Y-89537707D01*
X167011720Y-89795875D01*
X167012302Y-89796687D01*
X167012315Y-89796706D01*
X167030401Y-89821946D01*
X167030421Y-89821973D01*
X167030990Y-89822767D01*
X167041023Y-89835842D01*
X167062005Y-89861408D01*
X167266733Y-90094856D01*
X167289346Y-90118999D01*
X167301001Y-90130654D01*
X167325144Y-90153267D01*
X167558592Y-90357995D01*
X167584158Y-90378977D01*
X167597233Y-90389010D01*
X167598027Y-90389579D01*
X167598054Y-90389599D01*
X167623294Y-90407685D01*
X167623313Y-90407698D01*
X167624125Y-90408280D01*
X167882293Y-90580783D01*
X167910386Y-90598253D01*
X167911260Y-90598757D01*
X167911279Y-90598769D01*
X167916415Y-90601734D01*
X167924660Y-90606494D01*
X167953831Y-90622086D01*
X168232309Y-90759416D01*
X168262439Y-90773068D01*
X168263394Y-90773464D01*
X168263395Y-90773464D01*
X168276728Y-90778987D01*
X168276743Y-90778993D01*
X168277663Y-90779374D01*
X168308622Y-90791026D01*
X168602649Y-90890835D01*
X168603601Y-90891124D01*
X168603611Y-90891127D01*
X168626106Y-90897950D01*
X168634306Y-90900438D01*
X168650216Y-90904701D01*
X168669889Y-90909288D01*
X168681430Y-90911979D01*
X168681439Y-90911981D01*
X168682430Y-90912212D01*
X168877243Y-90950962D01*
X168985938Y-90972583D01*
X168985954Y-90972586D01*
X168986970Y-90972788D01*
X169000696Y-90975054D01*
X169018555Y-90978003D01*
X169018585Y-90978007D01*
X169019612Y-90978177D01*
X169020662Y-90978315D01*
X169020674Y-90978317D01*
X169025519Y-90978955D01*
X169035952Y-90980328D01*
X169068865Y-90983570D01*
X169114593Y-90986567D01*
X169377686Y-91003812D01*
X169377710Y-91003813D01*
X169378699Y-91003878D01*
X169379671Y-91003910D01*
X169379695Y-91003911D01*
X169410771Y-91004928D01*
X169410795Y-91004928D01*
X169411761Y-91004960D01*
X169428239Y-91004960D01*
X169429205Y-91004928D01*
X169429229Y-91004928D01*
X169460305Y-91003911D01*
X169460329Y-91003910D01*
X169461301Y-91003878D01*
X169462290Y-91003813D01*
X169462314Y-91003812D01*
X169725407Y-90986567D01*
X169771135Y-90983570D01*
X169804048Y-90980328D01*
X169814481Y-90978955D01*
X169819326Y-90978317D01*
X169819338Y-90978315D01*
X169820388Y-90978177D01*
X169821415Y-90978007D01*
X169821445Y-90978003D01*
X169839304Y-90975054D01*
X169853030Y-90972788D01*
X169854046Y-90972586D01*
X169854062Y-90972583D01*
X169962757Y-90950962D01*
X170157570Y-90912212D01*
X170158561Y-90911981D01*
X170158570Y-90911979D01*
X170170111Y-90909288D01*
X170189784Y-90904701D01*
X170205694Y-90900438D01*
X170213894Y-90897950D01*
X170236389Y-90891127D01*
X170236399Y-90891124D01*
X170237351Y-90890835D01*
X170531378Y-90791026D01*
X170562337Y-90779374D01*
X170563257Y-90778993D01*
X170563272Y-90778987D01*
X170576605Y-90773464D01*
X170576606Y-90773464D01*
X170577561Y-90773068D01*
X170607691Y-90759416D01*
X170886169Y-90622086D01*
X170915340Y-90606494D01*
X170923585Y-90601734D01*
X170928721Y-90598769D01*
X170928740Y-90598757D01*
X170929614Y-90598253D01*
X170957707Y-90580783D01*
X171215875Y-90408280D01*
X171216687Y-90407698D01*
X171216706Y-90407685D01*
X171241946Y-90389599D01*
X171241973Y-90389579D01*
X171242767Y-90389010D01*
X171255842Y-90378977D01*
X171281408Y-90357995D01*
X171514856Y-90153267D01*
X171538999Y-90130654D01*
X171550654Y-90118999D01*
X171573267Y-90094856D01*
X171777995Y-89861408D01*
X171798977Y-89835842D01*
X171809010Y-89822767D01*
X171809579Y-89821973D01*
X171809599Y-89821946D01*
X171827685Y-89796706D01*
X171827698Y-89796687D01*
X171828280Y-89795875D01*
X172000783Y-89537707D01*
X172018253Y-89509614D01*
X172026494Y-89495340D01*
X172042086Y-89466169D01*
X172179416Y-89187691D01*
X172193066Y-89157565D01*
X172199373Y-89142339D01*
X172211027Y-89111376D01*
X172270764Y-88935398D01*
X172310510Y-88818309D01*
X172310513Y-88818298D01*
X172310835Y-88817351D01*
X172320437Y-88785700D01*
X172320709Y-88784686D01*
X172320717Y-88784657D01*
X172324421Y-88770833D01*
X172324425Y-88770817D01*
X172324701Y-88769787D01*
X172332213Y-88737566D01*
X172359054Y-88602623D01*
X173369500Y-88602623D01*
X173369501Y-90697376D01*
X173376149Y-90758580D01*
X173426474Y-90892824D01*
X173431854Y-90900003D01*
X173431856Y-90900006D01*
X173492055Y-90980328D01*
X173512454Y-91007546D01*
X173519635Y-91012928D01*
X173619994Y-91088144D01*
X173619997Y-91088146D01*
X173627176Y-91093526D01*
X173716561Y-91127034D01*
X173754025Y-91141079D01*
X173754027Y-91141079D01*
X173761420Y-91143851D01*
X173769270Y-91144704D01*
X173769271Y-91144704D01*
X173819217Y-91150130D01*
X173822623Y-91150500D01*
X174869846Y-91150500D01*
X175917376Y-91150499D01*
X175920770Y-91150130D01*
X175920776Y-91150130D01*
X175970722Y-91144705D01*
X175970726Y-91144704D01*
X175978580Y-91143851D01*
X176112824Y-91093526D01*
X176120003Y-91088146D01*
X176120006Y-91088144D01*
X176220365Y-91012928D01*
X176227546Y-91007546D01*
X176247945Y-90980328D01*
X176308144Y-90900006D01*
X176308146Y-90900003D01*
X176313526Y-90892824D01*
X176351688Y-90791026D01*
X176361079Y-90765975D01*
X176361079Y-90765973D01*
X176363851Y-90758580D01*
X176370500Y-90697377D01*
X176370499Y-88602624D01*
X176370130Y-88599224D01*
X176364705Y-88549278D01*
X176364704Y-88549274D01*
X176363851Y-88541420D01*
X176313526Y-88407176D01*
X176308146Y-88399997D01*
X176308144Y-88399994D01*
X176232928Y-88299635D01*
X176227546Y-88292454D01*
X176209693Y-88279074D01*
X176120006Y-88211856D01*
X176120003Y-88211854D01*
X176112824Y-88206474D01*
X176023439Y-88172966D01*
X175985975Y-88158921D01*
X175985973Y-88158921D01*
X175978580Y-88156149D01*
X175970730Y-88155296D01*
X175970729Y-88155296D01*
X175920774Y-88149869D01*
X175920773Y-88149869D01*
X175917377Y-88149500D01*
X174870154Y-88149500D01*
X173822624Y-88149501D01*
X173819230Y-88149870D01*
X173819224Y-88149870D01*
X173769278Y-88155295D01*
X173769274Y-88155296D01*
X173761420Y-88156149D01*
X173627176Y-88206474D01*
X173619997Y-88211854D01*
X173619994Y-88211856D01*
X173530307Y-88279074D01*
X173512454Y-88292454D01*
X173507072Y-88299635D01*
X173431856Y-88399994D01*
X173431854Y-88399997D01*
X173426474Y-88407176D01*
X173376149Y-88541420D01*
X173369500Y-88602623D01*
X172359054Y-88602623D01*
X172392788Y-88433029D01*
X172395669Y-88415580D01*
X172398010Y-88401402D01*
X172398014Y-88401378D01*
X172398177Y-88400388D01*
X172400328Y-88384048D01*
X172403570Y-88351135D01*
X172416169Y-88158921D01*
X172423812Y-88042316D01*
X172423813Y-88042292D01*
X172423878Y-88041303D01*
X172424960Y-88008241D01*
X172424960Y-87991759D01*
X172424386Y-87974209D01*
X172423911Y-87959693D01*
X172423910Y-87959669D01*
X172423878Y-87958697D01*
X172403570Y-87648865D01*
X172400328Y-87615952D01*
X172398177Y-87599612D01*
X172392788Y-87566971D01*
X172332213Y-87262434D01*
X172324701Y-87230213D01*
X172324421Y-87229167D01*
X172320717Y-87215343D01*
X172320709Y-87215314D01*
X172320437Y-87214300D01*
X172310835Y-87182649D01*
X172308727Y-87176437D01*
X172211371Y-86889638D01*
X172211369Y-86889632D01*
X172211026Y-86888622D01*
X172199374Y-86857663D01*
X172193068Y-86842439D01*
X172179416Y-86812309D01*
X172042086Y-86533831D01*
X172026494Y-86504660D01*
X172018253Y-86490386D01*
X172000783Y-86462293D01*
X171828280Y-86204125D01*
X171827685Y-86203294D01*
X171809599Y-86178054D01*
X171809579Y-86178027D01*
X171809010Y-86177233D01*
X171798977Y-86164158D01*
X171777995Y-86138592D01*
X171573267Y-85905144D01*
X171550654Y-85881001D01*
X171538999Y-85869346D01*
X171514856Y-85846733D01*
X171281408Y-85642005D01*
X171255842Y-85621023D01*
X171242767Y-85610990D01*
X171241973Y-85610421D01*
X171241946Y-85610401D01*
X171216706Y-85592315D01*
X171216687Y-85592302D01*
X171215875Y-85591720D01*
X170957707Y-85419217D01*
X170929614Y-85401747D01*
X170928740Y-85401243D01*
X170928721Y-85401231D01*
X170923585Y-85398266D01*
X170915340Y-85393506D01*
X170886169Y-85377914D01*
X170607691Y-85240584D01*
X170599472Y-85236860D01*
X170578530Y-85227371D01*
X170578518Y-85227366D01*
X170577565Y-85226934D01*
X170576585Y-85226528D01*
X170576571Y-85226522D01*
X170572766Y-85224946D01*
X170562339Y-85220627D01*
X170531376Y-85208973D01*
X170530382Y-85208636D01*
X170530358Y-85208627D01*
X170238326Y-85109496D01*
X170237351Y-85109165D01*
X170236399Y-85108876D01*
X170236389Y-85108873D01*
X170206663Y-85099856D01*
X170205694Y-85099562D01*
X170189784Y-85095299D01*
X170170111Y-85090712D01*
X170158570Y-85088021D01*
X170158561Y-85088019D01*
X170157570Y-85087788D01*
X169962757Y-85049038D01*
X169854062Y-85027417D01*
X169854046Y-85027414D01*
X169853030Y-85027212D01*
X169839304Y-85024946D01*
X169821445Y-85021997D01*
X169821415Y-85021993D01*
X169820388Y-85021823D01*
X169819338Y-85021685D01*
X169819326Y-85021683D01*
X169814481Y-85021045D01*
X169804048Y-85019672D01*
X169771134Y-85016430D01*
X169588189Y-85004439D01*
X169462315Y-84996188D01*
X169462290Y-84996187D01*
X169461302Y-84996122D01*
X169460330Y-84996090D01*
X169460306Y-84996089D01*
X169429229Y-84995072D01*
X169429205Y-84995072D01*
X169428239Y-84995040D01*
X169411761Y-84995040D01*
X169410795Y-84995072D01*
X169410771Y-84995072D01*
X169379695Y-84996089D01*
X169379671Y-84996090D01*
X169378699Y-84996122D01*
X169377710Y-84996187D01*
X169377686Y-84996188D01*
X169114593Y-85013433D01*
X169068865Y-85016430D01*
X169035952Y-85019672D01*
X169025519Y-85021045D01*
X169020674Y-85021683D01*
X169020662Y-85021685D01*
X169019612Y-85021823D01*
X169018585Y-85021993D01*
X169018555Y-85021997D01*
X169000696Y-85024946D01*
X168986970Y-85027212D01*
X168985954Y-85027414D01*
X168985938Y-85027417D01*
X168877243Y-85049038D01*
X168682430Y-85087788D01*
X168681439Y-85088019D01*
X168681430Y-85088021D01*
X168669889Y-85090712D01*
X168650216Y-85095299D01*
X168634306Y-85099562D01*
X168633337Y-85099856D01*
X168603611Y-85108873D01*
X168603601Y-85108876D01*
X168602649Y-85109165D01*
X168601674Y-85109496D01*
X168309642Y-85208627D01*
X168309618Y-85208636D01*
X168308624Y-85208973D01*
X168277661Y-85220627D01*
X168267234Y-85224946D01*
X168263429Y-85226522D01*
X168263415Y-85226528D01*
X168262435Y-85226934D01*
X168261482Y-85227366D01*
X168261470Y-85227371D01*
X168240528Y-85236860D01*
X168232309Y-85240584D01*
X167953831Y-85377914D01*
X167924660Y-85393506D01*
X167916415Y-85398266D01*
X167911279Y-85401231D01*
X167911260Y-85401243D01*
X167910386Y-85401747D01*
X167882293Y-85419217D01*
X167624125Y-85591720D01*
X167623313Y-85592302D01*
X167623294Y-85592315D01*
X167598054Y-85610401D01*
X167598027Y-85610421D01*
X167597233Y-85610990D01*
X167584158Y-85621023D01*
X167558592Y-85642005D01*
X167325144Y-85846733D01*
X167301001Y-85869346D01*
X167289346Y-85881001D01*
X167266733Y-85905144D01*
X167062005Y-86138592D01*
X167041023Y-86164158D01*
X167030990Y-86177233D01*
X167030421Y-86178027D01*
X167030401Y-86178054D01*
X167012315Y-86203294D01*
X167011720Y-86204125D01*
X166839217Y-86462293D01*
X166821747Y-86490386D01*
X166813506Y-86504660D01*
X166797914Y-86533831D01*
X166660584Y-86812309D01*
X166646932Y-86842439D01*
X166640626Y-86857663D01*
X166628974Y-86888622D01*
X166628631Y-86889632D01*
X166628629Y-86889638D01*
X166531274Y-87176437D01*
X166529165Y-87182649D01*
X166519563Y-87214300D01*
X166519291Y-87215314D01*
X166519283Y-87215343D01*
X166515579Y-87229167D01*
X166515299Y-87230213D01*
X166507787Y-87262434D01*
X166447212Y-87566971D01*
X166441823Y-87599612D01*
X166439672Y-87615952D01*
X166436430Y-87648865D01*
X166416122Y-87958697D01*
X166416090Y-87959669D01*
X166416089Y-87959693D01*
X166415614Y-87974209D01*
X166415040Y-87991759D01*
X166415040Y-88008241D01*
X160475299Y-88008241D01*
X160519390Y-87977368D01*
X160519393Y-87977366D01*
X160523901Y-87974209D01*
X160690995Y-87807115D01*
X160826535Y-87613543D01*
X160832554Y-87600637D01*
X160924080Y-87404359D01*
X160924081Y-87404357D01*
X160926403Y-87399377D01*
X160976264Y-87213293D01*
X160986139Y-87176437D01*
X160986139Y-87176436D01*
X160987563Y-87171122D01*
X161008159Y-86935714D01*
X160987563Y-86700306D01*
X160942705Y-86532890D01*
X160927826Y-86477361D01*
X160927825Y-86477359D01*
X160926403Y-86472051D01*
X160845788Y-86299172D01*
X160828858Y-86262866D01*
X160828856Y-86262863D01*
X160826535Y-86257885D01*
X160690995Y-86064313D01*
X160523901Y-85897219D01*
X160519393Y-85894062D01*
X160519390Y-85894060D01*
X160334839Y-85764836D01*
X160334836Y-85764834D01*
X160330330Y-85761679D01*
X160325348Y-85759356D01*
X160325343Y-85759353D01*
X160121145Y-85664134D01*
X160121144Y-85664133D01*
X160116163Y-85661811D01*
X160110855Y-85660389D01*
X160110853Y-85660388D01*
X159893223Y-85602075D01*
X159893222Y-85602075D01*
X159887908Y-85600651D01*
X159652500Y-85580055D01*
X159417092Y-85600651D01*
X159411778Y-85602075D01*
X159411777Y-85602075D01*
X159194147Y-85660388D01*
X159194145Y-85660389D01*
X159188837Y-85661811D01*
X159183857Y-85664133D01*
X159183855Y-85664134D01*
X158979652Y-85759356D01*
X158979649Y-85759358D01*
X158974671Y-85761679D01*
X158781099Y-85897219D01*
X158614005Y-86064313D01*
X158544648Y-86163366D01*
X158485713Y-86247534D01*
X158430256Y-86291863D01*
X158359637Y-86299172D01*
X158296276Y-86267142D01*
X158279287Y-86247534D01*
X158220352Y-86163366D01*
X158150995Y-86064313D01*
X157983901Y-85897219D01*
X157979393Y-85894062D01*
X157979390Y-85894060D01*
X157794839Y-85764836D01*
X157794836Y-85764834D01*
X157790330Y-85761679D01*
X157785348Y-85759356D01*
X157785343Y-85759353D01*
X157581145Y-85664134D01*
X157581144Y-85664133D01*
X157576163Y-85661811D01*
X157570855Y-85660389D01*
X157570853Y-85660388D01*
X157353223Y-85602075D01*
X157353222Y-85602075D01*
X157347908Y-85600651D01*
X157112500Y-85580055D01*
X156877092Y-85600651D01*
X156871778Y-85602075D01*
X156871777Y-85602075D01*
X156654147Y-85660388D01*
X156654145Y-85660389D01*
X156648837Y-85661811D01*
X156643857Y-85664133D01*
X156643855Y-85664134D01*
X156439652Y-85759356D01*
X156439649Y-85759358D01*
X156434671Y-85761679D01*
X156241099Y-85897219D01*
X156074005Y-86064313D01*
X156004648Y-86163366D01*
X155945713Y-86247534D01*
X155890256Y-86291863D01*
X155819637Y-86299172D01*
X155756276Y-86267142D01*
X155739287Y-86247534D01*
X155680352Y-86163366D01*
X155610995Y-86064313D01*
X155443901Y-85897219D01*
X155439393Y-85894062D01*
X155439390Y-85894060D01*
X155254839Y-85764836D01*
X155254836Y-85764834D01*
X155250330Y-85761679D01*
X155245348Y-85759356D01*
X155245343Y-85759353D01*
X155041145Y-85664134D01*
X155041144Y-85664133D01*
X155036163Y-85661811D01*
X155030855Y-85660389D01*
X155030853Y-85660388D01*
X154813223Y-85602075D01*
X154813222Y-85602075D01*
X154807908Y-85600651D01*
X154572500Y-85580055D01*
X154337092Y-85600651D01*
X154331778Y-85602075D01*
X154331777Y-85602075D01*
X154114147Y-85660388D01*
X154114145Y-85660389D01*
X154108837Y-85661811D01*
X154103857Y-85664133D01*
X154103855Y-85664134D01*
X153899652Y-85759356D01*
X153899649Y-85759358D01*
X153894671Y-85761679D01*
X153701099Y-85897219D01*
X153534005Y-86064313D01*
X153398465Y-86257885D01*
X153396144Y-86262863D01*
X153396142Y-86262866D01*
X153379212Y-86299172D01*
X153298597Y-86472051D01*
X153297175Y-86477359D01*
X153297174Y-86477361D01*
X153282295Y-86532890D01*
X153237437Y-86700306D01*
X153216841Y-86935714D01*
X118373000Y-86935714D01*
X118373000Y-84720571D01*
X118389881Y-84657571D01*
X118446375Y-84559721D01*
X118446376Y-84559720D01*
X118449679Y-84553998D01*
X118508174Y-84373970D01*
X118527960Y-84185714D01*
X118508174Y-83997458D01*
X118449679Y-83817430D01*
X118374668Y-83687506D01*
X118358336Y-83659219D01*
X118355033Y-83653498D01*
X118228371Y-83512826D01*
X118189901Y-83484876D01*
X118080572Y-83405444D01*
X118080571Y-83405443D01*
X118075230Y-83401563D01*
X117902303Y-83324570D01*
X117804288Y-83303736D01*
X117723603Y-83286586D01*
X117723599Y-83286586D01*
X117717146Y-83285214D01*
X117527854Y-83285214D01*
X117521401Y-83286586D01*
X117521397Y-83286586D01*
X117440712Y-83303736D01*
X117342697Y-83324570D01*
X117169770Y-83401563D01*
X117164429Y-83405443D01*
X117164428Y-83405444D01*
X117055099Y-83484876D01*
X117016629Y-83512826D01*
X116889967Y-83653498D01*
X116886664Y-83659219D01*
X116870333Y-83687506D01*
X116795321Y-83817430D01*
X116736826Y-83997458D01*
X116717040Y-84185714D01*
X116736826Y-84373970D01*
X116795321Y-84553998D01*
X116798624Y-84559720D01*
X116798625Y-84559721D01*
X116855119Y-84657571D01*
X116872000Y-84720571D01*
X116872000Y-90650857D01*
X116855119Y-90713857D01*
X116810784Y-90790648D01*
X116795321Y-90817430D01*
X116736826Y-90997458D01*
X116736136Y-91004019D01*
X116736136Y-91004021D01*
X116721731Y-91141079D01*
X116717040Y-91185714D01*
X113373000Y-91185714D01*
X113373000Y-80860226D01*
X141867819Y-80860226D01*
X141903907Y-81125395D01*
X141978792Y-81382317D01*
X141980752Y-81386570D01*
X141980753Y-81386571D01*
X141993151Y-81413465D01*
X142090831Y-81625348D01*
X142123072Y-81674524D01*
X142234996Y-81845236D01*
X142235000Y-81845241D01*
X142237562Y-81849149D01*
X142415760Y-82048803D01*
X142621512Y-82219925D01*
X142625505Y-82222348D01*
X142846306Y-82356334D01*
X142846310Y-82356336D01*
X142850298Y-82358756D01*
X142854606Y-82360563D01*
X142854607Y-82360563D01*
X143092776Y-82460436D01*
X143092781Y-82460438D01*
X143097091Y-82462245D01*
X143101623Y-82463396D01*
X143101626Y-82463397D01*
X143351933Y-82526967D01*
X143351936Y-82526968D01*
X143356470Y-82528119D01*
X143361126Y-82528588D01*
X143361127Y-82528588D01*
X143575602Y-82550184D01*
X143575603Y-82550184D01*
X143578741Y-82550500D01*
X146737944Y-82550500D01*
X146740267Y-82550327D01*
X146740277Y-82550327D01*
X146932212Y-82536064D01*
X146932216Y-82536063D01*
X146936877Y-82535717D01*
X146941441Y-82534684D01*
X146941443Y-82534684D01*
X147080765Y-82503158D01*
X147197891Y-82476655D01*
X147231984Y-82463397D01*
X147442956Y-82381355D01*
X147442958Y-82381354D01*
X147447309Y-82379662D01*
X147485959Y-82357572D01*
X147533730Y-82330268D01*
X147679650Y-82246868D01*
X147889811Y-82081190D01*
X148073175Y-81886269D01*
X148209246Y-81690123D01*
X173632000Y-81690123D01*
X173632001Y-83484876D01*
X173632370Y-83488270D01*
X173632370Y-83488276D01*
X173635570Y-83517729D01*
X173638649Y-83546080D01*
X173688974Y-83680324D01*
X173694354Y-83687503D01*
X173694356Y-83687506D01*
X173751582Y-83763861D01*
X173774954Y-83795046D01*
X173782135Y-83800428D01*
X173882494Y-83875644D01*
X173882497Y-83875646D01*
X173889676Y-83881026D01*
X173979061Y-83914534D01*
X174016525Y-83928579D01*
X174016527Y-83928579D01*
X174023920Y-83931351D01*
X174031770Y-83932204D01*
X174031771Y-83932204D01*
X174081717Y-83937630D01*
X174085123Y-83938000D01*
X174982368Y-83938000D01*
X175879876Y-83937999D01*
X175883270Y-83937630D01*
X175883276Y-83937630D01*
X175933222Y-83932205D01*
X175933226Y-83932204D01*
X175941080Y-83931351D01*
X176075324Y-83881026D01*
X176082503Y-83875646D01*
X176082506Y-83875644D01*
X176182865Y-83800428D01*
X176190046Y-83795046D01*
X176213418Y-83763861D01*
X176270644Y-83687506D01*
X176270646Y-83687503D01*
X176276026Y-83680324D01*
X176286083Y-83653498D01*
X176303517Y-83606991D01*
X176324412Y-83551252D01*
X176367053Y-83494487D01*
X176433614Y-83469786D01*
X176502963Y-83484993D01*
X176531489Y-83506385D01*
X176651099Y-83625995D01*
X176655607Y-83629152D01*
X176655610Y-83629154D01*
X176840161Y-83758378D01*
X176844670Y-83761535D01*
X176849652Y-83763858D01*
X176849657Y-83763861D01*
X177053855Y-83859080D01*
X177058837Y-83861403D01*
X177064145Y-83862825D01*
X177064147Y-83862826D01*
X177281777Y-83921139D01*
X177287092Y-83922563D01*
X177522500Y-83943159D01*
X177757908Y-83922563D01*
X177763223Y-83921139D01*
X177980853Y-83862826D01*
X177980855Y-83862825D01*
X177986163Y-83861403D01*
X177991145Y-83859080D01*
X178195343Y-83763861D01*
X178195348Y-83763858D01*
X178200330Y-83761535D01*
X178204839Y-83758378D01*
X178389390Y-83629154D01*
X178389393Y-83629152D01*
X178393901Y-83625995D01*
X178560995Y-83458901D01*
X178696535Y-83265329D01*
X178796403Y-83051163D01*
X178857563Y-82822908D01*
X178878159Y-82587500D01*
X178857563Y-82352092D01*
X178822799Y-82222348D01*
X178797826Y-82129147D01*
X178797825Y-82129145D01*
X178796403Y-82123837D01*
X178794080Y-82118855D01*
X178698858Y-81914652D01*
X178698856Y-81914649D01*
X178696535Y-81909671D01*
X178560995Y-81716099D01*
X178393901Y-81549005D01*
X178389393Y-81545848D01*
X178389390Y-81545846D01*
X178204839Y-81416622D01*
X178204836Y-81416620D01*
X178200330Y-81413465D01*
X178195348Y-81411142D01*
X178195343Y-81411139D01*
X177991145Y-81315920D01*
X177991144Y-81315919D01*
X177986163Y-81313597D01*
X177980855Y-81312175D01*
X177980853Y-81312174D01*
X177763223Y-81253861D01*
X177763222Y-81253861D01*
X177757908Y-81252437D01*
X177522500Y-81231841D01*
X177287092Y-81252437D01*
X177281778Y-81253861D01*
X177281777Y-81253861D01*
X177064147Y-81312174D01*
X177064145Y-81312175D01*
X177058837Y-81313597D01*
X177053857Y-81315919D01*
X177053855Y-81315920D01*
X176849652Y-81411142D01*
X176849649Y-81411144D01*
X176844671Y-81413465D01*
X176651099Y-81549005D01*
X176531489Y-81668615D01*
X176469177Y-81702641D01*
X176398362Y-81697576D01*
X176341526Y-81655029D01*
X176324412Y-81623748D01*
X176279177Y-81503081D01*
X176279176Y-81503080D01*
X176276026Y-81494676D01*
X176270646Y-81487497D01*
X176270644Y-81487494D01*
X176195428Y-81387135D01*
X176190046Y-81379954D01*
X176182865Y-81374572D01*
X176082506Y-81299356D01*
X176082503Y-81299354D01*
X176075324Y-81293974D01*
X175968321Y-81253861D01*
X175948475Y-81246421D01*
X175948473Y-81246421D01*
X175941080Y-81243649D01*
X175933230Y-81242796D01*
X175933229Y-81242796D01*
X175883274Y-81237369D01*
X175883273Y-81237369D01*
X175879877Y-81237000D01*
X175859000Y-81237000D01*
X175790879Y-81216998D01*
X175744386Y-81163342D01*
X175733000Y-81111000D01*
X175733000Y-80861423D01*
X175738785Y-80825709D01*
X175739480Y-80824221D01*
X175754190Y-80753500D01*
X175755160Y-80749216D01*
X175770980Y-80684563D01*
X175772315Y-80679108D01*
X175773000Y-80668066D01*
X175773032Y-80668068D01*
X175773279Y-80663955D01*
X175773628Y-80660048D01*
X175775118Y-80652883D01*
X175773046Y-80576298D01*
X175773000Y-80572890D01*
X175773000Y-78120571D01*
X175789881Y-78057571D01*
X175846375Y-77959721D01*
X175846376Y-77959720D01*
X175849679Y-77953998D01*
X175908174Y-77773970D01*
X175927960Y-77585714D01*
X175908174Y-77397458D01*
X175849679Y-77217430D01*
X175755033Y-77053498D01*
X175628371Y-76912826D01*
X175475230Y-76801563D01*
X175302303Y-76724570D01*
X175204288Y-76703736D01*
X175123603Y-76686586D01*
X175123599Y-76686586D01*
X175117146Y-76685214D01*
X174927854Y-76685214D01*
X174921401Y-76686586D01*
X174921397Y-76686586D01*
X174840712Y-76703736D01*
X174742697Y-76724570D01*
X174569770Y-76801563D01*
X174416629Y-76912826D01*
X174289967Y-77053498D01*
X174195321Y-77217430D01*
X174136826Y-77397458D01*
X174117040Y-77585714D01*
X174136826Y-77773970D01*
X174195321Y-77953998D01*
X174198624Y-77959720D01*
X174198625Y-77959721D01*
X174255119Y-78057571D01*
X174272000Y-78120571D01*
X174272000Y-80350008D01*
X174266216Y-80385721D01*
X174265521Y-80387207D01*
X174253293Y-80445993D01*
X174250815Y-80457907D01*
X174249844Y-80462196D01*
X174232685Y-80532320D01*
X174232000Y-80543362D01*
X174231968Y-80543360D01*
X174231721Y-80547490D01*
X174231375Y-80551370D01*
X174229882Y-80558545D01*
X174230080Y-80565866D01*
X174230080Y-80565867D01*
X174231954Y-80635114D01*
X174232000Y-80638522D01*
X174232000Y-81111001D01*
X174211998Y-81179122D01*
X174158342Y-81225615D01*
X174106000Y-81237001D01*
X174085124Y-81237001D01*
X174081730Y-81237370D01*
X174081724Y-81237370D01*
X174031778Y-81242795D01*
X174031774Y-81242796D01*
X174023920Y-81243649D01*
X173889676Y-81293974D01*
X173882497Y-81299354D01*
X173882494Y-81299356D01*
X173782135Y-81374572D01*
X173774954Y-81379954D01*
X173769572Y-81387135D01*
X173694356Y-81487494D01*
X173694354Y-81487497D01*
X173688974Y-81494676D01*
X173638649Y-81628920D01*
X173637796Y-81636770D01*
X173637796Y-81636771D01*
X173635034Y-81662194D01*
X173632000Y-81690123D01*
X148209246Y-81690123D01*
X148225714Y-81666385D01*
X148245951Y-81625348D01*
X148342011Y-81430559D01*
X148342012Y-81430556D01*
X148344076Y-81426371D01*
X148425662Y-81171497D01*
X148468678Y-80907364D01*
X148471666Y-80679108D01*
X148472120Y-80644451D01*
X148472120Y-80644448D01*
X148472181Y-80639774D01*
X148436093Y-80374605D01*
X148361208Y-80117683D01*
X148249169Y-79874652D01*
X148207900Y-79811707D01*
X148105004Y-79654764D01*
X148105000Y-79654759D01*
X148102438Y-79650851D01*
X147924240Y-79451197D01*
X147718488Y-79280075D01*
X147670266Y-79250813D01*
X147493694Y-79143666D01*
X147493690Y-79143664D01*
X147489702Y-79141244D01*
X147435810Y-79118645D01*
X147247224Y-79039564D01*
X147247219Y-79039562D01*
X147242909Y-79037755D01*
X147238377Y-79036604D01*
X147238374Y-79036603D01*
X146988067Y-78973033D01*
X146988064Y-78973032D01*
X146983530Y-78971881D01*
X146978874Y-78971412D01*
X146978873Y-78971412D01*
X146764398Y-78949816D01*
X146764397Y-78949816D01*
X146761259Y-78949500D01*
X143602056Y-78949500D01*
X143599733Y-78949673D01*
X143599723Y-78949673D01*
X143407788Y-78963936D01*
X143407784Y-78963937D01*
X143403123Y-78964283D01*
X143398559Y-78965316D01*
X143398557Y-78965316D01*
X143259235Y-78996842D01*
X143142109Y-79023345D01*
X143137757Y-79025037D01*
X143137755Y-79025038D01*
X142897044Y-79118645D01*
X142897042Y-79118646D01*
X142892691Y-79120338D01*
X142888637Y-79122655D01*
X142888635Y-79122656D01*
X142806270Y-79169732D01*
X142660350Y-79253132D01*
X142450189Y-79418810D01*
X142266825Y-79613731D01*
X142114286Y-79833615D01*
X141995924Y-80073629D01*
X141914338Y-80328503D01*
X141913588Y-80333109D01*
X141875682Y-80565867D01*
X141871322Y-80592636D01*
X141867819Y-80860226D01*
X113373000Y-80860226D01*
X113373000Y-80720571D01*
X113389881Y-80657571D01*
X113446375Y-80559721D01*
X113446376Y-80559720D01*
X113449679Y-80553998D01*
X113508174Y-80373970D01*
X113510693Y-80350008D01*
X113527270Y-80192279D01*
X113527960Y-80185714D01*
X113508174Y-79997458D01*
X113449679Y-79817430D01*
X113355033Y-79653498D01*
X113350614Y-79648590D01*
X113232786Y-79517729D01*
X113232784Y-79517728D01*
X113228371Y-79512826D01*
X113098969Y-79418810D01*
X113080572Y-79405444D01*
X113080571Y-79405443D01*
X113075230Y-79401563D01*
X112902303Y-79324570D01*
X112804288Y-79303736D01*
X112723603Y-79286586D01*
X112723599Y-79286586D01*
X112717146Y-79285214D01*
X112527854Y-79285214D01*
X112521401Y-79286586D01*
X112521397Y-79286586D01*
X112440712Y-79303736D01*
X112342697Y-79324570D01*
X112169770Y-79401563D01*
X112164429Y-79405443D01*
X112164428Y-79405444D01*
X112146031Y-79418810D01*
X112016629Y-79512826D01*
X112012216Y-79517728D01*
X112012214Y-79517729D01*
X111894386Y-79648590D01*
X111889967Y-79653498D01*
X111795321Y-79817430D01*
X111736826Y-79997458D01*
X111717040Y-80185714D01*
X111717730Y-80192279D01*
X111734308Y-80350008D01*
X111736826Y-80373970D01*
X111795321Y-80553998D01*
X111798624Y-80559720D01*
X111798625Y-80559721D01*
X111855119Y-80657571D01*
X111872000Y-80720571D01*
X111872000Y-94150857D01*
X111855119Y-94213857D01*
X111795321Y-94317430D01*
X111736826Y-94497458D01*
X111717040Y-94685714D01*
X100420500Y-94685714D01*
X100420500Y-70552576D01*
X100422246Y-70531671D01*
X100424689Y-70517148D01*
X100425496Y-70512354D01*
X100425647Y-70500000D01*
X100424958Y-70495185D01*
X100424957Y-70495177D01*
X100423368Y-70484083D01*
X100422215Y-70460724D01*
X100437382Y-70113339D01*
X100438340Y-70102389D01*
X100488140Y-69724121D01*
X100490049Y-69713296D01*
X100500939Y-69664177D01*
X100572626Y-69340815D01*
X100575471Y-69330198D01*
X100585644Y-69297934D01*
X100690200Y-68966323D01*
X100693956Y-68956002D01*
X100695366Y-68952599D01*
X100839969Y-68603496D01*
X100844602Y-68593561D01*
X101020783Y-68255122D01*
X101026273Y-68245613D01*
X101231266Y-67923838D01*
X101237570Y-67914834D01*
X101423725Y-67672232D01*
X101469841Y-67612133D01*
X101476904Y-67603716D01*
X101480767Y-67599500D01*
X101734660Y-67322425D01*
X101742429Y-67314656D01*
X101997213Y-67081190D01*
X102023719Y-67056902D01*
X102032136Y-67049838D01*
X102334834Y-66817570D01*
X102343838Y-66811266D01*
X102571256Y-66666385D01*
X102665614Y-66606272D01*
X102675122Y-66600783D01*
X103013561Y-66424602D01*
X103023496Y-66419969D01*
X103376009Y-66273953D01*
X103386323Y-66270200D01*
X103750199Y-66155471D01*
X103760816Y-66152626D01*
X103797777Y-66144432D01*
X104133304Y-66070048D01*
X104144113Y-66068141D01*
X104522390Y-66018340D01*
X104533338Y-66017382D01*
X104877043Y-66002376D01*
X104901920Y-66003756D01*
X104903570Y-66004013D01*
X104904951Y-66004228D01*
X104904952Y-66004228D01*
X104913823Y-66005609D01*
X104922725Y-66004445D01*
X104922728Y-66004445D01*
X104944756Y-66001564D01*
X104961093Y-66000500D01*
X110181545Y-66000500D01*
X110249666Y-66020502D01*
G37*
G04 #@! TD.AperFunction*
G04 #@! TA.AperFunction,Conductor*
G36*
X169555126Y-85508857D02*
G01*
X169738073Y-85520848D01*
X169754413Y-85522999D01*
X169906682Y-85553287D01*
X170058953Y-85583575D01*
X170074863Y-85587838D01*
X170368888Y-85687646D01*
X170384114Y-85693953D01*
X170662592Y-85831283D01*
X170676866Y-85839524D01*
X170935034Y-86012027D01*
X170948109Y-86022060D01*
X171181557Y-86226788D01*
X171193212Y-86238443D01*
X171397940Y-86471891D01*
X171407973Y-86484966D01*
X171580476Y-86743134D01*
X171588717Y-86757408D01*
X171726047Y-87035886D01*
X171732353Y-87051110D01*
X171832162Y-87345137D01*
X171836426Y-87361050D01*
X171897001Y-87665587D01*
X171899152Y-87681927D01*
X171919460Y-87991759D01*
X171919460Y-88008241D01*
X171899152Y-88318073D01*
X171897001Y-88334413D01*
X171836426Y-88638950D01*
X171832162Y-88654863D01*
X171732354Y-88948888D01*
X171726047Y-88964114D01*
X171588717Y-89242592D01*
X171580476Y-89256866D01*
X171407973Y-89515034D01*
X171397940Y-89528109D01*
X171193212Y-89761557D01*
X171181557Y-89773212D01*
X170948109Y-89977940D01*
X170935034Y-89987973D01*
X170676866Y-90160476D01*
X170662592Y-90168717D01*
X170384114Y-90306047D01*
X170368890Y-90312353D01*
X170074863Y-90412162D01*
X170058953Y-90416425D01*
X169906681Y-90446714D01*
X169754413Y-90477001D01*
X169738073Y-90479152D01*
X169555126Y-90491143D01*
X169428239Y-90499460D01*
X169411761Y-90499460D01*
X169284874Y-90491143D01*
X169101927Y-90479152D01*
X169085587Y-90477001D01*
X168933319Y-90446714D01*
X168781047Y-90416425D01*
X168765137Y-90412162D01*
X168471110Y-90312353D01*
X168455886Y-90306047D01*
X168177408Y-90168717D01*
X168163134Y-90160476D01*
X167904966Y-89987973D01*
X167891891Y-89977940D01*
X167658443Y-89773212D01*
X167646788Y-89761557D01*
X167442060Y-89528109D01*
X167432027Y-89515034D01*
X167259524Y-89256866D01*
X167251283Y-89242592D01*
X167113953Y-88964114D01*
X167107646Y-88948888D01*
X167007838Y-88654863D01*
X167003574Y-88638950D01*
X166942999Y-88334413D01*
X166940848Y-88318073D01*
X166920540Y-88008241D01*
X166920540Y-87991759D01*
X166940848Y-87681927D01*
X166942999Y-87665587D01*
X167003574Y-87361050D01*
X167007838Y-87345137D01*
X167107647Y-87051110D01*
X167113953Y-87035886D01*
X167251283Y-86757408D01*
X167259524Y-86743134D01*
X167432027Y-86484966D01*
X167442060Y-86471891D01*
X167646788Y-86238443D01*
X167658443Y-86226788D01*
X167891891Y-86022060D01*
X167904966Y-86012027D01*
X168163134Y-85839524D01*
X168177408Y-85831283D01*
X168455886Y-85693953D01*
X168471112Y-85687646D01*
X168765137Y-85587838D01*
X168781047Y-85583575D01*
X168933318Y-85553287D01*
X169085587Y-85522999D01*
X169101927Y-85520848D01*
X169284874Y-85508857D01*
X169411761Y-85500540D01*
X169428239Y-85500540D01*
X169555126Y-85508857D01*
G37*
G04 #@! TD.AperFunction*
M02*
