%TF.GenerationSoftware,KiCad,Pcbnew,6.0.7+dfsg-1~bpo11+1*%
%TF.ProjectId,wiscale,77697363-616c-4652-9e6b-696361645f70,1.0a*%
%TF.SameCoordinates,Original*%
%TF.FileFunction,Drillmap*%
%TF.FilePolarity,Positive*%
%FSLAX45Y45*%
G04 Gerber Fmt 4.5, Leading zero omitted, Abs format (unit mm)*
%MOMM*%
%LPD*%
G01*
G04 APERTURE LIST*
%ADD10C,0.100000*%
%ADD11C,0.200000*%
%ADD12C,0.065000*%
%ADD13C,0.090000*%
%ADD14C,0.150000*%
%ADD15C,0.160000*%
%ADD16C,0.320000*%
G04 APERTURE END LIST*
D10*
X19992000Y-6550000D02*
X19992000Y-11050000D01*
X9992000Y-11050000D02*
X9992000Y-7050000D01*
X19492000Y-11550000D02*
X10492000Y-11550000D01*
X10492000Y-6550000D02*
G75*
G03*
X9992000Y-7050000I0J-500000D01*
G01*
X10492000Y-6550000D02*
X19992000Y-6550000D01*
X19492000Y-11550000D02*
G75*
G03*
X19992000Y-11050000I0J500000D01*
G01*
X9992000Y-11050000D02*
G75*
G03*
X10492000Y-11550000I500000J0D01*
G01*
D11*
D12*
X19457500Y-8998500D02*
X19522500Y-9063500D01*
X19522500Y-8998500D02*
X19457500Y-9063500D01*
X19457500Y-9576500D02*
X19522500Y-9641500D01*
X19522500Y-9576500D02*
X19457500Y-9641500D01*
D13*
X19746500Y-6871500D02*
G75*
G03*
X19746500Y-6871500I-45000J0D01*
G01*
X19746500Y-7171500D02*
G75*
G03*
X19746500Y-7171500I-45000J0D01*
G01*
D14*
X17427661Y-10562571D02*
X17427661Y-10712571D01*
X17352661Y-10637571D02*
X17502661Y-10637571D01*
X17427661Y-11162571D02*
X17427661Y-11312571D01*
X17352661Y-11237571D02*
X17502661Y-11237571D01*
X18462250Y-10565071D02*
X18462250Y-10715071D01*
X18387250Y-10640071D02*
X18537250Y-10640071D01*
X18462250Y-11165071D02*
X18462250Y-11315071D01*
X18387250Y-11240071D02*
X18537250Y-11240071D01*
D15*
X14573569Y-6631569D02*
X14573569Y-6518431D01*
X14460431Y-6518431D01*
X14460431Y-6631569D01*
X14573569Y-6631569D01*
D11*
X14662000Y-6495000D02*
X14372000Y-6495000D01*
X14662000Y-6655000D02*
X14372000Y-6655000D01*
X14372000Y-6495000D02*
G75*
G03*
X14372000Y-6655000I0J-80000D01*
G01*
X14662000Y-6655000D02*
G75*
G03*
X14662000Y-6495000I0J80000D01*
G01*
D16*
X12000000Y-7160000D02*
X12160000Y-7000000D01*
X12000000Y-6840000D01*
X11840000Y-7000000D01*
X12000000Y-7160000D01*
X17561000Y-7160000D02*
X17721000Y-7000000D01*
X17561000Y-6840000D01*
X17401000Y-7000000D01*
X17561000Y-7160000D01*
D11*
X10244619Y-11865476D02*
X10244619Y-11665476D01*
X10292238Y-11665476D01*
X10320810Y-11675000D01*
X10339857Y-11694048D01*
X10349381Y-11713095D01*
X10358905Y-11751190D01*
X10358905Y-11779762D01*
X10349381Y-11817857D01*
X10339857Y-11836905D01*
X10320810Y-11855952D01*
X10292238Y-11865476D01*
X10244619Y-11865476D01*
X10444619Y-11865476D02*
X10444619Y-11732143D01*
X10444619Y-11770238D02*
X10454143Y-11751190D01*
X10463667Y-11741667D01*
X10482714Y-11732143D01*
X10501762Y-11732143D01*
X10568429Y-11865476D02*
X10568429Y-11732143D01*
X10568429Y-11665476D02*
X10558905Y-11675000D01*
X10568429Y-11684524D01*
X10577952Y-11675000D01*
X10568429Y-11665476D01*
X10568429Y-11684524D01*
X10692238Y-11865476D02*
X10673190Y-11855952D01*
X10663667Y-11836905D01*
X10663667Y-11665476D01*
X10797000Y-11865476D02*
X10777952Y-11855952D01*
X10768429Y-11836905D01*
X10768429Y-11665476D01*
X11025571Y-11865476D02*
X11025571Y-11665476D01*
X11092238Y-11808333D01*
X11158905Y-11665476D01*
X11158905Y-11865476D01*
X11339857Y-11865476D02*
X11339857Y-11760714D01*
X11330333Y-11741667D01*
X11311286Y-11732143D01*
X11273190Y-11732143D01*
X11254143Y-11741667D01*
X11339857Y-11855952D02*
X11320809Y-11865476D01*
X11273190Y-11865476D01*
X11254143Y-11855952D01*
X11244619Y-11836905D01*
X11244619Y-11817857D01*
X11254143Y-11798809D01*
X11273190Y-11789286D01*
X11320809Y-11789286D01*
X11339857Y-11779762D01*
X11435095Y-11732143D02*
X11435095Y-11932143D01*
X11435095Y-11741667D02*
X11454143Y-11732143D01*
X11492238Y-11732143D01*
X11511286Y-11741667D01*
X11520809Y-11751190D01*
X11530333Y-11770238D01*
X11530333Y-11827381D01*
X11520809Y-11846428D01*
X11511286Y-11855952D01*
X11492238Y-11865476D01*
X11454143Y-11865476D01*
X11435095Y-11855952D01*
X11616048Y-11846428D02*
X11625571Y-11855952D01*
X11616048Y-11865476D01*
X11606524Y-11855952D01*
X11616048Y-11846428D01*
X11616048Y-11865476D01*
X11616048Y-11741667D02*
X11625571Y-11751190D01*
X11616048Y-11760714D01*
X11606524Y-11751190D01*
X11616048Y-11741667D01*
X11616048Y-11760714D01*
D12*
X9922000Y-12162500D02*
X9987000Y-12227500D01*
X9987000Y-12162500D02*
X9922000Y-12227500D01*
D11*
X10282714Y-12085476D02*
X10301762Y-12085476D01*
X10320810Y-12095000D01*
X10330333Y-12104524D01*
X10339857Y-12123571D01*
X10349381Y-12161667D01*
X10349381Y-12209286D01*
X10339857Y-12247381D01*
X10330333Y-12266428D01*
X10320810Y-12275952D01*
X10301762Y-12285476D01*
X10282714Y-12285476D01*
X10263667Y-12275952D01*
X10254143Y-12266428D01*
X10244619Y-12247381D01*
X10235095Y-12209286D01*
X10235095Y-12161667D01*
X10244619Y-12123571D01*
X10254143Y-12104524D01*
X10263667Y-12095000D01*
X10282714Y-12085476D01*
X10435095Y-12266428D02*
X10444619Y-12275952D01*
X10435095Y-12285476D01*
X10425571Y-12275952D01*
X10435095Y-12266428D01*
X10435095Y-12285476D01*
X10616048Y-12085476D02*
X10577952Y-12085476D01*
X10558905Y-12095000D01*
X10549381Y-12104524D01*
X10530333Y-12133095D01*
X10520810Y-12171190D01*
X10520810Y-12247381D01*
X10530333Y-12266428D01*
X10539857Y-12275952D01*
X10558905Y-12285476D01*
X10597000Y-12285476D01*
X10616048Y-12275952D01*
X10625571Y-12266428D01*
X10635095Y-12247381D01*
X10635095Y-12199762D01*
X10625571Y-12180714D01*
X10616048Y-12171190D01*
X10597000Y-12161667D01*
X10558905Y-12161667D01*
X10539857Y-12171190D01*
X10530333Y-12180714D01*
X10520810Y-12199762D01*
X10816048Y-12085476D02*
X10720810Y-12085476D01*
X10711286Y-12180714D01*
X10720810Y-12171190D01*
X10739857Y-12161667D01*
X10787476Y-12161667D01*
X10806524Y-12171190D01*
X10816048Y-12180714D01*
X10825571Y-12199762D01*
X10825571Y-12247381D01*
X10816048Y-12266428D01*
X10806524Y-12275952D01*
X10787476Y-12285476D01*
X10739857Y-12285476D01*
X10720810Y-12275952D01*
X10711286Y-12266428D01*
X10949381Y-12085476D02*
X10968429Y-12085476D01*
X10987476Y-12095000D01*
X10997000Y-12104524D01*
X11006524Y-12123571D01*
X11016048Y-12161667D01*
X11016048Y-12209286D01*
X11006524Y-12247381D01*
X10997000Y-12266428D01*
X10987476Y-12275952D01*
X10968429Y-12285476D01*
X10949381Y-12285476D01*
X10930333Y-12275952D01*
X10920810Y-12266428D01*
X10911286Y-12247381D01*
X10901762Y-12209286D01*
X10901762Y-12161667D01*
X10911286Y-12123571D01*
X10920810Y-12104524D01*
X10930333Y-12095000D01*
X10949381Y-12085476D01*
X11101762Y-12285476D02*
X11101762Y-12152143D01*
X11101762Y-12171190D02*
X11111286Y-12161667D01*
X11130333Y-12152143D01*
X11158905Y-12152143D01*
X11177952Y-12161667D01*
X11187476Y-12180714D01*
X11187476Y-12285476D01*
X11187476Y-12180714D02*
X11197000Y-12161667D01*
X11216048Y-12152143D01*
X11244619Y-12152143D01*
X11263667Y-12161667D01*
X11273190Y-12180714D01*
X11273190Y-12285476D01*
X11368428Y-12285476D02*
X11368428Y-12152143D01*
X11368428Y-12171190D02*
X11377952Y-12161667D01*
X11397000Y-12152143D01*
X11425571Y-12152143D01*
X11444619Y-12161667D01*
X11454143Y-12180714D01*
X11454143Y-12285476D01*
X11454143Y-12180714D02*
X11463667Y-12161667D01*
X11482714Y-12152143D01*
X11511286Y-12152143D01*
X11530333Y-12161667D01*
X11539857Y-12180714D01*
X11539857Y-12285476D01*
X11930333Y-12075952D02*
X11758905Y-12333095D01*
X12187476Y-12085476D02*
X12206524Y-12085476D01*
X12225571Y-12095000D01*
X12235095Y-12104524D01*
X12244619Y-12123571D01*
X12254143Y-12161667D01*
X12254143Y-12209286D01*
X12244619Y-12247381D01*
X12235095Y-12266428D01*
X12225571Y-12275952D01*
X12206524Y-12285476D01*
X12187476Y-12285476D01*
X12168428Y-12275952D01*
X12158905Y-12266428D01*
X12149381Y-12247381D01*
X12139857Y-12209286D01*
X12139857Y-12161667D01*
X12149381Y-12123571D01*
X12158905Y-12104524D01*
X12168428Y-12095000D01*
X12187476Y-12085476D01*
X12339857Y-12266428D02*
X12349381Y-12275952D01*
X12339857Y-12285476D01*
X12330333Y-12275952D01*
X12339857Y-12266428D01*
X12339857Y-12285476D01*
X12473190Y-12085476D02*
X12492238Y-12085476D01*
X12511286Y-12095000D01*
X12520809Y-12104524D01*
X12530333Y-12123571D01*
X12539857Y-12161667D01*
X12539857Y-12209286D01*
X12530333Y-12247381D01*
X12520809Y-12266428D01*
X12511286Y-12275952D01*
X12492238Y-12285476D01*
X12473190Y-12285476D01*
X12454143Y-12275952D01*
X12444619Y-12266428D01*
X12435095Y-12247381D01*
X12425571Y-12209286D01*
X12425571Y-12161667D01*
X12435095Y-12123571D01*
X12444619Y-12104524D01*
X12454143Y-12095000D01*
X12473190Y-12085476D01*
X12616048Y-12104524D02*
X12625571Y-12095000D01*
X12644619Y-12085476D01*
X12692238Y-12085476D01*
X12711286Y-12095000D01*
X12720809Y-12104524D01*
X12730333Y-12123571D01*
X12730333Y-12142619D01*
X12720809Y-12171190D01*
X12606524Y-12285476D01*
X12730333Y-12285476D01*
X12911286Y-12085476D02*
X12816048Y-12085476D01*
X12806524Y-12180714D01*
X12816048Y-12171190D01*
X12835095Y-12161667D01*
X12882714Y-12161667D01*
X12901762Y-12171190D01*
X12911286Y-12180714D01*
X12920809Y-12199762D01*
X12920809Y-12247381D01*
X12911286Y-12266428D01*
X12901762Y-12275952D01*
X12882714Y-12285476D01*
X12835095Y-12285476D01*
X12816048Y-12275952D01*
X12806524Y-12266428D01*
X13092238Y-12085476D02*
X13054143Y-12085476D01*
X13035095Y-12095000D01*
X13025571Y-12104524D01*
X13006524Y-12133095D01*
X12997000Y-12171190D01*
X12997000Y-12247381D01*
X13006524Y-12266428D01*
X13016048Y-12275952D01*
X13035095Y-12285476D01*
X13073190Y-12285476D01*
X13092238Y-12275952D01*
X13101762Y-12266428D01*
X13111286Y-12247381D01*
X13111286Y-12199762D01*
X13101762Y-12180714D01*
X13092238Y-12171190D01*
X13073190Y-12161667D01*
X13035095Y-12161667D01*
X13016048Y-12171190D01*
X13006524Y-12180714D01*
X12997000Y-12199762D01*
X13187476Y-12085476D02*
X13187476Y-12123571D01*
X13263667Y-12085476D02*
X13263667Y-12123571D01*
X13558905Y-12361667D02*
X13549381Y-12352143D01*
X13530333Y-12323571D01*
X13520809Y-12304524D01*
X13511286Y-12275952D01*
X13501762Y-12228333D01*
X13501762Y-12190238D01*
X13511286Y-12142619D01*
X13520809Y-12114048D01*
X13530333Y-12095000D01*
X13549381Y-12066428D01*
X13558905Y-12056905D01*
X13625571Y-12104524D02*
X13635095Y-12095000D01*
X13654143Y-12085476D01*
X13701762Y-12085476D01*
X13720809Y-12095000D01*
X13730333Y-12104524D01*
X13739857Y-12123571D01*
X13739857Y-12142619D01*
X13730333Y-12171190D01*
X13616048Y-12285476D01*
X13739857Y-12285476D01*
X13977952Y-12285476D02*
X13977952Y-12085476D01*
X14063667Y-12285476D02*
X14063667Y-12180714D01*
X14054143Y-12161667D01*
X14035095Y-12152143D01*
X14006524Y-12152143D01*
X13987476Y-12161667D01*
X13977952Y-12171190D01*
X14187476Y-12285476D02*
X14168428Y-12275952D01*
X14158905Y-12266428D01*
X14149381Y-12247381D01*
X14149381Y-12190238D01*
X14158905Y-12171190D01*
X14168428Y-12161667D01*
X14187476Y-12152143D01*
X14216048Y-12152143D01*
X14235095Y-12161667D01*
X14244619Y-12171190D01*
X14254143Y-12190238D01*
X14254143Y-12247381D01*
X14244619Y-12266428D01*
X14235095Y-12275952D01*
X14216048Y-12285476D01*
X14187476Y-12285476D01*
X14368428Y-12285476D02*
X14349381Y-12275952D01*
X14339857Y-12256905D01*
X14339857Y-12085476D01*
X14520809Y-12275952D02*
X14501762Y-12285476D01*
X14463667Y-12285476D01*
X14444619Y-12275952D01*
X14435095Y-12256905D01*
X14435095Y-12180714D01*
X14444619Y-12161667D01*
X14463667Y-12152143D01*
X14501762Y-12152143D01*
X14520809Y-12161667D01*
X14530333Y-12180714D01*
X14530333Y-12199762D01*
X14435095Y-12218809D01*
X14606524Y-12275952D02*
X14625571Y-12285476D01*
X14663667Y-12285476D01*
X14682714Y-12275952D01*
X14692238Y-12256905D01*
X14692238Y-12247381D01*
X14682714Y-12228333D01*
X14663667Y-12218809D01*
X14635095Y-12218809D01*
X14616048Y-12209286D01*
X14606524Y-12190238D01*
X14606524Y-12180714D01*
X14616048Y-12161667D01*
X14635095Y-12152143D01*
X14663667Y-12152143D01*
X14682714Y-12161667D01*
X14758905Y-12361667D02*
X14768428Y-12352143D01*
X14787476Y-12323571D01*
X14797000Y-12304524D01*
X14806524Y-12275952D01*
X14816048Y-12228333D01*
X14816048Y-12190238D01*
X14806524Y-12142619D01*
X14797000Y-12114048D01*
X14787476Y-12095000D01*
X14768428Y-12066428D01*
X14758905Y-12056905D01*
X15120809Y-12361667D02*
X15111286Y-12352143D01*
X15092238Y-12323571D01*
X15082714Y-12304524D01*
X15073190Y-12275952D01*
X15063667Y-12228333D01*
X15063667Y-12190238D01*
X15073190Y-12142619D01*
X15082714Y-12114048D01*
X15092238Y-12095000D01*
X15111286Y-12066428D01*
X15120809Y-12056905D01*
X15197000Y-12152143D02*
X15197000Y-12285476D01*
X15197000Y-12171190D02*
X15206524Y-12161667D01*
X15225571Y-12152143D01*
X15254143Y-12152143D01*
X15273190Y-12161667D01*
X15282714Y-12180714D01*
X15282714Y-12285476D01*
X15406524Y-12285476D02*
X15387476Y-12275952D01*
X15377952Y-12266428D01*
X15368428Y-12247381D01*
X15368428Y-12190238D01*
X15377952Y-12171190D01*
X15387476Y-12161667D01*
X15406524Y-12152143D01*
X15435095Y-12152143D01*
X15454143Y-12161667D01*
X15463667Y-12171190D01*
X15473190Y-12190238D01*
X15473190Y-12247381D01*
X15463667Y-12266428D01*
X15454143Y-12275952D01*
X15435095Y-12285476D01*
X15406524Y-12285476D01*
X15530333Y-12152143D02*
X15606524Y-12152143D01*
X15558905Y-12085476D02*
X15558905Y-12256905D01*
X15568428Y-12275952D01*
X15587476Y-12285476D01*
X15606524Y-12285476D01*
X15825571Y-12152143D02*
X15825571Y-12352143D01*
X15825571Y-12161667D02*
X15844619Y-12152143D01*
X15882714Y-12152143D01*
X15901762Y-12161667D01*
X15911286Y-12171190D01*
X15920809Y-12190238D01*
X15920809Y-12247381D01*
X15911286Y-12266428D01*
X15901762Y-12275952D01*
X15882714Y-12285476D01*
X15844619Y-12285476D01*
X15825571Y-12275952D01*
X16035095Y-12285476D02*
X16016048Y-12275952D01*
X16006524Y-12256905D01*
X16006524Y-12085476D01*
X16197000Y-12285476D02*
X16197000Y-12180714D01*
X16187476Y-12161667D01*
X16168428Y-12152143D01*
X16130333Y-12152143D01*
X16111286Y-12161667D01*
X16197000Y-12275952D02*
X16177952Y-12285476D01*
X16130333Y-12285476D01*
X16111286Y-12275952D01*
X16101762Y-12256905D01*
X16101762Y-12237857D01*
X16111286Y-12218809D01*
X16130333Y-12209286D01*
X16177952Y-12209286D01*
X16197000Y-12199762D01*
X16263667Y-12152143D02*
X16339857Y-12152143D01*
X16292238Y-12085476D02*
X16292238Y-12256905D01*
X16301762Y-12275952D01*
X16320809Y-12285476D01*
X16339857Y-12285476D01*
X16482714Y-12275952D02*
X16463667Y-12285476D01*
X16425571Y-12285476D01*
X16406524Y-12275952D01*
X16397000Y-12256905D01*
X16397000Y-12180714D01*
X16406524Y-12161667D01*
X16425571Y-12152143D01*
X16463667Y-12152143D01*
X16482714Y-12161667D01*
X16492238Y-12180714D01*
X16492238Y-12199762D01*
X16397000Y-12218809D01*
X16663667Y-12285476D02*
X16663667Y-12085476D01*
X16663667Y-12275952D02*
X16644619Y-12285476D01*
X16606524Y-12285476D01*
X16587476Y-12275952D01*
X16577952Y-12266428D01*
X16568428Y-12247381D01*
X16568428Y-12190238D01*
X16577952Y-12171190D01*
X16587476Y-12161667D01*
X16606524Y-12152143D01*
X16644619Y-12152143D01*
X16663667Y-12161667D01*
X16739857Y-12361667D02*
X16749381Y-12352143D01*
X16768428Y-12323571D01*
X16777952Y-12304524D01*
X16787476Y-12275952D01*
X16797000Y-12228333D01*
X16797000Y-12190238D01*
X16787476Y-12142619D01*
X16777952Y-12114048D01*
X16768428Y-12095000D01*
X16749381Y-12066428D01*
X16739857Y-12056905D01*
D13*
X9987000Y-12459000D02*
G75*
G03*
X9987000Y-12459000I-45000J0D01*
G01*
D11*
X10282714Y-12349476D02*
X10301762Y-12349476D01*
X10320810Y-12359000D01*
X10330333Y-12368524D01*
X10339857Y-12387571D01*
X10349381Y-12425667D01*
X10349381Y-12473286D01*
X10339857Y-12511381D01*
X10330333Y-12530428D01*
X10320810Y-12539952D01*
X10301762Y-12549476D01*
X10282714Y-12549476D01*
X10263667Y-12539952D01*
X10254143Y-12530428D01*
X10244619Y-12511381D01*
X10235095Y-12473286D01*
X10235095Y-12425667D01*
X10244619Y-12387571D01*
X10254143Y-12368524D01*
X10263667Y-12359000D01*
X10282714Y-12349476D01*
X10435095Y-12530428D02*
X10444619Y-12539952D01*
X10435095Y-12549476D01*
X10425571Y-12539952D01*
X10435095Y-12530428D01*
X10435095Y-12549476D01*
X10539857Y-12549476D02*
X10577952Y-12549476D01*
X10597000Y-12539952D01*
X10606524Y-12530428D01*
X10625571Y-12501857D01*
X10635095Y-12463762D01*
X10635095Y-12387571D01*
X10625571Y-12368524D01*
X10616048Y-12359000D01*
X10597000Y-12349476D01*
X10558905Y-12349476D01*
X10539857Y-12359000D01*
X10530333Y-12368524D01*
X10520810Y-12387571D01*
X10520810Y-12435190D01*
X10530333Y-12454238D01*
X10539857Y-12463762D01*
X10558905Y-12473286D01*
X10597000Y-12473286D01*
X10616048Y-12463762D01*
X10625571Y-12454238D01*
X10635095Y-12435190D01*
X10758905Y-12349476D02*
X10777952Y-12349476D01*
X10797000Y-12359000D01*
X10806524Y-12368524D01*
X10816048Y-12387571D01*
X10825571Y-12425667D01*
X10825571Y-12473286D01*
X10816048Y-12511381D01*
X10806524Y-12530428D01*
X10797000Y-12539952D01*
X10777952Y-12549476D01*
X10758905Y-12549476D01*
X10739857Y-12539952D01*
X10730333Y-12530428D01*
X10720810Y-12511381D01*
X10711286Y-12473286D01*
X10711286Y-12425667D01*
X10720810Y-12387571D01*
X10730333Y-12368524D01*
X10739857Y-12359000D01*
X10758905Y-12349476D01*
X10949381Y-12349476D02*
X10968429Y-12349476D01*
X10987476Y-12359000D01*
X10997000Y-12368524D01*
X11006524Y-12387571D01*
X11016048Y-12425667D01*
X11016048Y-12473286D01*
X11006524Y-12511381D01*
X10997000Y-12530428D01*
X10987476Y-12539952D01*
X10968429Y-12549476D01*
X10949381Y-12549476D01*
X10930333Y-12539952D01*
X10920810Y-12530428D01*
X10911286Y-12511381D01*
X10901762Y-12473286D01*
X10901762Y-12425667D01*
X10911286Y-12387571D01*
X10920810Y-12368524D01*
X10930333Y-12359000D01*
X10949381Y-12349476D01*
X11101762Y-12549476D02*
X11101762Y-12416143D01*
X11101762Y-12435190D02*
X11111286Y-12425667D01*
X11130333Y-12416143D01*
X11158905Y-12416143D01*
X11177952Y-12425667D01*
X11187476Y-12444714D01*
X11187476Y-12549476D01*
X11187476Y-12444714D02*
X11197000Y-12425667D01*
X11216048Y-12416143D01*
X11244619Y-12416143D01*
X11263667Y-12425667D01*
X11273190Y-12444714D01*
X11273190Y-12549476D01*
X11368428Y-12549476D02*
X11368428Y-12416143D01*
X11368428Y-12435190D02*
X11377952Y-12425667D01*
X11397000Y-12416143D01*
X11425571Y-12416143D01*
X11444619Y-12425667D01*
X11454143Y-12444714D01*
X11454143Y-12549476D01*
X11454143Y-12444714D02*
X11463667Y-12425667D01*
X11482714Y-12416143D01*
X11511286Y-12416143D01*
X11530333Y-12425667D01*
X11539857Y-12444714D01*
X11539857Y-12549476D01*
X11930333Y-12339952D02*
X11758905Y-12597095D01*
X12187476Y-12349476D02*
X12206524Y-12349476D01*
X12225571Y-12359000D01*
X12235095Y-12368524D01*
X12244619Y-12387571D01*
X12254143Y-12425667D01*
X12254143Y-12473286D01*
X12244619Y-12511381D01*
X12235095Y-12530428D01*
X12225571Y-12539952D01*
X12206524Y-12549476D01*
X12187476Y-12549476D01*
X12168428Y-12539952D01*
X12158905Y-12530428D01*
X12149381Y-12511381D01*
X12139857Y-12473286D01*
X12139857Y-12425667D01*
X12149381Y-12387571D01*
X12158905Y-12368524D01*
X12168428Y-12359000D01*
X12187476Y-12349476D01*
X12339857Y-12530428D02*
X12349381Y-12539952D01*
X12339857Y-12549476D01*
X12330333Y-12539952D01*
X12339857Y-12530428D01*
X12339857Y-12549476D01*
X12473190Y-12349476D02*
X12492238Y-12349476D01*
X12511286Y-12359000D01*
X12520809Y-12368524D01*
X12530333Y-12387571D01*
X12539857Y-12425667D01*
X12539857Y-12473286D01*
X12530333Y-12511381D01*
X12520809Y-12530428D01*
X12511286Y-12539952D01*
X12492238Y-12549476D01*
X12473190Y-12549476D01*
X12454143Y-12539952D01*
X12444619Y-12530428D01*
X12435095Y-12511381D01*
X12425571Y-12473286D01*
X12425571Y-12425667D01*
X12435095Y-12387571D01*
X12444619Y-12368524D01*
X12454143Y-12359000D01*
X12473190Y-12349476D01*
X12606524Y-12349476D02*
X12730333Y-12349476D01*
X12663667Y-12425667D01*
X12692238Y-12425667D01*
X12711286Y-12435190D01*
X12720809Y-12444714D01*
X12730333Y-12463762D01*
X12730333Y-12511381D01*
X12720809Y-12530428D01*
X12711286Y-12539952D01*
X12692238Y-12549476D01*
X12635095Y-12549476D01*
X12616048Y-12539952D01*
X12606524Y-12530428D01*
X12911286Y-12349476D02*
X12816048Y-12349476D01*
X12806524Y-12444714D01*
X12816048Y-12435190D01*
X12835095Y-12425667D01*
X12882714Y-12425667D01*
X12901762Y-12435190D01*
X12911286Y-12444714D01*
X12920809Y-12463762D01*
X12920809Y-12511381D01*
X12911286Y-12530428D01*
X12901762Y-12539952D01*
X12882714Y-12549476D01*
X12835095Y-12549476D01*
X12816048Y-12539952D01*
X12806524Y-12530428D01*
X13092238Y-12416143D02*
X13092238Y-12549476D01*
X13044619Y-12339952D02*
X12997000Y-12482809D01*
X13120809Y-12482809D01*
X13187476Y-12349476D02*
X13187476Y-12387571D01*
X13263667Y-12349476D02*
X13263667Y-12387571D01*
X13558905Y-12625667D02*
X13549381Y-12616143D01*
X13530333Y-12587571D01*
X13520809Y-12568524D01*
X13511286Y-12539952D01*
X13501762Y-12492333D01*
X13501762Y-12454238D01*
X13511286Y-12406619D01*
X13520809Y-12378048D01*
X13530333Y-12359000D01*
X13549381Y-12330428D01*
X13558905Y-12320905D01*
X13625571Y-12368524D02*
X13635095Y-12359000D01*
X13654143Y-12349476D01*
X13701762Y-12349476D01*
X13720809Y-12359000D01*
X13730333Y-12368524D01*
X13739857Y-12387571D01*
X13739857Y-12406619D01*
X13730333Y-12435190D01*
X13616048Y-12549476D01*
X13739857Y-12549476D01*
X13977952Y-12549476D02*
X13977952Y-12349476D01*
X14063667Y-12549476D02*
X14063667Y-12444714D01*
X14054143Y-12425667D01*
X14035095Y-12416143D01*
X14006524Y-12416143D01*
X13987476Y-12425667D01*
X13977952Y-12435190D01*
X14187476Y-12549476D02*
X14168428Y-12539952D01*
X14158905Y-12530428D01*
X14149381Y-12511381D01*
X14149381Y-12454238D01*
X14158905Y-12435190D01*
X14168428Y-12425667D01*
X14187476Y-12416143D01*
X14216048Y-12416143D01*
X14235095Y-12425667D01*
X14244619Y-12435190D01*
X14254143Y-12454238D01*
X14254143Y-12511381D01*
X14244619Y-12530428D01*
X14235095Y-12539952D01*
X14216048Y-12549476D01*
X14187476Y-12549476D01*
X14368428Y-12549476D02*
X14349381Y-12539952D01*
X14339857Y-12520905D01*
X14339857Y-12349476D01*
X14520809Y-12539952D02*
X14501762Y-12549476D01*
X14463667Y-12549476D01*
X14444619Y-12539952D01*
X14435095Y-12520905D01*
X14435095Y-12444714D01*
X14444619Y-12425667D01*
X14463667Y-12416143D01*
X14501762Y-12416143D01*
X14520809Y-12425667D01*
X14530333Y-12444714D01*
X14530333Y-12463762D01*
X14435095Y-12482809D01*
X14606524Y-12539952D02*
X14625571Y-12549476D01*
X14663667Y-12549476D01*
X14682714Y-12539952D01*
X14692238Y-12520905D01*
X14692238Y-12511381D01*
X14682714Y-12492333D01*
X14663667Y-12482809D01*
X14635095Y-12482809D01*
X14616048Y-12473286D01*
X14606524Y-12454238D01*
X14606524Y-12444714D01*
X14616048Y-12425667D01*
X14635095Y-12416143D01*
X14663667Y-12416143D01*
X14682714Y-12425667D01*
X14758905Y-12625667D02*
X14768428Y-12616143D01*
X14787476Y-12587571D01*
X14797000Y-12568524D01*
X14806524Y-12539952D01*
X14816048Y-12492333D01*
X14816048Y-12454238D01*
X14806524Y-12406619D01*
X14797000Y-12378048D01*
X14787476Y-12359000D01*
X14768428Y-12330428D01*
X14758905Y-12320905D01*
X15120809Y-12625667D02*
X15111286Y-12616143D01*
X15092238Y-12587571D01*
X15082714Y-12568524D01*
X15073190Y-12539952D01*
X15063667Y-12492333D01*
X15063667Y-12454238D01*
X15073190Y-12406619D01*
X15082714Y-12378048D01*
X15092238Y-12359000D01*
X15111286Y-12330428D01*
X15120809Y-12320905D01*
X15197000Y-12416143D02*
X15197000Y-12549476D01*
X15197000Y-12435190D02*
X15206524Y-12425667D01*
X15225571Y-12416143D01*
X15254143Y-12416143D01*
X15273190Y-12425667D01*
X15282714Y-12444714D01*
X15282714Y-12549476D01*
X15406524Y-12549476D02*
X15387476Y-12539952D01*
X15377952Y-12530428D01*
X15368428Y-12511381D01*
X15368428Y-12454238D01*
X15377952Y-12435190D01*
X15387476Y-12425667D01*
X15406524Y-12416143D01*
X15435095Y-12416143D01*
X15454143Y-12425667D01*
X15463667Y-12435190D01*
X15473190Y-12454238D01*
X15473190Y-12511381D01*
X15463667Y-12530428D01*
X15454143Y-12539952D01*
X15435095Y-12549476D01*
X15406524Y-12549476D01*
X15530333Y-12416143D02*
X15606524Y-12416143D01*
X15558905Y-12349476D02*
X15558905Y-12520905D01*
X15568428Y-12539952D01*
X15587476Y-12549476D01*
X15606524Y-12549476D01*
X15825571Y-12416143D02*
X15825571Y-12616143D01*
X15825571Y-12425667D02*
X15844619Y-12416143D01*
X15882714Y-12416143D01*
X15901762Y-12425667D01*
X15911286Y-12435190D01*
X15920809Y-12454238D01*
X15920809Y-12511381D01*
X15911286Y-12530428D01*
X15901762Y-12539952D01*
X15882714Y-12549476D01*
X15844619Y-12549476D01*
X15825571Y-12539952D01*
X16035095Y-12549476D02*
X16016048Y-12539952D01*
X16006524Y-12520905D01*
X16006524Y-12349476D01*
X16197000Y-12549476D02*
X16197000Y-12444714D01*
X16187476Y-12425667D01*
X16168428Y-12416143D01*
X16130333Y-12416143D01*
X16111286Y-12425667D01*
X16197000Y-12539952D02*
X16177952Y-12549476D01*
X16130333Y-12549476D01*
X16111286Y-12539952D01*
X16101762Y-12520905D01*
X16101762Y-12501857D01*
X16111286Y-12482809D01*
X16130333Y-12473286D01*
X16177952Y-12473286D01*
X16197000Y-12463762D01*
X16263667Y-12416143D02*
X16339857Y-12416143D01*
X16292238Y-12349476D02*
X16292238Y-12520905D01*
X16301762Y-12539952D01*
X16320809Y-12549476D01*
X16339857Y-12549476D01*
X16482714Y-12539952D02*
X16463667Y-12549476D01*
X16425571Y-12549476D01*
X16406524Y-12539952D01*
X16397000Y-12520905D01*
X16397000Y-12444714D01*
X16406524Y-12425667D01*
X16425571Y-12416143D01*
X16463667Y-12416143D01*
X16482714Y-12425667D01*
X16492238Y-12444714D01*
X16492238Y-12463762D01*
X16397000Y-12482809D01*
X16663667Y-12549476D02*
X16663667Y-12349476D01*
X16663667Y-12539952D02*
X16644619Y-12549476D01*
X16606524Y-12549476D01*
X16587476Y-12539952D01*
X16577952Y-12530428D01*
X16568428Y-12511381D01*
X16568428Y-12454238D01*
X16577952Y-12435190D01*
X16587476Y-12425667D01*
X16606524Y-12416143D01*
X16644619Y-12416143D01*
X16663667Y-12425667D01*
X16739857Y-12625667D02*
X16749381Y-12616143D01*
X16768428Y-12587571D01*
X16777952Y-12568524D01*
X16787476Y-12539952D01*
X16797000Y-12492333D01*
X16797000Y-12454238D01*
X16787476Y-12406619D01*
X16777952Y-12378048D01*
X16768428Y-12359000D01*
X16749381Y-12330428D01*
X16739857Y-12320905D01*
D14*
X9912000Y-12648000D02*
X9912000Y-12798000D01*
X9837000Y-12723000D02*
X9987000Y-12723000D01*
D11*
X10349381Y-12813476D02*
X10235095Y-12813476D01*
X10292238Y-12813476D02*
X10292238Y-12613476D01*
X10273190Y-12642048D01*
X10254143Y-12661095D01*
X10235095Y-12670619D01*
X10435095Y-12794428D02*
X10444619Y-12803952D01*
X10435095Y-12813476D01*
X10425571Y-12803952D01*
X10435095Y-12794428D01*
X10435095Y-12813476D01*
X10625571Y-12613476D02*
X10530333Y-12613476D01*
X10520810Y-12708714D01*
X10530333Y-12699190D01*
X10549381Y-12689667D01*
X10597000Y-12689667D01*
X10616048Y-12699190D01*
X10625571Y-12708714D01*
X10635095Y-12727762D01*
X10635095Y-12775381D01*
X10625571Y-12794428D01*
X10616048Y-12803952D01*
X10597000Y-12813476D01*
X10549381Y-12813476D01*
X10530333Y-12803952D01*
X10520810Y-12794428D01*
X10758905Y-12613476D02*
X10777952Y-12613476D01*
X10797000Y-12623000D01*
X10806524Y-12632524D01*
X10816048Y-12651571D01*
X10825571Y-12689667D01*
X10825571Y-12737286D01*
X10816048Y-12775381D01*
X10806524Y-12794428D01*
X10797000Y-12803952D01*
X10777952Y-12813476D01*
X10758905Y-12813476D01*
X10739857Y-12803952D01*
X10730333Y-12794428D01*
X10720810Y-12775381D01*
X10711286Y-12737286D01*
X10711286Y-12689667D01*
X10720810Y-12651571D01*
X10730333Y-12632524D01*
X10739857Y-12623000D01*
X10758905Y-12613476D01*
X10949381Y-12613476D02*
X10968429Y-12613476D01*
X10987476Y-12623000D01*
X10997000Y-12632524D01*
X11006524Y-12651571D01*
X11016048Y-12689667D01*
X11016048Y-12737286D01*
X11006524Y-12775381D01*
X10997000Y-12794428D01*
X10987476Y-12803952D01*
X10968429Y-12813476D01*
X10949381Y-12813476D01*
X10930333Y-12803952D01*
X10920810Y-12794428D01*
X10911286Y-12775381D01*
X10901762Y-12737286D01*
X10901762Y-12689667D01*
X10911286Y-12651571D01*
X10920810Y-12632524D01*
X10930333Y-12623000D01*
X10949381Y-12613476D01*
X11101762Y-12813476D02*
X11101762Y-12680143D01*
X11101762Y-12699190D02*
X11111286Y-12689667D01*
X11130333Y-12680143D01*
X11158905Y-12680143D01*
X11177952Y-12689667D01*
X11187476Y-12708714D01*
X11187476Y-12813476D01*
X11187476Y-12708714D02*
X11197000Y-12689667D01*
X11216048Y-12680143D01*
X11244619Y-12680143D01*
X11263667Y-12689667D01*
X11273190Y-12708714D01*
X11273190Y-12813476D01*
X11368428Y-12813476D02*
X11368428Y-12680143D01*
X11368428Y-12699190D02*
X11377952Y-12689667D01*
X11397000Y-12680143D01*
X11425571Y-12680143D01*
X11444619Y-12689667D01*
X11454143Y-12708714D01*
X11454143Y-12813476D01*
X11454143Y-12708714D02*
X11463667Y-12689667D01*
X11482714Y-12680143D01*
X11511286Y-12680143D01*
X11530333Y-12689667D01*
X11539857Y-12708714D01*
X11539857Y-12813476D01*
X11930333Y-12603952D02*
X11758905Y-12861095D01*
X12187476Y-12613476D02*
X12206524Y-12613476D01*
X12225571Y-12623000D01*
X12235095Y-12632524D01*
X12244619Y-12651571D01*
X12254143Y-12689667D01*
X12254143Y-12737286D01*
X12244619Y-12775381D01*
X12235095Y-12794428D01*
X12225571Y-12803952D01*
X12206524Y-12813476D01*
X12187476Y-12813476D01*
X12168428Y-12803952D01*
X12158905Y-12794428D01*
X12149381Y-12775381D01*
X12139857Y-12737286D01*
X12139857Y-12689667D01*
X12149381Y-12651571D01*
X12158905Y-12632524D01*
X12168428Y-12623000D01*
X12187476Y-12613476D01*
X12339857Y-12794428D02*
X12349381Y-12803952D01*
X12339857Y-12813476D01*
X12330333Y-12803952D01*
X12339857Y-12794428D01*
X12339857Y-12813476D01*
X12473190Y-12613476D02*
X12492238Y-12613476D01*
X12511286Y-12623000D01*
X12520809Y-12632524D01*
X12530333Y-12651571D01*
X12539857Y-12689667D01*
X12539857Y-12737286D01*
X12530333Y-12775381D01*
X12520809Y-12794428D01*
X12511286Y-12803952D01*
X12492238Y-12813476D01*
X12473190Y-12813476D01*
X12454143Y-12803952D01*
X12444619Y-12794428D01*
X12435095Y-12775381D01*
X12425571Y-12737286D01*
X12425571Y-12689667D01*
X12435095Y-12651571D01*
X12444619Y-12632524D01*
X12454143Y-12623000D01*
X12473190Y-12613476D01*
X12720809Y-12613476D02*
X12625571Y-12613476D01*
X12616048Y-12708714D01*
X12625571Y-12699190D01*
X12644619Y-12689667D01*
X12692238Y-12689667D01*
X12711286Y-12699190D01*
X12720809Y-12708714D01*
X12730333Y-12727762D01*
X12730333Y-12775381D01*
X12720809Y-12794428D01*
X12711286Y-12803952D01*
X12692238Y-12813476D01*
X12644619Y-12813476D01*
X12625571Y-12803952D01*
X12616048Y-12794428D01*
X12825571Y-12813476D02*
X12863667Y-12813476D01*
X12882714Y-12803952D01*
X12892238Y-12794428D01*
X12911286Y-12765857D01*
X12920809Y-12727762D01*
X12920809Y-12651571D01*
X12911286Y-12632524D01*
X12901762Y-12623000D01*
X12882714Y-12613476D01*
X12844619Y-12613476D01*
X12825571Y-12623000D01*
X12816048Y-12632524D01*
X12806524Y-12651571D01*
X12806524Y-12699190D01*
X12816048Y-12718238D01*
X12825571Y-12727762D01*
X12844619Y-12737286D01*
X12882714Y-12737286D01*
X12901762Y-12727762D01*
X12911286Y-12718238D01*
X12920809Y-12699190D01*
X13111286Y-12813476D02*
X12997000Y-12813476D01*
X13054143Y-12813476D02*
X13054143Y-12613476D01*
X13035095Y-12642048D01*
X13016048Y-12661095D01*
X12997000Y-12670619D01*
X13187476Y-12613476D02*
X13187476Y-12651571D01*
X13263667Y-12613476D02*
X13263667Y-12651571D01*
X13558905Y-12889667D02*
X13549381Y-12880143D01*
X13530333Y-12851571D01*
X13520809Y-12832524D01*
X13511286Y-12803952D01*
X13501762Y-12756333D01*
X13501762Y-12718238D01*
X13511286Y-12670619D01*
X13520809Y-12642048D01*
X13530333Y-12623000D01*
X13549381Y-12594428D01*
X13558905Y-12584905D01*
X13720809Y-12680143D02*
X13720809Y-12813476D01*
X13673190Y-12603952D02*
X13625571Y-12746809D01*
X13749381Y-12746809D01*
X13977952Y-12813476D02*
X13977952Y-12613476D01*
X14063667Y-12813476D02*
X14063667Y-12708714D01*
X14054143Y-12689667D01*
X14035095Y-12680143D01*
X14006524Y-12680143D01*
X13987476Y-12689667D01*
X13977952Y-12699190D01*
X14187476Y-12813476D02*
X14168428Y-12803952D01*
X14158905Y-12794428D01*
X14149381Y-12775381D01*
X14149381Y-12718238D01*
X14158905Y-12699190D01*
X14168428Y-12689667D01*
X14187476Y-12680143D01*
X14216048Y-12680143D01*
X14235095Y-12689667D01*
X14244619Y-12699190D01*
X14254143Y-12718238D01*
X14254143Y-12775381D01*
X14244619Y-12794428D01*
X14235095Y-12803952D01*
X14216048Y-12813476D01*
X14187476Y-12813476D01*
X14368428Y-12813476D02*
X14349381Y-12803952D01*
X14339857Y-12784905D01*
X14339857Y-12613476D01*
X14520809Y-12803952D02*
X14501762Y-12813476D01*
X14463667Y-12813476D01*
X14444619Y-12803952D01*
X14435095Y-12784905D01*
X14435095Y-12708714D01*
X14444619Y-12689667D01*
X14463667Y-12680143D01*
X14501762Y-12680143D01*
X14520809Y-12689667D01*
X14530333Y-12708714D01*
X14530333Y-12727762D01*
X14435095Y-12746809D01*
X14606524Y-12803952D02*
X14625571Y-12813476D01*
X14663667Y-12813476D01*
X14682714Y-12803952D01*
X14692238Y-12784905D01*
X14692238Y-12775381D01*
X14682714Y-12756333D01*
X14663667Y-12746809D01*
X14635095Y-12746809D01*
X14616048Y-12737286D01*
X14606524Y-12718238D01*
X14606524Y-12708714D01*
X14616048Y-12689667D01*
X14635095Y-12680143D01*
X14663667Y-12680143D01*
X14682714Y-12689667D01*
X14758905Y-12889667D02*
X14768428Y-12880143D01*
X14787476Y-12851571D01*
X14797000Y-12832524D01*
X14806524Y-12803952D01*
X14816048Y-12756333D01*
X14816048Y-12718238D01*
X14806524Y-12670619D01*
X14797000Y-12642048D01*
X14787476Y-12623000D01*
X14768428Y-12594428D01*
X14758905Y-12584905D01*
X15120809Y-12889667D02*
X15111286Y-12880143D01*
X15092238Y-12851571D01*
X15082714Y-12832524D01*
X15073190Y-12803952D01*
X15063667Y-12756333D01*
X15063667Y-12718238D01*
X15073190Y-12670619D01*
X15082714Y-12642048D01*
X15092238Y-12623000D01*
X15111286Y-12594428D01*
X15120809Y-12584905D01*
X15197000Y-12680143D02*
X15197000Y-12813476D01*
X15197000Y-12699190D02*
X15206524Y-12689667D01*
X15225571Y-12680143D01*
X15254143Y-12680143D01*
X15273190Y-12689667D01*
X15282714Y-12708714D01*
X15282714Y-12813476D01*
X15406524Y-12813476D02*
X15387476Y-12803952D01*
X15377952Y-12794428D01*
X15368428Y-12775381D01*
X15368428Y-12718238D01*
X15377952Y-12699190D01*
X15387476Y-12689667D01*
X15406524Y-12680143D01*
X15435095Y-12680143D01*
X15454143Y-12689667D01*
X15463667Y-12699190D01*
X15473190Y-12718238D01*
X15473190Y-12775381D01*
X15463667Y-12794428D01*
X15454143Y-12803952D01*
X15435095Y-12813476D01*
X15406524Y-12813476D01*
X15530333Y-12680143D02*
X15606524Y-12680143D01*
X15558905Y-12613476D02*
X15558905Y-12784905D01*
X15568428Y-12803952D01*
X15587476Y-12813476D01*
X15606524Y-12813476D01*
X15825571Y-12680143D02*
X15825571Y-12880143D01*
X15825571Y-12689667D02*
X15844619Y-12680143D01*
X15882714Y-12680143D01*
X15901762Y-12689667D01*
X15911286Y-12699190D01*
X15920809Y-12718238D01*
X15920809Y-12775381D01*
X15911286Y-12794428D01*
X15901762Y-12803952D01*
X15882714Y-12813476D01*
X15844619Y-12813476D01*
X15825571Y-12803952D01*
X16035095Y-12813476D02*
X16016048Y-12803952D01*
X16006524Y-12784905D01*
X16006524Y-12613476D01*
X16197000Y-12813476D02*
X16197000Y-12708714D01*
X16187476Y-12689667D01*
X16168428Y-12680143D01*
X16130333Y-12680143D01*
X16111286Y-12689667D01*
X16197000Y-12803952D02*
X16177952Y-12813476D01*
X16130333Y-12813476D01*
X16111286Y-12803952D01*
X16101762Y-12784905D01*
X16101762Y-12765857D01*
X16111286Y-12746809D01*
X16130333Y-12737286D01*
X16177952Y-12737286D01*
X16197000Y-12727762D01*
X16263667Y-12680143D02*
X16339857Y-12680143D01*
X16292238Y-12613476D02*
X16292238Y-12784905D01*
X16301762Y-12803952D01*
X16320809Y-12813476D01*
X16339857Y-12813476D01*
X16482714Y-12803952D02*
X16463667Y-12813476D01*
X16425571Y-12813476D01*
X16406524Y-12803952D01*
X16397000Y-12784905D01*
X16397000Y-12708714D01*
X16406524Y-12689667D01*
X16425571Y-12680143D01*
X16463667Y-12680143D01*
X16482714Y-12689667D01*
X16492238Y-12708714D01*
X16492238Y-12727762D01*
X16397000Y-12746809D01*
X16663667Y-12813476D02*
X16663667Y-12613476D01*
X16663667Y-12803952D02*
X16644619Y-12813476D01*
X16606524Y-12813476D01*
X16587476Y-12803952D01*
X16577952Y-12794428D01*
X16568428Y-12775381D01*
X16568428Y-12718238D01*
X16577952Y-12699190D01*
X16587476Y-12689667D01*
X16606524Y-12680143D01*
X16644619Y-12680143D01*
X16663667Y-12689667D01*
X16739857Y-12889667D02*
X16749381Y-12880143D01*
X16768428Y-12851571D01*
X16777952Y-12832524D01*
X16787476Y-12803952D01*
X16797000Y-12756333D01*
X16797000Y-12718238D01*
X16787476Y-12670619D01*
X16777952Y-12642048D01*
X16768428Y-12623000D01*
X16749381Y-12594428D01*
X16739857Y-12584905D01*
D15*
X9963569Y-13049569D02*
X9963569Y-12936431D01*
X9850431Y-12936431D01*
X9850431Y-13049569D01*
X9963569Y-13049569D01*
D11*
X10349381Y-13083476D02*
X10235095Y-13083476D01*
X10292238Y-13083476D02*
X10292238Y-12883476D01*
X10273190Y-12912048D01*
X10254143Y-12931095D01*
X10235095Y-12940619D01*
X10435095Y-13064428D02*
X10444619Y-13073952D01*
X10435095Y-13083476D01*
X10425571Y-13073952D01*
X10435095Y-13064428D01*
X10435095Y-13083476D01*
X10616048Y-12883476D02*
X10577952Y-12883476D01*
X10558905Y-12893000D01*
X10549381Y-12902524D01*
X10530333Y-12931095D01*
X10520810Y-12969190D01*
X10520810Y-13045381D01*
X10530333Y-13064428D01*
X10539857Y-13073952D01*
X10558905Y-13083476D01*
X10597000Y-13083476D01*
X10616048Y-13073952D01*
X10625571Y-13064428D01*
X10635095Y-13045381D01*
X10635095Y-12997762D01*
X10625571Y-12978714D01*
X10616048Y-12969190D01*
X10597000Y-12959667D01*
X10558905Y-12959667D01*
X10539857Y-12969190D01*
X10530333Y-12978714D01*
X10520810Y-12997762D01*
X10758905Y-12883476D02*
X10777952Y-12883476D01*
X10797000Y-12893000D01*
X10806524Y-12902524D01*
X10816048Y-12921571D01*
X10825571Y-12959667D01*
X10825571Y-13007286D01*
X10816048Y-13045381D01*
X10806524Y-13064428D01*
X10797000Y-13073952D01*
X10777952Y-13083476D01*
X10758905Y-13083476D01*
X10739857Y-13073952D01*
X10730333Y-13064428D01*
X10720810Y-13045381D01*
X10711286Y-13007286D01*
X10711286Y-12959667D01*
X10720810Y-12921571D01*
X10730333Y-12902524D01*
X10739857Y-12893000D01*
X10758905Y-12883476D01*
X10949381Y-12883476D02*
X10968429Y-12883476D01*
X10987476Y-12893000D01*
X10997000Y-12902524D01*
X11006524Y-12921571D01*
X11016048Y-12959667D01*
X11016048Y-13007286D01*
X11006524Y-13045381D01*
X10997000Y-13064428D01*
X10987476Y-13073952D01*
X10968429Y-13083476D01*
X10949381Y-13083476D01*
X10930333Y-13073952D01*
X10920810Y-13064428D01*
X10911286Y-13045381D01*
X10901762Y-13007286D01*
X10901762Y-12959667D01*
X10911286Y-12921571D01*
X10920810Y-12902524D01*
X10930333Y-12893000D01*
X10949381Y-12883476D01*
X11101762Y-13083476D02*
X11101762Y-12950143D01*
X11101762Y-12969190D02*
X11111286Y-12959667D01*
X11130333Y-12950143D01*
X11158905Y-12950143D01*
X11177952Y-12959667D01*
X11187476Y-12978714D01*
X11187476Y-13083476D01*
X11187476Y-12978714D02*
X11197000Y-12959667D01*
X11216048Y-12950143D01*
X11244619Y-12950143D01*
X11263667Y-12959667D01*
X11273190Y-12978714D01*
X11273190Y-13083476D01*
X11368428Y-13083476D02*
X11368428Y-12950143D01*
X11368428Y-12969190D02*
X11377952Y-12959667D01*
X11397000Y-12950143D01*
X11425571Y-12950143D01*
X11444619Y-12959667D01*
X11454143Y-12978714D01*
X11454143Y-13083476D01*
X11454143Y-12978714D02*
X11463667Y-12959667D01*
X11482714Y-12950143D01*
X11511286Y-12950143D01*
X11530333Y-12959667D01*
X11539857Y-12978714D01*
X11539857Y-13083476D01*
X11930333Y-12873952D02*
X11758905Y-13131095D01*
X12187476Y-12883476D02*
X12206524Y-12883476D01*
X12225571Y-12893000D01*
X12235095Y-12902524D01*
X12244619Y-12921571D01*
X12254143Y-12959667D01*
X12254143Y-13007286D01*
X12244619Y-13045381D01*
X12235095Y-13064428D01*
X12225571Y-13073952D01*
X12206524Y-13083476D01*
X12187476Y-13083476D01*
X12168428Y-13073952D01*
X12158905Y-13064428D01*
X12149381Y-13045381D01*
X12139857Y-13007286D01*
X12139857Y-12959667D01*
X12149381Y-12921571D01*
X12158905Y-12902524D01*
X12168428Y-12893000D01*
X12187476Y-12883476D01*
X12339857Y-13064428D02*
X12349381Y-13073952D01*
X12339857Y-13083476D01*
X12330333Y-13073952D01*
X12339857Y-13064428D01*
X12339857Y-13083476D01*
X12473190Y-12883476D02*
X12492238Y-12883476D01*
X12511286Y-12893000D01*
X12520809Y-12902524D01*
X12530333Y-12921571D01*
X12539857Y-12959667D01*
X12539857Y-13007286D01*
X12530333Y-13045381D01*
X12520809Y-13064428D01*
X12511286Y-13073952D01*
X12492238Y-13083476D01*
X12473190Y-13083476D01*
X12454143Y-13073952D01*
X12444619Y-13064428D01*
X12435095Y-13045381D01*
X12425571Y-13007286D01*
X12425571Y-12959667D01*
X12435095Y-12921571D01*
X12444619Y-12902524D01*
X12454143Y-12893000D01*
X12473190Y-12883476D01*
X12711286Y-12883476D02*
X12673190Y-12883476D01*
X12654143Y-12893000D01*
X12644619Y-12902524D01*
X12625571Y-12931095D01*
X12616048Y-12969190D01*
X12616048Y-13045381D01*
X12625571Y-13064428D01*
X12635095Y-13073952D01*
X12654143Y-13083476D01*
X12692238Y-13083476D01*
X12711286Y-13073952D01*
X12720809Y-13064428D01*
X12730333Y-13045381D01*
X12730333Y-12997762D01*
X12720809Y-12978714D01*
X12711286Y-12969190D01*
X12692238Y-12959667D01*
X12654143Y-12959667D01*
X12635095Y-12969190D01*
X12625571Y-12978714D01*
X12616048Y-12997762D01*
X12797000Y-12883476D02*
X12920809Y-12883476D01*
X12854143Y-12959667D01*
X12882714Y-12959667D01*
X12901762Y-12969190D01*
X12911286Y-12978714D01*
X12920809Y-12997762D01*
X12920809Y-13045381D01*
X12911286Y-13064428D01*
X12901762Y-13073952D01*
X12882714Y-13083476D01*
X12825571Y-13083476D01*
X12806524Y-13073952D01*
X12797000Y-13064428D01*
X13044619Y-12883476D02*
X13063667Y-12883476D01*
X13082714Y-12893000D01*
X13092238Y-12902524D01*
X13101762Y-12921571D01*
X13111286Y-12959667D01*
X13111286Y-13007286D01*
X13101762Y-13045381D01*
X13092238Y-13064428D01*
X13082714Y-13073952D01*
X13063667Y-13083476D01*
X13044619Y-13083476D01*
X13025571Y-13073952D01*
X13016048Y-13064428D01*
X13006524Y-13045381D01*
X12997000Y-13007286D01*
X12997000Y-12959667D01*
X13006524Y-12921571D01*
X13016048Y-12902524D01*
X13025571Y-12893000D01*
X13044619Y-12883476D01*
X13187476Y-12883476D02*
X13187476Y-12921571D01*
X13263667Y-12883476D02*
X13263667Y-12921571D01*
X13558905Y-13159667D02*
X13549381Y-13150143D01*
X13530333Y-13121571D01*
X13520809Y-13102524D01*
X13511286Y-13073952D01*
X13501762Y-13026333D01*
X13501762Y-12988238D01*
X13511286Y-12940619D01*
X13520809Y-12912048D01*
X13530333Y-12893000D01*
X13549381Y-12864428D01*
X13558905Y-12854905D01*
X13739857Y-13083476D02*
X13625571Y-13083476D01*
X13682714Y-13083476D02*
X13682714Y-12883476D01*
X13663667Y-12912048D01*
X13644619Y-12931095D01*
X13625571Y-12940619D01*
X13968428Y-13073952D02*
X13987476Y-13083476D01*
X14025571Y-13083476D01*
X14044619Y-13073952D01*
X14054143Y-13054905D01*
X14054143Y-13045381D01*
X14044619Y-13026333D01*
X14025571Y-13016809D01*
X13997000Y-13016809D01*
X13977952Y-13007286D01*
X13968428Y-12988238D01*
X13968428Y-12978714D01*
X13977952Y-12959667D01*
X13997000Y-12950143D01*
X14025571Y-12950143D01*
X14044619Y-12959667D01*
X14168428Y-13083476D02*
X14149381Y-13073952D01*
X14139857Y-13054905D01*
X14139857Y-12883476D01*
X14273190Y-13083476D02*
X14254143Y-13073952D01*
X14244619Y-13064428D01*
X14235095Y-13045381D01*
X14235095Y-12988238D01*
X14244619Y-12969190D01*
X14254143Y-12959667D01*
X14273190Y-12950143D01*
X14301762Y-12950143D01*
X14320809Y-12959667D01*
X14330333Y-12969190D01*
X14339857Y-12988238D01*
X14339857Y-13045381D01*
X14330333Y-13064428D01*
X14320809Y-13073952D01*
X14301762Y-13083476D01*
X14273190Y-13083476D01*
X14397000Y-12950143D02*
X14473190Y-12950143D01*
X14425571Y-12883476D02*
X14425571Y-13054905D01*
X14435095Y-13073952D01*
X14454143Y-13083476D01*
X14473190Y-13083476D01*
X14520809Y-13159667D02*
X14530333Y-13150143D01*
X14549381Y-13121571D01*
X14558905Y-13102524D01*
X14568428Y-13073952D01*
X14577952Y-13026333D01*
X14577952Y-12988238D01*
X14568428Y-12940619D01*
X14558905Y-12912048D01*
X14549381Y-12893000D01*
X14530333Y-12864428D01*
X14520809Y-12854905D01*
X14882714Y-13159667D02*
X14873190Y-13150143D01*
X14854143Y-13121571D01*
X14844619Y-13102524D01*
X14835095Y-13073952D01*
X14825571Y-13026333D01*
X14825571Y-12988238D01*
X14835095Y-12940619D01*
X14844619Y-12912048D01*
X14854143Y-12893000D01*
X14873190Y-12864428D01*
X14882714Y-12854905D01*
X14958905Y-12950143D02*
X14958905Y-13083476D01*
X14958905Y-12969190D02*
X14968428Y-12959667D01*
X14987476Y-12950143D01*
X15016048Y-12950143D01*
X15035095Y-12959667D01*
X15044619Y-12978714D01*
X15044619Y-13083476D01*
X15168428Y-13083476D02*
X15149381Y-13073952D01*
X15139857Y-13064428D01*
X15130333Y-13045381D01*
X15130333Y-12988238D01*
X15139857Y-12969190D01*
X15149381Y-12959667D01*
X15168428Y-12950143D01*
X15197000Y-12950143D01*
X15216048Y-12959667D01*
X15225571Y-12969190D01*
X15235095Y-12988238D01*
X15235095Y-13045381D01*
X15225571Y-13064428D01*
X15216048Y-13073952D01*
X15197000Y-13083476D01*
X15168428Y-13083476D01*
X15292238Y-12950143D02*
X15368428Y-12950143D01*
X15320809Y-12883476D02*
X15320809Y-13054905D01*
X15330333Y-13073952D01*
X15349381Y-13083476D01*
X15368428Y-13083476D01*
X15587476Y-12950143D02*
X15587476Y-13150143D01*
X15587476Y-12959667D02*
X15606524Y-12950143D01*
X15644619Y-12950143D01*
X15663667Y-12959667D01*
X15673190Y-12969190D01*
X15682714Y-12988238D01*
X15682714Y-13045381D01*
X15673190Y-13064428D01*
X15663667Y-13073952D01*
X15644619Y-13083476D01*
X15606524Y-13083476D01*
X15587476Y-13073952D01*
X15797000Y-13083476D02*
X15777952Y-13073952D01*
X15768428Y-13054905D01*
X15768428Y-12883476D01*
X15958905Y-13083476D02*
X15958905Y-12978714D01*
X15949381Y-12959667D01*
X15930333Y-12950143D01*
X15892238Y-12950143D01*
X15873190Y-12959667D01*
X15958905Y-13073952D02*
X15939857Y-13083476D01*
X15892238Y-13083476D01*
X15873190Y-13073952D01*
X15863667Y-13054905D01*
X15863667Y-13035857D01*
X15873190Y-13016809D01*
X15892238Y-13007286D01*
X15939857Y-13007286D01*
X15958905Y-12997762D01*
X16025571Y-12950143D02*
X16101762Y-12950143D01*
X16054143Y-12883476D02*
X16054143Y-13054905D01*
X16063667Y-13073952D01*
X16082714Y-13083476D01*
X16101762Y-13083476D01*
X16244619Y-13073952D02*
X16225571Y-13083476D01*
X16187476Y-13083476D01*
X16168428Y-13073952D01*
X16158905Y-13054905D01*
X16158905Y-12978714D01*
X16168428Y-12959667D01*
X16187476Y-12950143D01*
X16225571Y-12950143D01*
X16244619Y-12959667D01*
X16254143Y-12978714D01*
X16254143Y-12997762D01*
X16158905Y-13016809D01*
X16425571Y-13083476D02*
X16425571Y-12883476D01*
X16425571Y-13073952D02*
X16406524Y-13083476D01*
X16368428Y-13083476D01*
X16349381Y-13073952D01*
X16339857Y-13064428D01*
X16330333Y-13045381D01*
X16330333Y-12988238D01*
X16339857Y-12969190D01*
X16349381Y-12959667D01*
X16368428Y-12950143D01*
X16406524Y-12950143D01*
X16425571Y-12959667D01*
X16501762Y-13159667D02*
X16511286Y-13150143D01*
X16530333Y-13121571D01*
X16539857Y-13102524D01*
X16549381Y-13073952D01*
X16558905Y-13026333D01*
X16558905Y-12988238D01*
X16549381Y-12940619D01*
X16539857Y-12912048D01*
X16530333Y-12893000D01*
X16511286Y-12864428D01*
X16501762Y-12854905D01*
X9887000Y-13373000D02*
X9987000Y-13273000D01*
X9887000Y-13173000D01*
X9787000Y-13273000D01*
X9887000Y-13373000D01*
X10225571Y-13163476D02*
X10349381Y-13163476D01*
X10282714Y-13239667D01*
X10311286Y-13239667D01*
X10330333Y-13249190D01*
X10339857Y-13258714D01*
X10349381Y-13277762D01*
X10349381Y-13325381D01*
X10339857Y-13344428D01*
X10330333Y-13353952D01*
X10311286Y-13363476D01*
X10254143Y-13363476D01*
X10235095Y-13353952D01*
X10225571Y-13344428D01*
X10435095Y-13344428D02*
X10444619Y-13353952D01*
X10435095Y-13363476D01*
X10425571Y-13353952D01*
X10435095Y-13344428D01*
X10435095Y-13363476D01*
X10520810Y-13182524D02*
X10530333Y-13173000D01*
X10549381Y-13163476D01*
X10597000Y-13163476D01*
X10616048Y-13173000D01*
X10625571Y-13182524D01*
X10635095Y-13201571D01*
X10635095Y-13220619D01*
X10625571Y-13249190D01*
X10511286Y-13363476D01*
X10635095Y-13363476D01*
X10758905Y-13163476D02*
X10777952Y-13163476D01*
X10797000Y-13173000D01*
X10806524Y-13182524D01*
X10816048Y-13201571D01*
X10825571Y-13239667D01*
X10825571Y-13287286D01*
X10816048Y-13325381D01*
X10806524Y-13344428D01*
X10797000Y-13353952D01*
X10777952Y-13363476D01*
X10758905Y-13363476D01*
X10739857Y-13353952D01*
X10730333Y-13344428D01*
X10720810Y-13325381D01*
X10711286Y-13287286D01*
X10711286Y-13239667D01*
X10720810Y-13201571D01*
X10730333Y-13182524D01*
X10739857Y-13173000D01*
X10758905Y-13163476D01*
X10949381Y-13163476D02*
X10968429Y-13163476D01*
X10987476Y-13173000D01*
X10997000Y-13182524D01*
X11006524Y-13201571D01*
X11016048Y-13239667D01*
X11016048Y-13287286D01*
X11006524Y-13325381D01*
X10997000Y-13344428D01*
X10987476Y-13353952D01*
X10968429Y-13363476D01*
X10949381Y-13363476D01*
X10930333Y-13353952D01*
X10920810Y-13344428D01*
X10911286Y-13325381D01*
X10901762Y-13287286D01*
X10901762Y-13239667D01*
X10911286Y-13201571D01*
X10920810Y-13182524D01*
X10930333Y-13173000D01*
X10949381Y-13163476D01*
X11101762Y-13363476D02*
X11101762Y-13230143D01*
X11101762Y-13249190D02*
X11111286Y-13239667D01*
X11130333Y-13230143D01*
X11158905Y-13230143D01*
X11177952Y-13239667D01*
X11187476Y-13258714D01*
X11187476Y-13363476D01*
X11187476Y-13258714D02*
X11197000Y-13239667D01*
X11216048Y-13230143D01*
X11244619Y-13230143D01*
X11263667Y-13239667D01*
X11273190Y-13258714D01*
X11273190Y-13363476D01*
X11368428Y-13363476D02*
X11368428Y-13230143D01*
X11368428Y-13249190D02*
X11377952Y-13239667D01*
X11397000Y-13230143D01*
X11425571Y-13230143D01*
X11444619Y-13239667D01*
X11454143Y-13258714D01*
X11454143Y-13363476D01*
X11454143Y-13258714D02*
X11463667Y-13239667D01*
X11482714Y-13230143D01*
X11511286Y-13230143D01*
X11530333Y-13239667D01*
X11539857Y-13258714D01*
X11539857Y-13363476D01*
X11930333Y-13153952D02*
X11758905Y-13411095D01*
X12187476Y-13163476D02*
X12206524Y-13163476D01*
X12225571Y-13173000D01*
X12235095Y-13182524D01*
X12244619Y-13201571D01*
X12254143Y-13239667D01*
X12254143Y-13287286D01*
X12244619Y-13325381D01*
X12235095Y-13344428D01*
X12225571Y-13353952D01*
X12206524Y-13363476D01*
X12187476Y-13363476D01*
X12168428Y-13353952D01*
X12158905Y-13344428D01*
X12149381Y-13325381D01*
X12139857Y-13287286D01*
X12139857Y-13239667D01*
X12149381Y-13201571D01*
X12158905Y-13182524D01*
X12168428Y-13173000D01*
X12187476Y-13163476D01*
X12339857Y-13344428D02*
X12349381Y-13353952D01*
X12339857Y-13363476D01*
X12330333Y-13353952D01*
X12339857Y-13344428D01*
X12339857Y-13363476D01*
X12539857Y-13363476D02*
X12425571Y-13363476D01*
X12482714Y-13363476D02*
X12482714Y-13163476D01*
X12463667Y-13192048D01*
X12444619Y-13211095D01*
X12425571Y-13220619D01*
X12616048Y-13182524D02*
X12625571Y-13173000D01*
X12644619Y-13163476D01*
X12692238Y-13163476D01*
X12711286Y-13173000D01*
X12720809Y-13182524D01*
X12730333Y-13201571D01*
X12730333Y-13220619D01*
X12720809Y-13249190D01*
X12606524Y-13363476D01*
X12730333Y-13363476D01*
X12901762Y-13163476D02*
X12863667Y-13163476D01*
X12844619Y-13173000D01*
X12835095Y-13182524D01*
X12816048Y-13211095D01*
X12806524Y-13249190D01*
X12806524Y-13325381D01*
X12816048Y-13344428D01*
X12825571Y-13353952D01*
X12844619Y-13363476D01*
X12882714Y-13363476D01*
X12901762Y-13353952D01*
X12911286Y-13344428D01*
X12920809Y-13325381D01*
X12920809Y-13277762D01*
X12911286Y-13258714D01*
X12901762Y-13249190D01*
X12882714Y-13239667D01*
X12844619Y-13239667D01*
X12825571Y-13249190D01*
X12816048Y-13258714D01*
X12806524Y-13277762D01*
X13044619Y-13163476D02*
X13063667Y-13163476D01*
X13082714Y-13173000D01*
X13092238Y-13182524D01*
X13101762Y-13201571D01*
X13111286Y-13239667D01*
X13111286Y-13287286D01*
X13101762Y-13325381D01*
X13092238Y-13344428D01*
X13082714Y-13353952D01*
X13063667Y-13363476D01*
X13044619Y-13363476D01*
X13025571Y-13353952D01*
X13016048Y-13344428D01*
X13006524Y-13325381D01*
X12997000Y-13287286D01*
X12997000Y-13239667D01*
X13006524Y-13201571D01*
X13016048Y-13182524D01*
X13025571Y-13173000D01*
X13044619Y-13163476D01*
X13187476Y-13163476D02*
X13187476Y-13201571D01*
X13263667Y-13163476D02*
X13263667Y-13201571D01*
X13558905Y-13439667D02*
X13549381Y-13430143D01*
X13530333Y-13401571D01*
X13520809Y-13382524D01*
X13511286Y-13353952D01*
X13501762Y-13306333D01*
X13501762Y-13268238D01*
X13511286Y-13220619D01*
X13520809Y-13192048D01*
X13530333Y-13173000D01*
X13549381Y-13144428D01*
X13558905Y-13134905D01*
X13625571Y-13182524D02*
X13635095Y-13173000D01*
X13654143Y-13163476D01*
X13701762Y-13163476D01*
X13720809Y-13173000D01*
X13730333Y-13182524D01*
X13739857Y-13201571D01*
X13739857Y-13220619D01*
X13730333Y-13249190D01*
X13616048Y-13363476D01*
X13739857Y-13363476D01*
X13977952Y-13363476D02*
X13977952Y-13163476D01*
X14063667Y-13363476D02*
X14063667Y-13258714D01*
X14054143Y-13239667D01*
X14035095Y-13230143D01*
X14006524Y-13230143D01*
X13987476Y-13239667D01*
X13977952Y-13249190D01*
X14187476Y-13363476D02*
X14168428Y-13353952D01*
X14158905Y-13344428D01*
X14149381Y-13325381D01*
X14149381Y-13268238D01*
X14158905Y-13249190D01*
X14168428Y-13239667D01*
X14187476Y-13230143D01*
X14216048Y-13230143D01*
X14235095Y-13239667D01*
X14244619Y-13249190D01*
X14254143Y-13268238D01*
X14254143Y-13325381D01*
X14244619Y-13344428D01*
X14235095Y-13353952D01*
X14216048Y-13363476D01*
X14187476Y-13363476D01*
X14368428Y-13363476D02*
X14349381Y-13353952D01*
X14339857Y-13334905D01*
X14339857Y-13163476D01*
X14520809Y-13353952D02*
X14501762Y-13363476D01*
X14463667Y-13363476D01*
X14444619Y-13353952D01*
X14435095Y-13334905D01*
X14435095Y-13258714D01*
X14444619Y-13239667D01*
X14463667Y-13230143D01*
X14501762Y-13230143D01*
X14520809Y-13239667D01*
X14530333Y-13258714D01*
X14530333Y-13277762D01*
X14435095Y-13296809D01*
X14606524Y-13353952D02*
X14625571Y-13363476D01*
X14663667Y-13363476D01*
X14682714Y-13353952D01*
X14692238Y-13334905D01*
X14692238Y-13325381D01*
X14682714Y-13306333D01*
X14663667Y-13296809D01*
X14635095Y-13296809D01*
X14616048Y-13287286D01*
X14606524Y-13268238D01*
X14606524Y-13258714D01*
X14616048Y-13239667D01*
X14635095Y-13230143D01*
X14663667Y-13230143D01*
X14682714Y-13239667D01*
X14758905Y-13439667D02*
X14768428Y-13430143D01*
X14787476Y-13401571D01*
X14797000Y-13382524D01*
X14806524Y-13353952D01*
X14816048Y-13306333D01*
X14816048Y-13268238D01*
X14806524Y-13220619D01*
X14797000Y-13192048D01*
X14787476Y-13173000D01*
X14768428Y-13144428D01*
X14758905Y-13134905D01*
X15120809Y-13439667D02*
X15111286Y-13430143D01*
X15092238Y-13401571D01*
X15082714Y-13382524D01*
X15073190Y-13353952D01*
X15063667Y-13306333D01*
X15063667Y-13268238D01*
X15073190Y-13220619D01*
X15082714Y-13192048D01*
X15092238Y-13173000D01*
X15111286Y-13144428D01*
X15120809Y-13134905D01*
X15197000Y-13230143D02*
X15197000Y-13363476D01*
X15197000Y-13249190D02*
X15206524Y-13239667D01*
X15225571Y-13230143D01*
X15254143Y-13230143D01*
X15273190Y-13239667D01*
X15282714Y-13258714D01*
X15282714Y-13363476D01*
X15406524Y-13363476D02*
X15387476Y-13353952D01*
X15377952Y-13344428D01*
X15368428Y-13325381D01*
X15368428Y-13268238D01*
X15377952Y-13249190D01*
X15387476Y-13239667D01*
X15406524Y-13230143D01*
X15435095Y-13230143D01*
X15454143Y-13239667D01*
X15463667Y-13249190D01*
X15473190Y-13268238D01*
X15473190Y-13325381D01*
X15463667Y-13344428D01*
X15454143Y-13353952D01*
X15435095Y-13363476D01*
X15406524Y-13363476D01*
X15530333Y-13230143D02*
X15606524Y-13230143D01*
X15558905Y-13163476D02*
X15558905Y-13334905D01*
X15568428Y-13353952D01*
X15587476Y-13363476D01*
X15606524Y-13363476D01*
X15825571Y-13230143D02*
X15825571Y-13430143D01*
X15825571Y-13239667D02*
X15844619Y-13230143D01*
X15882714Y-13230143D01*
X15901762Y-13239667D01*
X15911286Y-13249190D01*
X15920809Y-13268238D01*
X15920809Y-13325381D01*
X15911286Y-13344428D01*
X15901762Y-13353952D01*
X15882714Y-13363476D01*
X15844619Y-13363476D01*
X15825571Y-13353952D01*
X16035095Y-13363476D02*
X16016048Y-13353952D01*
X16006524Y-13334905D01*
X16006524Y-13163476D01*
X16197000Y-13363476D02*
X16197000Y-13258714D01*
X16187476Y-13239667D01*
X16168428Y-13230143D01*
X16130333Y-13230143D01*
X16111286Y-13239667D01*
X16197000Y-13353952D02*
X16177952Y-13363476D01*
X16130333Y-13363476D01*
X16111286Y-13353952D01*
X16101762Y-13334905D01*
X16101762Y-13315857D01*
X16111286Y-13296809D01*
X16130333Y-13287286D01*
X16177952Y-13287286D01*
X16197000Y-13277762D01*
X16263667Y-13230143D02*
X16339857Y-13230143D01*
X16292238Y-13163476D02*
X16292238Y-13334905D01*
X16301762Y-13353952D01*
X16320809Y-13363476D01*
X16339857Y-13363476D01*
X16482714Y-13353952D02*
X16463667Y-13363476D01*
X16425571Y-13363476D01*
X16406524Y-13353952D01*
X16397000Y-13334905D01*
X16397000Y-13258714D01*
X16406524Y-13239667D01*
X16425571Y-13230143D01*
X16463667Y-13230143D01*
X16482714Y-13239667D01*
X16492238Y-13258714D01*
X16492238Y-13277762D01*
X16397000Y-13296809D01*
X16663667Y-13363476D02*
X16663667Y-13163476D01*
X16663667Y-13353952D02*
X16644619Y-13363476D01*
X16606524Y-13363476D01*
X16587476Y-13353952D01*
X16577952Y-13344428D01*
X16568428Y-13325381D01*
X16568428Y-13268238D01*
X16577952Y-13249190D01*
X16587476Y-13239667D01*
X16606524Y-13230143D01*
X16644619Y-13230143D01*
X16663667Y-13239667D01*
X16739857Y-13439667D02*
X16749381Y-13430143D01*
X16768428Y-13401571D01*
X16777952Y-13382524D01*
X16787476Y-13353952D01*
X16797000Y-13306333D01*
X16797000Y-13268238D01*
X16787476Y-13220619D01*
X16777952Y-13192048D01*
X16768428Y-13173000D01*
X16749381Y-13144428D01*
X16739857Y-13134905D01*
M02*
