G04 #@! TF.GenerationSoftware,KiCad,Pcbnew,6.0.7+dfsg-1~bpo11+1*
G04 #@! TF.ProjectId,wiscale,77697363-616c-4652-9e6b-696361645f70,1.0a*
G04 #@! TF.SameCoordinates,Original*
G04 #@! TF.FileFunction,Legend,Bot*
G04 #@! TF.FilePolarity,Positive*
%FSLAX46Y46*%
G04 Gerber Fmt 4.6, Leading zero omitted, Abs format (unit mm)*
%MOMM*%
%LPD*%
G01*
G04 APERTURE LIST*
%ADD10C,0.150000*%
%ADD11C,0.750000*%
%ADD12C,3.200000*%
%ADD13O,3.440000X6.880000*%
%ADD14C,1.500000*%
%ADD15C,2.000000*%
%ADD16R,2.000000X2.000000*%
%ADD17O,5.000000X2.000000*%
%ADD18C,0.900000*%
%ADD19R,1.700000X1.700000*%
%ADD20O,1.700000X1.700000*%
%ADD21C,0.800000*%
%ADD22C,7.000000*%
%ADD23R,1.050000X1.500000*%
%ADD24O,1.050000X1.500000*%
G04 APERTURE END LIST*
D10*
X172500000Y-72500000D02*
X155000000Y-72500000D01*
X155000000Y-72500000D02*
X155000000Y-77500000D01*
X155000000Y-77500000D02*
X172500000Y-77500000D01*
X172500000Y-77500000D02*
X172500000Y-72500000D01*
G36*
X172500000Y-72500000D02*
G01*
X155000000Y-72500000D01*
X155000000Y-77500000D01*
X172500000Y-77500000D01*
X172500000Y-72500000D01*
G37*
X145000000Y-72500000D02*
X115000000Y-72500000D01*
X115000000Y-72500000D02*
X115000000Y-77500000D01*
X115000000Y-77500000D02*
X145000000Y-77500000D01*
X145000000Y-77500000D02*
X145000000Y-72500000D01*
G36*
X145000000Y-72500000D02*
G01*
X115000000Y-72500000D01*
X115000000Y-77500000D01*
X145000000Y-77500000D01*
X145000000Y-72500000D01*
G37*
D11*
X180642857Y-76214285D02*
X180214285Y-76357142D01*
X179500000Y-76357142D01*
X179214285Y-76214285D01*
X179071428Y-76071428D01*
X178928571Y-75785714D01*
X178928571Y-75500000D01*
X179071428Y-75214285D01*
X179214285Y-75071428D01*
X179500000Y-74928571D01*
X180071428Y-74785714D01*
X180357142Y-74642857D01*
X180500000Y-74500000D01*
X180642857Y-74214285D01*
X180642857Y-73928571D01*
X180500000Y-73642857D01*
X180357142Y-73500000D01*
X180071428Y-73357142D01*
X179357142Y-73357142D01*
X178928571Y-73500000D01*
X177642857Y-76357142D02*
X177642857Y-73357142D01*
X175928571Y-76357142D01*
X175928571Y-73357142D01*
X174500000Y-76071428D02*
X174357142Y-76214285D01*
X174500000Y-76357142D01*
X174642857Y-76214285D01*
X174500000Y-76071428D01*
X174500000Y-76357142D01*
X174500000Y-74500000D02*
X174357142Y-74642857D01*
X174500000Y-74785714D01*
X174642857Y-74642857D01*
X174500000Y-74500000D01*
X174500000Y-74785714D01*
X152214285Y-76357142D02*
X152214285Y-73357142D01*
X150785714Y-76357142D02*
X150785714Y-73357142D01*
X150071428Y-73357142D01*
X149642857Y-73500000D01*
X149357142Y-73785714D01*
X149214285Y-74071428D01*
X149071428Y-74642857D01*
X149071428Y-75071428D01*
X149214285Y-75642857D01*
X149357142Y-75928571D01*
X149642857Y-76214285D01*
X150071428Y-76357142D01*
X150785714Y-76357142D01*
X147785714Y-76071428D02*
X147642857Y-76214285D01*
X147785714Y-76357142D01*
X147928571Y-76214285D01*
X147785714Y-76071428D01*
X147785714Y-76357142D01*
X147785714Y-74500000D02*
X147642857Y-74642857D01*
X147785714Y-74785714D01*
X147928571Y-74642857D01*
X147785714Y-74500000D01*
X147785714Y-74785714D01*
G36*
X191700000Y-88300000D02*
G01*
X191700000Y-87800000D01*
X192200000Y-87800000D01*
X194700000Y-87800000D01*
X194700000Y-85300000D01*
X192200000Y-85300000D01*
X192200000Y-87800000D01*
X191700000Y-87800000D01*
X191700000Y-84800000D01*
X195200000Y-84800000D01*
X195200000Y-88300000D01*
X191700000Y-88300000D01*
G37*
G36*
X191996072Y-94801055D02*
G01*
X192158698Y-94859698D01*
X192200000Y-95050000D01*
X192198945Y-95096071D01*
X192140302Y-95258697D01*
X191950000Y-95300000D01*
X191903929Y-95298944D01*
X191741303Y-95240301D01*
X191700000Y-95050000D01*
X191701056Y-95003928D01*
X191759699Y-94841302D01*
X191950000Y-94800000D01*
X191996072Y-94801055D01*
G37*
G36*
X180996072Y-102801055D02*
G01*
X181158698Y-102859698D01*
X181200000Y-103050000D01*
X181198945Y-103096071D01*
X181140302Y-103258697D01*
X180950000Y-103300000D01*
X180903929Y-103298944D01*
X180741303Y-103240301D01*
X180700000Y-103050000D01*
X180701056Y-103003928D01*
X180759699Y-102841302D01*
X180950000Y-102800000D01*
X180996072Y-102801055D01*
G37*
G36*
X191737026Y-90729831D02*
G01*
X191844904Y-90778175D01*
X192068519Y-90796884D01*
X192450000Y-90800000D01*
X192713426Y-90799080D01*
X192989494Y-90787658D01*
X193134528Y-90751698D01*
X193190654Y-90677160D01*
X193200000Y-90550000D01*
X193202758Y-90462191D01*
X193237026Y-90370168D01*
X193344904Y-90321824D01*
X193568519Y-90303115D01*
X193950000Y-90300000D01*
X194700000Y-90300000D01*
X194700000Y-90800000D01*
X194702369Y-91000661D01*
X194727608Y-91201058D01*
X194801628Y-91283788D01*
X194950000Y-91300000D01*
X194996072Y-91301055D01*
X195158698Y-91359698D01*
X195200000Y-91550000D01*
X195198945Y-91596071D01*
X195140302Y-91758697D01*
X194950000Y-91800000D01*
X194903929Y-91801055D01*
X194741303Y-91859698D01*
X194700000Y-92050000D01*
X194695264Y-92150330D01*
X194644785Y-92250529D01*
X194496745Y-92291894D01*
X194200000Y-92300000D01*
X193700000Y-92300000D01*
X193700000Y-93050000D01*
X193700920Y-93313425D01*
X193712342Y-93589493D01*
X193748302Y-93734527D01*
X193822840Y-93790653D01*
X193950000Y-93800000D01*
X193996072Y-93798944D01*
X194158698Y-93740301D01*
X194200000Y-93550000D01*
X194204737Y-93449669D01*
X194255216Y-93349470D01*
X194403256Y-93308105D01*
X194700000Y-93300000D01*
X195200000Y-93300000D01*
X195200000Y-95300000D01*
X194950000Y-95300000D01*
X194903929Y-95301055D01*
X194741303Y-95359698D01*
X194700000Y-95550000D01*
X194701056Y-95596071D01*
X194759699Y-95758697D01*
X194950000Y-95800000D01*
X194996072Y-95801055D01*
X195158698Y-95859698D01*
X195200000Y-96050000D01*
X195198945Y-96096071D01*
X195140302Y-96258697D01*
X194950000Y-96300000D01*
X194903929Y-96298944D01*
X194741303Y-96240301D01*
X194700000Y-96050000D01*
X194698945Y-96003928D01*
X194640302Y-95841302D01*
X194450000Y-95800000D01*
X194200000Y-95800000D01*
X194200000Y-97800000D01*
X194450000Y-97800000D01*
X194550331Y-97795263D01*
X194650530Y-97744784D01*
X194691895Y-97596744D01*
X194700000Y-97300000D01*
X194702369Y-97099338D01*
X194727608Y-96898941D01*
X194801628Y-96816211D01*
X194950000Y-96800000D01*
X195200000Y-96800000D01*
X195200000Y-99300000D01*
X194950000Y-99300000D01*
X194849670Y-99295263D01*
X194749471Y-99244784D01*
X194708106Y-99096744D01*
X194700000Y-98800000D01*
X194697632Y-98599338D01*
X194672393Y-98398941D01*
X194598373Y-98316211D01*
X194450000Y-98300000D01*
X194349670Y-98304736D01*
X194249471Y-98355215D01*
X194208106Y-98503255D01*
X194200000Y-98800000D01*
X194200000Y-99300000D01*
X193700000Y-99300000D01*
X193499339Y-99297631D01*
X193298942Y-99272392D01*
X193216212Y-99198372D01*
X193200000Y-99050000D01*
X193201056Y-99003928D01*
X193259699Y-98841302D01*
X193450000Y-98800000D01*
X193550331Y-98795263D01*
X193650530Y-98744784D01*
X193691895Y-98596744D01*
X193700000Y-98300000D01*
X193697632Y-98099338D01*
X193672393Y-97898941D01*
X193598373Y-97816211D01*
X193450000Y-97800000D01*
X193403929Y-97801055D01*
X193241303Y-97859698D01*
X193200000Y-98050000D01*
X193198945Y-98096071D01*
X193140302Y-98258697D01*
X192950000Y-98300000D01*
X192903929Y-98301055D01*
X192741303Y-98359698D01*
X192700000Y-98550000D01*
X192698945Y-98596071D01*
X192640302Y-98758697D01*
X192450000Y-98800000D01*
X192403929Y-98801055D01*
X192241303Y-98859698D01*
X192200000Y-99050000D01*
X192198945Y-99096071D01*
X192140302Y-99258697D01*
X191950000Y-99300000D01*
X191903929Y-99298944D01*
X191741303Y-99240301D01*
X191700000Y-99050000D01*
X191701056Y-99003928D01*
X191759699Y-98841302D01*
X191950000Y-98800000D01*
X191996072Y-98798944D01*
X192158698Y-98740301D01*
X192200000Y-98550000D01*
X192198945Y-98503928D01*
X192140302Y-98341302D01*
X191950000Y-98300000D01*
X191903929Y-98298944D01*
X191741303Y-98240301D01*
X191700000Y-98050000D01*
X191698945Y-98003928D01*
X191640302Y-97841302D01*
X191450000Y-97800000D01*
X191200000Y-97800000D01*
X191200000Y-100300000D01*
X190950000Y-100300000D01*
X190903929Y-100301055D01*
X190741303Y-100359698D01*
X190700000Y-100550000D01*
X190701056Y-100596071D01*
X190759699Y-100758697D01*
X190950000Y-100800000D01*
X191050331Y-100804736D01*
X191150530Y-100855215D01*
X191191895Y-101003255D01*
X191193172Y-101050000D01*
X191200000Y-101300000D01*
X191200000Y-101800000D01*
X190700000Y-101800000D01*
X190499339Y-101802368D01*
X190298942Y-101827607D01*
X190216212Y-101901627D01*
X190200000Y-102050000D01*
X190201056Y-102096071D01*
X190259699Y-102258697D01*
X190450000Y-102300000D01*
X190550331Y-102304736D01*
X190650530Y-102355215D01*
X190691895Y-102503255D01*
X190700000Y-102800000D01*
X190700000Y-103300000D01*
X189700000Y-103300000D01*
X189700000Y-102550000D01*
X189700920Y-102286574D01*
X189712342Y-102010506D01*
X189748302Y-101865472D01*
X189822840Y-101809346D01*
X189950000Y-101800000D01*
X189996072Y-101798944D01*
X190158698Y-101740301D01*
X190200000Y-101550000D01*
X190198945Y-101503928D01*
X190140302Y-101341302D01*
X189950000Y-101300000D01*
X189903929Y-101298944D01*
X189741303Y-101240301D01*
X189700000Y-101050000D01*
X189698945Y-101003928D01*
X189640302Y-100841302D01*
X189450000Y-100800000D01*
X189403929Y-100801055D01*
X189241303Y-100859698D01*
X189200000Y-101050000D01*
X189198945Y-101096071D01*
X189140302Y-101258697D01*
X188950000Y-101300000D01*
X188903929Y-101301055D01*
X188741303Y-101359698D01*
X188700000Y-101550000D01*
X188698945Y-101596071D01*
X188640302Y-101758697D01*
X188450000Y-101800000D01*
X188403929Y-101798944D01*
X188241303Y-101740301D01*
X188200000Y-101550000D01*
X188198945Y-101503928D01*
X188140302Y-101341302D01*
X187950000Y-101300000D01*
X187903929Y-101298944D01*
X187741303Y-101240301D01*
X187700000Y-101050000D01*
X187698945Y-101003928D01*
X187640302Y-100841302D01*
X187450000Y-100800000D01*
X187403929Y-100798944D01*
X187241303Y-100740301D01*
X187200000Y-100550000D01*
X187201056Y-100503928D01*
X187259699Y-100341302D01*
X187450000Y-100300000D01*
X187550331Y-100295263D01*
X187650530Y-100244784D01*
X187691895Y-100096744D01*
X187700000Y-99800000D01*
X187697632Y-99599338D01*
X187672393Y-99398941D01*
X187598373Y-99316211D01*
X187450000Y-99300000D01*
X187403929Y-99301055D01*
X187241303Y-99359698D01*
X187200000Y-99550000D01*
X187198945Y-99596071D01*
X187140302Y-99758697D01*
X186950000Y-99800000D01*
X186700000Y-99800000D01*
X186700000Y-101800000D01*
X186950000Y-101800000D01*
X187050331Y-101804736D01*
X187150530Y-101855215D01*
X187191895Y-102003255D01*
X187200000Y-102300000D01*
X187200000Y-102800000D01*
X187950000Y-102800000D01*
X188213426Y-102799080D01*
X188489494Y-102787658D01*
X188634528Y-102751698D01*
X188690654Y-102677160D01*
X188700000Y-102550000D01*
X188701056Y-102503928D01*
X188759699Y-102341302D01*
X188950000Y-102300000D01*
X189050331Y-102304736D01*
X189150530Y-102355215D01*
X189191895Y-102503255D01*
X189200000Y-102800000D01*
X189200000Y-103300000D01*
X185700000Y-103300000D01*
X185700000Y-103050000D01*
X185701056Y-103003928D01*
X185759699Y-102841302D01*
X185950000Y-102800000D01*
X185996072Y-102798944D01*
X186158698Y-102740301D01*
X186200000Y-102550000D01*
X186198945Y-102503928D01*
X186140302Y-102341302D01*
X185950000Y-102300000D01*
X185849670Y-102295263D01*
X185749471Y-102244784D01*
X185708106Y-102096744D01*
X185700000Y-101800000D01*
X185702369Y-101599338D01*
X185727608Y-101398941D01*
X185801628Y-101316211D01*
X185950000Y-101300000D01*
X186050331Y-101295263D01*
X186150530Y-101244784D01*
X186191895Y-101096744D01*
X186200000Y-100800000D01*
X186197632Y-100599338D01*
X186172393Y-100398941D01*
X186098373Y-100316211D01*
X185950000Y-100300000D01*
X185903929Y-100301055D01*
X185741303Y-100359698D01*
X185700000Y-100550000D01*
X185695264Y-100650330D01*
X185644785Y-100750529D01*
X185496745Y-100791894D01*
X185200000Y-100800000D01*
X184700000Y-100800000D01*
X184700000Y-101300000D01*
X184702369Y-101500661D01*
X184727608Y-101701058D01*
X184801628Y-101783788D01*
X184950000Y-101800000D01*
X185037809Y-101802757D01*
X185129832Y-101837025D01*
X185178176Y-101944903D01*
X185196885Y-102168518D01*
X185200000Y-102550000D01*
X185199081Y-102813425D01*
X185187659Y-103089493D01*
X185151699Y-103234527D01*
X185077161Y-103290653D01*
X184950000Y-103300000D01*
X184862192Y-103297242D01*
X184770169Y-103262974D01*
X184721825Y-103155096D01*
X184703116Y-102931481D01*
X184700000Y-102550000D01*
X184699081Y-102286574D01*
X184687659Y-102010506D01*
X184651699Y-101865472D01*
X184577161Y-101809346D01*
X184450000Y-101800000D01*
X184403929Y-101801055D01*
X184241303Y-101859698D01*
X184200000Y-102050000D01*
X184198945Y-102096071D01*
X184140302Y-102258697D01*
X183950000Y-102300000D01*
X183903929Y-102298944D01*
X183741303Y-102240301D01*
X183700000Y-102050000D01*
X183701056Y-102003928D01*
X183759699Y-101841302D01*
X183950000Y-101800000D01*
X184050331Y-101795263D01*
X184150530Y-101744784D01*
X184191895Y-101596744D01*
X184200000Y-101300000D01*
X184202369Y-101099338D01*
X184227608Y-100898941D01*
X184301628Y-100816211D01*
X184450000Y-100800000D01*
X184537809Y-100797242D01*
X184629832Y-100762974D01*
X184678176Y-100655096D01*
X184696885Y-100431481D01*
X184700000Y-100050000D01*
X184700920Y-99786574D01*
X184712342Y-99510506D01*
X184748302Y-99365472D01*
X184822840Y-99309346D01*
X184950000Y-99300000D01*
X185050331Y-99304736D01*
X185150530Y-99355215D01*
X185191895Y-99503255D01*
X185200000Y-99800000D01*
X185202369Y-100000661D01*
X185227608Y-100201058D01*
X185301628Y-100283788D01*
X185450000Y-100300000D01*
X185537809Y-100297242D01*
X185629832Y-100262974D01*
X185678176Y-100155096D01*
X185696885Y-99931481D01*
X185700000Y-99550000D01*
X185700000Y-98800000D01*
X187700000Y-98800000D01*
X187700000Y-98550000D01*
X187701056Y-98503928D01*
X187759699Y-98341302D01*
X187950000Y-98300000D01*
X187996072Y-98298944D01*
X188158698Y-98240301D01*
X188200000Y-98050000D01*
X188201056Y-98003928D01*
X188259699Y-97841302D01*
X188450000Y-97800000D01*
X188496072Y-97801055D01*
X188658698Y-97859698D01*
X188700000Y-98050000D01*
X188698945Y-98096071D01*
X188640302Y-98258697D01*
X188450000Y-98300000D01*
X188403929Y-98301055D01*
X188241303Y-98359698D01*
X188200000Y-98550000D01*
X188198945Y-98596071D01*
X188140302Y-98758697D01*
X187950000Y-98800000D01*
X187903929Y-98801055D01*
X187741303Y-98859698D01*
X187700000Y-99050000D01*
X187704737Y-99150330D01*
X187755216Y-99250529D01*
X187903256Y-99291894D01*
X188200000Y-99300000D01*
X188700000Y-99300000D01*
X188700000Y-99800000D01*
X188697632Y-100000661D01*
X188672393Y-100201058D01*
X188598373Y-100283788D01*
X188450000Y-100300000D01*
X188349670Y-100304736D01*
X188249471Y-100355215D01*
X188208106Y-100503255D01*
X188200000Y-100800000D01*
X188202369Y-101000661D01*
X188227608Y-101201058D01*
X188301628Y-101283788D01*
X188450000Y-101300000D01*
X188496072Y-101298944D01*
X188658698Y-101240301D01*
X188700000Y-101050000D01*
X188701056Y-101003928D01*
X188759699Y-100841302D01*
X188950000Y-100800000D01*
X189050331Y-100795263D01*
X189150530Y-100744784D01*
X189191895Y-100596744D01*
X189193172Y-100550000D01*
X189700000Y-100550000D01*
X189701056Y-100596071D01*
X189759699Y-100758697D01*
X189950000Y-100800000D01*
X189996072Y-100801055D01*
X190158698Y-100859698D01*
X190200000Y-101050000D01*
X190201056Y-101096071D01*
X190259699Y-101258697D01*
X190450000Y-101300000D01*
X190496072Y-101298944D01*
X190658698Y-101240301D01*
X190700000Y-101050000D01*
X190698945Y-101003928D01*
X190640302Y-100841302D01*
X190450000Y-100800000D01*
X190403929Y-100798944D01*
X190241303Y-100740301D01*
X190200000Y-100550000D01*
X190198945Y-100503928D01*
X190140302Y-100341302D01*
X189950000Y-100300000D01*
X189903929Y-100301055D01*
X189741303Y-100359698D01*
X189700000Y-100550000D01*
X189193172Y-100550000D01*
X189200000Y-100300000D01*
X189202369Y-100099338D01*
X189227608Y-99898941D01*
X189301628Y-99816211D01*
X189450000Y-99800000D01*
X189496072Y-99798944D01*
X189658698Y-99740301D01*
X189700000Y-99550000D01*
X189698945Y-99503928D01*
X189640302Y-99341302D01*
X189450000Y-99300000D01*
X189403929Y-99298944D01*
X189241303Y-99240301D01*
X189200000Y-99050000D01*
X189201056Y-99003928D01*
X189259699Y-98841302D01*
X189450000Y-98800000D01*
X189496072Y-98801055D01*
X189658698Y-98859698D01*
X189700000Y-99050000D01*
X189701056Y-99096071D01*
X189759699Y-99258697D01*
X189950000Y-99300000D01*
X190050331Y-99304736D01*
X190150530Y-99355215D01*
X190191895Y-99503255D01*
X190200000Y-99800000D01*
X190202369Y-100000661D01*
X190227608Y-100201058D01*
X190301628Y-100283788D01*
X190450000Y-100300000D01*
X190537809Y-100297242D01*
X190629832Y-100262974D01*
X190678176Y-100155096D01*
X190696885Y-99931481D01*
X190700000Y-99550000D01*
X190699081Y-99286574D01*
X190687659Y-99010506D01*
X190651699Y-98865472D01*
X190577161Y-98809346D01*
X190450000Y-98800000D01*
X190349670Y-98795263D01*
X190249471Y-98744784D01*
X190208106Y-98596744D01*
X190200000Y-98300000D01*
X190197632Y-98099338D01*
X190172393Y-97898941D01*
X190098373Y-97816211D01*
X189950000Y-97800000D01*
X189862192Y-97797242D01*
X189770169Y-97762974D01*
X189721825Y-97655096D01*
X189703116Y-97431481D01*
X189700000Y-97050000D01*
X190200000Y-97050000D01*
X190201056Y-97096071D01*
X190259699Y-97258697D01*
X190450000Y-97300000D01*
X190496072Y-97301055D01*
X190658698Y-97359698D01*
X190700000Y-97550000D01*
X190701056Y-97596071D01*
X190759699Y-97758697D01*
X190950000Y-97800000D01*
X190996072Y-97798944D01*
X191158698Y-97740301D01*
X191200000Y-97550000D01*
X191201056Y-97503928D01*
X191259699Y-97341302D01*
X191450000Y-97300000D01*
X191496072Y-97301055D01*
X191658698Y-97359698D01*
X191700000Y-97550000D01*
X191701056Y-97596071D01*
X191759699Y-97758697D01*
X191950000Y-97800000D01*
X191996072Y-97801055D01*
X192158698Y-97859698D01*
X192200000Y-98050000D01*
X192201056Y-98096071D01*
X192259699Y-98258697D01*
X192450000Y-98300000D01*
X192496072Y-98298944D01*
X192658698Y-98240301D01*
X192700000Y-98050000D01*
X192701056Y-98003928D01*
X192759699Y-97841302D01*
X192950000Y-97800000D01*
X192996072Y-97798944D01*
X193158698Y-97740301D01*
X193200000Y-97550000D01*
X193197243Y-97462191D01*
X193162975Y-97370168D01*
X193055097Y-97321824D01*
X192831482Y-97303115D01*
X192450000Y-97300000D01*
X192186575Y-97299080D01*
X191910507Y-97287658D01*
X191765473Y-97251698D01*
X191709347Y-97177160D01*
X191700000Y-97050000D01*
X191704737Y-96949669D01*
X191755216Y-96849470D01*
X191903256Y-96808105D01*
X192200000Y-96800000D01*
X192700000Y-96800000D01*
X192700000Y-96300000D01*
X192697632Y-96099338D01*
X192672393Y-95898941D01*
X192598373Y-95816211D01*
X192450000Y-95800000D01*
X192403929Y-95798944D01*
X192241303Y-95740301D01*
X192200000Y-95550000D01*
X192204737Y-95449669D01*
X192255216Y-95349470D01*
X192403256Y-95308105D01*
X192700000Y-95300000D01*
X193200000Y-95300000D01*
X193200000Y-96050000D01*
X193200920Y-96313425D01*
X193212342Y-96589493D01*
X193248302Y-96734527D01*
X193322840Y-96790653D01*
X193450000Y-96800000D01*
X193537809Y-96797242D01*
X193629832Y-96762974D01*
X193678176Y-96655096D01*
X193696885Y-96431481D01*
X193700000Y-96050000D01*
X193700920Y-95786574D01*
X193712342Y-95510506D01*
X193748302Y-95365472D01*
X193822840Y-95309346D01*
X193950000Y-95300000D01*
X193996072Y-95298944D01*
X194158698Y-95240301D01*
X194200000Y-95050000D01*
X194201056Y-95003928D01*
X194259699Y-94841302D01*
X194450000Y-94800000D01*
X194550331Y-94795263D01*
X194650530Y-94744784D01*
X194691895Y-94596744D01*
X194700000Y-94300000D01*
X194697632Y-94099338D01*
X194672393Y-93898941D01*
X194598373Y-93816211D01*
X194450000Y-93800000D01*
X194403929Y-93801055D01*
X194241303Y-93859698D01*
X194200000Y-94050000D01*
X194198945Y-94096071D01*
X194140302Y-94258697D01*
X193950000Y-94300000D01*
X193849670Y-94304736D01*
X193749471Y-94355215D01*
X193708106Y-94503255D01*
X193700000Y-94800000D01*
X193697632Y-95000661D01*
X193672393Y-95201058D01*
X193598373Y-95283788D01*
X193450000Y-95300000D01*
X193403929Y-95298944D01*
X193241303Y-95240301D01*
X193200000Y-95050000D01*
X193195264Y-94949669D01*
X193144785Y-94849470D01*
X192996745Y-94808105D01*
X192700000Y-94800000D01*
X192499339Y-94797631D01*
X192298942Y-94772392D01*
X192216212Y-94698372D01*
X192200000Y-94550000D01*
X192201056Y-94503928D01*
X192259699Y-94341302D01*
X192450000Y-94300000D01*
X192496072Y-94298944D01*
X192658698Y-94240301D01*
X192700000Y-94050000D01*
X192698945Y-94003928D01*
X192640302Y-93841302D01*
X192450000Y-93800000D01*
X192403929Y-93798944D01*
X192241303Y-93740301D01*
X192200000Y-93550000D01*
X192198945Y-93503928D01*
X192140302Y-93341302D01*
X191950000Y-93300000D01*
X191903929Y-93301055D01*
X191741303Y-93359698D01*
X191700000Y-93550000D01*
X191701056Y-93596071D01*
X191759699Y-93758697D01*
X191950000Y-93800000D01*
X191996072Y-93801055D01*
X192158698Y-93859698D01*
X192200000Y-94050000D01*
X192198945Y-94096071D01*
X192140302Y-94258697D01*
X191950000Y-94300000D01*
X191903929Y-94301055D01*
X191741303Y-94359698D01*
X191700000Y-94550000D01*
X191697243Y-94637808D01*
X191662975Y-94729831D01*
X191555097Y-94778175D01*
X191331482Y-94796884D01*
X190950000Y-94800000D01*
X190686575Y-94800919D01*
X190410507Y-94812341D01*
X190265473Y-94848301D01*
X190209347Y-94922839D01*
X190200000Y-95050000D01*
X190202758Y-95137808D01*
X190237026Y-95229831D01*
X190344904Y-95278175D01*
X190568519Y-95296884D01*
X190950000Y-95300000D01*
X191213426Y-95300919D01*
X191489494Y-95312341D01*
X191634528Y-95348301D01*
X191690654Y-95422839D01*
X191700000Y-95550000D01*
X191701056Y-95596071D01*
X191759699Y-95758697D01*
X191950000Y-95800000D01*
X191996072Y-95801055D01*
X192158698Y-95859698D01*
X192200000Y-96050000D01*
X192195264Y-96150330D01*
X192144785Y-96250529D01*
X191996745Y-96291894D01*
X191700000Y-96300000D01*
X191499339Y-96302368D01*
X191298942Y-96327607D01*
X191216212Y-96401627D01*
X191200000Y-96550000D01*
X191195264Y-96650330D01*
X191144785Y-96750529D01*
X190996745Y-96791894D01*
X190700000Y-96800000D01*
X190499339Y-96802368D01*
X190298942Y-96827607D01*
X190216212Y-96901627D01*
X190200000Y-97050000D01*
X189700000Y-97050000D01*
X189700000Y-96300000D01*
X190200000Y-96300000D01*
X190400662Y-96297631D01*
X190601059Y-96272392D01*
X190683789Y-96198372D01*
X190700000Y-96050000D01*
X190698945Y-96003928D01*
X190640302Y-95841302D01*
X190450000Y-95800000D01*
X190403929Y-95798944D01*
X190241303Y-95740301D01*
X190200000Y-95550000D01*
X190198945Y-95503928D01*
X190140302Y-95341302D01*
X189950000Y-95300000D01*
X189849670Y-95295263D01*
X189749471Y-95244784D01*
X189708106Y-95096744D01*
X189700000Y-94800000D01*
X189700000Y-94300000D01*
X191200000Y-94300000D01*
X191200000Y-92800000D01*
X191700000Y-92800000D01*
X191900662Y-92802368D01*
X192101059Y-92827607D01*
X192183789Y-92901627D01*
X192200000Y-93050000D01*
X192204737Y-93150330D01*
X192255216Y-93250529D01*
X192403256Y-93291894D01*
X192700000Y-93300000D01*
X192900662Y-93297631D01*
X193101059Y-93272392D01*
X193183789Y-93198372D01*
X193200000Y-93050000D01*
X193198945Y-93003928D01*
X193140302Y-92841302D01*
X192950000Y-92800000D01*
X192903929Y-92798944D01*
X192741303Y-92740301D01*
X192700000Y-92550000D01*
X192700000Y-92300000D01*
X190700000Y-92300000D01*
X190700000Y-93050000D01*
X190699081Y-93313425D01*
X190687659Y-93589493D01*
X190651699Y-93734527D01*
X190577161Y-93790653D01*
X190450000Y-93800000D01*
X190403929Y-93798944D01*
X190241303Y-93740301D01*
X190200000Y-93550000D01*
X190198945Y-93503928D01*
X190140302Y-93341302D01*
X189950000Y-93300000D01*
X189862192Y-93297242D01*
X189770169Y-93262974D01*
X189721825Y-93155096D01*
X189703116Y-92931481D01*
X189700000Y-92550000D01*
X189700920Y-92286574D01*
X189712342Y-92010506D01*
X189748302Y-91865472D01*
X189822840Y-91809346D01*
X189950000Y-91800000D01*
X189996072Y-91798944D01*
X190158698Y-91740301D01*
X190200000Y-91550000D01*
X190198945Y-91503928D01*
X190140302Y-91341302D01*
X189950000Y-91300000D01*
X189862192Y-91297242D01*
X189770169Y-91262974D01*
X189721825Y-91155096D01*
X189713032Y-91050000D01*
X191200000Y-91050000D01*
X191201056Y-91096071D01*
X191259699Y-91258697D01*
X191450000Y-91300000D01*
X191496072Y-91301055D01*
X191658698Y-91359698D01*
X191700000Y-91550000D01*
X191701056Y-91596071D01*
X191759699Y-91758697D01*
X191950000Y-91800000D01*
X191996072Y-91798944D01*
X192158698Y-91740301D01*
X192200000Y-91550000D01*
X192198945Y-91503928D01*
X192140302Y-91341302D01*
X191950000Y-91300000D01*
X191903929Y-91298944D01*
X191741303Y-91240301D01*
X191700000Y-91050000D01*
X193200000Y-91050000D01*
X193201056Y-91096071D01*
X193259699Y-91258697D01*
X193450000Y-91300000D01*
X193496072Y-91301055D01*
X193658698Y-91359698D01*
X193700000Y-91550000D01*
X193701056Y-91596071D01*
X193759699Y-91758697D01*
X193950000Y-91800000D01*
X193996072Y-91798944D01*
X194158698Y-91740301D01*
X194200000Y-91550000D01*
X194198945Y-91503928D01*
X194140302Y-91341302D01*
X193950000Y-91300000D01*
X193903929Y-91298944D01*
X193741303Y-91240301D01*
X193700000Y-91050000D01*
X193698945Y-91003928D01*
X193640302Y-90841302D01*
X193450000Y-90800000D01*
X193403929Y-90801055D01*
X193241303Y-90859698D01*
X193200000Y-91050000D01*
X191700000Y-91050000D01*
X191698945Y-91003928D01*
X191640302Y-90841302D01*
X191450000Y-90800000D01*
X191403929Y-90801055D01*
X191241303Y-90859698D01*
X191200000Y-91050000D01*
X189713032Y-91050000D01*
X189703116Y-90931481D01*
X189700000Y-90550000D01*
X190200000Y-90550000D01*
X190201056Y-90596071D01*
X190259699Y-90758697D01*
X190450000Y-90800000D01*
X190496072Y-90798944D01*
X190658698Y-90740301D01*
X190700000Y-90550000D01*
X190698945Y-90503928D01*
X190640302Y-90341302D01*
X190450000Y-90300000D01*
X190403929Y-90301055D01*
X190241303Y-90359698D01*
X190200000Y-90550000D01*
X189700000Y-90550000D01*
X189700000Y-90050000D01*
X191200000Y-90050000D01*
X191201056Y-90096071D01*
X191259699Y-90258697D01*
X191450000Y-90300000D01*
X191496072Y-90298944D01*
X191658698Y-90240301D01*
X191700000Y-90050000D01*
X191701056Y-90003928D01*
X191759699Y-89841302D01*
X191950000Y-89800000D01*
X191996072Y-89798944D01*
X192158698Y-89740301D01*
X192200000Y-89550000D01*
X192198945Y-89503928D01*
X192140302Y-89341302D01*
X191950000Y-89300000D01*
X191903929Y-89301055D01*
X191741303Y-89359698D01*
X191700000Y-89550000D01*
X191698945Y-89596071D01*
X191640302Y-89758697D01*
X191450000Y-89800000D01*
X191403929Y-89801055D01*
X191241303Y-89859698D01*
X191200000Y-90050000D01*
X189700000Y-90050000D01*
X189700000Y-89800000D01*
X191200000Y-89800000D01*
X191200000Y-88800000D01*
X191700000Y-88800000D01*
X191900662Y-88802368D01*
X192101059Y-88827607D01*
X192183789Y-88901627D01*
X192200000Y-89050000D01*
X192201056Y-89096071D01*
X192259699Y-89258697D01*
X192450000Y-89300000D01*
X192496072Y-89298944D01*
X192658698Y-89240301D01*
X192700000Y-89050000D01*
X192704737Y-88949669D01*
X192755216Y-88849470D01*
X192903256Y-88808105D01*
X193200000Y-88800000D01*
X193400662Y-88802368D01*
X193601059Y-88827607D01*
X193683789Y-88901627D01*
X193700000Y-89050000D01*
X193701056Y-89096071D01*
X193759699Y-89258697D01*
X193950000Y-89300000D01*
X193996072Y-89301055D01*
X194158698Y-89359698D01*
X194200000Y-89550000D01*
X194195264Y-89650330D01*
X194144785Y-89750529D01*
X193996745Y-89791894D01*
X193700000Y-89800000D01*
X193499339Y-89797631D01*
X193298942Y-89772392D01*
X193216212Y-89698372D01*
X193200000Y-89550000D01*
X193198945Y-89503928D01*
X193140302Y-89341302D01*
X192950000Y-89300000D01*
X192903929Y-89301055D01*
X192741303Y-89359698D01*
X192700000Y-89550000D01*
X192698945Y-89596071D01*
X192640302Y-89758697D01*
X192450000Y-89800000D01*
X192403929Y-89801055D01*
X192241303Y-89859698D01*
X192200000Y-90050000D01*
X192198945Y-90096071D01*
X192140302Y-90258697D01*
X191950000Y-90300000D01*
X191903929Y-90301055D01*
X191741303Y-90359698D01*
X191700000Y-90550000D01*
X191702758Y-90637808D01*
X191737026Y-90729831D01*
G37*
G36*
X194996072Y-89301055D02*
G01*
X195158698Y-89359698D01*
X195200000Y-89550000D01*
X195198945Y-89596071D01*
X195140302Y-89758697D01*
X194950000Y-89800000D01*
X194903929Y-89798944D01*
X194741303Y-89740301D01*
X194700000Y-89550000D01*
X194701056Y-89503928D01*
X194759699Y-89341302D01*
X194950000Y-89300000D01*
X194996072Y-89301055D01*
G37*
G36*
X181996072Y-84801055D02*
G01*
X182158698Y-84859698D01*
X182200000Y-85050000D01*
X182198945Y-85096071D01*
X182140302Y-85258697D01*
X181950000Y-85300000D01*
X181903929Y-85298944D01*
X181741303Y-85240301D01*
X181700000Y-85050000D01*
X181701056Y-85003928D01*
X181759699Y-84841302D01*
X181950000Y-84800000D01*
X181996072Y-84801055D01*
G37*
G36*
X194200000Y-87300000D02*
G01*
X192700000Y-87300000D01*
X192700000Y-85800000D01*
X194200000Y-85800000D01*
X194200000Y-87300000D01*
G37*
G36*
X191700000Y-103300000D02*
G01*
X191700000Y-102800000D01*
X192200000Y-102800000D01*
X194700000Y-102800000D01*
X194700000Y-100300000D01*
X192200000Y-100300000D01*
X192200000Y-102800000D01*
X191700000Y-102800000D01*
X191700000Y-99800000D01*
X195200000Y-99800000D01*
X195200000Y-103300000D01*
X191700000Y-103300000D01*
G37*
G36*
X179200000Y-87300000D02*
G01*
X177700000Y-87300000D01*
X177700000Y-85800000D01*
X179200000Y-85800000D01*
X179200000Y-87300000D01*
G37*
G36*
X187225000Y-97036186D02*
G01*
X187060506Y-97131643D01*
X186731566Y-97316428D01*
X186486962Y-97445414D01*
X186370341Y-97495161D01*
X186331809Y-97484395D01*
X186146381Y-97397619D01*
X185853178Y-97242443D01*
X185495341Y-97041247D01*
X184700000Y-96582495D01*
X184700000Y-95694028D01*
X184306599Y-95920440D01*
X183913198Y-96146853D01*
X183531599Y-95929026D01*
X183150000Y-95711198D01*
X183095512Y-93793357D01*
X185400000Y-93793357D01*
X185400058Y-93898745D01*
X185403902Y-94319753D01*
X185419170Y-94584173D01*
X185453364Y-94728216D01*
X185513985Y-94788088D01*
X185608533Y-94800000D01*
X185621125Y-94799925D01*
X185727299Y-94780314D01*
X185781753Y-94695164D01*
X185796495Y-94499861D01*
X185783533Y-94149790D01*
X185774424Y-93828841D01*
X185782570Y-93590708D01*
X185806738Y-93499790D01*
X185849333Y-93556263D01*
X185935966Y-93758123D01*
X186038735Y-94055984D01*
X186111825Y-94262582D01*
X186254638Y-94517243D01*
X186397834Y-94572005D01*
X186542925Y-94426927D01*
X186691427Y-94082071D01*
X186794116Y-93799914D01*
X186897174Y-93588463D01*
X186958009Y-93572294D01*
X186975422Y-93751206D01*
X186948214Y-94125000D01*
X186876701Y-94800000D01*
X187400000Y-94800000D01*
X187400000Y-92800000D01*
X187112193Y-92800000D01*
X186959106Y-92815071D01*
X186838715Y-92892009D01*
X186730775Y-93073773D01*
X186598783Y-93403256D01*
X186483026Y-93694995D01*
X186386642Y-93903447D01*
X186335947Y-93969279D01*
X186303123Y-93902985D01*
X186221025Y-93690955D01*
X186115451Y-93391023D01*
X186070548Y-93262660D01*
X185954583Y-92999781D01*
X185832303Y-92867658D01*
X185666094Y-92818357D01*
X185400000Y-92786715D01*
X185400000Y-93793357D01*
X183095512Y-93793357D01*
X183093096Y-93708320D01*
X183459520Y-93520333D01*
X183825945Y-93332346D01*
X183462973Y-93108017D01*
X183307689Y-93006683D01*
X183168000Y-92867502D01*
X183111920Y-92679349D01*
X183102822Y-92366844D01*
X183105643Y-91850000D01*
X184315340Y-91167745D01*
X185525038Y-90485490D01*
X185962519Y-90717573D01*
X186155063Y-90824018D01*
X186322447Y-90958432D01*
X186388439Y-91130456D01*
X186400000Y-91414950D01*
X186401521Y-91549462D01*
X186433903Y-91790269D01*
X186543314Y-91946698D01*
X186775000Y-92101596D01*
X187150000Y-92322948D01*
X187568138Y-92101218D01*
X187986275Y-91879488D01*
X188393138Y-92108158D01*
X188800000Y-92336828D01*
X188800000Y-94287203D01*
X188400000Y-94512015D01*
X188000000Y-94736828D01*
X188000000Y-96582051D01*
X187225000Y-97036186D01*
G37*
G36*
X186900662Y-97802368D02*
G01*
X187101059Y-97827607D01*
X187183789Y-97901627D01*
X187200000Y-98050000D01*
X187195264Y-98150330D01*
X187144785Y-98250529D01*
X186996745Y-98291894D01*
X186700000Y-98300000D01*
X186499339Y-98297631D01*
X186298942Y-98272392D01*
X186216212Y-98198372D01*
X186200000Y-98050000D01*
X186204737Y-97949669D01*
X186255216Y-97849470D01*
X186403256Y-97808105D01*
X186700000Y-97800000D01*
X186900662Y-97802368D01*
G37*
G36*
X185996072Y-89301055D02*
G01*
X186158698Y-89359698D01*
X186200000Y-89550000D01*
X186201056Y-89596071D01*
X186259699Y-89758697D01*
X186450000Y-89800000D01*
X186496072Y-89801055D01*
X186658698Y-89859698D01*
X186700000Y-90050000D01*
X186698945Y-90096071D01*
X186640302Y-90258697D01*
X186450000Y-90300000D01*
X186403929Y-90298944D01*
X186241303Y-90240301D01*
X186200000Y-90050000D01*
X186198945Y-90003928D01*
X186140302Y-89841302D01*
X185950000Y-89800000D01*
X185903929Y-89798944D01*
X185741303Y-89740301D01*
X185700000Y-89550000D01*
X185701056Y-89503928D01*
X185759699Y-89341302D01*
X185950000Y-89300000D01*
X185996072Y-89301055D01*
G37*
G36*
X186200000Y-88800000D02*
G01*
X185450000Y-88800000D01*
X185186575Y-88800919D01*
X184910507Y-88812341D01*
X184765473Y-88848301D01*
X184709347Y-88922839D01*
X184700000Y-89050000D01*
X184701056Y-89096071D01*
X184759699Y-89258697D01*
X184950000Y-89300000D01*
X184996072Y-89301055D01*
X185158698Y-89359698D01*
X185200000Y-89550000D01*
X185195264Y-89650330D01*
X185144785Y-89750529D01*
X184996745Y-89791894D01*
X184700000Y-89800000D01*
X184499339Y-89802368D01*
X184298942Y-89827607D01*
X184216212Y-89901627D01*
X184200000Y-90050000D01*
X184200000Y-90300000D01*
X182200000Y-90300000D01*
X182200000Y-90550000D01*
X182198945Y-90596071D01*
X182140302Y-90758697D01*
X181950000Y-90800000D01*
X181903929Y-90801055D01*
X181741303Y-90859698D01*
X181700000Y-91050000D01*
X181701056Y-91096071D01*
X181759699Y-91258697D01*
X181950000Y-91300000D01*
X182050331Y-91304736D01*
X182150530Y-91355215D01*
X182191895Y-91503255D01*
X182193172Y-91550000D01*
X182200000Y-91800000D01*
X182200000Y-92300000D01*
X180200000Y-92300000D01*
X180200000Y-91800000D01*
X180197632Y-91599338D01*
X180191418Y-91550000D01*
X180700000Y-91550000D01*
X180701056Y-91596071D01*
X180759699Y-91758697D01*
X180950000Y-91800000D01*
X180996072Y-91798944D01*
X181158698Y-91740301D01*
X181200000Y-91550000D01*
X181198945Y-91503928D01*
X181140302Y-91341302D01*
X180950000Y-91300000D01*
X180903929Y-91301055D01*
X180741303Y-91359698D01*
X180700000Y-91550000D01*
X180191418Y-91550000D01*
X180172393Y-91398941D01*
X180098373Y-91316211D01*
X179950000Y-91300000D01*
X179903929Y-91301055D01*
X179741303Y-91359698D01*
X179700000Y-91550000D01*
X179695264Y-91650330D01*
X179644785Y-91750529D01*
X179496745Y-91791894D01*
X179200000Y-91800000D01*
X178999339Y-91802368D01*
X178798942Y-91827607D01*
X178716212Y-91901627D01*
X178700000Y-92050000D01*
X178704737Y-92150330D01*
X178755216Y-92250529D01*
X178903256Y-92291894D01*
X179200000Y-92300000D01*
X179400662Y-92302368D01*
X179601059Y-92327607D01*
X179683789Y-92401627D01*
X179700000Y-92550000D01*
X179701056Y-92596071D01*
X179759699Y-92758697D01*
X179950000Y-92800000D01*
X179996072Y-92801055D01*
X180158698Y-92859698D01*
X180200000Y-93050000D01*
X180201056Y-93096071D01*
X180259699Y-93258697D01*
X180450000Y-93300000D01*
X180496072Y-93301055D01*
X180658698Y-93359698D01*
X180700000Y-93550000D01*
X180698945Y-93596071D01*
X180640302Y-93758697D01*
X180450000Y-93800000D01*
X180403929Y-93798944D01*
X180241303Y-93740301D01*
X180200000Y-93550000D01*
X180198945Y-93503928D01*
X180140302Y-93341302D01*
X179950000Y-93300000D01*
X179903929Y-93298944D01*
X179741303Y-93240301D01*
X179700000Y-93050000D01*
X179697243Y-92962191D01*
X179662975Y-92870168D01*
X179555097Y-92821824D01*
X179331482Y-92803115D01*
X178950000Y-92800000D01*
X178200000Y-92800000D01*
X178200000Y-93550000D01*
X178200920Y-93813425D01*
X178212342Y-94089493D01*
X178248302Y-94234527D01*
X178322840Y-94290653D01*
X178450000Y-94300000D01*
X178496072Y-94298944D01*
X178658698Y-94240301D01*
X178700000Y-94050000D01*
X178701056Y-94003928D01*
X178759699Y-93841302D01*
X178950000Y-93800000D01*
X179037809Y-93802757D01*
X179129832Y-93837025D01*
X179178176Y-93944903D01*
X179196885Y-94168518D01*
X179200000Y-94550000D01*
X179200920Y-94813425D01*
X179212342Y-95089493D01*
X179248302Y-95234527D01*
X179322840Y-95290653D01*
X179450000Y-95300000D01*
X179496072Y-95298944D01*
X179658698Y-95240301D01*
X179700000Y-95050000D01*
X179700000Y-94800000D01*
X181700000Y-94800000D01*
X181700000Y-94550000D01*
X181698945Y-94503928D01*
X181640302Y-94341302D01*
X181450000Y-94300000D01*
X181362192Y-94297242D01*
X181270169Y-94262974D01*
X181221825Y-94155096D01*
X181203116Y-93931481D01*
X181200000Y-93550000D01*
X181200920Y-93286574D01*
X181212342Y-93010506D01*
X181248302Y-92865472D01*
X181322840Y-92809346D01*
X181450000Y-92800000D01*
X181496072Y-92801055D01*
X181658698Y-92859698D01*
X181700000Y-93050000D01*
X181701056Y-93096071D01*
X181759699Y-93258697D01*
X181950000Y-93300000D01*
X182200000Y-93300000D01*
X182200000Y-95300000D01*
X181950000Y-95300000D01*
X181903929Y-95301055D01*
X181741303Y-95359698D01*
X181700000Y-95550000D01*
X181701056Y-95596071D01*
X181759699Y-95758697D01*
X181950000Y-95800000D01*
X182037809Y-95802757D01*
X182129832Y-95837025D01*
X182178176Y-95944903D01*
X182196885Y-96168518D01*
X182200000Y-96550000D01*
X182199081Y-96813425D01*
X182187659Y-97089493D01*
X182151699Y-97234527D01*
X182077161Y-97290653D01*
X181950000Y-97300000D01*
X181903929Y-97298944D01*
X181741303Y-97240301D01*
X181700000Y-97050000D01*
X181698945Y-97003928D01*
X181640302Y-96841302D01*
X181450000Y-96800000D01*
X181362192Y-96802757D01*
X181270169Y-96837025D01*
X181221825Y-96944903D01*
X181203116Y-97168518D01*
X181200000Y-97550000D01*
X181200920Y-97813425D01*
X181212342Y-98089493D01*
X181248302Y-98234527D01*
X181322840Y-98290653D01*
X181450000Y-98300000D01*
X181496072Y-98301055D01*
X181658698Y-98359698D01*
X181700000Y-98550000D01*
X181698945Y-98596071D01*
X181640302Y-98758697D01*
X181450000Y-98800000D01*
X181403929Y-98801055D01*
X181241303Y-98859698D01*
X181200000Y-99050000D01*
X181204737Y-99150330D01*
X181255216Y-99250529D01*
X181403256Y-99291894D01*
X181700000Y-99300000D01*
X181900662Y-99297631D01*
X182101059Y-99272392D01*
X182183789Y-99198372D01*
X182200000Y-99050000D01*
X182201056Y-99003928D01*
X182259699Y-98841302D01*
X182450000Y-98800000D01*
X182496072Y-98798944D01*
X182658698Y-98740301D01*
X182700000Y-98550000D01*
X182698945Y-98503928D01*
X182640302Y-98341302D01*
X182450000Y-98300000D01*
X182403929Y-98298944D01*
X182241303Y-98240301D01*
X182200000Y-98050000D01*
X182201056Y-98003928D01*
X182259699Y-97841302D01*
X182450000Y-97800000D01*
X182496072Y-97801055D01*
X182658698Y-97859698D01*
X182700000Y-98050000D01*
X182701056Y-98096071D01*
X182759699Y-98258697D01*
X182950000Y-98300000D01*
X182996072Y-98301055D01*
X183158698Y-98359698D01*
X183200000Y-98550000D01*
X183201056Y-98596071D01*
X183259699Y-98758697D01*
X183450000Y-98800000D01*
X183496072Y-98798944D01*
X183658698Y-98740301D01*
X183700000Y-98550000D01*
X183704737Y-98449669D01*
X183755216Y-98349470D01*
X183903256Y-98308105D01*
X184200000Y-98300000D01*
X184400662Y-98297631D01*
X184601059Y-98272392D01*
X184683789Y-98198372D01*
X184700000Y-98050000D01*
X184704737Y-97949669D01*
X184755216Y-97849470D01*
X184903256Y-97808105D01*
X185200000Y-97800000D01*
X185700000Y-97800000D01*
X185700000Y-98800000D01*
X184950000Y-98800000D01*
X184686575Y-98800919D01*
X184410507Y-98812341D01*
X184265473Y-98848301D01*
X184209347Y-98922839D01*
X184200000Y-99050000D01*
X184195264Y-99150330D01*
X184144785Y-99250529D01*
X183996745Y-99291894D01*
X183700000Y-99300000D01*
X183499339Y-99297631D01*
X183298942Y-99272392D01*
X183216212Y-99198372D01*
X183200000Y-99050000D01*
X183198945Y-99003928D01*
X183140302Y-98841302D01*
X182950000Y-98800000D01*
X182903929Y-98801055D01*
X182741303Y-98859698D01*
X182700000Y-99050000D01*
X182698945Y-99096071D01*
X182640302Y-99258697D01*
X182450000Y-99300000D01*
X182349670Y-99304736D01*
X182249471Y-99355215D01*
X182208106Y-99503255D01*
X182200000Y-99800000D01*
X182202369Y-100000661D01*
X182208583Y-100050000D01*
X182227608Y-100201058D01*
X182301628Y-100283788D01*
X182450000Y-100300000D01*
X182496072Y-100301055D01*
X182658698Y-100359698D01*
X182700000Y-100550000D01*
X182701056Y-100596071D01*
X182759699Y-100758697D01*
X182950000Y-100800000D01*
X183050331Y-100795263D01*
X183150530Y-100744784D01*
X183191895Y-100596744D01*
X183200000Y-100300000D01*
X183200000Y-99800000D01*
X183700000Y-99800000D01*
X183900662Y-99802368D01*
X184101059Y-99827607D01*
X184183789Y-99901627D01*
X184200000Y-100050000D01*
X184198945Y-100096071D01*
X184140302Y-100258697D01*
X183950000Y-100300000D01*
X183849670Y-100304736D01*
X183749471Y-100355215D01*
X183708106Y-100503255D01*
X183700000Y-100800000D01*
X183700000Y-101300000D01*
X183200000Y-101300000D01*
X182999339Y-101297631D01*
X182798942Y-101272392D01*
X182716212Y-101198372D01*
X182700000Y-101050000D01*
X182698945Y-101003928D01*
X182640302Y-100841302D01*
X182450000Y-100800000D01*
X182403929Y-100801055D01*
X182241303Y-100859698D01*
X182200000Y-101050000D01*
X182195264Y-101150330D01*
X182144785Y-101250529D01*
X181996745Y-101291894D01*
X181700000Y-101300000D01*
X181200000Y-101300000D01*
X181200000Y-102300000D01*
X180700000Y-102300000D01*
X180499339Y-102297631D01*
X180298942Y-102272392D01*
X180216212Y-102198372D01*
X180200000Y-102050000D01*
X180198945Y-102003928D01*
X180140302Y-101841302D01*
X179950000Y-101800000D01*
X179849670Y-101804736D01*
X179749471Y-101855215D01*
X179708106Y-102003255D01*
X179700000Y-102300000D01*
X179702369Y-102500661D01*
X179727608Y-102701058D01*
X179801628Y-102783788D01*
X179950000Y-102800000D01*
X179996072Y-102801055D01*
X180158698Y-102859698D01*
X180200000Y-103050000D01*
X180200000Y-103300000D01*
X178200000Y-103300000D01*
X178200000Y-103050000D01*
X178195264Y-102949669D01*
X178144785Y-102849470D01*
X177996745Y-102808105D01*
X177700000Y-102800000D01*
X177499339Y-102802368D01*
X177298942Y-102827607D01*
X177216212Y-102901627D01*
X177200000Y-103050000D01*
X177198945Y-103096071D01*
X177140302Y-103258697D01*
X176950000Y-103300000D01*
X176862192Y-103297242D01*
X176770169Y-103262974D01*
X176721825Y-103155096D01*
X176703116Y-102931481D01*
X176700000Y-102550000D01*
X176700000Y-101800000D01*
X177200000Y-101800000D01*
X177400662Y-101802368D01*
X177601059Y-101827607D01*
X177683789Y-101901627D01*
X177700000Y-102050000D01*
X177701056Y-102096071D01*
X177759699Y-102258697D01*
X177950000Y-102300000D01*
X178050331Y-102295263D01*
X178150530Y-102244784D01*
X178191895Y-102096744D01*
X178200000Y-101800000D01*
X178202369Y-101599338D01*
X178208583Y-101550000D01*
X178700000Y-101550000D01*
X178704737Y-101650330D01*
X178755216Y-101750529D01*
X178903256Y-101791894D01*
X179200000Y-101800000D01*
X179400662Y-101797631D01*
X179601059Y-101772392D01*
X179683789Y-101698372D01*
X179700000Y-101550000D01*
X180200000Y-101550000D01*
X180201056Y-101596071D01*
X180259699Y-101758697D01*
X180450000Y-101800000D01*
X180496072Y-101798944D01*
X180658698Y-101740301D01*
X180700000Y-101550000D01*
X180698945Y-101503928D01*
X180640302Y-101341302D01*
X180450000Y-101300000D01*
X180403929Y-101301055D01*
X180241303Y-101359698D01*
X180200000Y-101550000D01*
X179700000Y-101550000D01*
X179695264Y-101449669D01*
X179644785Y-101349470D01*
X179496745Y-101308105D01*
X179200000Y-101300000D01*
X178999339Y-101302368D01*
X178798942Y-101327607D01*
X178716212Y-101401627D01*
X178700000Y-101550000D01*
X178208583Y-101550000D01*
X178227608Y-101398941D01*
X178301628Y-101316211D01*
X178450000Y-101300000D01*
X178496072Y-101298944D01*
X178658698Y-101240301D01*
X178700000Y-101050000D01*
X178698945Y-101003928D01*
X178640302Y-100841302D01*
X178450000Y-100800000D01*
X179200000Y-100800000D01*
X180700000Y-100800000D01*
X180700000Y-100050000D01*
X181200000Y-100050000D01*
X181201056Y-100096071D01*
X181259699Y-100258697D01*
X181450000Y-100300000D01*
X181496072Y-100298944D01*
X181658698Y-100240301D01*
X181700000Y-100050000D01*
X181698945Y-100003928D01*
X181640302Y-99841302D01*
X181450000Y-99800000D01*
X181403929Y-99801055D01*
X181241303Y-99859698D01*
X181200000Y-100050000D01*
X180700000Y-100050000D01*
X180700000Y-99300000D01*
X179200000Y-99300000D01*
X179200000Y-100800000D01*
X178450000Y-100800000D01*
X178403929Y-100798944D01*
X178241303Y-100740301D01*
X178200000Y-100550000D01*
X178198945Y-100503928D01*
X178140302Y-100341302D01*
X177950000Y-100300000D01*
X177903929Y-100301055D01*
X177741303Y-100359698D01*
X177700000Y-100550000D01*
X177698945Y-100596071D01*
X177640302Y-100758697D01*
X177450000Y-100800000D01*
X177403929Y-100801055D01*
X177241303Y-100859698D01*
X177200000Y-101050000D01*
X177198945Y-101096071D01*
X177140302Y-101258697D01*
X176950000Y-101300000D01*
X176903929Y-101298944D01*
X176741303Y-101240301D01*
X176700000Y-101050000D01*
X176701056Y-101003928D01*
X176759699Y-100841302D01*
X176950000Y-100800000D01*
X176996072Y-100798944D01*
X177158698Y-100740301D01*
X177200000Y-100550000D01*
X177198945Y-100503928D01*
X177140302Y-100341302D01*
X176950000Y-100300000D01*
X176903929Y-100298944D01*
X176741303Y-100240301D01*
X176700000Y-100050000D01*
X177200000Y-100050000D01*
X177201056Y-100096071D01*
X177259699Y-100258697D01*
X177450000Y-100300000D01*
X177496072Y-100298944D01*
X177658698Y-100240301D01*
X177700000Y-100050000D01*
X177698945Y-100003928D01*
X177640302Y-99841302D01*
X177450000Y-99800000D01*
X177403929Y-99801055D01*
X177241303Y-99859698D01*
X177200000Y-100050000D01*
X176700000Y-100050000D01*
X176701056Y-100003928D01*
X176759699Y-99841302D01*
X176950000Y-99800000D01*
X176996072Y-99798944D01*
X177158698Y-99740301D01*
X177200000Y-99550000D01*
X177198945Y-99503928D01*
X177140302Y-99341302D01*
X176950000Y-99300000D01*
X176903929Y-99298944D01*
X176741303Y-99240301D01*
X176700000Y-99050000D01*
X176701056Y-99003928D01*
X176759699Y-98841302D01*
X176950000Y-98800000D01*
X176996072Y-98798944D01*
X177158698Y-98740301D01*
X177200000Y-98550000D01*
X177198945Y-98503928D01*
X177140302Y-98341302D01*
X176950000Y-98300000D01*
X176903929Y-98298944D01*
X176741303Y-98240301D01*
X176700000Y-98050000D01*
X177700000Y-98050000D01*
X177701056Y-98096071D01*
X177759699Y-98258697D01*
X177950000Y-98300000D01*
X178050331Y-98304736D01*
X178150530Y-98355215D01*
X178191895Y-98503255D01*
X178200000Y-98800000D01*
X178202369Y-99000661D01*
X178227608Y-99201058D01*
X178301628Y-99283788D01*
X178450000Y-99300000D01*
X178550331Y-99295263D01*
X178650530Y-99244784D01*
X178691895Y-99096744D01*
X178700000Y-98800000D01*
X178702369Y-98599338D01*
X178727608Y-98398941D01*
X178801628Y-98316211D01*
X178950000Y-98300000D01*
X178996072Y-98301055D01*
X179158698Y-98359698D01*
X179200000Y-98550000D01*
X179200000Y-98800000D01*
X181200000Y-98800000D01*
X181200000Y-98550000D01*
X181198945Y-98503928D01*
X181140302Y-98341302D01*
X180950000Y-98300000D01*
X180849670Y-98295263D01*
X180749471Y-98244784D01*
X180708106Y-98096744D01*
X180700000Y-97800000D01*
X180697632Y-97599338D01*
X180672393Y-97398941D01*
X180598373Y-97316211D01*
X180450000Y-97300000D01*
X180403929Y-97301055D01*
X180241303Y-97359698D01*
X180200000Y-97550000D01*
X180198945Y-97596071D01*
X180140302Y-97758697D01*
X179950000Y-97800000D01*
X179903929Y-97798944D01*
X179741303Y-97740301D01*
X179700000Y-97550000D01*
X179698945Y-97503928D01*
X179640302Y-97341302D01*
X179450000Y-97300000D01*
X179349670Y-97295263D01*
X179249471Y-97244784D01*
X179208106Y-97096744D01*
X179200000Y-96800000D01*
X179202369Y-96599338D01*
X179227608Y-96398941D01*
X179301628Y-96316211D01*
X179450000Y-96300000D01*
X179496072Y-96301055D01*
X179658698Y-96359698D01*
X179700000Y-96550000D01*
X179701056Y-96596071D01*
X179759699Y-96758697D01*
X179950000Y-96800000D01*
X180050331Y-96795263D01*
X180150530Y-96744784D01*
X180191895Y-96596744D01*
X180193172Y-96550000D01*
X180700000Y-96550000D01*
X180701056Y-96596071D01*
X180759699Y-96758697D01*
X180950000Y-96800000D01*
X180996072Y-96798944D01*
X181158698Y-96740301D01*
X181200000Y-96550000D01*
X181198945Y-96503928D01*
X181140302Y-96341302D01*
X180950000Y-96300000D01*
X180903929Y-96301055D01*
X180741303Y-96359698D01*
X180700000Y-96550000D01*
X180193172Y-96550000D01*
X180200000Y-96300000D01*
X180202369Y-96099338D01*
X180227608Y-95898941D01*
X180301628Y-95816211D01*
X180450000Y-95800000D01*
X180496072Y-95798944D01*
X180658698Y-95740301D01*
X180700000Y-95550000D01*
X180695264Y-95449669D01*
X180644785Y-95349470D01*
X180496745Y-95308105D01*
X180200000Y-95300000D01*
X179999339Y-95302368D01*
X179798942Y-95327607D01*
X179716212Y-95401627D01*
X179700000Y-95550000D01*
X179698945Y-95596071D01*
X179640302Y-95758697D01*
X179450000Y-95800000D01*
X179403929Y-95801055D01*
X179241303Y-95859698D01*
X179200000Y-96050000D01*
X179198945Y-96096071D01*
X179140302Y-96258697D01*
X178950000Y-96300000D01*
X178849670Y-96295263D01*
X178749471Y-96244784D01*
X178708106Y-96096744D01*
X178700000Y-95800000D01*
X178697632Y-95599338D01*
X178672393Y-95398941D01*
X178598373Y-95316211D01*
X178450000Y-95300000D01*
X178403929Y-95301055D01*
X178241303Y-95359698D01*
X178200000Y-95550000D01*
X178198945Y-95596071D01*
X178140302Y-95758697D01*
X177950000Y-95800000D01*
X177903929Y-95801055D01*
X177741303Y-95859698D01*
X177700000Y-96050000D01*
X177704737Y-96150330D01*
X177755216Y-96250529D01*
X177903256Y-96291894D01*
X178200000Y-96300000D01*
X178700000Y-96300000D01*
X178700000Y-96800000D01*
X178702369Y-97000661D01*
X178708583Y-97050000D01*
X178727608Y-97201058D01*
X178801628Y-97283788D01*
X178950000Y-97300000D01*
X178996072Y-97301055D01*
X179158698Y-97359698D01*
X179200000Y-97550000D01*
X179198945Y-97596071D01*
X179140302Y-97758697D01*
X178950000Y-97800000D01*
X178903929Y-97801055D01*
X178741303Y-97859698D01*
X178700000Y-98050000D01*
X178698945Y-98096071D01*
X178640302Y-98258697D01*
X178450000Y-98300000D01*
X178403929Y-98298944D01*
X178241303Y-98240301D01*
X178200000Y-98050000D01*
X178198945Y-98003928D01*
X178140302Y-97841302D01*
X177950000Y-97800000D01*
X177903929Y-97801055D01*
X177741303Y-97859698D01*
X177700000Y-98050000D01*
X176700000Y-98050000D01*
X176701056Y-98003928D01*
X176759699Y-97841302D01*
X176950000Y-97800000D01*
X176996072Y-97798944D01*
X177158698Y-97740301D01*
X177200000Y-97550000D01*
X177198945Y-97503928D01*
X177140302Y-97341302D01*
X176950000Y-97300000D01*
X176903929Y-97298944D01*
X176741303Y-97240301D01*
X176700000Y-97050000D01*
X177200000Y-97050000D01*
X177204737Y-97150330D01*
X177255216Y-97250529D01*
X177403256Y-97291894D01*
X177700000Y-97300000D01*
X177900662Y-97297631D01*
X178101059Y-97272392D01*
X178183789Y-97198372D01*
X178200000Y-97050000D01*
X178195264Y-96949669D01*
X178144785Y-96849470D01*
X177996745Y-96808105D01*
X177700000Y-96800000D01*
X177499339Y-96802368D01*
X177298942Y-96827607D01*
X177216212Y-96901627D01*
X177200000Y-97050000D01*
X176700000Y-97050000D01*
X176701056Y-97003928D01*
X176759699Y-96841302D01*
X176950000Y-96800000D01*
X176996072Y-96798944D01*
X177158698Y-96740301D01*
X177200000Y-96550000D01*
X177198945Y-96503928D01*
X177140302Y-96341302D01*
X176950000Y-96300000D01*
X176903929Y-96298944D01*
X176741303Y-96240301D01*
X176700000Y-96050000D01*
X176701056Y-96003928D01*
X176759699Y-95841302D01*
X176950000Y-95800000D01*
X176996072Y-95798944D01*
X177158698Y-95740301D01*
X177200000Y-95550000D01*
X177198945Y-95503928D01*
X177140302Y-95341302D01*
X176950000Y-95300000D01*
X176903929Y-95298944D01*
X176741303Y-95240301D01*
X176700000Y-95050000D01*
X176704737Y-94949669D01*
X176755216Y-94849470D01*
X176903256Y-94808105D01*
X177200000Y-94800000D01*
X177400662Y-94802368D01*
X177601059Y-94827607D01*
X177683789Y-94901627D01*
X177700000Y-95050000D01*
X177701056Y-95096071D01*
X177759699Y-95258697D01*
X177950000Y-95300000D01*
X178050331Y-95295263D01*
X178150530Y-95244784D01*
X178191895Y-95096744D01*
X178200000Y-94800000D01*
X178197632Y-94599338D01*
X178172393Y-94398941D01*
X178098373Y-94316211D01*
X177950000Y-94300000D01*
X177903929Y-94298944D01*
X177741303Y-94240301D01*
X177700000Y-94050000D01*
X177698945Y-94003928D01*
X177640302Y-93841302D01*
X177450000Y-93800000D01*
X177403929Y-93801055D01*
X177241303Y-93859698D01*
X177200000Y-94050000D01*
X177198945Y-94096071D01*
X177140302Y-94258697D01*
X176950000Y-94300000D01*
X176903929Y-94298944D01*
X176741303Y-94240301D01*
X176700000Y-94050000D01*
X176701056Y-94003928D01*
X176759699Y-93841302D01*
X176950000Y-93800000D01*
X176996072Y-93798944D01*
X177158698Y-93740301D01*
X177200000Y-93550000D01*
X177198945Y-93503928D01*
X177140302Y-93341302D01*
X176950000Y-93300000D01*
X176903929Y-93298944D01*
X176741303Y-93240301D01*
X176700000Y-93050000D01*
X176701056Y-93003928D01*
X176759699Y-92841302D01*
X176950000Y-92800000D01*
X176996072Y-92798944D01*
X177158698Y-92740301D01*
X177200000Y-92550000D01*
X177198945Y-92503928D01*
X177140302Y-92341302D01*
X176950000Y-92300000D01*
X176903929Y-92298944D01*
X176741303Y-92240301D01*
X176700000Y-92050000D01*
X176704737Y-91949669D01*
X176755216Y-91849470D01*
X176903256Y-91808105D01*
X177200000Y-91800000D01*
X177400662Y-91797631D01*
X177601059Y-91772392D01*
X177683789Y-91698372D01*
X177700000Y-91550000D01*
X177695264Y-91449669D01*
X177644785Y-91349470D01*
X177496745Y-91308105D01*
X177200000Y-91300000D01*
X176700000Y-91300000D01*
X176700000Y-91050000D01*
X177700000Y-91050000D01*
X177701056Y-91096071D01*
X177759699Y-91258697D01*
X177950000Y-91300000D01*
X177996072Y-91301055D01*
X178158698Y-91359698D01*
X178200000Y-91550000D01*
X178201056Y-91596071D01*
X178259699Y-91758697D01*
X178450000Y-91800000D01*
X178496072Y-91798944D01*
X178658698Y-91740301D01*
X178700000Y-91550000D01*
X178698945Y-91503928D01*
X178640302Y-91341302D01*
X178450000Y-91300000D01*
X178403929Y-91298944D01*
X178241303Y-91240301D01*
X178200000Y-91050000D01*
X178198945Y-91003928D01*
X178140302Y-90841302D01*
X177950000Y-90800000D01*
X177903929Y-90801055D01*
X177741303Y-90859698D01*
X177700000Y-91050000D01*
X176700000Y-91050000D01*
X176700000Y-90550000D01*
X176700920Y-90286574D01*
X176712342Y-90010506D01*
X176748302Y-89865472D01*
X176822840Y-89809346D01*
X176950000Y-89800000D01*
X176996072Y-89801055D01*
X177158698Y-89859698D01*
X177200000Y-90050000D01*
X177204737Y-90150330D01*
X177255216Y-90250529D01*
X177403256Y-90291894D01*
X177700000Y-90300000D01*
X177900662Y-90302368D01*
X178101059Y-90327607D01*
X178183789Y-90401627D01*
X178200000Y-90550000D01*
X178201056Y-90596071D01*
X178259699Y-90758697D01*
X178450000Y-90800000D01*
X178496072Y-90801055D01*
X178658698Y-90859698D01*
X178700000Y-91050000D01*
X178701056Y-91096071D01*
X178759699Y-91258697D01*
X178950000Y-91300000D01*
X178996072Y-91298944D01*
X179158698Y-91240301D01*
X179200000Y-91050000D01*
X179201056Y-91003928D01*
X179259699Y-90841302D01*
X179450000Y-90800000D01*
X179496072Y-90798944D01*
X179658698Y-90740301D01*
X179700000Y-90550000D01*
X181200000Y-90550000D01*
X181201056Y-90596071D01*
X181259699Y-90758697D01*
X181450000Y-90800000D01*
X181496072Y-90798944D01*
X181658698Y-90740301D01*
X181700000Y-90550000D01*
X181701056Y-90503928D01*
X181759699Y-90341302D01*
X181950000Y-90300000D01*
X181996072Y-90298944D01*
X182158698Y-90240301D01*
X182200000Y-90050000D01*
X182201056Y-90003928D01*
X182259699Y-89841302D01*
X182450000Y-89800000D01*
X182496072Y-89798944D01*
X182658698Y-89740301D01*
X182700000Y-89550000D01*
X182698945Y-89503928D01*
X182640302Y-89341302D01*
X182450000Y-89300000D01*
X182403929Y-89301055D01*
X182241303Y-89359698D01*
X182200000Y-89550000D01*
X182198945Y-89596071D01*
X182140302Y-89758697D01*
X181950000Y-89800000D01*
X181903929Y-89801055D01*
X181741303Y-89859698D01*
X181700000Y-90050000D01*
X181698945Y-90096071D01*
X181640302Y-90258697D01*
X181450000Y-90300000D01*
X181403929Y-90301055D01*
X181241303Y-90359698D01*
X181200000Y-90550000D01*
X179700000Y-90550000D01*
X179695264Y-90449669D01*
X179644785Y-90349470D01*
X179496745Y-90308105D01*
X179200000Y-90300000D01*
X178700000Y-90300000D01*
X178700000Y-89800000D01*
X178697632Y-89599338D01*
X178672393Y-89398941D01*
X178598373Y-89316211D01*
X178450000Y-89300000D01*
X178403929Y-89301055D01*
X178241303Y-89359698D01*
X178200000Y-89550000D01*
X178198945Y-89596071D01*
X178140302Y-89758697D01*
X177950000Y-89800000D01*
X177849670Y-89795263D01*
X177749471Y-89744784D01*
X177708106Y-89596744D01*
X177700000Y-89300000D01*
X177700000Y-88800000D01*
X178200000Y-88800000D01*
X178400662Y-88802368D01*
X178601059Y-88827607D01*
X178683789Y-88901627D01*
X178700000Y-89050000D01*
X178701056Y-89096071D01*
X178759699Y-89258697D01*
X178950000Y-89300000D01*
X178996072Y-89301055D01*
X179158698Y-89359698D01*
X179200000Y-89550000D01*
X179201056Y-89596071D01*
X179259699Y-89758697D01*
X179450000Y-89800000D01*
X179496072Y-89798944D01*
X179658698Y-89740301D01*
X179700000Y-89550000D01*
X179701056Y-89503928D01*
X179759699Y-89341302D01*
X179950000Y-89300000D01*
X179996072Y-89301055D01*
X180158698Y-89359698D01*
X180200000Y-89550000D01*
X180201056Y-89596071D01*
X180259699Y-89758697D01*
X180450000Y-89800000D01*
X180496072Y-89798944D01*
X180658698Y-89740301D01*
X180700000Y-89550000D01*
X180701056Y-89503928D01*
X180759699Y-89341302D01*
X180950000Y-89300000D01*
X180996072Y-89301055D01*
X181158698Y-89359698D01*
X181200000Y-89550000D01*
X181201056Y-89596071D01*
X181259699Y-89758697D01*
X181450000Y-89800000D01*
X181550331Y-89795263D01*
X181650530Y-89744784D01*
X181691895Y-89596744D01*
X181700000Y-89300000D01*
X181700000Y-88800000D01*
X182200000Y-88800000D01*
X182700000Y-88800000D01*
X182900662Y-88802368D01*
X183101059Y-88827607D01*
X183183789Y-88901627D01*
X183200000Y-89050000D01*
X183204737Y-89150330D01*
X183255216Y-89250529D01*
X183403256Y-89291894D01*
X183700000Y-89300000D01*
X183900662Y-89297631D01*
X184101059Y-89272392D01*
X184183789Y-89198372D01*
X184200000Y-89050000D01*
X184201056Y-89003928D01*
X184259699Y-88841302D01*
X184450000Y-88800000D01*
X184550331Y-88795263D01*
X184650530Y-88744784D01*
X184691895Y-88596744D01*
X184700000Y-88300000D01*
X184702369Y-88099338D01*
X184727608Y-87898941D01*
X184801628Y-87816211D01*
X184950000Y-87800000D01*
X184996072Y-87801055D01*
X185158698Y-87859698D01*
X185200000Y-88050000D01*
X185201056Y-88096071D01*
X185259699Y-88258697D01*
X185450000Y-88300000D01*
X185496072Y-88298944D01*
X185658698Y-88240301D01*
X185700000Y-88050000D01*
X185698945Y-88003928D01*
X185640302Y-87841302D01*
X185450000Y-87800000D01*
X185349670Y-87795263D01*
X185249471Y-87744784D01*
X185208106Y-87596744D01*
X185200000Y-87300000D01*
X185197632Y-87099338D01*
X185172393Y-86898941D01*
X185098373Y-86816211D01*
X184950000Y-86800000D01*
X184903929Y-86801055D01*
X184741303Y-86859698D01*
X184700000Y-87050000D01*
X184698945Y-87096071D01*
X184640302Y-87258697D01*
X184450000Y-87300000D01*
X184362192Y-87302757D01*
X184270169Y-87337025D01*
X184221825Y-87444903D01*
X184203116Y-87668518D01*
X184200000Y-88050000D01*
X184200000Y-88800000D01*
X183700000Y-88800000D01*
X183499339Y-88797631D01*
X183298942Y-88772392D01*
X183216212Y-88698372D01*
X183200000Y-88550000D01*
X183201056Y-88503928D01*
X183259699Y-88341302D01*
X183450000Y-88300000D01*
X183496072Y-88298944D01*
X183658698Y-88240301D01*
X183700000Y-88050000D01*
X183698945Y-88003928D01*
X183640302Y-87841302D01*
X183450000Y-87800000D01*
X183403929Y-87801055D01*
X183241303Y-87859698D01*
X183200000Y-88050000D01*
X183198945Y-88096071D01*
X183140302Y-88258697D01*
X182950000Y-88300000D01*
X182903929Y-88298944D01*
X182741303Y-88240301D01*
X182700000Y-88050000D01*
X182698945Y-88003928D01*
X182640302Y-87841302D01*
X182450000Y-87800000D01*
X182349670Y-87804736D01*
X182249471Y-87855215D01*
X182208106Y-88003255D01*
X182200000Y-88300000D01*
X182200000Y-88800000D01*
X181700000Y-88800000D01*
X180700000Y-88800000D01*
X180700000Y-88300000D01*
X180702369Y-88099338D01*
X180727608Y-87898941D01*
X180801628Y-87816211D01*
X180950000Y-87800000D01*
X180996072Y-87801055D01*
X181158698Y-87859698D01*
X181200000Y-88050000D01*
X181201056Y-88096071D01*
X181259699Y-88258697D01*
X181450000Y-88300000D01*
X181537809Y-88297242D01*
X181629832Y-88262974D01*
X181678176Y-88155096D01*
X181696885Y-87931481D01*
X181700000Y-87550000D01*
X181699081Y-87286574D01*
X181687659Y-87010506D01*
X181651699Y-86865472D01*
X181577161Y-86809346D01*
X181450000Y-86800000D01*
X181403929Y-86801055D01*
X181241303Y-86859698D01*
X181200000Y-87050000D01*
X181198945Y-87096071D01*
X181140302Y-87258697D01*
X180950000Y-87300000D01*
X180903929Y-87298944D01*
X180741303Y-87240301D01*
X180700000Y-87050000D01*
X180701056Y-87003928D01*
X180759699Y-86841302D01*
X180950000Y-86800000D01*
X180996072Y-86798944D01*
X181158698Y-86740301D01*
X181200000Y-86550000D01*
X181700000Y-86550000D01*
X181701056Y-86596071D01*
X181759699Y-86758697D01*
X181950000Y-86800000D01*
X183200000Y-86800000D01*
X183202369Y-87000661D01*
X183227608Y-87201058D01*
X183301628Y-87283788D01*
X183450000Y-87300000D01*
X183550331Y-87295263D01*
X183650530Y-87244784D01*
X183691895Y-87096744D01*
X183700000Y-86800000D01*
X183697632Y-86599338D01*
X183672393Y-86398941D01*
X183598373Y-86316211D01*
X183450000Y-86300000D01*
X183349670Y-86304736D01*
X183249471Y-86355215D01*
X183208106Y-86503255D01*
X183206829Y-86550000D01*
X183200000Y-86800000D01*
X181950000Y-86800000D01*
X181996072Y-86798944D01*
X182158698Y-86740301D01*
X182200000Y-86550000D01*
X182198945Y-86503928D01*
X182140302Y-86341302D01*
X181950000Y-86300000D01*
X181903929Y-86301055D01*
X181741303Y-86359698D01*
X181700000Y-86550000D01*
X181200000Y-86550000D01*
X181198945Y-86503928D01*
X181140302Y-86341302D01*
X180950000Y-86300000D01*
X180849670Y-86295263D01*
X180749471Y-86244784D01*
X180708106Y-86096744D01*
X180700000Y-85800000D01*
X180702369Y-85599338D01*
X180727608Y-85398941D01*
X180801628Y-85316211D01*
X180950000Y-85300000D01*
X181050331Y-85304736D01*
X181150530Y-85355215D01*
X181191895Y-85503255D01*
X181200000Y-85800000D01*
X181202369Y-86000661D01*
X181227608Y-86201058D01*
X181301628Y-86283788D01*
X181450000Y-86300000D01*
X181496072Y-86298944D01*
X181658698Y-86240301D01*
X181700000Y-86050000D01*
X184200000Y-86050000D01*
X184201056Y-86096071D01*
X184259699Y-86258697D01*
X184450000Y-86300000D01*
X184496072Y-86298944D01*
X184658698Y-86240301D01*
X184700000Y-86050000D01*
X184698945Y-86003928D01*
X184640302Y-85841302D01*
X184450000Y-85800000D01*
X184403929Y-85801055D01*
X184241303Y-85859698D01*
X184200000Y-86050000D01*
X181700000Y-86050000D01*
X181704737Y-85949669D01*
X181755216Y-85849470D01*
X181903256Y-85808105D01*
X182200000Y-85800000D01*
X182400662Y-85797631D01*
X182601059Y-85772392D01*
X182683789Y-85698372D01*
X182700000Y-85550000D01*
X182704737Y-85449669D01*
X182755216Y-85349470D01*
X182903256Y-85308105D01*
X183200000Y-85300000D01*
X183400662Y-85297631D01*
X183601059Y-85272392D01*
X183683789Y-85198372D01*
X183700000Y-85050000D01*
X183701056Y-85003928D01*
X183759699Y-84841302D01*
X183950000Y-84800000D01*
X183996072Y-84801055D01*
X184158698Y-84859698D01*
X184200000Y-85050000D01*
X184201056Y-85096071D01*
X184259699Y-85258697D01*
X184450000Y-85300000D01*
X184496072Y-85298944D01*
X184658698Y-85240301D01*
X184700000Y-85050000D01*
X184701056Y-85003928D01*
X184759699Y-84841302D01*
X184950000Y-84800000D01*
X185037809Y-84802757D01*
X185129832Y-84837025D01*
X185178176Y-84944903D01*
X185196885Y-85168518D01*
X185200000Y-85550000D01*
X185200920Y-85813425D01*
X185210708Y-86050000D01*
X185212342Y-86089493D01*
X185248302Y-86234527D01*
X185322840Y-86290653D01*
X185450000Y-86300000D01*
X185537809Y-86297242D01*
X185629832Y-86262974D01*
X185678176Y-86155096D01*
X185696885Y-85931481D01*
X185700000Y-85550000D01*
X185700000Y-84800000D01*
X186700000Y-84800000D01*
X186700000Y-85300000D01*
X186697632Y-85500661D01*
X186672393Y-85701058D01*
X186598373Y-85783788D01*
X186450000Y-85800000D01*
X186403929Y-85801055D01*
X186241303Y-85859698D01*
X186200000Y-86050000D01*
X186198945Y-86096071D01*
X186140302Y-86258697D01*
X185950000Y-86300000D01*
X185862192Y-86302757D01*
X185770169Y-86337025D01*
X185721825Y-86444903D01*
X185703116Y-86668518D01*
X185700000Y-87050000D01*
X185700920Y-87313425D01*
X185712342Y-87589493D01*
X185748302Y-87734527D01*
X185822840Y-87790653D01*
X185950000Y-87800000D01*
X185996072Y-87798944D01*
X186158698Y-87740301D01*
X186200000Y-87550000D01*
X186201056Y-87503928D01*
X186259699Y-87341302D01*
X186450000Y-87300000D01*
X186496072Y-87301055D01*
X186658698Y-87359698D01*
X186700000Y-87550000D01*
X186701056Y-87596071D01*
X186759699Y-87758697D01*
X186950000Y-87800000D01*
X186996072Y-87801055D01*
X187158698Y-87859698D01*
X187200000Y-88050000D01*
X187198945Y-88096071D01*
X187140302Y-88258697D01*
X186950000Y-88300000D01*
X186903929Y-88298944D01*
X186741303Y-88240301D01*
X186700000Y-88050000D01*
X186698945Y-88003928D01*
X186640302Y-87841302D01*
X186450000Y-87800000D01*
X186349670Y-87804736D01*
X186249471Y-87855215D01*
X186208106Y-88003255D01*
X186206829Y-88050000D01*
X186200000Y-88300000D01*
X186200000Y-88800000D01*
G37*
G36*
X182996072Y-102801055D02*
G01*
X183158698Y-102859698D01*
X183200000Y-103050000D01*
X183198945Y-103096071D01*
X183140302Y-103258697D01*
X182950000Y-103300000D01*
X182903929Y-103298944D01*
X182741303Y-103240301D01*
X182700000Y-103050000D01*
X182701056Y-103003928D01*
X182759699Y-102841302D01*
X182950000Y-102800000D01*
X182996072Y-102801055D01*
G37*
G36*
X182900662Y-101802368D02*
G01*
X183101059Y-101827607D01*
X183183789Y-101901627D01*
X183200000Y-102050000D01*
X183195264Y-102150330D01*
X183144785Y-102250529D01*
X182996745Y-102291894D01*
X182700000Y-102300000D01*
X182200000Y-102300000D01*
X182200000Y-102800000D01*
X182197632Y-103000661D01*
X182172393Y-103201058D01*
X182098373Y-103283788D01*
X181950000Y-103300000D01*
X181849670Y-103295263D01*
X181749471Y-103244784D01*
X181708106Y-103096744D01*
X181700000Y-102800000D01*
X181702369Y-102599338D01*
X181727608Y-102398941D01*
X181801628Y-102316211D01*
X181950000Y-102300000D01*
X181996072Y-102298944D01*
X182158698Y-102240301D01*
X182200000Y-102050000D01*
X182204737Y-101949669D01*
X182255216Y-101849470D01*
X182403256Y-101808105D01*
X182700000Y-101800000D01*
X182900662Y-101802368D01*
G37*
G36*
X194200000Y-102300000D02*
G01*
X192700000Y-102300000D01*
X192700000Y-100800000D01*
X194200000Y-100800000D01*
X194200000Y-102300000D01*
G37*
G36*
X176700000Y-88300000D02*
G01*
X176700000Y-87800000D01*
X177200000Y-87800000D01*
X179700000Y-87800000D01*
X179700000Y-85300000D01*
X177200000Y-85300000D01*
X177200000Y-87800000D01*
X176700000Y-87800000D01*
X176700000Y-84800000D01*
X180200000Y-84800000D01*
X180200000Y-88300000D01*
X176700000Y-88300000D01*
G37*
G36*
X179996072Y-99801055D02*
G01*
X180158698Y-99859698D01*
X180200000Y-100050000D01*
X180198945Y-100096071D01*
X180140302Y-100258697D01*
X179950000Y-100300000D01*
X179903929Y-100298944D01*
X179741303Y-100240301D01*
X179700000Y-100050000D01*
X179701056Y-100003928D01*
X179759699Y-99841302D01*
X179950000Y-99800000D01*
X179996072Y-99801055D01*
G37*
G36*
X179496072Y-97801055D02*
G01*
X179658698Y-97859698D01*
X179700000Y-98050000D01*
X179698945Y-98096071D01*
X179640302Y-98258697D01*
X179450000Y-98300000D01*
X179403929Y-98298944D01*
X179241303Y-98240301D01*
X179200000Y-98050000D01*
X179201056Y-98003928D01*
X179259699Y-97841302D01*
X179450000Y-97800000D01*
X179496072Y-97801055D01*
G37*
G36*
X191140302Y-88258697D02*
G01*
X190950000Y-88300000D01*
X190849670Y-88304736D01*
X190749471Y-88355215D01*
X190708106Y-88503255D01*
X190700000Y-88800000D01*
X190697632Y-89000661D01*
X190672393Y-89201058D01*
X190598373Y-89283788D01*
X190450000Y-89300000D01*
X190349670Y-89295263D01*
X190249471Y-89244784D01*
X190208106Y-89096744D01*
X190200000Y-88800000D01*
X190197632Y-88599338D01*
X190172393Y-88398941D01*
X190098373Y-88316211D01*
X189950000Y-88300000D01*
X189903929Y-88298944D01*
X189741303Y-88240301D01*
X189700000Y-88050000D01*
X190200000Y-88050000D01*
X190201056Y-88096071D01*
X190259699Y-88258697D01*
X190450000Y-88300000D01*
X190496072Y-88298944D01*
X190658698Y-88240301D01*
X190700000Y-88050000D01*
X190698945Y-88003928D01*
X190640302Y-87841302D01*
X190450000Y-87800000D01*
X190403929Y-87801055D01*
X190241303Y-87859698D01*
X190200000Y-88050000D01*
X189700000Y-88050000D01*
X189698945Y-88003928D01*
X189640302Y-87841302D01*
X189450000Y-87800000D01*
X189200000Y-87800000D01*
X189200000Y-90300000D01*
X187200000Y-90300000D01*
X187200000Y-89800000D01*
X187197632Y-89599338D01*
X187172393Y-89398941D01*
X187098373Y-89316211D01*
X186950000Y-89300000D01*
X186903929Y-89298944D01*
X186741303Y-89240301D01*
X186700000Y-89050000D01*
X186704737Y-88949669D01*
X186755216Y-88849470D01*
X186903256Y-88808105D01*
X187200000Y-88800000D01*
X187700000Y-88800000D01*
X187700000Y-89300000D01*
X187702369Y-89500661D01*
X187727608Y-89701058D01*
X187801628Y-89783788D01*
X187950000Y-89800000D01*
X187996072Y-89798944D01*
X188158698Y-89740301D01*
X188200000Y-89550000D01*
X188201056Y-89503928D01*
X188259699Y-89341302D01*
X188450000Y-89300000D01*
X188496072Y-89298944D01*
X188658698Y-89240301D01*
X188700000Y-89050000D01*
X188698945Y-89003928D01*
X188640302Y-88841302D01*
X188450000Y-88800000D01*
X188403929Y-88798944D01*
X188241303Y-88740301D01*
X188200000Y-88550000D01*
X188198945Y-88503928D01*
X188140302Y-88341302D01*
X187950000Y-88300000D01*
X187849670Y-88295263D01*
X187749471Y-88244784D01*
X187708106Y-88096744D01*
X187706829Y-88050000D01*
X188200000Y-88050000D01*
X188201056Y-88096071D01*
X188259699Y-88258697D01*
X188450000Y-88300000D01*
X188496072Y-88298944D01*
X188658698Y-88240301D01*
X188700000Y-88050000D01*
X188698945Y-88003928D01*
X188640302Y-87841302D01*
X188450000Y-87800000D01*
X188403929Y-87801055D01*
X188241303Y-87859698D01*
X188200000Y-88050000D01*
X187706829Y-88050000D01*
X187700000Y-87800000D01*
X187697632Y-87599338D01*
X187672393Y-87398941D01*
X187598373Y-87316211D01*
X187450000Y-87300000D01*
X187403929Y-87298944D01*
X187241303Y-87240301D01*
X187200000Y-87050000D01*
X187198945Y-87003928D01*
X187140302Y-86841302D01*
X186950000Y-86800000D01*
X186903929Y-86798944D01*
X186741303Y-86740301D01*
X186700000Y-86550000D01*
X186702758Y-86462191D01*
X186737026Y-86370168D01*
X186844904Y-86321824D01*
X187068519Y-86303115D01*
X187450000Y-86300000D01*
X187713426Y-86300919D01*
X187989494Y-86312341D01*
X188134528Y-86348301D01*
X188190654Y-86422839D01*
X188200000Y-86550000D01*
X188201056Y-86596071D01*
X188259699Y-86758697D01*
X188450000Y-86800000D01*
X188496072Y-86801055D01*
X188658698Y-86859698D01*
X188700000Y-87050000D01*
X188701056Y-87096071D01*
X188759699Y-87258697D01*
X188950000Y-87300000D01*
X188996072Y-87298944D01*
X189158698Y-87240301D01*
X189200000Y-87050000D01*
X189201056Y-87003928D01*
X189259699Y-86841302D01*
X189450000Y-86800000D01*
X189550331Y-86804736D01*
X189650530Y-86855215D01*
X189691895Y-87003255D01*
X189700000Y-87300000D01*
X189702369Y-87500661D01*
X189727608Y-87701058D01*
X189801628Y-87783788D01*
X189950000Y-87800000D01*
X190050331Y-87795263D01*
X190150530Y-87744784D01*
X190191895Y-87596744D01*
X190200000Y-87300000D01*
X190202369Y-87099338D01*
X190227608Y-86898941D01*
X190301628Y-86816211D01*
X190450000Y-86800000D01*
X190496072Y-86798944D01*
X190658698Y-86740301D01*
X190700000Y-86550000D01*
X190697243Y-86462191D01*
X190662975Y-86370168D01*
X190555097Y-86321824D01*
X190331482Y-86303115D01*
X189950000Y-86300000D01*
X189686575Y-86299080D01*
X189410507Y-86287658D01*
X189265473Y-86251698D01*
X189209347Y-86177160D01*
X189200000Y-86050000D01*
X189198945Y-86003928D01*
X189140302Y-85841302D01*
X188950000Y-85800000D01*
X188903929Y-85798944D01*
X188741303Y-85740301D01*
X188700000Y-85550000D01*
X188698945Y-85503928D01*
X188640302Y-85341302D01*
X188450000Y-85300000D01*
X188403929Y-85301055D01*
X188241303Y-85359698D01*
X188200000Y-85550000D01*
X188195264Y-85650330D01*
X188144785Y-85750529D01*
X187996745Y-85791894D01*
X187700000Y-85800000D01*
X187499339Y-85797631D01*
X187298942Y-85772392D01*
X187216212Y-85698372D01*
X187200000Y-85550000D01*
X187204737Y-85449669D01*
X187255216Y-85349470D01*
X187403256Y-85308105D01*
X187700000Y-85300000D01*
X187900662Y-85297631D01*
X188101059Y-85272392D01*
X188183789Y-85198372D01*
X188200000Y-85050000D01*
X188201056Y-85003928D01*
X188259699Y-84841302D01*
X188450000Y-84800000D01*
X188496072Y-84801055D01*
X188658698Y-84859698D01*
X188700000Y-85050000D01*
X188704737Y-85150330D01*
X188755216Y-85250529D01*
X188903256Y-85291894D01*
X189200000Y-85300000D01*
X189400662Y-85297631D01*
X189601059Y-85272392D01*
X189683789Y-85198372D01*
X189700000Y-85050000D01*
X189704737Y-84949669D01*
X189755216Y-84849470D01*
X189903256Y-84808105D01*
X190200000Y-84800000D01*
X190400662Y-84802368D01*
X190601059Y-84827607D01*
X190683789Y-84901627D01*
X190700000Y-85050000D01*
X190695264Y-85150330D01*
X190644785Y-85250529D01*
X190496745Y-85291894D01*
X190200000Y-85300000D01*
X189999339Y-85302368D01*
X189798942Y-85327607D01*
X189716212Y-85401627D01*
X189700000Y-85550000D01*
X189702758Y-85637808D01*
X189737026Y-85729831D01*
X189844904Y-85778175D01*
X190068519Y-85796884D01*
X190450000Y-85800000D01*
X191200000Y-85800000D01*
X191200000Y-86300000D01*
X191197632Y-86500661D01*
X191172393Y-86701058D01*
X191098373Y-86783788D01*
X190950000Y-86800000D01*
X190849670Y-86804736D01*
X190749471Y-86855215D01*
X190708106Y-87003255D01*
X190700000Y-87300000D01*
X190702369Y-87500661D01*
X190727608Y-87701058D01*
X190801628Y-87783788D01*
X190950000Y-87800000D01*
X190996072Y-87801055D01*
X191158698Y-87859698D01*
X191200000Y-88050000D01*
X191198945Y-88096071D01*
X191140302Y-88258697D01*
G37*
%LPC*%
D12*
X175610000Y-70000000D03*
X120000000Y-70000000D03*
D13*
X184620000Y-70000000D03*
X111720000Y-70000000D03*
D14*
X184622500Y-106400714D03*
X184622500Y-112400714D03*
D15*
X182022500Y-109900714D03*
X187222500Y-109900714D03*
X187222500Y-113300714D03*
X182022500Y-113300714D03*
X182022500Y-106400714D03*
X187222500Y-106400714D03*
D16*
X174870000Y-96850000D03*
X174870000Y-89650000D03*
X197870000Y-100250000D03*
X197870000Y-86250000D03*
X174870000Y-100250000D03*
X174870000Y-86250000D03*
D17*
X145170000Y-65750000D03*
X145170000Y-80750000D03*
D18*
X197015000Y-71715000D03*
X197015000Y-68715000D03*
D19*
X162192500Y-86935714D03*
D20*
X159652500Y-86935714D03*
X157112500Y-86935714D03*
X154572500Y-86935714D03*
D21*
X197545000Y-80500000D03*
D22*
X194920000Y-80500000D03*
D21*
X192295000Y-80500000D03*
X194920000Y-77875000D03*
X194920000Y-83125000D03*
X196776155Y-78643845D03*
X196776155Y-82356155D03*
X193063845Y-82356155D03*
X193063845Y-78643845D03*
X197545000Y-110500000D03*
X196776155Y-112356155D03*
X194920000Y-113125000D03*
X192295000Y-110500000D03*
X194920000Y-107875000D03*
X193063845Y-108643845D03*
D22*
X194920000Y-110500000D03*
D21*
X193063845Y-112356155D03*
X196776155Y-108643845D03*
D23*
X174546612Y-104500714D03*
D24*
X173276612Y-104500714D03*
X172006612Y-104500714D03*
D23*
X184892500Y-104440714D03*
D24*
X183622500Y-104440714D03*
X182352500Y-104440714D03*
D21*
X106776155Y-108643845D03*
X107545000Y-110500000D03*
X106776155Y-112356155D03*
D22*
X104920000Y-110500000D03*
D21*
X103063845Y-112356155D03*
X104920000Y-107875000D03*
X102295000Y-110500000D03*
X104920000Y-113125000D03*
X103063845Y-108643845D03*
D14*
X174276612Y-106375714D03*
X174276612Y-112375714D03*
D15*
X171676612Y-109875714D03*
X176876612Y-109875714D03*
X176876612Y-113275714D03*
X171676612Y-113275714D03*
X171676612Y-106375714D03*
X176876612Y-106375714D03*
D21*
X107545000Y-80500000D03*
X103063845Y-82356155D03*
X102295000Y-80500000D03*
X104920000Y-77875000D03*
X103063845Y-78643845D03*
X106776155Y-78643845D03*
D22*
X104920000Y-80500000D03*
D21*
X104920000Y-83125000D03*
X106776155Y-82356155D03*
D19*
X174982500Y-82587500D03*
D20*
X177522500Y-82587500D03*
M02*
