%TF.GenerationSoftware,KiCad,Pcbnew,6.0.7+dfsg-1~bpo11+1*%
%TF.ProjectId,wiscale,77697363-616c-4652-9e6b-696361645f70,1.0a*%
%TF.SameCoordinates,Original*%
%TF.FileFunction,Drillmap*%
%TF.FilePolarity,Positive*%
%FSLAX45Y45*%
G04 Gerber Fmt 4.5, Leading zero omitted, Abs format (unit mm)*
%MOMM*%
%LPD*%
G01*
G04 APERTURE LIST*
%ADD10C,0.100000*%
%ADD11C,0.200000*%
%ADD12C,0.090000*%
%ADD13C,0.150000*%
%ADD14C,0.320000*%
G04 APERTURE END LIST*
D10*
X19992000Y-6550000D02*
X19992000Y-11050000D01*
X9992000Y-11050000D02*
X9992000Y-7050000D01*
X19492000Y-11550000D02*
X10492000Y-11550000D01*
X10492000Y-6550000D02*
G75*
G03*
X9992000Y-7050000I0J-500000D01*
G01*
X10492000Y-6550000D02*
X19992000Y-6550000D01*
X19492000Y-11550000D02*
G75*
G03*
X19992000Y-11050000I0J500000D01*
G01*
X9992000Y-11050000D02*
G75*
G03*
X10492000Y-11550000I500000J0D01*
G01*
D11*
D12*
X19656500Y-6826500D02*
X19746500Y-6916500D01*
X19746500Y-6826500D02*
X19656500Y-6916500D01*
X19656500Y-7126500D02*
X19746500Y-7216500D01*
X19746500Y-7126500D02*
X19656500Y-7216500D01*
D13*
X17502661Y-10637571D02*
G75*
G03*
X17502661Y-10637571I-75000J0D01*
G01*
X17502661Y-11237571D02*
G75*
G03*
X17502661Y-11237571I-75000J0D01*
G01*
X18537250Y-10640071D02*
G75*
G03*
X18537250Y-10640071I-75000J0D01*
G01*
X18537250Y-11240071D02*
G75*
G03*
X18537250Y-11240071I-75000J0D01*
G01*
D14*
X12000000Y-6840000D02*
X12000000Y-7160000D01*
X11840000Y-7000000D02*
X12160000Y-7000000D01*
X17561000Y-6840000D02*
X17561000Y-7160000D01*
X17401000Y-7000000D02*
X17721000Y-7000000D01*
D11*
X10244619Y-11865476D02*
X10244619Y-11665476D01*
X10292238Y-11665476D01*
X10320810Y-11675000D01*
X10339857Y-11694048D01*
X10349381Y-11713095D01*
X10358905Y-11751190D01*
X10358905Y-11779762D01*
X10349381Y-11817857D01*
X10339857Y-11836905D01*
X10320810Y-11855952D01*
X10292238Y-11865476D01*
X10244619Y-11865476D01*
X10444619Y-11865476D02*
X10444619Y-11732143D01*
X10444619Y-11770238D02*
X10454143Y-11751190D01*
X10463667Y-11741667D01*
X10482714Y-11732143D01*
X10501762Y-11732143D01*
X10568429Y-11865476D02*
X10568429Y-11732143D01*
X10568429Y-11665476D02*
X10558905Y-11675000D01*
X10568429Y-11684524D01*
X10577952Y-11675000D01*
X10568429Y-11665476D01*
X10568429Y-11684524D01*
X10692238Y-11865476D02*
X10673190Y-11855952D01*
X10663667Y-11836905D01*
X10663667Y-11665476D01*
X10797000Y-11865476D02*
X10777952Y-11855952D01*
X10768429Y-11836905D01*
X10768429Y-11665476D01*
X11025571Y-11865476D02*
X11025571Y-11665476D01*
X11092238Y-11808333D01*
X11158905Y-11665476D01*
X11158905Y-11865476D01*
X11339857Y-11865476D02*
X11339857Y-11760714D01*
X11330333Y-11741667D01*
X11311286Y-11732143D01*
X11273190Y-11732143D01*
X11254143Y-11741667D01*
X11339857Y-11855952D02*
X11320809Y-11865476D01*
X11273190Y-11865476D01*
X11254143Y-11855952D01*
X11244619Y-11836905D01*
X11244619Y-11817857D01*
X11254143Y-11798809D01*
X11273190Y-11789286D01*
X11320809Y-11789286D01*
X11339857Y-11779762D01*
X11435095Y-11732143D02*
X11435095Y-11932143D01*
X11435095Y-11741667D02*
X11454143Y-11732143D01*
X11492238Y-11732143D01*
X11511286Y-11741667D01*
X11520809Y-11751190D01*
X11530333Y-11770238D01*
X11530333Y-11827381D01*
X11520809Y-11846428D01*
X11511286Y-11855952D01*
X11492238Y-11865476D01*
X11454143Y-11865476D01*
X11435095Y-11855952D01*
X11616048Y-11846428D02*
X11625571Y-11855952D01*
X11616048Y-11865476D01*
X11606524Y-11855952D01*
X11616048Y-11846428D01*
X11616048Y-11865476D01*
X11616048Y-11741667D02*
X11625571Y-11751190D01*
X11616048Y-11760714D01*
X11606524Y-11751190D01*
X11616048Y-11741667D01*
X11616048Y-11760714D01*
D12*
X9897000Y-12150000D02*
X9987000Y-12240000D01*
X9987000Y-12150000D02*
X9897000Y-12240000D01*
D11*
X10282714Y-12085476D02*
X10301762Y-12085476D01*
X10320810Y-12095000D01*
X10330333Y-12104524D01*
X10339857Y-12123571D01*
X10349381Y-12161667D01*
X10349381Y-12209286D01*
X10339857Y-12247381D01*
X10330333Y-12266428D01*
X10320810Y-12275952D01*
X10301762Y-12285476D01*
X10282714Y-12285476D01*
X10263667Y-12275952D01*
X10254143Y-12266428D01*
X10244619Y-12247381D01*
X10235095Y-12209286D01*
X10235095Y-12161667D01*
X10244619Y-12123571D01*
X10254143Y-12104524D01*
X10263667Y-12095000D01*
X10282714Y-12085476D01*
X10435095Y-12266428D02*
X10444619Y-12275952D01*
X10435095Y-12285476D01*
X10425571Y-12275952D01*
X10435095Y-12266428D01*
X10435095Y-12285476D01*
X10539857Y-12285476D02*
X10577952Y-12285476D01*
X10597000Y-12275952D01*
X10606524Y-12266428D01*
X10625571Y-12237857D01*
X10635095Y-12199762D01*
X10635095Y-12123571D01*
X10625571Y-12104524D01*
X10616048Y-12095000D01*
X10597000Y-12085476D01*
X10558905Y-12085476D01*
X10539857Y-12095000D01*
X10530333Y-12104524D01*
X10520810Y-12123571D01*
X10520810Y-12171190D01*
X10530333Y-12190238D01*
X10539857Y-12199762D01*
X10558905Y-12209286D01*
X10597000Y-12209286D01*
X10616048Y-12199762D01*
X10625571Y-12190238D01*
X10635095Y-12171190D01*
X10758905Y-12085476D02*
X10777952Y-12085476D01*
X10797000Y-12095000D01*
X10806524Y-12104524D01*
X10816048Y-12123571D01*
X10825571Y-12161667D01*
X10825571Y-12209286D01*
X10816048Y-12247381D01*
X10806524Y-12266428D01*
X10797000Y-12275952D01*
X10777952Y-12285476D01*
X10758905Y-12285476D01*
X10739857Y-12275952D01*
X10730333Y-12266428D01*
X10720810Y-12247381D01*
X10711286Y-12209286D01*
X10711286Y-12161667D01*
X10720810Y-12123571D01*
X10730333Y-12104524D01*
X10739857Y-12095000D01*
X10758905Y-12085476D01*
X10949381Y-12085476D02*
X10968429Y-12085476D01*
X10987476Y-12095000D01*
X10997000Y-12104524D01*
X11006524Y-12123571D01*
X11016048Y-12161667D01*
X11016048Y-12209286D01*
X11006524Y-12247381D01*
X10997000Y-12266428D01*
X10987476Y-12275952D01*
X10968429Y-12285476D01*
X10949381Y-12285476D01*
X10930333Y-12275952D01*
X10920810Y-12266428D01*
X10911286Y-12247381D01*
X10901762Y-12209286D01*
X10901762Y-12161667D01*
X10911286Y-12123571D01*
X10920810Y-12104524D01*
X10930333Y-12095000D01*
X10949381Y-12085476D01*
X11101762Y-12285476D02*
X11101762Y-12152143D01*
X11101762Y-12171190D02*
X11111286Y-12161667D01*
X11130333Y-12152143D01*
X11158905Y-12152143D01*
X11177952Y-12161667D01*
X11187476Y-12180714D01*
X11187476Y-12285476D01*
X11187476Y-12180714D02*
X11197000Y-12161667D01*
X11216048Y-12152143D01*
X11244619Y-12152143D01*
X11263667Y-12161667D01*
X11273190Y-12180714D01*
X11273190Y-12285476D01*
X11368428Y-12285476D02*
X11368428Y-12152143D01*
X11368428Y-12171190D02*
X11377952Y-12161667D01*
X11397000Y-12152143D01*
X11425571Y-12152143D01*
X11444619Y-12161667D01*
X11454143Y-12180714D01*
X11454143Y-12285476D01*
X11454143Y-12180714D02*
X11463667Y-12161667D01*
X11482714Y-12152143D01*
X11511286Y-12152143D01*
X11530333Y-12161667D01*
X11539857Y-12180714D01*
X11539857Y-12285476D01*
X11930333Y-12075952D02*
X11758905Y-12333095D01*
X12187476Y-12085476D02*
X12206524Y-12085476D01*
X12225571Y-12095000D01*
X12235095Y-12104524D01*
X12244619Y-12123571D01*
X12254143Y-12161667D01*
X12254143Y-12209286D01*
X12244619Y-12247381D01*
X12235095Y-12266428D01*
X12225571Y-12275952D01*
X12206524Y-12285476D01*
X12187476Y-12285476D01*
X12168428Y-12275952D01*
X12158905Y-12266428D01*
X12149381Y-12247381D01*
X12139857Y-12209286D01*
X12139857Y-12161667D01*
X12149381Y-12123571D01*
X12158905Y-12104524D01*
X12168428Y-12095000D01*
X12187476Y-12085476D01*
X12339857Y-12266428D02*
X12349381Y-12275952D01*
X12339857Y-12285476D01*
X12330333Y-12275952D01*
X12339857Y-12266428D01*
X12339857Y-12285476D01*
X12473190Y-12085476D02*
X12492238Y-12085476D01*
X12511286Y-12095000D01*
X12520809Y-12104524D01*
X12530333Y-12123571D01*
X12539857Y-12161667D01*
X12539857Y-12209286D01*
X12530333Y-12247381D01*
X12520809Y-12266428D01*
X12511286Y-12275952D01*
X12492238Y-12285476D01*
X12473190Y-12285476D01*
X12454143Y-12275952D01*
X12444619Y-12266428D01*
X12435095Y-12247381D01*
X12425571Y-12209286D01*
X12425571Y-12161667D01*
X12435095Y-12123571D01*
X12444619Y-12104524D01*
X12454143Y-12095000D01*
X12473190Y-12085476D01*
X12606524Y-12085476D02*
X12730333Y-12085476D01*
X12663667Y-12161667D01*
X12692238Y-12161667D01*
X12711286Y-12171190D01*
X12720809Y-12180714D01*
X12730333Y-12199762D01*
X12730333Y-12247381D01*
X12720809Y-12266428D01*
X12711286Y-12275952D01*
X12692238Y-12285476D01*
X12635095Y-12285476D01*
X12616048Y-12275952D01*
X12606524Y-12266428D01*
X12911286Y-12085476D02*
X12816048Y-12085476D01*
X12806524Y-12180714D01*
X12816048Y-12171190D01*
X12835095Y-12161667D01*
X12882714Y-12161667D01*
X12901762Y-12171190D01*
X12911286Y-12180714D01*
X12920809Y-12199762D01*
X12920809Y-12247381D01*
X12911286Y-12266428D01*
X12901762Y-12275952D01*
X12882714Y-12285476D01*
X12835095Y-12285476D01*
X12816048Y-12275952D01*
X12806524Y-12266428D01*
X13092238Y-12152143D02*
X13092238Y-12285476D01*
X13044619Y-12075952D02*
X12997000Y-12218809D01*
X13120809Y-12218809D01*
X13187476Y-12085476D02*
X13187476Y-12123571D01*
X13263667Y-12085476D02*
X13263667Y-12123571D01*
X13558905Y-12361667D02*
X13549381Y-12352143D01*
X13530333Y-12323571D01*
X13520809Y-12304524D01*
X13511286Y-12275952D01*
X13501762Y-12228333D01*
X13501762Y-12190238D01*
X13511286Y-12142619D01*
X13520809Y-12114048D01*
X13530333Y-12095000D01*
X13549381Y-12066428D01*
X13558905Y-12056905D01*
X13625571Y-12104524D02*
X13635095Y-12095000D01*
X13654143Y-12085476D01*
X13701762Y-12085476D01*
X13720809Y-12095000D01*
X13730333Y-12104524D01*
X13739857Y-12123571D01*
X13739857Y-12142619D01*
X13730333Y-12171190D01*
X13616048Y-12285476D01*
X13739857Y-12285476D01*
X13977952Y-12285476D02*
X13977952Y-12085476D01*
X14063667Y-12285476D02*
X14063667Y-12180714D01*
X14054143Y-12161667D01*
X14035095Y-12152143D01*
X14006524Y-12152143D01*
X13987476Y-12161667D01*
X13977952Y-12171190D01*
X14187476Y-12285476D02*
X14168428Y-12275952D01*
X14158905Y-12266428D01*
X14149381Y-12247381D01*
X14149381Y-12190238D01*
X14158905Y-12171190D01*
X14168428Y-12161667D01*
X14187476Y-12152143D01*
X14216048Y-12152143D01*
X14235095Y-12161667D01*
X14244619Y-12171190D01*
X14254143Y-12190238D01*
X14254143Y-12247381D01*
X14244619Y-12266428D01*
X14235095Y-12275952D01*
X14216048Y-12285476D01*
X14187476Y-12285476D01*
X14368428Y-12285476D02*
X14349381Y-12275952D01*
X14339857Y-12256905D01*
X14339857Y-12085476D01*
X14520809Y-12275952D02*
X14501762Y-12285476D01*
X14463667Y-12285476D01*
X14444619Y-12275952D01*
X14435095Y-12256905D01*
X14435095Y-12180714D01*
X14444619Y-12161667D01*
X14463667Y-12152143D01*
X14501762Y-12152143D01*
X14520809Y-12161667D01*
X14530333Y-12180714D01*
X14530333Y-12199762D01*
X14435095Y-12218809D01*
X14606524Y-12275952D02*
X14625571Y-12285476D01*
X14663667Y-12285476D01*
X14682714Y-12275952D01*
X14692238Y-12256905D01*
X14692238Y-12247381D01*
X14682714Y-12228333D01*
X14663667Y-12218809D01*
X14635095Y-12218809D01*
X14616048Y-12209286D01*
X14606524Y-12190238D01*
X14606524Y-12180714D01*
X14616048Y-12161667D01*
X14635095Y-12152143D01*
X14663667Y-12152143D01*
X14682714Y-12161667D01*
X14758905Y-12361667D02*
X14768428Y-12352143D01*
X14787476Y-12323571D01*
X14797000Y-12304524D01*
X14806524Y-12275952D01*
X14816048Y-12228333D01*
X14816048Y-12190238D01*
X14806524Y-12142619D01*
X14797000Y-12114048D01*
X14787476Y-12095000D01*
X14768428Y-12066428D01*
X14758905Y-12056905D01*
X15120809Y-12361667D02*
X15111286Y-12352143D01*
X15092238Y-12323571D01*
X15082714Y-12304524D01*
X15073190Y-12275952D01*
X15063667Y-12228333D01*
X15063667Y-12190238D01*
X15073190Y-12142619D01*
X15082714Y-12114048D01*
X15092238Y-12095000D01*
X15111286Y-12066428D01*
X15120809Y-12056905D01*
X15197000Y-12152143D02*
X15197000Y-12285476D01*
X15197000Y-12171190D02*
X15206524Y-12161667D01*
X15225571Y-12152143D01*
X15254143Y-12152143D01*
X15273190Y-12161667D01*
X15282714Y-12180714D01*
X15282714Y-12285476D01*
X15406524Y-12285476D02*
X15387476Y-12275952D01*
X15377952Y-12266428D01*
X15368428Y-12247381D01*
X15368428Y-12190238D01*
X15377952Y-12171190D01*
X15387476Y-12161667D01*
X15406524Y-12152143D01*
X15435095Y-12152143D01*
X15454143Y-12161667D01*
X15463667Y-12171190D01*
X15473190Y-12190238D01*
X15473190Y-12247381D01*
X15463667Y-12266428D01*
X15454143Y-12275952D01*
X15435095Y-12285476D01*
X15406524Y-12285476D01*
X15530333Y-12152143D02*
X15606524Y-12152143D01*
X15558905Y-12085476D02*
X15558905Y-12256905D01*
X15568428Y-12275952D01*
X15587476Y-12285476D01*
X15606524Y-12285476D01*
X15825571Y-12152143D02*
X15825571Y-12352143D01*
X15825571Y-12161667D02*
X15844619Y-12152143D01*
X15882714Y-12152143D01*
X15901762Y-12161667D01*
X15911286Y-12171190D01*
X15920809Y-12190238D01*
X15920809Y-12247381D01*
X15911286Y-12266428D01*
X15901762Y-12275952D01*
X15882714Y-12285476D01*
X15844619Y-12285476D01*
X15825571Y-12275952D01*
X16035095Y-12285476D02*
X16016048Y-12275952D01*
X16006524Y-12256905D01*
X16006524Y-12085476D01*
X16197000Y-12285476D02*
X16197000Y-12180714D01*
X16187476Y-12161667D01*
X16168428Y-12152143D01*
X16130333Y-12152143D01*
X16111286Y-12161667D01*
X16197000Y-12275952D02*
X16177952Y-12285476D01*
X16130333Y-12285476D01*
X16111286Y-12275952D01*
X16101762Y-12256905D01*
X16101762Y-12237857D01*
X16111286Y-12218809D01*
X16130333Y-12209286D01*
X16177952Y-12209286D01*
X16197000Y-12199762D01*
X16263667Y-12152143D02*
X16339857Y-12152143D01*
X16292238Y-12085476D02*
X16292238Y-12256905D01*
X16301762Y-12275952D01*
X16320809Y-12285476D01*
X16339857Y-12285476D01*
X16482714Y-12275952D02*
X16463667Y-12285476D01*
X16425571Y-12285476D01*
X16406524Y-12275952D01*
X16397000Y-12256905D01*
X16397000Y-12180714D01*
X16406524Y-12161667D01*
X16425571Y-12152143D01*
X16463667Y-12152143D01*
X16482714Y-12161667D01*
X16492238Y-12180714D01*
X16492238Y-12199762D01*
X16397000Y-12218809D01*
X16663667Y-12285476D02*
X16663667Y-12085476D01*
X16663667Y-12275952D02*
X16644619Y-12285476D01*
X16606524Y-12285476D01*
X16587476Y-12275952D01*
X16577952Y-12266428D01*
X16568428Y-12247381D01*
X16568428Y-12190238D01*
X16577952Y-12171190D01*
X16587476Y-12161667D01*
X16606524Y-12152143D01*
X16644619Y-12152143D01*
X16663667Y-12161667D01*
X16739857Y-12361667D02*
X16749381Y-12352143D01*
X16768428Y-12323571D01*
X16777952Y-12304524D01*
X16787476Y-12275952D01*
X16797000Y-12228333D01*
X16797000Y-12190238D01*
X16787476Y-12142619D01*
X16777952Y-12114048D01*
X16768428Y-12095000D01*
X16749381Y-12066428D01*
X16739857Y-12056905D01*
D13*
X9987000Y-12459000D02*
G75*
G03*
X9987000Y-12459000I-75000J0D01*
G01*
D11*
X10349381Y-12549476D02*
X10235095Y-12549476D01*
X10292238Y-12549476D02*
X10292238Y-12349476D01*
X10273190Y-12378048D01*
X10254143Y-12397095D01*
X10235095Y-12406619D01*
X10435095Y-12530428D02*
X10444619Y-12539952D01*
X10435095Y-12549476D01*
X10425571Y-12539952D01*
X10435095Y-12530428D01*
X10435095Y-12549476D01*
X10625571Y-12349476D02*
X10530333Y-12349476D01*
X10520810Y-12444714D01*
X10530333Y-12435190D01*
X10549381Y-12425667D01*
X10597000Y-12425667D01*
X10616048Y-12435190D01*
X10625571Y-12444714D01*
X10635095Y-12463762D01*
X10635095Y-12511381D01*
X10625571Y-12530428D01*
X10616048Y-12539952D01*
X10597000Y-12549476D01*
X10549381Y-12549476D01*
X10530333Y-12539952D01*
X10520810Y-12530428D01*
X10758905Y-12349476D02*
X10777952Y-12349476D01*
X10797000Y-12359000D01*
X10806524Y-12368524D01*
X10816048Y-12387571D01*
X10825571Y-12425667D01*
X10825571Y-12473286D01*
X10816048Y-12511381D01*
X10806524Y-12530428D01*
X10797000Y-12539952D01*
X10777952Y-12549476D01*
X10758905Y-12549476D01*
X10739857Y-12539952D01*
X10730333Y-12530428D01*
X10720810Y-12511381D01*
X10711286Y-12473286D01*
X10711286Y-12425667D01*
X10720810Y-12387571D01*
X10730333Y-12368524D01*
X10739857Y-12359000D01*
X10758905Y-12349476D01*
X10949381Y-12349476D02*
X10968429Y-12349476D01*
X10987476Y-12359000D01*
X10997000Y-12368524D01*
X11006524Y-12387571D01*
X11016048Y-12425667D01*
X11016048Y-12473286D01*
X11006524Y-12511381D01*
X10997000Y-12530428D01*
X10987476Y-12539952D01*
X10968429Y-12549476D01*
X10949381Y-12549476D01*
X10930333Y-12539952D01*
X10920810Y-12530428D01*
X10911286Y-12511381D01*
X10901762Y-12473286D01*
X10901762Y-12425667D01*
X10911286Y-12387571D01*
X10920810Y-12368524D01*
X10930333Y-12359000D01*
X10949381Y-12349476D01*
X11101762Y-12549476D02*
X11101762Y-12416143D01*
X11101762Y-12435190D02*
X11111286Y-12425667D01*
X11130333Y-12416143D01*
X11158905Y-12416143D01*
X11177952Y-12425667D01*
X11187476Y-12444714D01*
X11187476Y-12549476D01*
X11187476Y-12444714D02*
X11197000Y-12425667D01*
X11216048Y-12416143D01*
X11244619Y-12416143D01*
X11263667Y-12425667D01*
X11273190Y-12444714D01*
X11273190Y-12549476D01*
X11368428Y-12549476D02*
X11368428Y-12416143D01*
X11368428Y-12435190D02*
X11377952Y-12425667D01*
X11397000Y-12416143D01*
X11425571Y-12416143D01*
X11444619Y-12425667D01*
X11454143Y-12444714D01*
X11454143Y-12549476D01*
X11454143Y-12444714D02*
X11463667Y-12425667D01*
X11482714Y-12416143D01*
X11511286Y-12416143D01*
X11530333Y-12425667D01*
X11539857Y-12444714D01*
X11539857Y-12549476D01*
X11930333Y-12339952D02*
X11758905Y-12597095D01*
X12187476Y-12349476D02*
X12206524Y-12349476D01*
X12225571Y-12359000D01*
X12235095Y-12368524D01*
X12244619Y-12387571D01*
X12254143Y-12425667D01*
X12254143Y-12473286D01*
X12244619Y-12511381D01*
X12235095Y-12530428D01*
X12225571Y-12539952D01*
X12206524Y-12549476D01*
X12187476Y-12549476D01*
X12168428Y-12539952D01*
X12158905Y-12530428D01*
X12149381Y-12511381D01*
X12139857Y-12473286D01*
X12139857Y-12425667D01*
X12149381Y-12387571D01*
X12158905Y-12368524D01*
X12168428Y-12359000D01*
X12187476Y-12349476D01*
X12339857Y-12530428D02*
X12349381Y-12539952D01*
X12339857Y-12549476D01*
X12330333Y-12539952D01*
X12339857Y-12530428D01*
X12339857Y-12549476D01*
X12473190Y-12349476D02*
X12492238Y-12349476D01*
X12511286Y-12359000D01*
X12520809Y-12368524D01*
X12530333Y-12387571D01*
X12539857Y-12425667D01*
X12539857Y-12473286D01*
X12530333Y-12511381D01*
X12520809Y-12530428D01*
X12511286Y-12539952D01*
X12492238Y-12549476D01*
X12473190Y-12549476D01*
X12454143Y-12539952D01*
X12444619Y-12530428D01*
X12435095Y-12511381D01*
X12425571Y-12473286D01*
X12425571Y-12425667D01*
X12435095Y-12387571D01*
X12444619Y-12368524D01*
X12454143Y-12359000D01*
X12473190Y-12349476D01*
X12720809Y-12349476D02*
X12625571Y-12349476D01*
X12616048Y-12444714D01*
X12625571Y-12435190D01*
X12644619Y-12425667D01*
X12692238Y-12425667D01*
X12711286Y-12435190D01*
X12720809Y-12444714D01*
X12730333Y-12463762D01*
X12730333Y-12511381D01*
X12720809Y-12530428D01*
X12711286Y-12539952D01*
X12692238Y-12549476D01*
X12644619Y-12549476D01*
X12625571Y-12539952D01*
X12616048Y-12530428D01*
X12825571Y-12549476D02*
X12863667Y-12549476D01*
X12882714Y-12539952D01*
X12892238Y-12530428D01*
X12911286Y-12501857D01*
X12920809Y-12463762D01*
X12920809Y-12387571D01*
X12911286Y-12368524D01*
X12901762Y-12359000D01*
X12882714Y-12349476D01*
X12844619Y-12349476D01*
X12825571Y-12359000D01*
X12816048Y-12368524D01*
X12806524Y-12387571D01*
X12806524Y-12435190D01*
X12816048Y-12454238D01*
X12825571Y-12463762D01*
X12844619Y-12473286D01*
X12882714Y-12473286D01*
X12901762Y-12463762D01*
X12911286Y-12454238D01*
X12920809Y-12435190D01*
X13111286Y-12549476D02*
X12997000Y-12549476D01*
X13054143Y-12549476D02*
X13054143Y-12349476D01*
X13035095Y-12378048D01*
X13016048Y-12397095D01*
X12997000Y-12406619D01*
X13187476Y-12349476D02*
X13187476Y-12387571D01*
X13263667Y-12349476D02*
X13263667Y-12387571D01*
X13558905Y-12625667D02*
X13549381Y-12616143D01*
X13530333Y-12587571D01*
X13520809Y-12568524D01*
X13511286Y-12539952D01*
X13501762Y-12492333D01*
X13501762Y-12454238D01*
X13511286Y-12406619D01*
X13520809Y-12378048D01*
X13530333Y-12359000D01*
X13549381Y-12330428D01*
X13558905Y-12320905D01*
X13720809Y-12416143D02*
X13720809Y-12549476D01*
X13673190Y-12339952D02*
X13625571Y-12482809D01*
X13749381Y-12482809D01*
X13977952Y-12549476D02*
X13977952Y-12349476D01*
X14063667Y-12549476D02*
X14063667Y-12444714D01*
X14054143Y-12425667D01*
X14035095Y-12416143D01*
X14006524Y-12416143D01*
X13987476Y-12425667D01*
X13977952Y-12435190D01*
X14187476Y-12549476D02*
X14168428Y-12539952D01*
X14158905Y-12530428D01*
X14149381Y-12511381D01*
X14149381Y-12454238D01*
X14158905Y-12435190D01*
X14168428Y-12425667D01*
X14187476Y-12416143D01*
X14216048Y-12416143D01*
X14235095Y-12425667D01*
X14244619Y-12435190D01*
X14254143Y-12454238D01*
X14254143Y-12511381D01*
X14244619Y-12530428D01*
X14235095Y-12539952D01*
X14216048Y-12549476D01*
X14187476Y-12549476D01*
X14368428Y-12549476D02*
X14349381Y-12539952D01*
X14339857Y-12520905D01*
X14339857Y-12349476D01*
X14520809Y-12539952D02*
X14501762Y-12549476D01*
X14463667Y-12549476D01*
X14444619Y-12539952D01*
X14435095Y-12520905D01*
X14435095Y-12444714D01*
X14444619Y-12425667D01*
X14463667Y-12416143D01*
X14501762Y-12416143D01*
X14520809Y-12425667D01*
X14530333Y-12444714D01*
X14530333Y-12463762D01*
X14435095Y-12482809D01*
X14606524Y-12539952D02*
X14625571Y-12549476D01*
X14663667Y-12549476D01*
X14682714Y-12539952D01*
X14692238Y-12520905D01*
X14692238Y-12511381D01*
X14682714Y-12492333D01*
X14663667Y-12482809D01*
X14635095Y-12482809D01*
X14616048Y-12473286D01*
X14606524Y-12454238D01*
X14606524Y-12444714D01*
X14616048Y-12425667D01*
X14635095Y-12416143D01*
X14663667Y-12416143D01*
X14682714Y-12425667D01*
X14758905Y-12625667D02*
X14768428Y-12616143D01*
X14787476Y-12587571D01*
X14797000Y-12568524D01*
X14806524Y-12539952D01*
X14816048Y-12492333D01*
X14816048Y-12454238D01*
X14806524Y-12406619D01*
X14797000Y-12378048D01*
X14787476Y-12359000D01*
X14768428Y-12330428D01*
X14758905Y-12320905D01*
X15120809Y-12625667D02*
X15111286Y-12616143D01*
X15092238Y-12587571D01*
X15082714Y-12568524D01*
X15073190Y-12539952D01*
X15063667Y-12492333D01*
X15063667Y-12454238D01*
X15073190Y-12406619D01*
X15082714Y-12378048D01*
X15092238Y-12359000D01*
X15111286Y-12330428D01*
X15120809Y-12320905D01*
X15197000Y-12416143D02*
X15197000Y-12549476D01*
X15197000Y-12435190D02*
X15206524Y-12425667D01*
X15225571Y-12416143D01*
X15254143Y-12416143D01*
X15273190Y-12425667D01*
X15282714Y-12444714D01*
X15282714Y-12549476D01*
X15406524Y-12549476D02*
X15387476Y-12539952D01*
X15377952Y-12530428D01*
X15368428Y-12511381D01*
X15368428Y-12454238D01*
X15377952Y-12435190D01*
X15387476Y-12425667D01*
X15406524Y-12416143D01*
X15435095Y-12416143D01*
X15454143Y-12425667D01*
X15463667Y-12435190D01*
X15473190Y-12454238D01*
X15473190Y-12511381D01*
X15463667Y-12530428D01*
X15454143Y-12539952D01*
X15435095Y-12549476D01*
X15406524Y-12549476D01*
X15530333Y-12416143D02*
X15606524Y-12416143D01*
X15558905Y-12349476D02*
X15558905Y-12520905D01*
X15568428Y-12539952D01*
X15587476Y-12549476D01*
X15606524Y-12549476D01*
X15825571Y-12416143D02*
X15825571Y-12616143D01*
X15825571Y-12425667D02*
X15844619Y-12416143D01*
X15882714Y-12416143D01*
X15901762Y-12425667D01*
X15911286Y-12435190D01*
X15920809Y-12454238D01*
X15920809Y-12511381D01*
X15911286Y-12530428D01*
X15901762Y-12539952D01*
X15882714Y-12549476D01*
X15844619Y-12549476D01*
X15825571Y-12539952D01*
X16035095Y-12549476D02*
X16016048Y-12539952D01*
X16006524Y-12520905D01*
X16006524Y-12349476D01*
X16197000Y-12549476D02*
X16197000Y-12444714D01*
X16187476Y-12425667D01*
X16168428Y-12416143D01*
X16130333Y-12416143D01*
X16111286Y-12425667D01*
X16197000Y-12539952D02*
X16177952Y-12549476D01*
X16130333Y-12549476D01*
X16111286Y-12539952D01*
X16101762Y-12520905D01*
X16101762Y-12501857D01*
X16111286Y-12482809D01*
X16130333Y-12473286D01*
X16177952Y-12473286D01*
X16197000Y-12463762D01*
X16263667Y-12416143D02*
X16339857Y-12416143D01*
X16292238Y-12349476D02*
X16292238Y-12520905D01*
X16301762Y-12539952D01*
X16320809Y-12549476D01*
X16339857Y-12549476D01*
X16482714Y-12539952D02*
X16463667Y-12549476D01*
X16425571Y-12549476D01*
X16406524Y-12539952D01*
X16397000Y-12520905D01*
X16397000Y-12444714D01*
X16406524Y-12425667D01*
X16425571Y-12416143D01*
X16463667Y-12416143D01*
X16482714Y-12425667D01*
X16492238Y-12444714D01*
X16492238Y-12463762D01*
X16397000Y-12482809D01*
X16663667Y-12549476D02*
X16663667Y-12349476D01*
X16663667Y-12539952D02*
X16644619Y-12549476D01*
X16606524Y-12549476D01*
X16587476Y-12539952D01*
X16577952Y-12530428D01*
X16568428Y-12511381D01*
X16568428Y-12454238D01*
X16577952Y-12435190D01*
X16587476Y-12425667D01*
X16606524Y-12416143D01*
X16644619Y-12416143D01*
X16663667Y-12425667D01*
X16739857Y-12625667D02*
X16749381Y-12616143D01*
X16768428Y-12587571D01*
X16777952Y-12568524D01*
X16787476Y-12539952D01*
X16797000Y-12492333D01*
X16797000Y-12454238D01*
X16787476Y-12406619D01*
X16777952Y-12378048D01*
X16768428Y-12359000D01*
X16749381Y-12330428D01*
X16739857Y-12320905D01*
X9887000Y-12629000D02*
X9887000Y-12829000D01*
X9787000Y-12729000D02*
X9987000Y-12729000D01*
X10225571Y-12619476D02*
X10349381Y-12619476D01*
X10282714Y-12695667D01*
X10311286Y-12695667D01*
X10330333Y-12705190D01*
X10339857Y-12714714D01*
X10349381Y-12733762D01*
X10349381Y-12781381D01*
X10339857Y-12800428D01*
X10330333Y-12809952D01*
X10311286Y-12819476D01*
X10254143Y-12819476D01*
X10235095Y-12809952D01*
X10225571Y-12800428D01*
X10435095Y-12800428D02*
X10444619Y-12809952D01*
X10435095Y-12819476D01*
X10425571Y-12809952D01*
X10435095Y-12800428D01*
X10435095Y-12819476D01*
X10520810Y-12638524D02*
X10530333Y-12629000D01*
X10549381Y-12619476D01*
X10597000Y-12619476D01*
X10616048Y-12629000D01*
X10625571Y-12638524D01*
X10635095Y-12657571D01*
X10635095Y-12676619D01*
X10625571Y-12705190D01*
X10511286Y-12819476D01*
X10635095Y-12819476D01*
X10758905Y-12619476D02*
X10777952Y-12619476D01*
X10797000Y-12629000D01*
X10806524Y-12638524D01*
X10816048Y-12657571D01*
X10825571Y-12695667D01*
X10825571Y-12743286D01*
X10816048Y-12781381D01*
X10806524Y-12800428D01*
X10797000Y-12809952D01*
X10777952Y-12819476D01*
X10758905Y-12819476D01*
X10739857Y-12809952D01*
X10730333Y-12800428D01*
X10720810Y-12781381D01*
X10711286Y-12743286D01*
X10711286Y-12695667D01*
X10720810Y-12657571D01*
X10730333Y-12638524D01*
X10739857Y-12629000D01*
X10758905Y-12619476D01*
X10949381Y-12619476D02*
X10968429Y-12619476D01*
X10987476Y-12629000D01*
X10997000Y-12638524D01*
X11006524Y-12657571D01*
X11016048Y-12695667D01*
X11016048Y-12743286D01*
X11006524Y-12781381D01*
X10997000Y-12800428D01*
X10987476Y-12809952D01*
X10968429Y-12819476D01*
X10949381Y-12819476D01*
X10930333Y-12809952D01*
X10920810Y-12800428D01*
X10911286Y-12781381D01*
X10901762Y-12743286D01*
X10901762Y-12695667D01*
X10911286Y-12657571D01*
X10920810Y-12638524D01*
X10930333Y-12629000D01*
X10949381Y-12619476D01*
X11101762Y-12819476D02*
X11101762Y-12686143D01*
X11101762Y-12705190D02*
X11111286Y-12695667D01*
X11130333Y-12686143D01*
X11158905Y-12686143D01*
X11177952Y-12695667D01*
X11187476Y-12714714D01*
X11187476Y-12819476D01*
X11187476Y-12714714D02*
X11197000Y-12695667D01*
X11216048Y-12686143D01*
X11244619Y-12686143D01*
X11263667Y-12695667D01*
X11273190Y-12714714D01*
X11273190Y-12819476D01*
X11368428Y-12819476D02*
X11368428Y-12686143D01*
X11368428Y-12705190D02*
X11377952Y-12695667D01*
X11397000Y-12686143D01*
X11425571Y-12686143D01*
X11444619Y-12695667D01*
X11454143Y-12714714D01*
X11454143Y-12819476D01*
X11454143Y-12714714D02*
X11463667Y-12695667D01*
X11482714Y-12686143D01*
X11511286Y-12686143D01*
X11530333Y-12695667D01*
X11539857Y-12714714D01*
X11539857Y-12819476D01*
X11930333Y-12609952D02*
X11758905Y-12867095D01*
X12187476Y-12619476D02*
X12206524Y-12619476D01*
X12225571Y-12629000D01*
X12235095Y-12638524D01*
X12244619Y-12657571D01*
X12254143Y-12695667D01*
X12254143Y-12743286D01*
X12244619Y-12781381D01*
X12235095Y-12800428D01*
X12225571Y-12809952D01*
X12206524Y-12819476D01*
X12187476Y-12819476D01*
X12168428Y-12809952D01*
X12158905Y-12800428D01*
X12149381Y-12781381D01*
X12139857Y-12743286D01*
X12139857Y-12695667D01*
X12149381Y-12657571D01*
X12158905Y-12638524D01*
X12168428Y-12629000D01*
X12187476Y-12619476D01*
X12339857Y-12800428D02*
X12349381Y-12809952D01*
X12339857Y-12819476D01*
X12330333Y-12809952D01*
X12339857Y-12800428D01*
X12339857Y-12819476D01*
X12539857Y-12819476D02*
X12425571Y-12819476D01*
X12482714Y-12819476D02*
X12482714Y-12619476D01*
X12463667Y-12648048D01*
X12444619Y-12667095D01*
X12425571Y-12676619D01*
X12616048Y-12638524D02*
X12625571Y-12629000D01*
X12644619Y-12619476D01*
X12692238Y-12619476D01*
X12711286Y-12629000D01*
X12720809Y-12638524D01*
X12730333Y-12657571D01*
X12730333Y-12676619D01*
X12720809Y-12705190D01*
X12606524Y-12819476D01*
X12730333Y-12819476D01*
X12901762Y-12619476D02*
X12863667Y-12619476D01*
X12844619Y-12629000D01*
X12835095Y-12638524D01*
X12816048Y-12667095D01*
X12806524Y-12705190D01*
X12806524Y-12781381D01*
X12816048Y-12800428D01*
X12825571Y-12809952D01*
X12844619Y-12819476D01*
X12882714Y-12819476D01*
X12901762Y-12809952D01*
X12911286Y-12800428D01*
X12920809Y-12781381D01*
X12920809Y-12733762D01*
X12911286Y-12714714D01*
X12901762Y-12705190D01*
X12882714Y-12695667D01*
X12844619Y-12695667D01*
X12825571Y-12705190D01*
X12816048Y-12714714D01*
X12806524Y-12733762D01*
X13044619Y-12619476D02*
X13063667Y-12619476D01*
X13082714Y-12629000D01*
X13092238Y-12638524D01*
X13101762Y-12657571D01*
X13111286Y-12695667D01*
X13111286Y-12743286D01*
X13101762Y-12781381D01*
X13092238Y-12800428D01*
X13082714Y-12809952D01*
X13063667Y-12819476D01*
X13044619Y-12819476D01*
X13025571Y-12809952D01*
X13016048Y-12800428D01*
X13006524Y-12781381D01*
X12997000Y-12743286D01*
X12997000Y-12695667D01*
X13006524Y-12657571D01*
X13016048Y-12638524D01*
X13025571Y-12629000D01*
X13044619Y-12619476D01*
X13187476Y-12619476D02*
X13187476Y-12657571D01*
X13263667Y-12619476D02*
X13263667Y-12657571D01*
X13558905Y-12895667D02*
X13549381Y-12886143D01*
X13530333Y-12857571D01*
X13520809Y-12838524D01*
X13511286Y-12809952D01*
X13501762Y-12762333D01*
X13501762Y-12724238D01*
X13511286Y-12676619D01*
X13520809Y-12648048D01*
X13530333Y-12629000D01*
X13549381Y-12600428D01*
X13558905Y-12590905D01*
X13625571Y-12638524D02*
X13635095Y-12629000D01*
X13654143Y-12619476D01*
X13701762Y-12619476D01*
X13720809Y-12629000D01*
X13730333Y-12638524D01*
X13739857Y-12657571D01*
X13739857Y-12676619D01*
X13730333Y-12705190D01*
X13616048Y-12819476D01*
X13739857Y-12819476D01*
X13977952Y-12819476D02*
X13977952Y-12619476D01*
X14063667Y-12819476D02*
X14063667Y-12714714D01*
X14054143Y-12695667D01*
X14035095Y-12686143D01*
X14006524Y-12686143D01*
X13987476Y-12695667D01*
X13977952Y-12705190D01*
X14187476Y-12819476D02*
X14168428Y-12809952D01*
X14158905Y-12800428D01*
X14149381Y-12781381D01*
X14149381Y-12724238D01*
X14158905Y-12705190D01*
X14168428Y-12695667D01*
X14187476Y-12686143D01*
X14216048Y-12686143D01*
X14235095Y-12695667D01*
X14244619Y-12705190D01*
X14254143Y-12724238D01*
X14254143Y-12781381D01*
X14244619Y-12800428D01*
X14235095Y-12809952D01*
X14216048Y-12819476D01*
X14187476Y-12819476D01*
X14368428Y-12819476D02*
X14349381Y-12809952D01*
X14339857Y-12790905D01*
X14339857Y-12619476D01*
X14520809Y-12809952D02*
X14501762Y-12819476D01*
X14463667Y-12819476D01*
X14444619Y-12809952D01*
X14435095Y-12790905D01*
X14435095Y-12714714D01*
X14444619Y-12695667D01*
X14463667Y-12686143D01*
X14501762Y-12686143D01*
X14520809Y-12695667D01*
X14530333Y-12714714D01*
X14530333Y-12733762D01*
X14435095Y-12752809D01*
X14606524Y-12809952D02*
X14625571Y-12819476D01*
X14663667Y-12819476D01*
X14682714Y-12809952D01*
X14692238Y-12790905D01*
X14692238Y-12781381D01*
X14682714Y-12762333D01*
X14663667Y-12752809D01*
X14635095Y-12752809D01*
X14616048Y-12743286D01*
X14606524Y-12724238D01*
X14606524Y-12714714D01*
X14616048Y-12695667D01*
X14635095Y-12686143D01*
X14663667Y-12686143D01*
X14682714Y-12695667D01*
X14758905Y-12895667D02*
X14768428Y-12886143D01*
X14787476Y-12857571D01*
X14797000Y-12838524D01*
X14806524Y-12809952D01*
X14816048Y-12762333D01*
X14816048Y-12724238D01*
X14806524Y-12676619D01*
X14797000Y-12648048D01*
X14787476Y-12629000D01*
X14768428Y-12600428D01*
X14758905Y-12590905D01*
X15120809Y-12895667D02*
X15111286Y-12886143D01*
X15092238Y-12857571D01*
X15082714Y-12838524D01*
X15073190Y-12809952D01*
X15063667Y-12762333D01*
X15063667Y-12724238D01*
X15073190Y-12676619D01*
X15082714Y-12648048D01*
X15092238Y-12629000D01*
X15111286Y-12600428D01*
X15120809Y-12590905D01*
X15197000Y-12686143D02*
X15197000Y-12819476D01*
X15197000Y-12705190D02*
X15206524Y-12695667D01*
X15225571Y-12686143D01*
X15254143Y-12686143D01*
X15273190Y-12695667D01*
X15282714Y-12714714D01*
X15282714Y-12819476D01*
X15406524Y-12819476D02*
X15387476Y-12809952D01*
X15377952Y-12800428D01*
X15368428Y-12781381D01*
X15368428Y-12724238D01*
X15377952Y-12705190D01*
X15387476Y-12695667D01*
X15406524Y-12686143D01*
X15435095Y-12686143D01*
X15454143Y-12695667D01*
X15463667Y-12705190D01*
X15473190Y-12724238D01*
X15473190Y-12781381D01*
X15463667Y-12800428D01*
X15454143Y-12809952D01*
X15435095Y-12819476D01*
X15406524Y-12819476D01*
X15530333Y-12686143D02*
X15606524Y-12686143D01*
X15558905Y-12619476D02*
X15558905Y-12790905D01*
X15568428Y-12809952D01*
X15587476Y-12819476D01*
X15606524Y-12819476D01*
X15825571Y-12686143D02*
X15825571Y-12886143D01*
X15825571Y-12695667D02*
X15844619Y-12686143D01*
X15882714Y-12686143D01*
X15901762Y-12695667D01*
X15911286Y-12705190D01*
X15920809Y-12724238D01*
X15920809Y-12781381D01*
X15911286Y-12800428D01*
X15901762Y-12809952D01*
X15882714Y-12819476D01*
X15844619Y-12819476D01*
X15825571Y-12809952D01*
X16035095Y-12819476D02*
X16016048Y-12809952D01*
X16006524Y-12790905D01*
X16006524Y-12619476D01*
X16197000Y-12819476D02*
X16197000Y-12714714D01*
X16187476Y-12695667D01*
X16168428Y-12686143D01*
X16130333Y-12686143D01*
X16111286Y-12695667D01*
X16197000Y-12809952D02*
X16177952Y-12819476D01*
X16130333Y-12819476D01*
X16111286Y-12809952D01*
X16101762Y-12790905D01*
X16101762Y-12771857D01*
X16111286Y-12752809D01*
X16130333Y-12743286D01*
X16177952Y-12743286D01*
X16197000Y-12733762D01*
X16263667Y-12686143D02*
X16339857Y-12686143D01*
X16292238Y-12619476D02*
X16292238Y-12790905D01*
X16301762Y-12809952D01*
X16320809Y-12819476D01*
X16339857Y-12819476D01*
X16482714Y-12809952D02*
X16463667Y-12819476D01*
X16425571Y-12819476D01*
X16406524Y-12809952D01*
X16397000Y-12790905D01*
X16397000Y-12714714D01*
X16406524Y-12695667D01*
X16425571Y-12686143D01*
X16463667Y-12686143D01*
X16482714Y-12695667D01*
X16492238Y-12714714D01*
X16492238Y-12733762D01*
X16397000Y-12752809D01*
X16663667Y-12819476D02*
X16663667Y-12619476D01*
X16663667Y-12809952D02*
X16644619Y-12819476D01*
X16606524Y-12819476D01*
X16587476Y-12809952D01*
X16577952Y-12800428D01*
X16568428Y-12781381D01*
X16568428Y-12724238D01*
X16577952Y-12705190D01*
X16587476Y-12695667D01*
X16606524Y-12686143D01*
X16644619Y-12686143D01*
X16663667Y-12695667D01*
X16739857Y-12895667D02*
X16749381Y-12886143D01*
X16768428Y-12857571D01*
X16777952Y-12838524D01*
X16787476Y-12809952D01*
X16797000Y-12762333D01*
X16797000Y-12724238D01*
X16787476Y-12676619D01*
X16777952Y-12648048D01*
X16768428Y-12629000D01*
X16749381Y-12600428D01*
X16739857Y-12590905D01*
M02*
