M48
; FORMAT={-:-/ absolute / metric / decimal}
; #@! TF.GenerationSoftware,Kicad,Pcbnew,6.0.7+dfsg-1~bpo11+1
; #@! TF.FileFunction,Plated,1,2,PTH
FMAT,2
METRIC
; #@! TA.AperFunction,Plated,PTH,ViaDrill
T1C0.400
; #@! TA.AperFunction,Plated,PTH,ComponentDrill
T2C0.500
; #@! TA.AperFunction,Plated,PTH,ComponentDrill
T3C0.600
; #@! TA.AperFunction,Plated,PTH,ComponentDrill
T4C0.750
; #@! TA.AperFunction,Plated,PTH,ComponentDrill
T5C1.000
; #@! TA.AperFunction,Plated,PTH,ComponentDrill
T6C1.380
; #@! TA.AperFunction,Plated,PTH,ComponentDrill
T7C1.600
; #@! TA.AperFunction,Plated,PTH,ComponentDrill
T8C3.500
%
G90
G05
T1
X102.42Y-90.5
X102.42Y-93.0
X102.42Y-95.5
X102.42Y-98.0
X104.92Y-98.0
X107.42Y-90.5
X109.92Y-90.5
X109.92Y-93.0
X109.92Y-98.0
X112.42Y-98.0
X112.622Y-80.186
X112.622Y-94.686
X113.522Y-107.386
X113.77Y-109.473
X113.77Y-113.223
X114.222Y-107.386
X114.735Y-109.473
X115.322Y-107.386
X115.372Y-101.436
X115.372Y-102.186
X115.372Y-102.936
X115.42Y-85.3
X115.42Y-86.2
X115.42Y-87.1
X115.77Y-109.473
X115.77Y-113.186
X116.022Y-107.386
X117.622Y-84.186
X117.622Y-91.186
X118.562Y-111.972
X118.562Y-112.772
X118.562Y-113.472
X118.562Y-114.172
X119.362Y-113.472
X119.562Y-106.272
X119.562Y-111.972
X119.562Y-112.772
X119.562Y-114.172
X119.662Y-90.672
X119.662Y-94.672
X120.42Y-108.0
X123.42Y-110.0
X123.42Y-114.0
X123.475Y-102.928
X124.762Y-104.972
X124.762Y-105.772
X124.762Y-106.572
X124.762Y-107.372
X124.762Y-108.172
X124.92Y-94.5
X125.055Y-90.528
X125.92Y-110.0
X125.92Y-114.0
X126.315Y-90.528
X127.938Y-98.997
X127.938Y-100.928
X128.42Y-110.0
X128.42Y-114.0
X128.862Y-96.572
X128.865Y-97.369
X129.762Y-92.672
X129.92Y-94.5
X131.42Y-108.0
X132.463Y-111.972
X132.463Y-112.772
X132.463Y-114.172
X132.662Y-113.472
X133.463Y-111.972
X133.463Y-112.772
X133.463Y-113.472
X133.463Y-114.172
X133.762Y-100.972
X134.42Y-94.0
X134.42Y-95.5
X134.42Y-97.0
X135.562Y-111.972
X135.562Y-112.772
X135.562Y-113.472
X135.562Y-114.172
X136.362Y-113.472
X136.562Y-90.672
X136.562Y-94.672
X136.562Y-111.972
X136.562Y-112.772
X136.562Y-114.172
X136.606Y-92.678
X136.662Y-106.272
X137.42Y-108.0
X140.42Y-110.0
X140.42Y-114.0
X140.531Y-102.928
X141.762Y-105.072
X141.762Y-105.872
X141.762Y-106.682
X141.762Y-107.472
X141.762Y-108.272
X141.92Y-94.5
X141.963Y-90.472
X142.92Y-110.0
X142.92Y-114.0
X143.162Y-90.472
X145.062Y-98.972
X145.093Y-100.928
X145.42Y-110.0
X145.42Y-114.0
X145.762Y-96.672
X145.762Y-97.472
X146.762Y-92.672
X146.92Y-94.5
X148.42Y-108.0
X149.02Y-87.7
X149.463Y-111.972
X149.463Y-112.772
X149.463Y-114.172
X149.662Y-113.472
X150.463Y-111.972
X150.463Y-112.772
X150.463Y-113.472
X150.463Y-114.172
X150.918Y-100.928
X151.42Y-94.0
X151.42Y-95.5
X151.42Y-97.0
X152.562Y-111.972
X152.562Y-112.772
X152.562Y-113.472
X152.562Y-114.172
X153.362Y-113.472
X153.562Y-106.172
X153.562Y-111.972
X153.562Y-112.772
X153.562Y-114.172
X153.662Y-90.672
X153.662Y-94.672
X153.733Y-92.678
X154.42Y-108.0
X157.42Y-110.0
X157.42Y-114.0
X157.564Y-102.924
X157.745Y-90.678
X158.762Y-104.972
X158.762Y-105.772
X158.762Y-106.572
X158.762Y-107.372
X158.762Y-108.172
X158.92Y-94.5
X159.025Y-90.678
X159.92Y-110.0
X159.92Y-114.0
X160.285Y-90.678
X161.862Y-98.872
X161.908Y-100.928
X162.42Y-110.0
X162.42Y-114.0
X162.862Y-96.672
X162.862Y-97.472
X163.762Y-92.672
X163.92Y-94.5
X165.42Y-108.0
X165.782Y-82.962
X165.92Y-86.5
X165.92Y-87.313
X166.463Y-111.972
X166.463Y-112.772
X166.463Y-114.172
X166.662Y-113.472
X167.463Y-111.972
X167.463Y-112.772
X167.463Y-113.472
X167.463Y-114.172
X167.762Y-100.872
X167.82Y-86.962
X168.505Y-89.327
X168.52Y-92.9
X168.782Y-86.962
X169.183Y-94.162
X169.183Y-95.062
X169.252Y-97.502
X169.252Y-98.302
X169.72Y-86.962
X170.282Y-92.062
X170.282Y-92.763
X171.246Y-88.462
X172.985Y-83.656
X175.022Y-77.586
X181.7Y-95.0
X181.7Y-95.8
X182.5Y-95.0
X182.5Y-95.8
X188.5Y-95.4
X188.9Y-91.0
X188.9Y-93.2
X189.3Y-95.4
X190.7Y-88.8
X191.5Y-88.8
X192.5Y-97.4
X192.5Y-98.2
X193.185Y-66.915
X195.885Y-66.515
X195.885Y-73.915
X197.4Y-102.8
X197.4Y-104.8
X197.585Y-75.615
X198.085Y-66.515
X198.085Y-73.915
T2
X102.295Y-80.5
X102.295Y-110.5
X103.064Y-78.644
X103.064Y-82.356
X103.064Y-108.644
X103.064Y-112.356
X104.92Y-77.875
X104.92Y-83.125
X104.92Y-107.875
X104.92Y-113.125
X106.776Y-78.644
X106.776Y-82.356
X106.776Y-108.644
X106.776Y-112.356
X107.545Y-80.5
X107.545Y-110.5
X192.295Y-80.5
X192.295Y-110.5
X193.064Y-78.644
X193.064Y-82.356
X193.064Y-108.644
X193.064Y-112.356
X194.92Y-77.875
X194.92Y-83.125
X194.92Y-107.875
X194.92Y-113.125
X196.776Y-78.644
X196.776Y-82.356
X196.776Y-108.644
X196.776Y-112.356
X197.545Y-80.5
X197.545Y-110.5
T4
X172.007Y-104.501
X173.277Y-104.501
X174.547Y-104.501
X182.352Y-104.441
X183.623Y-104.441
X184.892Y-104.441
T5
X154.572Y-86.936
X157.112Y-86.936
X159.653Y-86.936
X162.192Y-86.936
X171.677Y-106.376
X171.677Y-109.876
X171.677Y-113.276
X174.87Y-86.25
X174.87Y-89.65
X174.87Y-96.85
X174.87Y-100.25
X174.982Y-82.587
X176.877Y-106.376
X176.877Y-109.876
X176.877Y-113.276
X177.522Y-82.587
X182.022Y-106.401
X182.022Y-109.901
X182.022Y-113.301
X187.222Y-106.401
X187.222Y-109.901
X187.222Y-113.301
X197.87Y-86.25
X197.87Y-100.25
T8
X104.92Y-80.5
X104.92Y-110.5
X194.92Y-80.5
X194.92Y-110.5
T3
G00X193.82Y-88.88
M15
G01X194.92Y-88.88
M16
G05
G00X193.82Y-97.52
M15
G01X194.92Y-97.52
M16
G05
G00X198.25Y-88.88
M15
G01X198.85Y-88.88
M16
G05
G00X198.25Y-97.52
M15
G01X198.85Y-97.52
M16
G05
T6
G00X111.72Y-69.49
M15
G01X111.72Y-70.51
M16
G05
G00X184.62Y-69.49
M15
G01X184.62Y-70.51
M16
G05
T7
G00X146.62Y-80.75
M15
G01X143.72Y-80.75
M16
G05
T0
M30
