%TF.GenerationSoftware,KiCad,Pcbnew,6.0.7+dfsg-1~bpo11+1*%
%TF.ProjectId,wiscale,77697363-616c-4652-9e6b-696361645f70,1.1a*%
%TF.SameCoordinates,Original*%
%TF.FileFunction,Drillmap*%
%TF.FilePolarity,Positive*%
%FSLAX45Y45*%
G04 Gerber Fmt 4.5, Leading zero omitted, Abs format (unit mm)*
%MOMM*%
%LPD*%
G01*
G04 APERTURE LIST*
%ADD10C,0.100000*%
%ADD11C,0.200000*%
%ADD12C,0.040000*%
%ADD13C,0.050000*%
%ADD14C,0.060000*%
%ADD15C,0.075000*%
%ADD16C,0.138000*%
%ADD17C,0.160000*%
%ADD18C,0.350000*%
G04 APERTURE END LIST*
D10*
X19992000Y-6550000D02*
X19992000Y-11050000D01*
X9992000Y-11050000D02*
X9992000Y-7050000D01*
X19492000Y-11550000D02*
X10492000Y-11550000D01*
X10492000Y-6550000D02*
G75*
G03*
X9992000Y-7050000I0J-500000D01*
G01*
X10492000Y-6550000D02*
X19992000Y-6550000D01*
X19492000Y-11550000D02*
G75*
G03*
X19992000Y-11050000I0J500000D01*
G01*
X9992000Y-11050000D02*
G75*
G03*
X10492000Y-11550000I500000J0D01*
G01*
D11*
D12*
X10222000Y-9030000D02*
X10262000Y-9070000D01*
X10262000Y-9030000D02*
X10222000Y-9070000D01*
X10222000Y-9280000D02*
X10262000Y-9320000D01*
X10262000Y-9280000D02*
X10222000Y-9320000D01*
X10222000Y-9530000D02*
X10262000Y-9570000D01*
X10262000Y-9530000D02*
X10222000Y-9570000D01*
X10222000Y-9780000D02*
X10262000Y-9820000D01*
X10262000Y-9780000D02*
X10222000Y-9820000D01*
X10472000Y-9780000D02*
X10512000Y-9820000D01*
X10512000Y-9780000D02*
X10472000Y-9820000D01*
X10722000Y-9030000D02*
X10762000Y-9070000D01*
X10762000Y-9030000D02*
X10722000Y-9070000D01*
X10972000Y-9030000D02*
X11012000Y-9070000D01*
X11012000Y-9030000D02*
X10972000Y-9070000D01*
X10972000Y-9280000D02*
X11012000Y-9320000D01*
X11012000Y-9280000D02*
X10972000Y-9320000D01*
X10972000Y-9780000D02*
X11012000Y-9820000D01*
X11012000Y-9780000D02*
X10972000Y-9820000D01*
X11222000Y-9780000D02*
X11262000Y-9820000D01*
X11262000Y-9780000D02*
X11222000Y-9820000D01*
X11242250Y-7998571D02*
X11282250Y-8038571D01*
X11282250Y-7998571D02*
X11242250Y-8038571D01*
X11242250Y-9448571D02*
X11282250Y-9488571D01*
X11282250Y-9448571D02*
X11242250Y-9488571D01*
X11332250Y-10718571D02*
X11372250Y-10758571D01*
X11372250Y-10718571D02*
X11332250Y-10758571D01*
X11357000Y-10927321D02*
X11397000Y-10967321D01*
X11397000Y-10927321D02*
X11357000Y-10967321D01*
X11357000Y-11302321D02*
X11397000Y-11342321D01*
X11397000Y-11302321D02*
X11357000Y-11342321D01*
X11402250Y-10718571D02*
X11442250Y-10758571D01*
X11442250Y-10718571D02*
X11402250Y-10758571D01*
X11453500Y-10927321D02*
X11493500Y-10967321D01*
X11493500Y-10927321D02*
X11453500Y-10967321D01*
X11512250Y-10718571D02*
X11552250Y-10758571D01*
X11552250Y-10718571D02*
X11512250Y-10758571D01*
X11517250Y-10123571D02*
X11557250Y-10163571D01*
X11557250Y-10123571D02*
X11517250Y-10163571D01*
X11517250Y-10198571D02*
X11557250Y-10238571D01*
X11557250Y-10198571D02*
X11517250Y-10238571D01*
X11517250Y-10273571D02*
X11557250Y-10313571D01*
X11557250Y-10273571D02*
X11517250Y-10313571D01*
X11522000Y-8510000D02*
X11562000Y-8550000D01*
X11562000Y-8510000D02*
X11522000Y-8550000D01*
X11522000Y-8600000D02*
X11562000Y-8640000D01*
X11562000Y-8600000D02*
X11522000Y-8640000D01*
X11522000Y-8690000D02*
X11562000Y-8730000D01*
X11562000Y-8690000D02*
X11522000Y-8730000D01*
X11557000Y-10927321D02*
X11597000Y-10967321D01*
X11597000Y-10927321D02*
X11557000Y-10967321D01*
X11557000Y-11298571D02*
X11597000Y-11338571D01*
X11597000Y-11298571D02*
X11557000Y-11338571D01*
X11582250Y-10718571D02*
X11622250Y-10758571D01*
X11622250Y-10718571D02*
X11582250Y-10758571D01*
X11742250Y-8398571D02*
X11782250Y-8438571D01*
X11782250Y-8398571D02*
X11742250Y-8438571D01*
X11742250Y-9098571D02*
X11782250Y-9138571D01*
X11782250Y-9098571D02*
X11742250Y-9138571D01*
X11836250Y-11177161D02*
X11876250Y-11217161D01*
X11876250Y-11177161D02*
X11836250Y-11217161D01*
X11836250Y-11257161D02*
X11876250Y-11297161D01*
X11876250Y-11257161D02*
X11836250Y-11297161D01*
X11836250Y-11327161D02*
X11876250Y-11367161D01*
X11876250Y-11327161D02*
X11836250Y-11367161D01*
X11836250Y-11397161D02*
X11876250Y-11437161D01*
X11876250Y-11397161D02*
X11836250Y-11437161D01*
X11916250Y-11327161D02*
X11956250Y-11367161D01*
X11956250Y-11327161D02*
X11916250Y-11367161D01*
X11936250Y-10607161D02*
X11976250Y-10647161D01*
X11976250Y-10607161D02*
X11936250Y-10647161D01*
X11936250Y-11177161D02*
X11976250Y-11217161D01*
X11976250Y-11177161D02*
X11936250Y-11217161D01*
X11936250Y-11257161D02*
X11976250Y-11297161D01*
X11976250Y-11257161D02*
X11936250Y-11297161D01*
X11936250Y-11397161D02*
X11976250Y-11437161D01*
X11976250Y-11397161D02*
X11936250Y-11437161D01*
X11946250Y-9047161D02*
X11986250Y-9087161D01*
X11986250Y-9047161D02*
X11946250Y-9087161D01*
X11946250Y-9447161D02*
X11986250Y-9487161D01*
X11986250Y-9447161D02*
X11946250Y-9487161D01*
X12022000Y-10780000D02*
X12062000Y-10820000D01*
X12062000Y-10780000D02*
X12022000Y-10820000D01*
X12322000Y-10980000D02*
X12362000Y-11020000D01*
X12362000Y-10980000D02*
X12322000Y-11020000D01*
X12322000Y-11380000D02*
X12362000Y-11420000D01*
X12362000Y-11380000D02*
X12322000Y-11420000D01*
X12327500Y-10272774D02*
X12367500Y-10312774D01*
X12367500Y-10272774D02*
X12327500Y-10312774D01*
X12456250Y-10477161D02*
X12496250Y-10517161D01*
X12496250Y-10477161D02*
X12456250Y-10517161D01*
X12456250Y-10557161D02*
X12496250Y-10597161D01*
X12496250Y-10557161D02*
X12456250Y-10597161D01*
X12456250Y-10637161D02*
X12496250Y-10677161D01*
X12496250Y-10637161D02*
X12456250Y-10677161D01*
X12456250Y-10717161D02*
X12496250Y-10757161D01*
X12496250Y-10717161D02*
X12456250Y-10757161D01*
X12456250Y-10797161D02*
X12496250Y-10837161D01*
X12496250Y-10797161D02*
X12456250Y-10837161D01*
X12472000Y-9430000D02*
X12512000Y-9470000D01*
X12512000Y-9430000D02*
X12472000Y-9470000D01*
X12485500Y-9032774D02*
X12525500Y-9072774D01*
X12525500Y-9032774D02*
X12485500Y-9072774D01*
X12572000Y-10980000D02*
X12612000Y-11020000D01*
X12612000Y-10980000D02*
X12572000Y-11020000D01*
X12572000Y-11380000D02*
X12612000Y-11420000D01*
X12612000Y-11380000D02*
X12572000Y-11420000D01*
X12611500Y-9032774D02*
X12651500Y-9072774D01*
X12651500Y-9032774D02*
X12611500Y-9072774D01*
X12773750Y-9879661D02*
X12813750Y-9919661D01*
X12813750Y-9879661D02*
X12773750Y-9919661D01*
X12773750Y-10072774D02*
X12813750Y-10112774D01*
X12813750Y-10072774D02*
X12773750Y-10112774D01*
X12822000Y-10980000D02*
X12862000Y-11020000D01*
X12862000Y-10980000D02*
X12822000Y-11020000D01*
X12822000Y-11380000D02*
X12862000Y-11420000D01*
X12862000Y-11380000D02*
X12822000Y-11420000D01*
X12866250Y-9637161D02*
X12906250Y-9677161D01*
X12906250Y-9637161D02*
X12866250Y-9677161D01*
X12866500Y-9716911D02*
X12906500Y-9756911D01*
X12906500Y-9716911D02*
X12866500Y-9756911D01*
X12956250Y-9247161D02*
X12996250Y-9287161D01*
X12996250Y-9247161D02*
X12956250Y-9287161D01*
X12972000Y-9430000D02*
X13012000Y-9470000D01*
X13012000Y-9430000D02*
X12972000Y-9470000D01*
X13122000Y-10780000D02*
X13162000Y-10820000D01*
X13162000Y-10780000D02*
X13122000Y-10820000D01*
X13226250Y-11177161D02*
X13266250Y-11217161D01*
X13266250Y-11177161D02*
X13226250Y-11217161D01*
X13226250Y-11257161D02*
X13266250Y-11297161D01*
X13266250Y-11257161D02*
X13226250Y-11297161D01*
X13226250Y-11397161D02*
X13266250Y-11437161D01*
X13266250Y-11397161D02*
X13226250Y-11437161D01*
X13246250Y-11327161D02*
X13286250Y-11367161D01*
X13286250Y-11327161D02*
X13246250Y-11367161D01*
X13326250Y-11177161D02*
X13366250Y-11217161D01*
X13366250Y-11177161D02*
X13326250Y-11217161D01*
X13326250Y-11257161D02*
X13366250Y-11297161D01*
X13366250Y-11257161D02*
X13326250Y-11297161D01*
X13326250Y-11327161D02*
X13366250Y-11367161D01*
X13366250Y-11327161D02*
X13326250Y-11367161D01*
X13326250Y-11397161D02*
X13366250Y-11437161D01*
X13366250Y-11397161D02*
X13326250Y-11437161D01*
X13356250Y-10077161D02*
X13396250Y-10117161D01*
X13396250Y-10077161D02*
X13356250Y-10117161D01*
X13422000Y-9380000D02*
X13462000Y-9420000D01*
X13462000Y-9380000D02*
X13422000Y-9420000D01*
X13422000Y-9530000D02*
X13462000Y-9570000D01*
X13462000Y-9530000D02*
X13422000Y-9570000D01*
X13422000Y-9680000D02*
X13462000Y-9720000D01*
X13462000Y-9680000D02*
X13422000Y-9720000D01*
X13536250Y-11177161D02*
X13576250Y-11217161D01*
X13576250Y-11177161D02*
X13536250Y-11217161D01*
X13536250Y-11257161D02*
X13576250Y-11297161D01*
X13576250Y-11257161D02*
X13536250Y-11297161D01*
X13536250Y-11327161D02*
X13576250Y-11367161D01*
X13576250Y-11327161D02*
X13536250Y-11367161D01*
X13536250Y-11397161D02*
X13576250Y-11437161D01*
X13576250Y-11397161D02*
X13536250Y-11437161D01*
X13616250Y-11327161D02*
X13656250Y-11367161D01*
X13656250Y-11327161D02*
X13616250Y-11367161D01*
X13636250Y-9047161D02*
X13676250Y-9087161D01*
X13676250Y-9047161D02*
X13636250Y-9087161D01*
X13636250Y-9447161D02*
X13676250Y-9487161D01*
X13676250Y-9447161D02*
X13636250Y-9487161D01*
X13636250Y-11177161D02*
X13676250Y-11217161D01*
X13676250Y-11177161D02*
X13636250Y-11217161D01*
X13636250Y-11257161D02*
X13676250Y-11297161D01*
X13676250Y-11257161D02*
X13636250Y-11297161D01*
X13636250Y-11397161D02*
X13676250Y-11437161D01*
X13676250Y-11397161D02*
X13636250Y-11437161D01*
X13640589Y-9247774D02*
X13680589Y-9287774D01*
X13680589Y-9247774D02*
X13640589Y-9287774D01*
X13646250Y-10607161D02*
X13686250Y-10647161D01*
X13686250Y-10607161D02*
X13646250Y-10647161D01*
X13722000Y-10780000D02*
X13762000Y-10820000D01*
X13762000Y-10780000D02*
X13722000Y-10820000D01*
X14022000Y-10980000D02*
X14062000Y-11020000D01*
X14062000Y-10980000D02*
X14022000Y-11020000D01*
X14022000Y-11380000D02*
X14062000Y-11420000D01*
X14062000Y-11380000D02*
X14022000Y-11420000D01*
X14033089Y-10272774D02*
X14073089Y-10312774D01*
X14073089Y-10272774D02*
X14033089Y-10312774D01*
X14156250Y-10487161D02*
X14196250Y-10527161D01*
X14196250Y-10487161D02*
X14156250Y-10527161D01*
X14156250Y-10567161D02*
X14196250Y-10607161D01*
X14196250Y-10567161D02*
X14156250Y-10607161D01*
X14156250Y-10648184D02*
X14196250Y-10688184D01*
X14196250Y-10648184D02*
X14156250Y-10688184D01*
X14156250Y-10727161D02*
X14196250Y-10767161D01*
X14196250Y-10727161D02*
X14156250Y-10767161D01*
X14156250Y-10807161D02*
X14196250Y-10847161D01*
X14196250Y-10807161D02*
X14156250Y-10847161D01*
X14172000Y-9430000D02*
X14212000Y-9470000D01*
X14212000Y-9430000D02*
X14172000Y-9470000D01*
X14176250Y-9027161D02*
X14216250Y-9067161D01*
X14216250Y-9027161D02*
X14176250Y-9067161D01*
X14272000Y-10980000D02*
X14312000Y-11020000D01*
X14312000Y-10980000D02*
X14272000Y-11020000D01*
X14272000Y-11380000D02*
X14312000Y-11420000D01*
X14312000Y-11380000D02*
X14272000Y-11420000D01*
X14296250Y-9027161D02*
X14336250Y-9067161D01*
X14336250Y-9027161D02*
X14296250Y-9067161D01*
X14486250Y-9877161D02*
X14526250Y-9917161D01*
X14526250Y-9877161D02*
X14486250Y-9917161D01*
X14489339Y-10072774D02*
X14529339Y-10112774D01*
X14529339Y-10072774D02*
X14489339Y-10112774D01*
X14522000Y-10980000D02*
X14562000Y-11020000D01*
X14562000Y-10980000D02*
X14522000Y-11020000D01*
X14522000Y-11380000D02*
X14562000Y-11420000D01*
X14562000Y-11380000D02*
X14522000Y-11420000D01*
X14556250Y-9647161D02*
X14596250Y-9687161D01*
X14596250Y-9647161D02*
X14556250Y-9687161D01*
X14556250Y-9727161D02*
X14596250Y-9767161D01*
X14596250Y-9727161D02*
X14556250Y-9767161D01*
X14656250Y-9247161D02*
X14696250Y-9287161D01*
X14696250Y-9247161D02*
X14656250Y-9287161D01*
X14672000Y-9430000D02*
X14712000Y-9470000D01*
X14712000Y-9430000D02*
X14672000Y-9470000D01*
X14822000Y-10780000D02*
X14862000Y-10820000D01*
X14862000Y-10780000D02*
X14822000Y-10820000D01*
X14882000Y-8750000D02*
X14922000Y-8790000D01*
X14922000Y-8750000D02*
X14882000Y-8790000D01*
X14926250Y-11177161D02*
X14966250Y-11217161D01*
X14966250Y-11177161D02*
X14926250Y-11217161D01*
X14926250Y-11257161D02*
X14966250Y-11297161D01*
X14966250Y-11257161D02*
X14926250Y-11297161D01*
X14926250Y-11397161D02*
X14966250Y-11437161D01*
X14966250Y-11397161D02*
X14926250Y-11437161D01*
X14946250Y-11327161D02*
X14986250Y-11367161D01*
X14986250Y-11327161D02*
X14946250Y-11367161D01*
X15026250Y-11177161D02*
X15066250Y-11217161D01*
X15066250Y-11177161D02*
X15026250Y-11217161D01*
X15026250Y-11257161D02*
X15066250Y-11297161D01*
X15066250Y-11257161D02*
X15026250Y-11297161D01*
X15026250Y-11327161D02*
X15066250Y-11367161D01*
X15066250Y-11327161D02*
X15026250Y-11367161D01*
X15026250Y-11397161D02*
X15066250Y-11437161D01*
X15066250Y-11397161D02*
X15026250Y-11437161D01*
X15071839Y-10072774D02*
X15111839Y-10112774D01*
X15111839Y-10072774D02*
X15071839Y-10112774D01*
X15122000Y-9380000D02*
X15162000Y-9420000D01*
X15162000Y-9380000D02*
X15122000Y-9420000D01*
X15122000Y-9530000D02*
X15162000Y-9570000D01*
X15162000Y-9530000D02*
X15122000Y-9570000D01*
X15122000Y-9680000D02*
X15162000Y-9720000D01*
X15162000Y-9680000D02*
X15122000Y-9720000D01*
X15236250Y-11177161D02*
X15276250Y-11217161D01*
X15276250Y-11177161D02*
X15236250Y-11217161D01*
X15236250Y-11257161D02*
X15276250Y-11297161D01*
X15276250Y-11257161D02*
X15236250Y-11297161D01*
X15236250Y-11327161D02*
X15276250Y-11367161D01*
X15276250Y-11327161D02*
X15236250Y-11367161D01*
X15236250Y-11397161D02*
X15276250Y-11437161D01*
X15276250Y-11397161D02*
X15236250Y-11437161D01*
X15316250Y-11327161D02*
X15356250Y-11367161D01*
X15356250Y-11327161D02*
X15316250Y-11367161D01*
X15336250Y-10597161D02*
X15376250Y-10637161D01*
X15376250Y-10597161D02*
X15336250Y-10637161D01*
X15336250Y-11177161D02*
X15376250Y-11217161D01*
X15376250Y-11177161D02*
X15336250Y-11217161D01*
X15336250Y-11257161D02*
X15376250Y-11297161D01*
X15376250Y-11257161D02*
X15336250Y-11297161D01*
X15336250Y-11397161D02*
X15376250Y-11437161D01*
X15376250Y-11397161D02*
X15336250Y-11437161D01*
X15346250Y-9047161D02*
X15386250Y-9087161D01*
X15386250Y-9047161D02*
X15346250Y-9087161D01*
X15346250Y-9447161D02*
X15386250Y-9487161D01*
X15386250Y-9447161D02*
X15346250Y-9487161D01*
X15353268Y-9247774D02*
X15393268Y-9287774D01*
X15393268Y-9247774D02*
X15353268Y-9287774D01*
X15422000Y-10780000D02*
X15462000Y-10820000D01*
X15462000Y-10780000D02*
X15422000Y-10820000D01*
X15722000Y-10980000D02*
X15762000Y-11020000D01*
X15762000Y-10980000D02*
X15722000Y-11020000D01*
X15722000Y-11380000D02*
X15762000Y-11420000D01*
X15762000Y-11380000D02*
X15722000Y-11420000D01*
X15736357Y-10272363D02*
X15776357Y-10312363D01*
X15776357Y-10272363D02*
X15736357Y-10312363D01*
X15754518Y-9047774D02*
X15794518Y-9087774D01*
X15794518Y-9047774D02*
X15754518Y-9087774D01*
X15856250Y-10477161D02*
X15896250Y-10517161D01*
X15896250Y-10477161D02*
X15856250Y-10517161D01*
X15856250Y-10557161D02*
X15896250Y-10597161D01*
X15896250Y-10557161D02*
X15856250Y-10597161D01*
X15856250Y-10637161D02*
X15896250Y-10677161D01*
X15896250Y-10637161D02*
X15856250Y-10677161D01*
X15856250Y-10717161D02*
X15896250Y-10757161D01*
X15896250Y-10717161D02*
X15856250Y-10757161D01*
X15856250Y-10797161D02*
X15896250Y-10837161D01*
X15896250Y-10797161D02*
X15856250Y-10837161D01*
X15872000Y-9430000D02*
X15912000Y-9470000D01*
X15912000Y-9430000D02*
X15872000Y-9470000D01*
X15882518Y-9047774D02*
X15922518Y-9087774D01*
X15922518Y-9047774D02*
X15882518Y-9087774D01*
X15972000Y-10980000D02*
X16012000Y-11020000D01*
X16012000Y-10980000D02*
X15972000Y-11020000D01*
X15972000Y-11380000D02*
X16012000Y-11420000D01*
X16012000Y-11380000D02*
X15972000Y-11420000D01*
X16008518Y-9047774D02*
X16048518Y-9087774D01*
X16048518Y-9047774D02*
X16008518Y-9087774D01*
X16166250Y-9867161D02*
X16206250Y-9907161D01*
X16206250Y-9867161D02*
X16166250Y-9907161D01*
X16170768Y-10072774D02*
X16210768Y-10112774D01*
X16210768Y-10072774D02*
X16170768Y-10112774D01*
X16222000Y-10980000D02*
X16262000Y-11020000D01*
X16262000Y-10980000D02*
X16222000Y-11020000D01*
X16222000Y-11380000D02*
X16262000Y-11420000D01*
X16262000Y-11380000D02*
X16222000Y-11420000D01*
X16266250Y-9647161D02*
X16306250Y-9687161D01*
X16306250Y-9647161D02*
X16266250Y-9687161D01*
X16266250Y-9727161D02*
X16306250Y-9767161D01*
X16306250Y-9727161D02*
X16266250Y-9767161D01*
X16356250Y-9247161D02*
X16396250Y-9287161D01*
X16396250Y-9247161D02*
X16356250Y-9287161D01*
X16372000Y-9430000D02*
X16412000Y-9470000D01*
X16412000Y-9430000D02*
X16372000Y-9470000D01*
X16522000Y-10780000D02*
X16562000Y-10820000D01*
X16562000Y-10780000D02*
X16522000Y-10820000D01*
X16558250Y-8276250D02*
X16598250Y-8316250D01*
X16598250Y-8276250D02*
X16558250Y-8316250D01*
X16572000Y-8630000D02*
X16612000Y-8670000D01*
X16612000Y-8630000D02*
X16572000Y-8670000D01*
X16572000Y-8711300D02*
X16612000Y-8751300D01*
X16612000Y-8711300D02*
X16572000Y-8751300D01*
X16626250Y-11177161D02*
X16666250Y-11217161D01*
X16666250Y-11177161D02*
X16626250Y-11217161D01*
X16626250Y-11257161D02*
X16666250Y-11297161D01*
X16666250Y-11257161D02*
X16626250Y-11297161D01*
X16626250Y-11397161D02*
X16666250Y-11437161D01*
X16666250Y-11397161D02*
X16626250Y-11437161D01*
X16646250Y-11327161D02*
X16686250Y-11367161D01*
X16686250Y-11327161D02*
X16646250Y-11367161D01*
X16726250Y-11177161D02*
X16766250Y-11217161D01*
X16766250Y-11177161D02*
X16726250Y-11217161D01*
X16726250Y-11257161D02*
X16766250Y-11297161D01*
X16766250Y-11257161D02*
X16726250Y-11297161D01*
X16726250Y-11327161D02*
X16766250Y-11367161D01*
X16766250Y-11327161D02*
X16726250Y-11367161D01*
X16726250Y-11397161D02*
X16766250Y-11437161D01*
X16766250Y-11397161D02*
X16726250Y-11437161D01*
X16756250Y-10067161D02*
X16796250Y-10107161D01*
X16796250Y-10067161D02*
X16756250Y-10107161D01*
X16762000Y-8676250D02*
X16802000Y-8716250D01*
X16802000Y-8676250D02*
X16762000Y-8716250D01*
X16830460Y-8912740D02*
X16870460Y-8952740D01*
X16870460Y-8912740D02*
X16830460Y-8952740D01*
X16832000Y-9270000D02*
X16872000Y-9310000D01*
X16872000Y-9270000D02*
X16832000Y-9310000D01*
X16858250Y-8676250D02*
X16898250Y-8716250D01*
X16898250Y-8676250D02*
X16858250Y-8716250D01*
X16898250Y-9396250D02*
X16938250Y-9436250D01*
X16938250Y-9396250D02*
X16898250Y-9436250D01*
X16898250Y-9486250D02*
X16938250Y-9526250D01*
X16938250Y-9486250D02*
X16898250Y-9526250D01*
X16905250Y-9730161D02*
X16945250Y-9770161D01*
X16945250Y-9730161D02*
X16905250Y-9770161D01*
X16905250Y-9810161D02*
X16945250Y-9850161D01*
X16945250Y-9810161D02*
X16905250Y-9850161D01*
X16952000Y-8676250D02*
X16992000Y-8716250D01*
X16992000Y-8676250D02*
X16952000Y-8716250D01*
X17008250Y-9186250D02*
X17048250Y-9226250D01*
X17048250Y-9186250D02*
X17008250Y-9226250D01*
X17008250Y-9256250D02*
X17048250Y-9296250D01*
X17048250Y-9256250D02*
X17008250Y-9296250D01*
X17104571Y-8826250D02*
X17144571Y-8866250D01*
X17144571Y-8826250D02*
X17104571Y-8866250D01*
X17278492Y-8345615D02*
X17318492Y-8385615D01*
X17318492Y-8345615D02*
X17278492Y-8385615D01*
X17482250Y-7738571D02*
X17522250Y-7778571D01*
X17522250Y-7738571D02*
X17482250Y-7778571D01*
X17760000Y-9505000D02*
X17800000Y-9545000D01*
X17800000Y-9505000D02*
X17760000Y-9545000D01*
X17760000Y-9759000D02*
X17800000Y-9799000D01*
X17800000Y-9759000D02*
X17760000Y-9799000D01*
X17760000Y-10013000D02*
X17800000Y-10053000D01*
X17800000Y-10013000D02*
X17760000Y-10053000D01*
X18014000Y-9505000D02*
X18054000Y-9545000D01*
X18054000Y-9505000D02*
X18014000Y-9545000D01*
X18014000Y-9759000D02*
X18054000Y-9799000D01*
X18054000Y-9759000D02*
X18014000Y-9799000D01*
X18014000Y-10013000D02*
X18054000Y-10053000D01*
X18054000Y-10013000D02*
X18014000Y-10053000D01*
X18150000Y-9480000D02*
X18190000Y-9520000D01*
X18190000Y-9480000D02*
X18150000Y-9520000D01*
X18150000Y-9560000D02*
X18190000Y-9600000D01*
X18190000Y-9560000D02*
X18150000Y-9600000D01*
X18230000Y-9480000D02*
X18270000Y-9520000D01*
X18270000Y-9480000D02*
X18230000Y-9520000D01*
X18230000Y-9560000D02*
X18270000Y-9600000D01*
X18270000Y-9560000D02*
X18230000Y-9600000D01*
X18268000Y-10013000D02*
X18308000Y-10053000D01*
X18308000Y-10013000D02*
X18268000Y-10053000D01*
X18649000Y-10013000D02*
X18689000Y-10053000D01*
X18689000Y-10013000D02*
X18649000Y-10053000D01*
X18830000Y-9520000D02*
X18870000Y-9560000D01*
X18870000Y-9520000D02*
X18830000Y-9560000D01*
X18870000Y-9080000D02*
X18910000Y-9120000D01*
X18910000Y-9080000D02*
X18870000Y-9120000D01*
X18870000Y-9300000D02*
X18910000Y-9340000D01*
X18910000Y-9300000D02*
X18870000Y-9340000D01*
X18910000Y-9520000D02*
X18950000Y-9560000D01*
X18950000Y-9520000D02*
X18910000Y-9560000D01*
X19050000Y-8860000D02*
X19090000Y-8900000D01*
X19090000Y-8860000D02*
X19050000Y-8900000D01*
X19130000Y-8860000D02*
X19170000Y-8900000D01*
X19170000Y-8860000D02*
X19130000Y-8900000D01*
X19140000Y-10260000D02*
X19180000Y-10300000D01*
X19180000Y-10260000D02*
X19140000Y-10300000D01*
X19230000Y-9720000D02*
X19270000Y-9760000D01*
X19270000Y-9720000D02*
X19230000Y-9760000D01*
X19230000Y-9800000D02*
X19270000Y-9840000D01*
X19270000Y-9800000D02*
X19230000Y-9840000D01*
X19298500Y-6671500D02*
X19338500Y-6711500D01*
X19338500Y-6671500D02*
X19298500Y-6711500D01*
X19411000Y-9886000D02*
X19451000Y-9926000D01*
X19451000Y-9886000D02*
X19411000Y-9926000D01*
X19538000Y-9886000D02*
X19578000Y-9926000D01*
X19578000Y-9886000D02*
X19538000Y-9926000D01*
X19568500Y-6631500D02*
X19608500Y-6671500D01*
X19608500Y-6631500D02*
X19568500Y-6671500D01*
X19568500Y-7371500D02*
X19608500Y-7411500D01*
X19608500Y-7371500D02*
X19568500Y-7411500D01*
X19720000Y-10460000D02*
X19760000Y-10500000D01*
X19760000Y-10460000D02*
X19720000Y-10500000D01*
X19738500Y-7541500D02*
X19778500Y-7581500D01*
X19778500Y-7541500D02*
X19738500Y-7581500D01*
X19788500Y-6631500D02*
X19828500Y-6671500D01*
X19828500Y-6631500D02*
X19788500Y-6671500D01*
X19788500Y-7371500D02*
X19828500Y-7411500D01*
X19828500Y-7371500D02*
X19788500Y-7411500D01*
D13*
X10254500Y-8050000D02*
G75*
G03*
X10254500Y-8050000I-25000J0D01*
G01*
X10254500Y-11050000D02*
G75*
G03*
X10254500Y-11050000I-25000J0D01*
G01*
X10331385Y-7864384D02*
G75*
G03*
X10331385Y-7864384I-25000J0D01*
G01*
X10331385Y-8235615D02*
G75*
G03*
X10331385Y-8235615I-25000J0D01*
G01*
X10331385Y-10864385D02*
G75*
G03*
X10331385Y-10864385I-25000J0D01*
G01*
X10331385Y-11235615D02*
G75*
G03*
X10331385Y-11235615I-25000J0D01*
G01*
X10517000Y-7787500D02*
G75*
G03*
X10517000Y-7787500I-25000J0D01*
G01*
X10517000Y-8312500D02*
G75*
G03*
X10517000Y-8312500I-25000J0D01*
G01*
X10517000Y-10787500D02*
G75*
G03*
X10517000Y-10787500I-25000J0D01*
G01*
X10517000Y-11312500D02*
G75*
G03*
X10517000Y-11312500I-25000J0D01*
G01*
X10702616Y-7864384D02*
G75*
G03*
X10702616Y-7864384I-25000J0D01*
G01*
X10702616Y-8235615D02*
G75*
G03*
X10702616Y-8235615I-25000J0D01*
G01*
X10702616Y-10864385D02*
G75*
G03*
X10702616Y-10864385I-25000J0D01*
G01*
X10702616Y-11235615D02*
G75*
G03*
X10702616Y-11235615I-25000J0D01*
G01*
X10779500Y-8050000D02*
G75*
G03*
X10779500Y-8050000I-25000J0D01*
G01*
X10779500Y-11050000D02*
G75*
G03*
X10779500Y-11050000I-25000J0D01*
G01*
X19254500Y-8050000D02*
G75*
G03*
X19254500Y-8050000I-25000J0D01*
G01*
X19254500Y-11050000D02*
G75*
G03*
X19254500Y-11050000I-25000J0D01*
G01*
X19331385Y-7864384D02*
G75*
G03*
X19331385Y-7864384I-25000J0D01*
G01*
X19331385Y-8235615D02*
G75*
G03*
X19331385Y-8235615I-25000J0D01*
G01*
X19331385Y-10864385D02*
G75*
G03*
X19331385Y-10864385I-25000J0D01*
G01*
X19331385Y-11235615D02*
G75*
G03*
X19331385Y-11235615I-25000J0D01*
G01*
X19517000Y-7787500D02*
G75*
G03*
X19517000Y-7787500I-25000J0D01*
G01*
X19517000Y-8312500D02*
G75*
G03*
X19517000Y-8312500I-25000J0D01*
G01*
X19517000Y-10787500D02*
G75*
G03*
X19517000Y-10787500I-25000J0D01*
G01*
X19517000Y-11312500D02*
G75*
G03*
X19517000Y-11312500I-25000J0D01*
G01*
X19702616Y-7864384D02*
G75*
G03*
X19702616Y-7864384I-25000J0D01*
G01*
X19702616Y-8235615D02*
G75*
G03*
X19702616Y-8235615I-25000J0D01*
G01*
X19702616Y-10864385D02*
G75*
G03*
X19702616Y-10864385I-25000J0D01*
G01*
X19702616Y-11235615D02*
G75*
G03*
X19702616Y-11235615I-25000J0D01*
G01*
X19779500Y-8050000D02*
G75*
G03*
X19779500Y-8050000I-25000J0D01*
G01*
X19779500Y-11050000D02*
G75*
G03*
X19779500Y-11050000I-25000J0D01*
G01*
D14*
X19437000Y-8858000D02*
X19437000Y-8918000D01*
X19407000Y-8888000D02*
X19467000Y-8888000D01*
D11*
X19382000Y-8918000D02*
X19492000Y-8918000D01*
X19382000Y-8858000D02*
X19492000Y-8858000D01*
X19492000Y-8918000D02*
G75*
G03*
X19492000Y-8858000I0J30000D01*
G01*
X19382000Y-8858000D02*
G75*
G03*
X19382000Y-8918000I0J-30000D01*
G01*
D14*
X19437000Y-9722000D02*
X19437000Y-9782000D01*
X19407000Y-9752000D02*
X19467000Y-9752000D01*
D11*
X19382000Y-9782000D02*
X19492000Y-9782000D01*
X19382000Y-9722000D02*
X19492000Y-9722000D01*
X19492000Y-9782000D02*
G75*
G03*
X19492000Y-9722000I0J30000D01*
G01*
X19382000Y-9722000D02*
G75*
G03*
X19382000Y-9782000I0J-30000D01*
G01*
D14*
X19855000Y-8858000D02*
X19855000Y-8918000D01*
X19825000Y-8888000D02*
X19885000Y-8888000D01*
D11*
X19825000Y-8918000D02*
X19885000Y-8918000D01*
X19825000Y-8858000D02*
X19885000Y-8858000D01*
X19885000Y-8918000D02*
G75*
G03*
X19885000Y-8858000I0J30000D01*
G01*
X19825000Y-8858000D02*
G75*
G03*
X19825000Y-8918000I0J-30000D01*
G01*
D14*
X19855000Y-9722000D02*
X19855000Y-9782000D01*
X19825000Y-9752000D02*
X19885000Y-9752000D01*
D11*
X19825000Y-9782000D02*
X19885000Y-9782000D01*
X19825000Y-9722000D02*
X19885000Y-9722000D01*
X19885000Y-9782000D02*
G75*
G03*
X19885000Y-9722000I0J30000D01*
G01*
X19825000Y-9722000D02*
G75*
G03*
X19825000Y-9782000I0J-30000D01*
G01*
D15*
X17227178Y-10476588D02*
X17227178Y-10423555D01*
X17174144Y-10423555D01*
X17174144Y-10476588D01*
X17227178Y-10476588D01*
X17354178Y-10476588D02*
X17354178Y-10423555D01*
X17301144Y-10423555D01*
X17301144Y-10476588D01*
X17354178Y-10476588D01*
X17481178Y-10476588D02*
X17481178Y-10423555D01*
X17428144Y-10423555D01*
X17428144Y-10476588D01*
X17481178Y-10476588D01*
X18261767Y-10470588D02*
X18261767Y-10417555D01*
X18208733Y-10417555D01*
X18208733Y-10470588D01*
X18261767Y-10470588D01*
X18388767Y-10470588D02*
X18388767Y-10417555D01*
X18335733Y-10417555D01*
X18335733Y-10470588D01*
X18388767Y-10470588D01*
X18515767Y-10470588D02*
X18515767Y-10417555D01*
X18462733Y-10417555D01*
X18462733Y-10470588D01*
X18515767Y-10470588D01*
D10*
X15457250Y-8743571D02*
X15507250Y-8693571D01*
X15457250Y-8643571D01*
X15407250Y-8693571D01*
X15457250Y-8743571D01*
X15711250Y-8743571D02*
X15761250Y-8693571D01*
X15711250Y-8643571D01*
X15661250Y-8693571D01*
X15711250Y-8743571D01*
X15965250Y-8743571D02*
X16015250Y-8693571D01*
X15965250Y-8643571D01*
X15915250Y-8693571D01*
X15965250Y-8743571D01*
X16219250Y-8743571D02*
X16269250Y-8693571D01*
X16219250Y-8643571D01*
X16169250Y-8693571D01*
X16219250Y-8743571D01*
X17167661Y-10687571D02*
X17217661Y-10637571D01*
X17167661Y-10587571D01*
X17117661Y-10637571D01*
X17167661Y-10687571D01*
X17167661Y-11037571D02*
X17217661Y-10987571D01*
X17167661Y-10937571D01*
X17117661Y-10987571D01*
X17167661Y-11037571D01*
X17167661Y-11377571D02*
X17217661Y-11327571D01*
X17167661Y-11277571D01*
X17117661Y-11327571D01*
X17167661Y-11377571D01*
X17487000Y-8675000D02*
X17537000Y-8625000D01*
X17487000Y-8575000D01*
X17437000Y-8625000D01*
X17487000Y-8675000D01*
X17487000Y-9015000D02*
X17537000Y-8965000D01*
X17487000Y-8915000D01*
X17437000Y-8965000D01*
X17487000Y-9015000D01*
X17487000Y-9735000D02*
X17537000Y-9685000D01*
X17487000Y-9635000D01*
X17437000Y-9685000D01*
X17487000Y-9735000D01*
X17487000Y-10075000D02*
X17537000Y-10025000D01*
X17487000Y-9975000D01*
X17437000Y-10025000D01*
X17487000Y-10075000D01*
X17498250Y-8308750D02*
X17548250Y-8258750D01*
X17498250Y-8208750D01*
X17448250Y-8258750D01*
X17498250Y-8308750D01*
X17687661Y-10687571D02*
X17737661Y-10637571D01*
X17687661Y-10587571D01*
X17637661Y-10637571D01*
X17687661Y-10687571D01*
X17687661Y-11037571D02*
X17737661Y-10987571D01*
X17687661Y-10937571D01*
X17637661Y-10987571D01*
X17687661Y-11037571D01*
X17687661Y-11377571D02*
X17737661Y-11327571D01*
X17687661Y-11277571D01*
X17637661Y-11327571D01*
X17687661Y-11377571D01*
X17752250Y-8308750D02*
X17802250Y-8258750D01*
X17752250Y-8208750D01*
X17702250Y-8258750D01*
X17752250Y-8308750D01*
X18202250Y-10690071D02*
X18252250Y-10640071D01*
X18202250Y-10590071D01*
X18152250Y-10640071D01*
X18202250Y-10690071D01*
X18202250Y-11040071D02*
X18252250Y-10990071D01*
X18202250Y-10940071D01*
X18152250Y-10990071D01*
X18202250Y-11040071D01*
X18202250Y-11380071D02*
X18252250Y-11330071D01*
X18202250Y-11280071D01*
X18152250Y-11330071D01*
X18202250Y-11380071D01*
X18722250Y-10690071D02*
X18772250Y-10640071D01*
X18722250Y-10590071D01*
X18672250Y-10640071D01*
X18722250Y-10690071D01*
X18722250Y-11040071D02*
X18772250Y-10990071D01*
X18722250Y-10940071D01*
X18672250Y-10990071D01*
X18722250Y-11040071D01*
X18722250Y-11380071D02*
X18772250Y-11330071D01*
X18722250Y-11280071D01*
X18672250Y-11330071D01*
X18722250Y-11380071D01*
X19787000Y-8675000D02*
X19837000Y-8625000D01*
X19787000Y-8575000D01*
X19737000Y-8625000D01*
X19787000Y-8675000D01*
X19787000Y-10075000D02*
X19837000Y-10025000D01*
X19787000Y-9975000D01*
X19737000Y-10025000D01*
X19787000Y-10075000D01*
D16*
X11103000Y-6931000D02*
X11241000Y-7069000D01*
X11241000Y-6931000D02*
X11103000Y-7069000D01*
X11241000Y-7000000D02*
G75*
G03*
X11241000Y-7000000I-69000J0D01*
G01*
D11*
X11103000Y-6949000D02*
X11103000Y-7051000D01*
X11241000Y-6949000D02*
X11241000Y-7051000D01*
X11103000Y-7051000D02*
G75*
G03*
X11241000Y-7051000I69000J0D01*
G01*
X11241000Y-6949000D02*
G75*
G03*
X11103000Y-6949000I-69000J0D01*
G01*
D16*
X18393000Y-6931000D02*
X18531000Y-7069000D01*
X18531000Y-6931000D02*
X18393000Y-7069000D01*
X18531000Y-7000000D02*
G75*
G03*
X18531000Y-7000000I-69000J0D01*
G01*
D11*
X18393000Y-6949000D02*
X18393000Y-7051000D01*
X18531000Y-6949000D02*
X18531000Y-7051000D01*
X18393000Y-7051000D02*
G75*
G03*
X18531000Y-7051000I69000J0D01*
G01*
X18531000Y-6949000D02*
G75*
G03*
X18393000Y-6949000I-69000J0D01*
G01*
D17*
X14437000Y-7995000D02*
X14597000Y-8155000D01*
X14597000Y-7995000D02*
X14437000Y-8155000D01*
X14517000Y-7995000D02*
X14517000Y-8155000D01*
X14437000Y-8075000D02*
X14597000Y-8075000D01*
D11*
X14662000Y-7995000D02*
X14372000Y-7995000D01*
X14662000Y-8155000D02*
X14372000Y-8155000D01*
X14372000Y-7995000D02*
G75*
G03*
X14372000Y-8155000I0J-80000D01*
G01*
X14662000Y-8155000D02*
G75*
G03*
X14662000Y-7995000I0J80000D01*
G01*
D18*
X10317000Y-7875000D02*
X10667000Y-8225000D01*
X10667000Y-7875000D02*
X10317000Y-8225000D01*
X10615745Y-8173745D02*
X10615745Y-7926255D01*
X10368255Y-7926255D01*
X10368255Y-8173745D01*
X10615745Y-8173745D01*
X10317000Y-10875000D02*
X10667000Y-11225000D01*
X10667000Y-10875000D02*
X10317000Y-11225000D01*
X10615745Y-11173745D02*
X10615745Y-10926255D01*
X10368255Y-10926255D01*
X10368255Y-11173745D01*
X10615745Y-11173745D01*
X19317000Y-7875000D02*
X19667000Y-8225000D01*
X19667000Y-7875000D02*
X19317000Y-8225000D01*
X19615745Y-8173745D02*
X19615745Y-7926255D01*
X19368255Y-7926255D01*
X19368255Y-8173745D01*
X19615745Y-8173745D01*
X19317000Y-10875000D02*
X19667000Y-11225000D01*
X19667000Y-10875000D02*
X19317000Y-11225000D01*
X19615745Y-11173745D02*
X19615745Y-10926255D01*
X19368255Y-10926255D01*
X19368255Y-11173745D01*
X19615745Y-11173745D01*
D11*
X10244619Y-11865476D02*
X10244619Y-11665476D01*
X10292238Y-11665476D01*
X10320810Y-11675000D01*
X10339857Y-11694048D01*
X10349381Y-11713095D01*
X10358905Y-11751190D01*
X10358905Y-11779762D01*
X10349381Y-11817857D01*
X10339857Y-11836905D01*
X10320810Y-11855952D01*
X10292238Y-11865476D01*
X10244619Y-11865476D01*
X10444619Y-11865476D02*
X10444619Y-11732143D01*
X10444619Y-11770238D02*
X10454143Y-11751190D01*
X10463667Y-11741667D01*
X10482714Y-11732143D01*
X10501762Y-11732143D01*
X10568429Y-11865476D02*
X10568429Y-11732143D01*
X10568429Y-11665476D02*
X10558905Y-11675000D01*
X10568429Y-11684524D01*
X10577952Y-11675000D01*
X10568429Y-11665476D01*
X10568429Y-11684524D01*
X10692238Y-11865476D02*
X10673190Y-11855952D01*
X10663667Y-11836905D01*
X10663667Y-11665476D01*
X10797000Y-11865476D02*
X10777952Y-11855952D01*
X10768429Y-11836905D01*
X10768429Y-11665476D01*
X11025571Y-11865476D02*
X11025571Y-11665476D01*
X11092238Y-11808333D01*
X11158905Y-11665476D01*
X11158905Y-11865476D01*
X11339857Y-11865476D02*
X11339857Y-11760714D01*
X11330333Y-11741667D01*
X11311286Y-11732143D01*
X11273190Y-11732143D01*
X11254143Y-11741667D01*
X11339857Y-11855952D02*
X11320809Y-11865476D01*
X11273190Y-11865476D01*
X11254143Y-11855952D01*
X11244619Y-11836905D01*
X11244619Y-11817857D01*
X11254143Y-11798809D01*
X11273190Y-11789286D01*
X11320809Y-11789286D01*
X11339857Y-11779762D01*
X11435095Y-11732143D02*
X11435095Y-11932143D01*
X11435095Y-11741667D02*
X11454143Y-11732143D01*
X11492238Y-11732143D01*
X11511286Y-11741667D01*
X11520809Y-11751190D01*
X11530333Y-11770238D01*
X11530333Y-11827381D01*
X11520809Y-11846428D01*
X11511286Y-11855952D01*
X11492238Y-11865476D01*
X11454143Y-11865476D01*
X11435095Y-11855952D01*
X11616048Y-11846428D02*
X11625571Y-11855952D01*
X11616048Y-11865476D01*
X11606524Y-11855952D01*
X11616048Y-11846428D01*
X11616048Y-11865476D01*
X11616048Y-11741667D02*
X11625571Y-11751190D01*
X11616048Y-11760714D01*
X11606524Y-11751190D01*
X11616048Y-11741667D01*
X11616048Y-11760714D01*
D12*
X9947000Y-12175000D02*
X9987000Y-12215000D01*
X9987000Y-12175000D02*
X9947000Y-12215000D01*
D11*
X10282714Y-12085476D02*
X10301762Y-12085476D01*
X10320810Y-12095000D01*
X10330333Y-12104524D01*
X10339857Y-12123571D01*
X10349381Y-12161667D01*
X10349381Y-12209286D01*
X10339857Y-12247381D01*
X10330333Y-12266428D01*
X10320810Y-12275952D01*
X10301762Y-12285476D01*
X10282714Y-12285476D01*
X10263667Y-12275952D01*
X10254143Y-12266428D01*
X10244619Y-12247381D01*
X10235095Y-12209286D01*
X10235095Y-12161667D01*
X10244619Y-12123571D01*
X10254143Y-12104524D01*
X10263667Y-12095000D01*
X10282714Y-12085476D01*
X10435095Y-12266428D02*
X10444619Y-12275952D01*
X10435095Y-12285476D01*
X10425571Y-12275952D01*
X10435095Y-12266428D01*
X10435095Y-12285476D01*
X10616048Y-12152143D02*
X10616048Y-12285476D01*
X10568429Y-12075952D02*
X10520810Y-12218809D01*
X10644619Y-12218809D01*
X10758905Y-12085476D02*
X10777952Y-12085476D01*
X10797000Y-12095000D01*
X10806524Y-12104524D01*
X10816048Y-12123571D01*
X10825571Y-12161667D01*
X10825571Y-12209286D01*
X10816048Y-12247381D01*
X10806524Y-12266428D01*
X10797000Y-12275952D01*
X10777952Y-12285476D01*
X10758905Y-12285476D01*
X10739857Y-12275952D01*
X10730333Y-12266428D01*
X10720810Y-12247381D01*
X10711286Y-12209286D01*
X10711286Y-12161667D01*
X10720810Y-12123571D01*
X10730333Y-12104524D01*
X10739857Y-12095000D01*
X10758905Y-12085476D01*
X10949381Y-12085476D02*
X10968429Y-12085476D01*
X10987476Y-12095000D01*
X10997000Y-12104524D01*
X11006524Y-12123571D01*
X11016048Y-12161667D01*
X11016048Y-12209286D01*
X11006524Y-12247381D01*
X10997000Y-12266428D01*
X10987476Y-12275952D01*
X10968429Y-12285476D01*
X10949381Y-12285476D01*
X10930333Y-12275952D01*
X10920810Y-12266428D01*
X10911286Y-12247381D01*
X10901762Y-12209286D01*
X10901762Y-12161667D01*
X10911286Y-12123571D01*
X10920810Y-12104524D01*
X10930333Y-12095000D01*
X10949381Y-12085476D01*
X11101762Y-12285476D02*
X11101762Y-12152143D01*
X11101762Y-12171190D02*
X11111286Y-12161667D01*
X11130333Y-12152143D01*
X11158905Y-12152143D01*
X11177952Y-12161667D01*
X11187476Y-12180714D01*
X11187476Y-12285476D01*
X11187476Y-12180714D02*
X11197000Y-12161667D01*
X11216048Y-12152143D01*
X11244619Y-12152143D01*
X11263667Y-12161667D01*
X11273190Y-12180714D01*
X11273190Y-12285476D01*
X11368428Y-12285476D02*
X11368428Y-12152143D01*
X11368428Y-12171190D02*
X11377952Y-12161667D01*
X11397000Y-12152143D01*
X11425571Y-12152143D01*
X11444619Y-12161667D01*
X11454143Y-12180714D01*
X11454143Y-12285476D01*
X11454143Y-12180714D02*
X11463667Y-12161667D01*
X11482714Y-12152143D01*
X11511286Y-12152143D01*
X11530333Y-12161667D01*
X11539857Y-12180714D01*
X11539857Y-12285476D01*
X11930333Y-12075952D02*
X11758905Y-12333095D01*
X12187476Y-12085476D02*
X12206524Y-12085476D01*
X12225571Y-12095000D01*
X12235095Y-12104524D01*
X12244619Y-12123571D01*
X12254143Y-12161667D01*
X12254143Y-12209286D01*
X12244619Y-12247381D01*
X12235095Y-12266428D01*
X12225571Y-12275952D01*
X12206524Y-12285476D01*
X12187476Y-12285476D01*
X12168428Y-12275952D01*
X12158905Y-12266428D01*
X12149381Y-12247381D01*
X12139857Y-12209286D01*
X12139857Y-12161667D01*
X12149381Y-12123571D01*
X12158905Y-12104524D01*
X12168428Y-12095000D01*
X12187476Y-12085476D01*
X12339857Y-12266428D02*
X12349381Y-12275952D01*
X12339857Y-12285476D01*
X12330333Y-12275952D01*
X12339857Y-12266428D01*
X12339857Y-12285476D01*
X12473190Y-12085476D02*
X12492238Y-12085476D01*
X12511286Y-12095000D01*
X12520809Y-12104524D01*
X12530333Y-12123571D01*
X12539857Y-12161667D01*
X12539857Y-12209286D01*
X12530333Y-12247381D01*
X12520809Y-12266428D01*
X12511286Y-12275952D01*
X12492238Y-12285476D01*
X12473190Y-12285476D01*
X12454143Y-12275952D01*
X12444619Y-12266428D01*
X12435095Y-12247381D01*
X12425571Y-12209286D01*
X12425571Y-12161667D01*
X12435095Y-12123571D01*
X12444619Y-12104524D01*
X12454143Y-12095000D01*
X12473190Y-12085476D01*
X12730333Y-12285476D02*
X12616048Y-12285476D01*
X12673190Y-12285476D02*
X12673190Y-12085476D01*
X12654143Y-12114048D01*
X12635095Y-12133095D01*
X12616048Y-12142619D01*
X12911286Y-12085476D02*
X12816048Y-12085476D01*
X12806524Y-12180714D01*
X12816048Y-12171190D01*
X12835095Y-12161667D01*
X12882714Y-12161667D01*
X12901762Y-12171190D01*
X12911286Y-12180714D01*
X12920809Y-12199762D01*
X12920809Y-12247381D01*
X12911286Y-12266428D01*
X12901762Y-12275952D01*
X12882714Y-12285476D01*
X12835095Y-12285476D01*
X12816048Y-12275952D01*
X12806524Y-12266428D01*
X12987476Y-12085476D02*
X13120809Y-12085476D01*
X13035095Y-12285476D01*
X13187476Y-12085476D02*
X13187476Y-12123571D01*
X13263667Y-12085476D02*
X13263667Y-12123571D01*
X13558905Y-12361667D02*
X13549381Y-12352143D01*
X13530333Y-12323571D01*
X13520809Y-12304524D01*
X13511286Y-12275952D01*
X13501762Y-12228333D01*
X13501762Y-12190238D01*
X13511286Y-12142619D01*
X13520809Y-12114048D01*
X13530333Y-12095000D01*
X13549381Y-12066428D01*
X13558905Y-12056905D01*
X13625571Y-12104524D02*
X13635095Y-12095000D01*
X13654143Y-12085476D01*
X13701762Y-12085476D01*
X13720809Y-12095000D01*
X13730333Y-12104524D01*
X13739857Y-12123571D01*
X13739857Y-12142619D01*
X13730333Y-12171190D01*
X13616048Y-12285476D01*
X13739857Y-12285476D01*
X13930333Y-12285476D02*
X13816048Y-12285476D01*
X13873190Y-12285476D02*
X13873190Y-12085476D01*
X13854143Y-12114048D01*
X13835095Y-12133095D01*
X13816048Y-12142619D01*
X14111286Y-12085476D02*
X14016048Y-12085476D01*
X14006524Y-12180714D01*
X14016048Y-12171190D01*
X14035095Y-12161667D01*
X14082714Y-12161667D01*
X14101762Y-12171190D01*
X14111286Y-12180714D01*
X14120809Y-12199762D01*
X14120809Y-12247381D01*
X14111286Y-12266428D01*
X14101762Y-12275952D01*
X14082714Y-12285476D01*
X14035095Y-12285476D01*
X14016048Y-12275952D01*
X14006524Y-12266428D01*
X14358905Y-12285476D02*
X14358905Y-12085476D01*
X14444619Y-12285476D02*
X14444619Y-12180714D01*
X14435095Y-12161667D01*
X14416048Y-12152143D01*
X14387476Y-12152143D01*
X14368428Y-12161667D01*
X14358905Y-12171190D01*
X14568428Y-12285476D02*
X14549381Y-12275952D01*
X14539857Y-12266428D01*
X14530333Y-12247381D01*
X14530333Y-12190238D01*
X14539857Y-12171190D01*
X14549381Y-12161667D01*
X14568428Y-12152143D01*
X14597000Y-12152143D01*
X14616048Y-12161667D01*
X14625571Y-12171190D01*
X14635095Y-12190238D01*
X14635095Y-12247381D01*
X14625571Y-12266428D01*
X14616048Y-12275952D01*
X14597000Y-12285476D01*
X14568428Y-12285476D01*
X14749381Y-12285476D02*
X14730333Y-12275952D01*
X14720809Y-12256905D01*
X14720809Y-12085476D01*
X14901762Y-12275952D02*
X14882714Y-12285476D01*
X14844619Y-12285476D01*
X14825571Y-12275952D01*
X14816048Y-12256905D01*
X14816048Y-12180714D01*
X14825571Y-12161667D01*
X14844619Y-12152143D01*
X14882714Y-12152143D01*
X14901762Y-12161667D01*
X14911286Y-12180714D01*
X14911286Y-12199762D01*
X14816048Y-12218809D01*
X14987476Y-12275952D02*
X15006524Y-12285476D01*
X15044619Y-12285476D01*
X15063667Y-12275952D01*
X15073190Y-12256905D01*
X15073190Y-12247381D01*
X15063667Y-12228333D01*
X15044619Y-12218809D01*
X15016048Y-12218809D01*
X14997000Y-12209286D01*
X14987476Y-12190238D01*
X14987476Y-12180714D01*
X14997000Y-12161667D01*
X15016048Y-12152143D01*
X15044619Y-12152143D01*
X15063667Y-12161667D01*
X15139857Y-12361667D02*
X15149381Y-12352143D01*
X15168428Y-12323571D01*
X15177952Y-12304524D01*
X15187476Y-12275952D01*
X15197000Y-12228333D01*
X15197000Y-12190238D01*
X15187476Y-12142619D01*
X15177952Y-12114048D01*
X15168428Y-12095000D01*
X15149381Y-12066428D01*
X15139857Y-12056905D01*
D13*
X9987000Y-12459000D02*
G75*
G03*
X9987000Y-12459000I-25000J0D01*
G01*
D11*
X10282714Y-12349476D02*
X10301762Y-12349476D01*
X10320810Y-12359000D01*
X10330333Y-12368524D01*
X10339857Y-12387571D01*
X10349381Y-12425667D01*
X10349381Y-12473286D01*
X10339857Y-12511381D01*
X10330333Y-12530428D01*
X10320810Y-12539952D01*
X10301762Y-12549476D01*
X10282714Y-12549476D01*
X10263667Y-12539952D01*
X10254143Y-12530428D01*
X10244619Y-12511381D01*
X10235095Y-12473286D01*
X10235095Y-12425667D01*
X10244619Y-12387571D01*
X10254143Y-12368524D01*
X10263667Y-12359000D01*
X10282714Y-12349476D01*
X10435095Y-12530428D02*
X10444619Y-12539952D01*
X10435095Y-12549476D01*
X10425571Y-12539952D01*
X10435095Y-12530428D01*
X10435095Y-12549476D01*
X10625571Y-12349476D02*
X10530333Y-12349476D01*
X10520810Y-12444714D01*
X10530333Y-12435190D01*
X10549381Y-12425667D01*
X10597000Y-12425667D01*
X10616048Y-12435190D01*
X10625571Y-12444714D01*
X10635095Y-12463762D01*
X10635095Y-12511381D01*
X10625571Y-12530428D01*
X10616048Y-12539952D01*
X10597000Y-12549476D01*
X10549381Y-12549476D01*
X10530333Y-12539952D01*
X10520810Y-12530428D01*
X10758905Y-12349476D02*
X10777952Y-12349476D01*
X10797000Y-12359000D01*
X10806524Y-12368524D01*
X10816048Y-12387571D01*
X10825571Y-12425667D01*
X10825571Y-12473286D01*
X10816048Y-12511381D01*
X10806524Y-12530428D01*
X10797000Y-12539952D01*
X10777952Y-12549476D01*
X10758905Y-12549476D01*
X10739857Y-12539952D01*
X10730333Y-12530428D01*
X10720810Y-12511381D01*
X10711286Y-12473286D01*
X10711286Y-12425667D01*
X10720810Y-12387571D01*
X10730333Y-12368524D01*
X10739857Y-12359000D01*
X10758905Y-12349476D01*
X10949381Y-12349476D02*
X10968429Y-12349476D01*
X10987476Y-12359000D01*
X10997000Y-12368524D01*
X11006524Y-12387571D01*
X11016048Y-12425667D01*
X11016048Y-12473286D01*
X11006524Y-12511381D01*
X10997000Y-12530428D01*
X10987476Y-12539952D01*
X10968429Y-12549476D01*
X10949381Y-12549476D01*
X10930333Y-12539952D01*
X10920810Y-12530428D01*
X10911286Y-12511381D01*
X10901762Y-12473286D01*
X10901762Y-12425667D01*
X10911286Y-12387571D01*
X10920810Y-12368524D01*
X10930333Y-12359000D01*
X10949381Y-12349476D01*
X11101762Y-12549476D02*
X11101762Y-12416143D01*
X11101762Y-12435190D02*
X11111286Y-12425667D01*
X11130333Y-12416143D01*
X11158905Y-12416143D01*
X11177952Y-12425667D01*
X11187476Y-12444714D01*
X11187476Y-12549476D01*
X11187476Y-12444714D02*
X11197000Y-12425667D01*
X11216048Y-12416143D01*
X11244619Y-12416143D01*
X11263667Y-12425667D01*
X11273190Y-12444714D01*
X11273190Y-12549476D01*
X11368428Y-12549476D02*
X11368428Y-12416143D01*
X11368428Y-12435190D02*
X11377952Y-12425667D01*
X11397000Y-12416143D01*
X11425571Y-12416143D01*
X11444619Y-12425667D01*
X11454143Y-12444714D01*
X11454143Y-12549476D01*
X11454143Y-12444714D02*
X11463667Y-12425667D01*
X11482714Y-12416143D01*
X11511286Y-12416143D01*
X11530333Y-12425667D01*
X11539857Y-12444714D01*
X11539857Y-12549476D01*
X11930333Y-12339952D02*
X11758905Y-12597095D01*
X12187476Y-12349476D02*
X12206524Y-12349476D01*
X12225571Y-12359000D01*
X12235095Y-12368524D01*
X12244619Y-12387571D01*
X12254143Y-12425667D01*
X12254143Y-12473286D01*
X12244619Y-12511381D01*
X12235095Y-12530428D01*
X12225571Y-12539952D01*
X12206524Y-12549476D01*
X12187476Y-12549476D01*
X12168428Y-12539952D01*
X12158905Y-12530428D01*
X12149381Y-12511381D01*
X12139857Y-12473286D01*
X12139857Y-12425667D01*
X12149381Y-12387571D01*
X12158905Y-12368524D01*
X12168428Y-12359000D01*
X12187476Y-12349476D01*
X12339857Y-12530428D02*
X12349381Y-12539952D01*
X12339857Y-12549476D01*
X12330333Y-12539952D01*
X12339857Y-12530428D01*
X12339857Y-12549476D01*
X12473190Y-12349476D02*
X12492238Y-12349476D01*
X12511286Y-12359000D01*
X12520809Y-12368524D01*
X12530333Y-12387571D01*
X12539857Y-12425667D01*
X12539857Y-12473286D01*
X12530333Y-12511381D01*
X12520809Y-12530428D01*
X12511286Y-12539952D01*
X12492238Y-12549476D01*
X12473190Y-12549476D01*
X12454143Y-12539952D01*
X12444619Y-12530428D01*
X12435095Y-12511381D01*
X12425571Y-12473286D01*
X12425571Y-12425667D01*
X12435095Y-12387571D01*
X12444619Y-12368524D01*
X12454143Y-12359000D01*
X12473190Y-12349476D01*
X12730333Y-12549476D02*
X12616048Y-12549476D01*
X12673190Y-12549476D02*
X12673190Y-12349476D01*
X12654143Y-12378048D01*
X12635095Y-12397095D01*
X12616048Y-12406619D01*
X12825571Y-12549476D02*
X12863667Y-12549476D01*
X12882714Y-12539952D01*
X12892238Y-12530428D01*
X12911286Y-12501857D01*
X12920809Y-12463762D01*
X12920809Y-12387571D01*
X12911286Y-12368524D01*
X12901762Y-12359000D01*
X12882714Y-12349476D01*
X12844619Y-12349476D01*
X12825571Y-12359000D01*
X12816048Y-12368524D01*
X12806524Y-12387571D01*
X12806524Y-12435190D01*
X12816048Y-12454238D01*
X12825571Y-12463762D01*
X12844619Y-12473286D01*
X12882714Y-12473286D01*
X12901762Y-12463762D01*
X12911286Y-12454238D01*
X12920809Y-12435190D01*
X12987476Y-12349476D02*
X13120809Y-12349476D01*
X13035095Y-12549476D01*
X13187476Y-12349476D02*
X13187476Y-12387571D01*
X13263667Y-12349476D02*
X13263667Y-12387571D01*
X13558905Y-12625667D02*
X13549381Y-12616143D01*
X13530333Y-12587571D01*
X13520809Y-12568524D01*
X13511286Y-12539952D01*
X13501762Y-12492333D01*
X13501762Y-12454238D01*
X13511286Y-12406619D01*
X13520809Y-12378048D01*
X13530333Y-12359000D01*
X13549381Y-12330428D01*
X13558905Y-12320905D01*
X13616048Y-12349476D02*
X13739857Y-12349476D01*
X13673190Y-12425667D01*
X13701762Y-12425667D01*
X13720809Y-12435190D01*
X13730333Y-12444714D01*
X13739857Y-12463762D01*
X13739857Y-12511381D01*
X13730333Y-12530428D01*
X13720809Y-12539952D01*
X13701762Y-12549476D01*
X13644619Y-12549476D01*
X13625571Y-12539952D01*
X13616048Y-12530428D01*
X13816048Y-12368524D02*
X13825571Y-12359000D01*
X13844619Y-12349476D01*
X13892238Y-12349476D01*
X13911286Y-12359000D01*
X13920809Y-12368524D01*
X13930333Y-12387571D01*
X13930333Y-12406619D01*
X13920809Y-12435190D01*
X13806524Y-12549476D01*
X13930333Y-12549476D01*
X14168428Y-12549476D02*
X14168428Y-12349476D01*
X14254143Y-12549476D02*
X14254143Y-12444714D01*
X14244619Y-12425667D01*
X14225571Y-12416143D01*
X14197000Y-12416143D01*
X14177952Y-12425667D01*
X14168428Y-12435190D01*
X14377952Y-12549476D02*
X14358905Y-12539952D01*
X14349381Y-12530428D01*
X14339857Y-12511381D01*
X14339857Y-12454238D01*
X14349381Y-12435190D01*
X14358905Y-12425667D01*
X14377952Y-12416143D01*
X14406524Y-12416143D01*
X14425571Y-12425667D01*
X14435095Y-12435190D01*
X14444619Y-12454238D01*
X14444619Y-12511381D01*
X14435095Y-12530428D01*
X14425571Y-12539952D01*
X14406524Y-12549476D01*
X14377952Y-12549476D01*
X14558905Y-12549476D02*
X14539857Y-12539952D01*
X14530333Y-12520905D01*
X14530333Y-12349476D01*
X14711286Y-12539952D02*
X14692238Y-12549476D01*
X14654143Y-12549476D01*
X14635095Y-12539952D01*
X14625571Y-12520905D01*
X14625571Y-12444714D01*
X14635095Y-12425667D01*
X14654143Y-12416143D01*
X14692238Y-12416143D01*
X14711286Y-12425667D01*
X14720809Y-12444714D01*
X14720809Y-12463762D01*
X14625571Y-12482809D01*
X14797000Y-12539952D02*
X14816048Y-12549476D01*
X14854143Y-12549476D01*
X14873190Y-12539952D01*
X14882714Y-12520905D01*
X14882714Y-12511381D01*
X14873190Y-12492333D01*
X14854143Y-12482809D01*
X14825571Y-12482809D01*
X14806524Y-12473286D01*
X14797000Y-12454238D01*
X14797000Y-12444714D01*
X14806524Y-12425667D01*
X14825571Y-12416143D01*
X14854143Y-12416143D01*
X14873190Y-12425667D01*
X14949381Y-12625667D02*
X14958905Y-12616143D01*
X14977952Y-12587571D01*
X14987476Y-12568524D01*
X14997000Y-12539952D01*
X15006524Y-12492333D01*
X15006524Y-12454238D01*
X14997000Y-12406619D01*
X14987476Y-12378048D01*
X14977952Y-12359000D01*
X14958905Y-12330428D01*
X14949381Y-12320905D01*
D14*
X9957000Y-12693000D02*
X9957000Y-12753000D01*
X9927000Y-12723000D02*
X9987000Y-12723000D01*
D11*
X10282714Y-12613476D02*
X10301762Y-12613476D01*
X10320810Y-12623000D01*
X10330333Y-12632524D01*
X10339857Y-12651571D01*
X10349381Y-12689667D01*
X10349381Y-12737286D01*
X10339857Y-12775381D01*
X10330333Y-12794428D01*
X10320810Y-12803952D01*
X10301762Y-12813476D01*
X10282714Y-12813476D01*
X10263667Y-12803952D01*
X10254143Y-12794428D01*
X10244619Y-12775381D01*
X10235095Y-12737286D01*
X10235095Y-12689667D01*
X10244619Y-12651571D01*
X10254143Y-12632524D01*
X10263667Y-12623000D01*
X10282714Y-12613476D01*
X10435095Y-12794428D02*
X10444619Y-12803952D01*
X10435095Y-12813476D01*
X10425571Y-12803952D01*
X10435095Y-12794428D01*
X10435095Y-12813476D01*
X10616048Y-12613476D02*
X10577952Y-12613476D01*
X10558905Y-12623000D01*
X10549381Y-12632524D01*
X10530333Y-12661095D01*
X10520810Y-12699190D01*
X10520810Y-12775381D01*
X10530333Y-12794428D01*
X10539857Y-12803952D01*
X10558905Y-12813476D01*
X10597000Y-12813476D01*
X10616048Y-12803952D01*
X10625571Y-12794428D01*
X10635095Y-12775381D01*
X10635095Y-12727762D01*
X10625571Y-12708714D01*
X10616048Y-12699190D01*
X10597000Y-12689667D01*
X10558905Y-12689667D01*
X10539857Y-12699190D01*
X10530333Y-12708714D01*
X10520810Y-12727762D01*
X10758905Y-12613476D02*
X10777952Y-12613476D01*
X10797000Y-12623000D01*
X10806524Y-12632524D01*
X10816048Y-12651571D01*
X10825571Y-12689667D01*
X10825571Y-12737286D01*
X10816048Y-12775381D01*
X10806524Y-12794428D01*
X10797000Y-12803952D01*
X10777952Y-12813476D01*
X10758905Y-12813476D01*
X10739857Y-12803952D01*
X10730333Y-12794428D01*
X10720810Y-12775381D01*
X10711286Y-12737286D01*
X10711286Y-12689667D01*
X10720810Y-12651571D01*
X10730333Y-12632524D01*
X10739857Y-12623000D01*
X10758905Y-12613476D01*
X10949381Y-12613476D02*
X10968429Y-12613476D01*
X10987476Y-12623000D01*
X10997000Y-12632524D01*
X11006524Y-12651571D01*
X11016048Y-12689667D01*
X11016048Y-12737286D01*
X11006524Y-12775381D01*
X10997000Y-12794428D01*
X10987476Y-12803952D01*
X10968429Y-12813476D01*
X10949381Y-12813476D01*
X10930333Y-12803952D01*
X10920810Y-12794428D01*
X10911286Y-12775381D01*
X10901762Y-12737286D01*
X10901762Y-12689667D01*
X10911286Y-12651571D01*
X10920810Y-12632524D01*
X10930333Y-12623000D01*
X10949381Y-12613476D01*
X11101762Y-12813476D02*
X11101762Y-12680143D01*
X11101762Y-12699190D02*
X11111286Y-12689667D01*
X11130333Y-12680143D01*
X11158905Y-12680143D01*
X11177952Y-12689667D01*
X11187476Y-12708714D01*
X11187476Y-12813476D01*
X11187476Y-12708714D02*
X11197000Y-12689667D01*
X11216048Y-12680143D01*
X11244619Y-12680143D01*
X11263667Y-12689667D01*
X11273190Y-12708714D01*
X11273190Y-12813476D01*
X11368428Y-12813476D02*
X11368428Y-12680143D01*
X11368428Y-12699190D02*
X11377952Y-12689667D01*
X11397000Y-12680143D01*
X11425571Y-12680143D01*
X11444619Y-12689667D01*
X11454143Y-12708714D01*
X11454143Y-12813476D01*
X11454143Y-12708714D02*
X11463667Y-12689667D01*
X11482714Y-12680143D01*
X11511286Y-12680143D01*
X11530333Y-12689667D01*
X11539857Y-12708714D01*
X11539857Y-12813476D01*
X11930333Y-12603952D02*
X11758905Y-12861095D01*
X12187476Y-12613476D02*
X12206524Y-12613476D01*
X12225571Y-12623000D01*
X12235095Y-12632524D01*
X12244619Y-12651571D01*
X12254143Y-12689667D01*
X12254143Y-12737286D01*
X12244619Y-12775381D01*
X12235095Y-12794428D01*
X12225571Y-12803952D01*
X12206524Y-12813476D01*
X12187476Y-12813476D01*
X12168428Y-12803952D01*
X12158905Y-12794428D01*
X12149381Y-12775381D01*
X12139857Y-12737286D01*
X12139857Y-12689667D01*
X12149381Y-12651571D01*
X12158905Y-12632524D01*
X12168428Y-12623000D01*
X12187476Y-12613476D01*
X12339857Y-12794428D02*
X12349381Y-12803952D01*
X12339857Y-12813476D01*
X12330333Y-12803952D01*
X12339857Y-12794428D01*
X12339857Y-12813476D01*
X12473190Y-12613476D02*
X12492238Y-12613476D01*
X12511286Y-12623000D01*
X12520809Y-12632524D01*
X12530333Y-12651571D01*
X12539857Y-12689667D01*
X12539857Y-12737286D01*
X12530333Y-12775381D01*
X12520809Y-12794428D01*
X12511286Y-12803952D01*
X12492238Y-12813476D01*
X12473190Y-12813476D01*
X12454143Y-12803952D01*
X12444619Y-12794428D01*
X12435095Y-12775381D01*
X12425571Y-12737286D01*
X12425571Y-12689667D01*
X12435095Y-12651571D01*
X12444619Y-12632524D01*
X12454143Y-12623000D01*
X12473190Y-12613476D01*
X12616048Y-12632524D02*
X12625571Y-12623000D01*
X12644619Y-12613476D01*
X12692238Y-12613476D01*
X12711286Y-12623000D01*
X12720809Y-12632524D01*
X12730333Y-12651571D01*
X12730333Y-12670619D01*
X12720809Y-12699190D01*
X12606524Y-12813476D01*
X12730333Y-12813476D01*
X12797000Y-12613476D02*
X12920809Y-12613476D01*
X12854143Y-12689667D01*
X12882714Y-12689667D01*
X12901762Y-12699190D01*
X12911286Y-12708714D01*
X12920809Y-12727762D01*
X12920809Y-12775381D01*
X12911286Y-12794428D01*
X12901762Y-12803952D01*
X12882714Y-12813476D01*
X12825571Y-12813476D01*
X12806524Y-12803952D01*
X12797000Y-12794428D01*
X13092238Y-12613476D02*
X13054143Y-12613476D01*
X13035095Y-12623000D01*
X13025571Y-12632524D01*
X13006524Y-12661095D01*
X12997000Y-12699190D01*
X12997000Y-12775381D01*
X13006524Y-12794428D01*
X13016048Y-12803952D01*
X13035095Y-12813476D01*
X13073190Y-12813476D01*
X13092238Y-12803952D01*
X13101762Y-12794428D01*
X13111286Y-12775381D01*
X13111286Y-12727762D01*
X13101762Y-12708714D01*
X13092238Y-12699190D01*
X13073190Y-12689667D01*
X13035095Y-12689667D01*
X13016048Y-12699190D01*
X13006524Y-12708714D01*
X12997000Y-12727762D01*
X13187476Y-12613476D02*
X13187476Y-12651571D01*
X13263667Y-12613476D02*
X13263667Y-12651571D01*
X13558905Y-12889667D02*
X13549381Y-12880143D01*
X13530333Y-12851571D01*
X13520809Y-12832524D01*
X13511286Y-12803952D01*
X13501762Y-12756333D01*
X13501762Y-12718238D01*
X13511286Y-12670619D01*
X13520809Y-12642048D01*
X13530333Y-12623000D01*
X13549381Y-12594428D01*
X13558905Y-12584905D01*
X13673190Y-12613476D02*
X13692238Y-12613476D01*
X13711286Y-12623000D01*
X13720809Y-12632524D01*
X13730333Y-12651571D01*
X13739857Y-12689667D01*
X13739857Y-12737286D01*
X13730333Y-12775381D01*
X13720809Y-12794428D01*
X13711286Y-12803952D01*
X13692238Y-12813476D01*
X13673190Y-12813476D01*
X13654143Y-12803952D01*
X13644619Y-12794428D01*
X13635095Y-12775381D01*
X13625571Y-12737286D01*
X13625571Y-12689667D01*
X13635095Y-12651571D01*
X13644619Y-12632524D01*
X13654143Y-12623000D01*
X13673190Y-12613476D01*
X13977952Y-12813476D02*
X13977952Y-12613476D01*
X14063667Y-12813476D02*
X14063667Y-12708714D01*
X14054143Y-12689667D01*
X14035095Y-12680143D01*
X14006524Y-12680143D01*
X13987476Y-12689667D01*
X13977952Y-12699190D01*
X14187476Y-12813476D02*
X14168428Y-12803952D01*
X14158905Y-12794428D01*
X14149381Y-12775381D01*
X14149381Y-12718238D01*
X14158905Y-12699190D01*
X14168428Y-12689667D01*
X14187476Y-12680143D01*
X14216048Y-12680143D01*
X14235095Y-12689667D01*
X14244619Y-12699190D01*
X14254143Y-12718238D01*
X14254143Y-12775381D01*
X14244619Y-12794428D01*
X14235095Y-12803952D01*
X14216048Y-12813476D01*
X14187476Y-12813476D01*
X14368428Y-12813476D02*
X14349381Y-12803952D01*
X14339857Y-12784905D01*
X14339857Y-12613476D01*
X14520809Y-12803952D02*
X14501762Y-12813476D01*
X14463667Y-12813476D01*
X14444619Y-12803952D01*
X14435095Y-12784905D01*
X14435095Y-12708714D01*
X14444619Y-12689667D01*
X14463667Y-12680143D01*
X14501762Y-12680143D01*
X14520809Y-12689667D01*
X14530333Y-12708714D01*
X14530333Y-12727762D01*
X14435095Y-12746809D01*
X14606524Y-12803952D02*
X14625571Y-12813476D01*
X14663667Y-12813476D01*
X14682714Y-12803952D01*
X14692238Y-12784905D01*
X14692238Y-12775381D01*
X14682714Y-12756333D01*
X14663667Y-12746809D01*
X14635095Y-12746809D01*
X14616048Y-12737286D01*
X14606524Y-12718238D01*
X14606524Y-12708714D01*
X14616048Y-12689667D01*
X14635095Y-12680143D01*
X14663667Y-12680143D01*
X14682714Y-12689667D01*
X14930333Y-12737286D02*
X15082714Y-12737286D01*
X15006524Y-12813476D02*
X15006524Y-12661095D01*
X15416048Y-12680143D02*
X15416048Y-12813476D01*
X15368428Y-12603952D02*
X15320809Y-12746809D01*
X15444619Y-12746809D01*
X15663667Y-12803952D02*
X15682714Y-12813476D01*
X15720809Y-12813476D01*
X15739857Y-12803952D01*
X15749381Y-12784905D01*
X15749381Y-12775381D01*
X15739857Y-12756333D01*
X15720809Y-12746809D01*
X15692238Y-12746809D01*
X15673190Y-12737286D01*
X15663667Y-12718238D01*
X15663667Y-12708714D01*
X15673190Y-12689667D01*
X15692238Y-12680143D01*
X15720809Y-12680143D01*
X15739857Y-12689667D01*
X15863667Y-12813476D02*
X15844619Y-12803952D01*
X15835095Y-12784905D01*
X15835095Y-12613476D01*
X15968428Y-12813476D02*
X15949381Y-12803952D01*
X15939857Y-12794428D01*
X15930333Y-12775381D01*
X15930333Y-12718238D01*
X15939857Y-12699190D01*
X15949381Y-12689667D01*
X15968428Y-12680143D01*
X15997000Y-12680143D01*
X16016048Y-12689667D01*
X16025571Y-12699190D01*
X16035095Y-12718238D01*
X16035095Y-12775381D01*
X16025571Y-12794428D01*
X16016048Y-12803952D01*
X15997000Y-12813476D01*
X15968428Y-12813476D01*
X16092238Y-12680143D02*
X16168428Y-12680143D01*
X16120809Y-12613476D02*
X16120809Y-12784905D01*
X16130333Y-12803952D01*
X16149381Y-12813476D01*
X16168428Y-12813476D01*
X16225571Y-12803952D02*
X16244619Y-12813476D01*
X16282714Y-12813476D01*
X16301762Y-12803952D01*
X16311286Y-12784905D01*
X16311286Y-12775381D01*
X16301762Y-12756333D01*
X16282714Y-12746809D01*
X16254143Y-12746809D01*
X16235095Y-12737286D01*
X16225571Y-12718238D01*
X16225571Y-12708714D01*
X16235095Y-12689667D01*
X16254143Y-12680143D01*
X16282714Y-12680143D01*
X16301762Y-12689667D01*
X16377952Y-12889667D02*
X16387476Y-12880143D01*
X16406524Y-12851571D01*
X16416048Y-12832524D01*
X16425571Y-12803952D01*
X16435095Y-12756333D01*
X16435095Y-12718238D01*
X16425571Y-12670619D01*
X16416048Y-12642048D01*
X16406524Y-12623000D01*
X16387476Y-12594428D01*
X16377952Y-12584905D01*
D15*
X9976017Y-13013517D02*
X9976017Y-12960483D01*
X9922983Y-12960483D01*
X9922983Y-13013517D01*
X9976017Y-13013517D01*
D11*
X10282714Y-12877476D02*
X10301762Y-12877476D01*
X10320810Y-12887000D01*
X10330333Y-12896524D01*
X10339857Y-12915571D01*
X10349381Y-12953667D01*
X10349381Y-13001286D01*
X10339857Y-13039381D01*
X10330333Y-13058428D01*
X10320810Y-13067952D01*
X10301762Y-13077476D01*
X10282714Y-13077476D01*
X10263667Y-13067952D01*
X10254143Y-13058428D01*
X10244619Y-13039381D01*
X10235095Y-13001286D01*
X10235095Y-12953667D01*
X10244619Y-12915571D01*
X10254143Y-12896524D01*
X10263667Y-12887000D01*
X10282714Y-12877476D01*
X10435095Y-13058428D02*
X10444619Y-13067952D01*
X10435095Y-13077476D01*
X10425571Y-13067952D01*
X10435095Y-13058428D01*
X10435095Y-13077476D01*
X10511286Y-12877476D02*
X10644619Y-12877476D01*
X10558905Y-13077476D01*
X10816048Y-12877476D02*
X10720810Y-12877476D01*
X10711286Y-12972714D01*
X10720810Y-12963190D01*
X10739857Y-12953667D01*
X10787476Y-12953667D01*
X10806524Y-12963190D01*
X10816048Y-12972714D01*
X10825571Y-12991762D01*
X10825571Y-13039381D01*
X10816048Y-13058428D01*
X10806524Y-13067952D01*
X10787476Y-13077476D01*
X10739857Y-13077476D01*
X10720810Y-13067952D01*
X10711286Y-13058428D01*
X10949381Y-12877476D02*
X10968429Y-12877476D01*
X10987476Y-12887000D01*
X10997000Y-12896524D01*
X11006524Y-12915571D01*
X11016048Y-12953667D01*
X11016048Y-13001286D01*
X11006524Y-13039381D01*
X10997000Y-13058428D01*
X10987476Y-13067952D01*
X10968429Y-13077476D01*
X10949381Y-13077476D01*
X10930333Y-13067952D01*
X10920810Y-13058428D01*
X10911286Y-13039381D01*
X10901762Y-13001286D01*
X10901762Y-12953667D01*
X10911286Y-12915571D01*
X10920810Y-12896524D01*
X10930333Y-12887000D01*
X10949381Y-12877476D01*
X11101762Y-13077476D02*
X11101762Y-12944143D01*
X11101762Y-12963190D02*
X11111286Y-12953667D01*
X11130333Y-12944143D01*
X11158905Y-12944143D01*
X11177952Y-12953667D01*
X11187476Y-12972714D01*
X11187476Y-13077476D01*
X11187476Y-12972714D02*
X11197000Y-12953667D01*
X11216048Y-12944143D01*
X11244619Y-12944143D01*
X11263667Y-12953667D01*
X11273190Y-12972714D01*
X11273190Y-13077476D01*
X11368428Y-13077476D02*
X11368428Y-12944143D01*
X11368428Y-12963190D02*
X11377952Y-12953667D01*
X11397000Y-12944143D01*
X11425571Y-12944143D01*
X11444619Y-12953667D01*
X11454143Y-12972714D01*
X11454143Y-13077476D01*
X11454143Y-12972714D02*
X11463667Y-12953667D01*
X11482714Y-12944143D01*
X11511286Y-12944143D01*
X11530333Y-12953667D01*
X11539857Y-12972714D01*
X11539857Y-13077476D01*
X11930333Y-12867952D02*
X11758905Y-13125095D01*
X12187476Y-12877476D02*
X12206524Y-12877476D01*
X12225571Y-12887000D01*
X12235095Y-12896524D01*
X12244619Y-12915571D01*
X12254143Y-12953667D01*
X12254143Y-13001286D01*
X12244619Y-13039381D01*
X12235095Y-13058428D01*
X12225571Y-13067952D01*
X12206524Y-13077476D01*
X12187476Y-13077476D01*
X12168428Y-13067952D01*
X12158905Y-13058428D01*
X12149381Y-13039381D01*
X12139857Y-13001286D01*
X12139857Y-12953667D01*
X12149381Y-12915571D01*
X12158905Y-12896524D01*
X12168428Y-12887000D01*
X12187476Y-12877476D01*
X12339857Y-13058428D02*
X12349381Y-13067952D01*
X12339857Y-13077476D01*
X12330333Y-13067952D01*
X12339857Y-13058428D01*
X12339857Y-13077476D01*
X12473190Y-12877476D02*
X12492238Y-12877476D01*
X12511286Y-12887000D01*
X12520809Y-12896524D01*
X12530333Y-12915571D01*
X12539857Y-12953667D01*
X12539857Y-13001286D01*
X12530333Y-13039381D01*
X12520809Y-13058428D01*
X12511286Y-13067952D01*
X12492238Y-13077476D01*
X12473190Y-13077476D01*
X12454143Y-13067952D01*
X12444619Y-13058428D01*
X12435095Y-13039381D01*
X12425571Y-13001286D01*
X12425571Y-12953667D01*
X12435095Y-12915571D01*
X12444619Y-12896524D01*
X12454143Y-12887000D01*
X12473190Y-12877476D01*
X12616048Y-12896524D02*
X12625571Y-12887000D01*
X12644619Y-12877476D01*
X12692238Y-12877476D01*
X12711286Y-12887000D01*
X12720809Y-12896524D01*
X12730333Y-12915571D01*
X12730333Y-12934619D01*
X12720809Y-12963190D01*
X12606524Y-13077476D01*
X12730333Y-13077476D01*
X12825571Y-13077476D02*
X12863667Y-13077476D01*
X12882714Y-13067952D01*
X12892238Y-13058428D01*
X12911286Y-13029857D01*
X12920809Y-12991762D01*
X12920809Y-12915571D01*
X12911286Y-12896524D01*
X12901762Y-12887000D01*
X12882714Y-12877476D01*
X12844619Y-12877476D01*
X12825571Y-12887000D01*
X12816048Y-12896524D01*
X12806524Y-12915571D01*
X12806524Y-12963190D01*
X12816048Y-12982238D01*
X12825571Y-12991762D01*
X12844619Y-13001286D01*
X12882714Y-13001286D01*
X12901762Y-12991762D01*
X12911286Y-12982238D01*
X12920809Y-12963190D01*
X13101762Y-12877476D02*
X13006524Y-12877476D01*
X12997000Y-12972714D01*
X13006524Y-12963190D01*
X13025571Y-12953667D01*
X13073190Y-12953667D01*
X13092238Y-12963190D01*
X13101762Y-12972714D01*
X13111286Y-12991762D01*
X13111286Y-13039381D01*
X13101762Y-13058428D01*
X13092238Y-13067952D01*
X13073190Y-13077476D01*
X13025571Y-13077476D01*
X13006524Y-13067952D01*
X12997000Y-13058428D01*
X13187476Y-12877476D02*
X13187476Y-12915571D01*
X13263667Y-12877476D02*
X13263667Y-12915571D01*
X13558905Y-13153667D02*
X13549381Y-13144143D01*
X13530333Y-13115571D01*
X13520809Y-13096524D01*
X13511286Y-13067952D01*
X13501762Y-13020333D01*
X13501762Y-12982238D01*
X13511286Y-12934619D01*
X13520809Y-12906048D01*
X13530333Y-12887000D01*
X13549381Y-12858428D01*
X13558905Y-12848905D01*
X13720809Y-12877476D02*
X13682714Y-12877476D01*
X13663667Y-12887000D01*
X13654143Y-12896524D01*
X13635095Y-12925095D01*
X13625571Y-12963190D01*
X13625571Y-13039381D01*
X13635095Y-13058428D01*
X13644619Y-13067952D01*
X13663667Y-13077476D01*
X13701762Y-13077476D01*
X13720809Y-13067952D01*
X13730333Y-13058428D01*
X13739857Y-13039381D01*
X13739857Y-12991762D01*
X13730333Y-12972714D01*
X13720809Y-12963190D01*
X13701762Y-12953667D01*
X13663667Y-12953667D01*
X13644619Y-12963190D01*
X13635095Y-12972714D01*
X13625571Y-12991762D01*
X13977952Y-13077476D02*
X13977952Y-12877476D01*
X14063667Y-13077476D02*
X14063667Y-12972714D01*
X14054143Y-12953667D01*
X14035095Y-12944143D01*
X14006524Y-12944143D01*
X13987476Y-12953667D01*
X13977952Y-12963190D01*
X14187476Y-13077476D02*
X14168428Y-13067952D01*
X14158905Y-13058428D01*
X14149381Y-13039381D01*
X14149381Y-12982238D01*
X14158905Y-12963190D01*
X14168428Y-12953667D01*
X14187476Y-12944143D01*
X14216048Y-12944143D01*
X14235095Y-12953667D01*
X14244619Y-12963190D01*
X14254143Y-12982238D01*
X14254143Y-13039381D01*
X14244619Y-13058428D01*
X14235095Y-13067952D01*
X14216048Y-13077476D01*
X14187476Y-13077476D01*
X14368428Y-13077476D02*
X14349381Y-13067952D01*
X14339857Y-13048905D01*
X14339857Y-12877476D01*
X14520809Y-13067952D02*
X14501762Y-13077476D01*
X14463667Y-13077476D01*
X14444619Y-13067952D01*
X14435095Y-13048905D01*
X14435095Y-12972714D01*
X14444619Y-12953667D01*
X14463667Y-12944143D01*
X14501762Y-12944143D01*
X14520809Y-12953667D01*
X14530333Y-12972714D01*
X14530333Y-12991762D01*
X14435095Y-13010809D01*
X14606524Y-13067952D02*
X14625571Y-13077476D01*
X14663667Y-13077476D01*
X14682714Y-13067952D01*
X14692238Y-13048905D01*
X14692238Y-13039381D01*
X14682714Y-13020333D01*
X14663667Y-13010809D01*
X14635095Y-13010809D01*
X14616048Y-13001286D01*
X14606524Y-12982238D01*
X14606524Y-12972714D01*
X14616048Y-12953667D01*
X14635095Y-12944143D01*
X14663667Y-12944143D01*
X14682714Y-12953667D01*
X14758905Y-13153667D02*
X14768428Y-13144143D01*
X14787476Y-13115571D01*
X14797000Y-13096524D01*
X14806524Y-13067952D01*
X14816048Y-13020333D01*
X14816048Y-12982238D01*
X14806524Y-12934619D01*
X14797000Y-12906048D01*
X14787476Y-12887000D01*
X14768428Y-12858428D01*
X14758905Y-12848905D01*
D10*
X9937000Y-13301000D02*
X9987000Y-13251000D01*
X9937000Y-13201000D01*
X9887000Y-13251000D01*
X9937000Y-13301000D01*
D11*
X10349381Y-13341476D02*
X10235095Y-13341476D01*
X10292238Y-13341476D02*
X10292238Y-13141476D01*
X10273190Y-13170048D01*
X10254143Y-13189095D01*
X10235095Y-13198619D01*
X10435095Y-13322428D02*
X10444619Y-13331952D01*
X10435095Y-13341476D01*
X10425571Y-13331952D01*
X10435095Y-13322428D01*
X10435095Y-13341476D01*
X10568429Y-13141476D02*
X10587476Y-13141476D01*
X10606524Y-13151000D01*
X10616048Y-13160524D01*
X10625571Y-13179571D01*
X10635095Y-13217667D01*
X10635095Y-13265286D01*
X10625571Y-13303381D01*
X10616048Y-13322428D01*
X10606524Y-13331952D01*
X10587476Y-13341476D01*
X10568429Y-13341476D01*
X10549381Y-13331952D01*
X10539857Y-13322428D01*
X10530333Y-13303381D01*
X10520810Y-13265286D01*
X10520810Y-13217667D01*
X10530333Y-13179571D01*
X10539857Y-13160524D01*
X10549381Y-13151000D01*
X10568429Y-13141476D01*
X10758905Y-13141476D02*
X10777952Y-13141476D01*
X10797000Y-13151000D01*
X10806524Y-13160524D01*
X10816048Y-13179571D01*
X10825571Y-13217667D01*
X10825571Y-13265286D01*
X10816048Y-13303381D01*
X10806524Y-13322428D01*
X10797000Y-13331952D01*
X10777952Y-13341476D01*
X10758905Y-13341476D01*
X10739857Y-13331952D01*
X10730333Y-13322428D01*
X10720810Y-13303381D01*
X10711286Y-13265286D01*
X10711286Y-13217667D01*
X10720810Y-13179571D01*
X10730333Y-13160524D01*
X10739857Y-13151000D01*
X10758905Y-13141476D01*
X10949381Y-13141476D02*
X10968429Y-13141476D01*
X10987476Y-13151000D01*
X10997000Y-13160524D01*
X11006524Y-13179571D01*
X11016048Y-13217667D01*
X11016048Y-13265286D01*
X11006524Y-13303381D01*
X10997000Y-13322428D01*
X10987476Y-13331952D01*
X10968429Y-13341476D01*
X10949381Y-13341476D01*
X10930333Y-13331952D01*
X10920810Y-13322428D01*
X10911286Y-13303381D01*
X10901762Y-13265286D01*
X10901762Y-13217667D01*
X10911286Y-13179571D01*
X10920810Y-13160524D01*
X10930333Y-13151000D01*
X10949381Y-13141476D01*
X11101762Y-13341476D02*
X11101762Y-13208143D01*
X11101762Y-13227190D02*
X11111286Y-13217667D01*
X11130333Y-13208143D01*
X11158905Y-13208143D01*
X11177952Y-13217667D01*
X11187476Y-13236714D01*
X11187476Y-13341476D01*
X11187476Y-13236714D02*
X11197000Y-13217667D01*
X11216048Y-13208143D01*
X11244619Y-13208143D01*
X11263667Y-13217667D01*
X11273190Y-13236714D01*
X11273190Y-13341476D01*
X11368428Y-13341476D02*
X11368428Y-13208143D01*
X11368428Y-13227190D02*
X11377952Y-13217667D01*
X11397000Y-13208143D01*
X11425571Y-13208143D01*
X11444619Y-13217667D01*
X11454143Y-13236714D01*
X11454143Y-13341476D01*
X11454143Y-13236714D02*
X11463667Y-13217667D01*
X11482714Y-13208143D01*
X11511286Y-13208143D01*
X11530333Y-13217667D01*
X11539857Y-13236714D01*
X11539857Y-13341476D01*
X11930333Y-13131952D02*
X11758905Y-13389095D01*
X12187476Y-13141476D02*
X12206524Y-13141476D01*
X12225571Y-13151000D01*
X12235095Y-13160524D01*
X12244619Y-13179571D01*
X12254143Y-13217667D01*
X12254143Y-13265286D01*
X12244619Y-13303381D01*
X12235095Y-13322428D01*
X12225571Y-13331952D01*
X12206524Y-13341476D01*
X12187476Y-13341476D01*
X12168428Y-13331952D01*
X12158905Y-13322428D01*
X12149381Y-13303381D01*
X12139857Y-13265286D01*
X12139857Y-13217667D01*
X12149381Y-13179571D01*
X12158905Y-13160524D01*
X12168428Y-13151000D01*
X12187476Y-13141476D01*
X12339857Y-13322428D02*
X12349381Y-13331952D01*
X12339857Y-13341476D01*
X12330333Y-13331952D01*
X12339857Y-13322428D01*
X12339857Y-13341476D01*
X12473190Y-13141476D02*
X12492238Y-13141476D01*
X12511286Y-13151000D01*
X12520809Y-13160524D01*
X12530333Y-13179571D01*
X12539857Y-13217667D01*
X12539857Y-13265286D01*
X12530333Y-13303381D01*
X12520809Y-13322428D01*
X12511286Y-13331952D01*
X12492238Y-13341476D01*
X12473190Y-13341476D01*
X12454143Y-13331952D01*
X12444619Y-13322428D01*
X12435095Y-13303381D01*
X12425571Y-13265286D01*
X12425571Y-13217667D01*
X12435095Y-13179571D01*
X12444619Y-13160524D01*
X12454143Y-13151000D01*
X12473190Y-13141476D01*
X12606524Y-13141476D02*
X12730333Y-13141476D01*
X12663667Y-13217667D01*
X12692238Y-13217667D01*
X12711286Y-13227190D01*
X12720809Y-13236714D01*
X12730333Y-13255762D01*
X12730333Y-13303381D01*
X12720809Y-13322428D01*
X12711286Y-13331952D01*
X12692238Y-13341476D01*
X12635095Y-13341476D01*
X12616048Y-13331952D01*
X12606524Y-13322428D01*
X12825571Y-13341476D02*
X12863667Y-13341476D01*
X12882714Y-13331952D01*
X12892238Y-13322428D01*
X12911286Y-13293857D01*
X12920809Y-13255762D01*
X12920809Y-13179571D01*
X12911286Y-13160524D01*
X12901762Y-13151000D01*
X12882714Y-13141476D01*
X12844619Y-13141476D01*
X12825571Y-13151000D01*
X12816048Y-13160524D01*
X12806524Y-13179571D01*
X12806524Y-13227190D01*
X12816048Y-13246238D01*
X12825571Y-13255762D01*
X12844619Y-13265286D01*
X12882714Y-13265286D01*
X12901762Y-13255762D01*
X12911286Y-13246238D01*
X12920809Y-13227190D01*
X13092238Y-13208143D02*
X13092238Y-13341476D01*
X13044619Y-13131952D02*
X12997000Y-13274809D01*
X13120809Y-13274809D01*
X13187476Y-13141476D02*
X13187476Y-13179571D01*
X13263667Y-13141476D02*
X13263667Y-13179571D01*
X13558905Y-13417667D02*
X13549381Y-13408143D01*
X13530333Y-13379571D01*
X13520809Y-13360524D01*
X13511286Y-13331952D01*
X13501762Y-13284333D01*
X13501762Y-13246238D01*
X13511286Y-13198619D01*
X13520809Y-13170048D01*
X13530333Y-13151000D01*
X13549381Y-13122428D01*
X13558905Y-13112905D01*
X13625571Y-13160524D02*
X13635095Y-13151000D01*
X13654143Y-13141476D01*
X13701762Y-13141476D01*
X13720809Y-13151000D01*
X13730333Y-13160524D01*
X13739857Y-13179571D01*
X13739857Y-13198619D01*
X13730333Y-13227190D01*
X13616048Y-13341476D01*
X13739857Y-13341476D01*
X13911286Y-13208143D02*
X13911286Y-13341476D01*
X13863667Y-13131952D02*
X13816048Y-13274809D01*
X13939857Y-13274809D01*
X14168428Y-13341476D02*
X14168428Y-13141476D01*
X14254143Y-13341476D02*
X14254143Y-13236714D01*
X14244619Y-13217667D01*
X14225571Y-13208143D01*
X14197000Y-13208143D01*
X14177952Y-13217667D01*
X14168428Y-13227190D01*
X14377952Y-13341476D02*
X14358905Y-13331952D01*
X14349381Y-13322428D01*
X14339857Y-13303381D01*
X14339857Y-13246238D01*
X14349381Y-13227190D01*
X14358905Y-13217667D01*
X14377952Y-13208143D01*
X14406524Y-13208143D01*
X14425571Y-13217667D01*
X14435095Y-13227190D01*
X14444619Y-13246238D01*
X14444619Y-13303381D01*
X14435095Y-13322428D01*
X14425571Y-13331952D01*
X14406524Y-13341476D01*
X14377952Y-13341476D01*
X14558905Y-13341476D02*
X14539857Y-13331952D01*
X14530333Y-13312905D01*
X14530333Y-13141476D01*
X14711286Y-13331952D02*
X14692238Y-13341476D01*
X14654143Y-13341476D01*
X14635095Y-13331952D01*
X14625571Y-13312905D01*
X14625571Y-13236714D01*
X14635095Y-13217667D01*
X14654143Y-13208143D01*
X14692238Y-13208143D01*
X14711286Y-13217667D01*
X14720809Y-13236714D01*
X14720809Y-13255762D01*
X14625571Y-13274809D01*
X14797000Y-13331952D02*
X14816048Y-13341476D01*
X14854143Y-13341476D01*
X14873190Y-13331952D01*
X14882714Y-13312905D01*
X14882714Y-13303381D01*
X14873190Y-13284333D01*
X14854143Y-13274809D01*
X14825571Y-13274809D01*
X14806524Y-13265286D01*
X14797000Y-13246238D01*
X14797000Y-13236714D01*
X14806524Y-13217667D01*
X14825571Y-13208143D01*
X14854143Y-13208143D01*
X14873190Y-13217667D01*
X14949381Y-13417667D02*
X14958905Y-13408143D01*
X14977952Y-13379571D01*
X14987476Y-13360524D01*
X14997000Y-13331952D01*
X15006524Y-13284333D01*
X15006524Y-13246238D01*
X14997000Y-13198619D01*
X14987476Y-13170048D01*
X14977952Y-13151000D01*
X14958905Y-13122428D01*
X14949381Y-13112905D01*
D16*
X9849000Y-13446000D02*
X9987000Y-13584000D01*
X9987000Y-13446000D02*
X9849000Y-13584000D01*
X9987000Y-13515000D02*
G75*
G03*
X9987000Y-13515000I-69000J0D01*
G01*
D11*
X10349381Y-13605476D02*
X10235095Y-13605476D01*
X10292238Y-13605476D02*
X10292238Y-13405476D01*
X10273190Y-13434048D01*
X10254143Y-13453095D01*
X10235095Y-13462619D01*
X10435095Y-13586428D02*
X10444619Y-13595952D01*
X10435095Y-13605476D01*
X10425571Y-13595952D01*
X10435095Y-13586428D01*
X10435095Y-13605476D01*
X10511286Y-13405476D02*
X10635095Y-13405476D01*
X10568429Y-13481667D01*
X10597000Y-13481667D01*
X10616048Y-13491190D01*
X10625571Y-13500714D01*
X10635095Y-13519762D01*
X10635095Y-13567381D01*
X10625571Y-13586428D01*
X10616048Y-13595952D01*
X10597000Y-13605476D01*
X10539857Y-13605476D01*
X10520810Y-13595952D01*
X10511286Y-13586428D01*
X10749381Y-13491190D02*
X10730333Y-13481667D01*
X10720810Y-13472143D01*
X10711286Y-13453095D01*
X10711286Y-13443571D01*
X10720810Y-13424524D01*
X10730333Y-13415000D01*
X10749381Y-13405476D01*
X10787476Y-13405476D01*
X10806524Y-13415000D01*
X10816048Y-13424524D01*
X10825571Y-13443571D01*
X10825571Y-13453095D01*
X10816048Y-13472143D01*
X10806524Y-13481667D01*
X10787476Y-13491190D01*
X10749381Y-13491190D01*
X10730333Y-13500714D01*
X10720810Y-13510238D01*
X10711286Y-13529286D01*
X10711286Y-13567381D01*
X10720810Y-13586428D01*
X10730333Y-13595952D01*
X10749381Y-13605476D01*
X10787476Y-13605476D01*
X10806524Y-13595952D01*
X10816048Y-13586428D01*
X10825571Y-13567381D01*
X10825571Y-13529286D01*
X10816048Y-13510238D01*
X10806524Y-13500714D01*
X10787476Y-13491190D01*
X10949381Y-13405476D02*
X10968429Y-13405476D01*
X10987476Y-13415000D01*
X10997000Y-13424524D01*
X11006524Y-13443571D01*
X11016048Y-13481667D01*
X11016048Y-13529286D01*
X11006524Y-13567381D01*
X10997000Y-13586428D01*
X10987476Y-13595952D01*
X10968429Y-13605476D01*
X10949381Y-13605476D01*
X10930333Y-13595952D01*
X10920810Y-13586428D01*
X10911286Y-13567381D01*
X10901762Y-13529286D01*
X10901762Y-13481667D01*
X10911286Y-13443571D01*
X10920810Y-13424524D01*
X10930333Y-13415000D01*
X10949381Y-13405476D01*
X11101762Y-13605476D02*
X11101762Y-13472143D01*
X11101762Y-13491190D02*
X11111286Y-13481667D01*
X11130333Y-13472143D01*
X11158905Y-13472143D01*
X11177952Y-13481667D01*
X11187476Y-13500714D01*
X11187476Y-13605476D01*
X11187476Y-13500714D02*
X11197000Y-13481667D01*
X11216048Y-13472143D01*
X11244619Y-13472143D01*
X11263667Y-13481667D01*
X11273190Y-13500714D01*
X11273190Y-13605476D01*
X11368428Y-13605476D02*
X11368428Y-13472143D01*
X11368428Y-13491190D02*
X11377952Y-13481667D01*
X11397000Y-13472143D01*
X11425571Y-13472143D01*
X11444619Y-13481667D01*
X11454143Y-13500714D01*
X11454143Y-13605476D01*
X11454143Y-13500714D02*
X11463667Y-13481667D01*
X11482714Y-13472143D01*
X11511286Y-13472143D01*
X11530333Y-13481667D01*
X11539857Y-13500714D01*
X11539857Y-13605476D01*
X11930333Y-13395952D02*
X11758905Y-13653095D01*
X12187476Y-13405476D02*
X12206524Y-13405476D01*
X12225571Y-13415000D01*
X12235095Y-13424524D01*
X12244619Y-13443571D01*
X12254143Y-13481667D01*
X12254143Y-13529286D01*
X12244619Y-13567381D01*
X12235095Y-13586428D01*
X12225571Y-13595952D01*
X12206524Y-13605476D01*
X12187476Y-13605476D01*
X12168428Y-13595952D01*
X12158905Y-13586428D01*
X12149381Y-13567381D01*
X12139857Y-13529286D01*
X12139857Y-13481667D01*
X12149381Y-13443571D01*
X12158905Y-13424524D01*
X12168428Y-13415000D01*
X12187476Y-13405476D01*
X12339857Y-13586428D02*
X12349381Y-13595952D01*
X12339857Y-13605476D01*
X12330333Y-13595952D01*
X12339857Y-13586428D01*
X12339857Y-13605476D01*
X12473190Y-13405476D02*
X12492238Y-13405476D01*
X12511286Y-13415000D01*
X12520809Y-13424524D01*
X12530333Y-13443571D01*
X12539857Y-13481667D01*
X12539857Y-13529286D01*
X12530333Y-13567381D01*
X12520809Y-13586428D01*
X12511286Y-13595952D01*
X12492238Y-13605476D01*
X12473190Y-13605476D01*
X12454143Y-13595952D01*
X12444619Y-13586428D01*
X12435095Y-13567381D01*
X12425571Y-13529286D01*
X12425571Y-13481667D01*
X12435095Y-13443571D01*
X12444619Y-13424524D01*
X12454143Y-13415000D01*
X12473190Y-13405476D01*
X12720809Y-13405476D02*
X12625571Y-13405476D01*
X12616048Y-13500714D01*
X12625571Y-13491190D01*
X12644619Y-13481667D01*
X12692238Y-13481667D01*
X12711286Y-13491190D01*
X12720809Y-13500714D01*
X12730333Y-13519762D01*
X12730333Y-13567381D01*
X12720809Y-13586428D01*
X12711286Y-13595952D01*
X12692238Y-13605476D01*
X12644619Y-13605476D01*
X12625571Y-13595952D01*
X12616048Y-13586428D01*
X12901762Y-13472143D02*
X12901762Y-13605476D01*
X12854143Y-13395952D02*
X12806524Y-13538809D01*
X12930333Y-13538809D01*
X12987476Y-13405476D02*
X13111286Y-13405476D01*
X13044619Y-13481667D01*
X13073190Y-13481667D01*
X13092238Y-13491190D01*
X13101762Y-13500714D01*
X13111286Y-13519762D01*
X13111286Y-13567381D01*
X13101762Y-13586428D01*
X13092238Y-13595952D01*
X13073190Y-13605476D01*
X13016048Y-13605476D01*
X12997000Y-13595952D01*
X12987476Y-13586428D01*
X13187476Y-13405476D02*
X13187476Y-13443571D01*
X13263667Y-13405476D02*
X13263667Y-13443571D01*
X13558905Y-13681667D02*
X13549381Y-13672143D01*
X13530333Y-13643571D01*
X13520809Y-13624524D01*
X13511286Y-13595952D01*
X13501762Y-13548333D01*
X13501762Y-13510238D01*
X13511286Y-13462619D01*
X13520809Y-13434048D01*
X13530333Y-13415000D01*
X13549381Y-13386428D01*
X13558905Y-13376905D01*
X13673190Y-13405476D02*
X13692238Y-13405476D01*
X13711286Y-13415000D01*
X13720809Y-13424524D01*
X13730333Y-13443571D01*
X13739857Y-13481667D01*
X13739857Y-13529286D01*
X13730333Y-13567381D01*
X13720809Y-13586428D01*
X13711286Y-13595952D01*
X13692238Y-13605476D01*
X13673190Y-13605476D01*
X13654143Y-13595952D01*
X13644619Y-13586428D01*
X13635095Y-13567381D01*
X13625571Y-13529286D01*
X13625571Y-13481667D01*
X13635095Y-13443571D01*
X13644619Y-13424524D01*
X13654143Y-13415000D01*
X13673190Y-13405476D01*
X13977952Y-13605476D02*
X13977952Y-13405476D01*
X14063667Y-13605476D02*
X14063667Y-13500714D01*
X14054143Y-13481667D01*
X14035095Y-13472143D01*
X14006524Y-13472143D01*
X13987476Y-13481667D01*
X13977952Y-13491190D01*
X14187476Y-13605476D02*
X14168428Y-13595952D01*
X14158905Y-13586428D01*
X14149381Y-13567381D01*
X14149381Y-13510238D01*
X14158905Y-13491190D01*
X14168428Y-13481667D01*
X14187476Y-13472143D01*
X14216048Y-13472143D01*
X14235095Y-13481667D01*
X14244619Y-13491190D01*
X14254143Y-13510238D01*
X14254143Y-13567381D01*
X14244619Y-13586428D01*
X14235095Y-13595952D01*
X14216048Y-13605476D01*
X14187476Y-13605476D01*
X14368428Y-13605476D02*
X14349381Y-13595952D01*
X14339857Y-13576905D01*
X14339857Y-13405476D01*
X14520809Y-13595952D02*
X14501762Y-13605476D01*
X14463667Y-13605476D01*
X14444619Y-13595952D01*
X14435095Y-13576905D01*
X14435095Y-13500714D01*
X14444619Y-13481667D01*
X14463667Y-13472143D01*
X14501762Y-13472143D01*
X14520809Y-13481667D01*
X14530333Y-13500714D01*
X14530333Y-13519762D01*
X14435095Y-13538809D01*
X14606524Y-13595952D02*
X14625571Y-13605476D01*
X14663667Y-13605476D01*
X14682714Y-13595952D01*
X14692238Y-13576905D01*
X14692238Y-13567381D01*
X14682714Y-13548333D01*
X14663667Y-13538809D01*
X14635095Y-13538809D01*
X14616048Y-13529286D01*
X14606524Y-13510238D01*
X14606524Y-13500714D01*
X14616048Y-13481667D01*
X14635095Y-13472143D01*
X14663667Y-13472143D01*
X14682714Y-13481667D01*
X14930333Y-13529286D02*
X15082714Y-13529286D01*
X15006524Y-13605476D02*
X15006524Y-13453095D01*
X15320809Y-13424524D02*
X15330333Y-13415000D01*
X15349381Y-13405476D01*
X15397000Y-13405476D01*
X15416048Y-13415000D01*
X15425571Y-13424524D01*
X15435095Y-13443571D01*
X15435095Y-13462619D01*
X15425571Y-13491190D01*
X15311286Y-13605476D01*
X15435095Y-13605476D01*
X15663667Y-13595952D02*
X15682714Y-13605476D01*
X15720809Y-13605476D01*
X15739857Y-13595952D01*
X15749381Y-13576905D01*
X15749381Y-13567381D01*
X15739857Y-13548333D01*
X15720809Y-13538809D01*
X15692238Y-13538809D01*
X15673190Y-13529286D01*
X15663667Y-13510238D01*
X15663667Y-13500714D01*
X15673190Y-13481667D01*
X15692238Y-13472143D01*
X15720809Y-13472143D01*
X15739857Y-13481667D01*
X15863667Y-13605476D02*
X15844619Y-13595952D01*
X15835095Y-13576905D01*
X15835095Y-13405476D01*
X15968428Y-13605476D02*
X15949381Y-13595952D01*
X15939857Y-13586428D01*
X15930333Y-13567381D01*
X15930333Y-13510238D01*
X15939857Y-13491190D01*
X15949381Y-13481667D01*
X15968428Y-13472143D01*
X15997000Y-13472143D01*
X16016048Y-13481667D01*
X16025571Y-13491190D01*
X16035095Y-13510238D01*
X16035095Y-13567381D01*
X16025571Y-13586428D01*
X16016048Y-13595952D01*
X15997000Y-13605476D01*
X15968428Y-13605476D01*
X16092238Y-13472143D02*
X16168428Y-13472143D01*
X16120809Y-13405476D02*
X16120809Y-13576905D01*
X16130333Y-13595952D01*
X16149381Y-13605476D01*
X16168428Y-13605476D01*
X16225571Y-13595952D02*
X16244619Y-13605476D01*
X16282714Y-13605476D01*
X16301762Y-13595952D01*
X16311286Y-13576905D01*
X16311286Y-13567381D01*
X16301762Y-13548333D01*
X16282714Y-13538809D01*
X16254143Y-13538809D01*
X16235095Y-13529286D01*
X16225571Y-13510238D01*
X16225571Y-13500714D01*
X16235095Y-13481667D01*
X16254143Y-13472143D01*
X16282714Y-13472143D01*
X16301762Y-13481667D01*
X16377952Y-13681667D02*
X16387476Y-13672143D01*
X16406524Y-13643571D01*
X16416048Y-13624524D01*
X16425571Y-13595952D01*
X16435095Y-13548333D01*
X16435095Y-13510238D01*
X16425571Y-13462619D01*
X16416048Y-13434048D01*
X16406524Y-13415000D01*
X16387476Y-13386428D01*
X16377952Y-13376905D01*
D17*
X9827000Y-13699000D02*
X9987000Y-13859000D01*
X9987000Y-13699000D02*
X9827000Y-13859000D01*
X9907000Y-13699000D02*
X9907000Y-13859000D01*
X9827000Y-13779000D02*
X9987000Y-13779000D01*
D11*
X10349381Y-13869476D02*
X10235095Y-13869476D01*
X10292238Y-13869476D02*
X10292238Y-13669476D01*
X10273190Y-13698048D01*
X10254143Y-13717095D01*
X10235095Y-13726619D01*
X10435095Y-13850428D02*
X10444619Y-13859952D01*
X10435095Y-13869476D01*
X10425571Y-13859952D01*
X10435095Y-13850428D01*
X10435095Y-13869476D01*
X10616048Y-13669476D02*
X10577952Y-13669476D01*
X10558905Y-13679000D01*
X10549381Y-13688524D01*
X10530333Y-13717095D01*
X10520810Y-13755190D01*
X10520810Y-13831381D01*
X10530333Y-13850428D01*
X10539857Y-13859952D01*
X10558905Y-13869476D01*
X10597000Y-13869476D01*
X10616048Y-13859952D01*
X10625571Y-13850428D01*
X10635095Y-13831381D01*
X10635095Y-13783762D01*
X10625571Y-13764714D01*
X10616048Y-13755190D01*
X10597000Y-13745667D01*
X10558905Y-13745667D01*
X10539857Y-13755190D01*
X10530333Y-13764714D01*
X10520810Y-13783762D01*
X10758905Y-13669476D02*
X10777952Y-13669476D01*
X10797000Y-13679000D01*
X10806524Y-13688524D01*
X10816048Y-13707571D01*
X10825571Y-13745667D01*
X10825571Y-13793286D01*
X10816048Y-13831381D01*
X10806524Y-13850428D01*
X10797000Y-13859952D01*
X10777952Y-13869476D01*
X10758905Y-13869476D01*
X10739857Y-13859952D01*
X10730333Y-13850428D01*
X10720810Y-13831381D01*
X10711286Y-13793286D01*
X10711286Y-13745667D01*
X10720810Y-13707571D01*
X10730333Y-13688524D01*
X10739857Y-13679000D01*
X10758905Y-13669476D01*
X10949381Y-13669476D02*
X10968429Y-13669476D01*
X10987476Y-13679000D01*
X10997000Y-13688524D01*
X11006524Y-13707571D01*
X11016048Y-13745667D01*
X11016048Y-13793286D01*
X11006524Y-13831381D01*
X10997000Y-13850428D01*
X10987476Y-13859952D01*
X10968429Y-13869476D01*
X10949381Y-13869476D01*
X10930333Y-13859952D01*
X10920810Y-13850428D01*
X10911286Y-13831381D01*
X10901762Y-13793286D01*
X10901762Y-13745667D01*
X10911286Y-13707571D01*
X10920810Y-13688524D01*
X10930333Y-13679000D01*
X10949381Y-13669476D01*
X11101762Y-13869476D02*
X11101762Y-13736143D01*
X11101762Y-13755190D02*
X11111286Y-13745667D01*
X11130333Y-13736143D01*
X11158905Y-13736143D01*
X11177952Y-13745667D01*
X11187476Y-13764714D01*
X11187476Y-13869476D01*
X11187476Y-13764714D02*
X11197000Y-13745667D01*
X11216048Y-13736143D01*
X11244619Y-13736143D01*
X11263667Y-13745667D01*
X11273190Y-13764714D01*
X11273190Y-13869476D01*
X11368428Y-13869476D02*
X11368428Y-13736143D01*
X11368428Y-13755190D02*
X11377952Y-13745667D01*
X11397000Y-13736143D01*
X11425571Y-13736143D01*
X11444619Y-13745667D01*
X11454143Y-13764714D01*
X11454143Y-13869476D01*
X11454143Y-13764714D02*
X11463667Y-13745667D01*
X11482714Y-13736143D01*
X11511286Y-13736143D01*
X11530333Y-13745667D01*
X11539857Y-13764714D01*
X11539857Y-13869476D01*
X11930333Y-13659952D02*
X11758905Y-13917095D01*
X12187476Y-13669476D02*
X12206524Y-13669476D01*
X12225571Y-13679000D01*
X12235095Y-13688524D01*
X12244619Y-13707571D01*
X12254143Y-13745667D01*
X12254143Y-13793286D01*
X12244619Y-13831381D01*
X12235095Y-13850428D01*
X12225571Y-13859952D01*
X12206524Y-13869476D01*
X12187476Y-13869476D01*
X12168428Y-13859952D01*
X12158905Y-13850428D01*
X12149381Y-13831381D01*
X12139857Y-13793286D01*
X12139857Y-13745667D01*
X12149381Y-13707571D01*
X12158905Y-13688524D01*
X12168428Y-13679000D01*
X12187476Y-13669476D01*
X12339857Y-13850428D02*
X12349381Y-13859952D01*
X12339857Y-13869476D01*
X12330333Y-13859952D01*
X12339857Y-13850428D01*
X12339857Y-13869476D01*
X12473190Y-13669476D02*
X12492238Y-13669476D01*
X12511286Y-13679000D01*
X12520809Y-13688524D01*
X12530333Y-13707571D01*
X12539857Y-13745667D01*
X12539857Y-13793286D01*
X12530333Y-13831381D01*
X12520809Y-13850428D01*
X12511286Y-13859952D01*
X12492238Y-13869476D01*
X12473190Y-13869476D01*
X12454143Y-13859952D01*
X12444619Y-13850428D01*
X12435095Y-13831381D01*
X12425571Y-13793286D01*
X12425571Y-13745667D01*
X12435095Y-13707571D01*
X12444619Y-13688524D01*
X12454143Y-13679000D01*
X12473190Y-13669476D01*
X12711286Y-13669476D02*
X12673190Y-13669476D01*
X12654143Y-13679000D01*
X12644619Y-13688524D01*
X12625571Y-13717095D01*
X12616048Y-13755190D01*
X12616048Y-13831381D01*
X12625571Y-13850428D01*
X12635095Y-13859952D01*
X12654143Y-13869476D01*
X12692238Y-13869476D01*
X12711286Y-13859952D01*
X12720809Y-13850428D01*
X12730333Y-13831381D01*
X12730333Y-13783762D01*
X12720809Y-13764714D01*
X12711286Y-13755190D01*
X12692238Y-13745667D01*
X12654143Y-13745667D01*
X12635095Y-13755190D01*
X12625571Y-13764714D01*
X12616048Y-13783762D01*
X12797000Y-13669476D02*
X12920809Y-13669476D01*
X12854143Y-13745667D01*
X12882714Y-13745667D01*
X12901762Y-13755190D01*
X12911286Y-13764714D01*
X12920809Y-13783762D01*
X12920809Y-13831381D01*
X12911286Y-13850428D01*
X12901762Y-13859952D01*
X12882714Y-13869476D01*
X12825571Y-13869476D01*
X12806524Y-13859952D01*
X12797000Y-13850428D01*
X13044619Y-13669476D02*
X13063667Y-13669476D01*
X13082714Y-13679000D01*
X13092238Y-13688524D01*
X13101762Y-13707571D01*
X13111286Y-13745667D01*
X13111286Y-13793286D01*
X13101762Y-13831381D01*
X13092238Y-13850428D01*
X13082714Y-13859952D01*
X13063667Y-13869476D01*
X13044619Y-13869476D01*
X13025571Y-13859952D01*
X13016048Y-13850428D01*
X13006524Y-13831381D01*
X12997000Y-13793286D01*
X12997000Y-13745667D01*
X13006524Y-13707571D01*
X13016048Y-13688524D01*
X13025571Y-13679000D01*
X13044619Y-13669476D01*
X13187476Y-13669476D02*
X13187476Y-13707571D01*
X13263667Y-13669476D02*
X13263667Y-13707571D01*
X13558905Y-13945667D02*
X13549381Y-13936143D01*
X13530333Y-13907571D01*
X13520809Y-13888524D01*
X13511286Y-13859952D01*
X13501762Y-13812333D01*
X13501762Y-13774238D01*
X13511286Y-13726619D01*
X13520809Y-13698048D01*
X13530333Y-13679000D01*
X13549381Y-13650428D01*
X13558905Y-13640905D01*
X13739857Y-13869476D02*
X13625571Y-13869476D01*
X13682714Y-13869476D02*
X13682714Y-13669476D01*
X13663667Y-13698048D01*
X13644619Y-13717095D01*
X13625571Y-13726619D01*
X13968428Y-13859952D02*
X13987476Y-13869476D01*
X14025571Y-13869476D01*
X14044619Y-13859952D01*
X14054143Y-13840905D01*
X14054143Y-13831381D01*
X14044619Y-13812333D01*
X14025571Y-13802809D01*
X13997000Y-13802809D01*
X13977952Y-13793286D01*
X13968428Y-13774238D01*
X13968428Y-13764714D01*
X13977952Y-13745667D01*
X13997000Y-13736143D01*
X14025571Y-13736143D01*
X14044619Y-13745667D01*
X14168428Y-13869476D02*
X14149381Y-13859952D01*
X14139857Y-13840905D01*
X14139857Y-13669476D01*
X14273190Y-13869476D02*
X14254143Y-13859952D01*
X14244619Y-13850428D01*
X14235095Y-13831381D01*
X14235095Y-13774238D01*
X14244619Y-13755190D01*
X14254143Y-13745667D01*
X14273190Y-13736143D01*
X14301762Y-13736143D01*
X14320809Y-13745667D01*
X14330333Y-13755190D01*
X14339857Y-13774238D01*
X14339857Y-13831381D01*
X14330333Y-13850428D01*
X14320809Y-13859952D01*
X14301762Y-13869476D01*
X14273190Y-13869476D01*
X14397000Y-13736143D02*
X14473190Y-13736143D01*
X14425571Y-13669476D02*
X14425571Y-13840905D01*
X14435095Y-13859952D01*
X14454143Y-13869476D01*
X14473190Y-13869476D01*
X14520809Y-13945667D02*
X14530333Y-13936143D01*
X14549381Y-13907571D01*
X14558905Y-13888524D01*
X14568428Y-13859952D01*
X14577952Y-13812333D01*
X14577952Y-13774238D01*
X14568428Y-13726619D01*
X14558905Y-13698048D01*
X14549381Y-13679000D01*
X14530333Y-13650428D01*
X14520809Y-13640905D01*
X9787000Y-13959000D02*
X9987000Y-14159000D01*
X9987000Y-13959000D02*
X9787000Y-14159000D01*
X9957711Y-14129711D02*
X9957711Y-13988289D01*
X9816289Y-13988289D01*
X9816289Y-14129711D01*
X9957711Y-14129711D01*
X10225571Y-13949476D02*
X10349381Y-13949476D01*
X10282714Y-14025667D01*
X10311286Y-14025667D01*
X10330333Y-14035190D01*
X10339857Y-14044714D01*
X10349381Y-14063762D01*
X10349381Y-14111381D01*
X10339857Y-14130428D01*
X10330333Y-14139952D01*
X10311286Y-14149476D01*
X10254143Y-14149476D01*
X10235095Y-14139952D01*
X10225571Y-14130428D01*
X10435095Y-14130428D02*
X10444619Y-14139952D01*
X10435095Y-14149476D01*
X10425571Y-14139952D01*
X10435095Y-14130428D01*
X10435095Y-14149476D01*
X10625571Y-13949476D02*
X10530333Y-13949476D01*
X10520810Y-14044714D01*
X10530333Y-14035190D01*
X10549381Y-14025667D01*
X10597000Y-14025667D01*
X10616048Y-14035190D01*
X10625571Y-14044714D01*
X10635095Y-14063762D01*
X10635095Y-14111381D01*
X10625571Y-14130428D01*
X10616048Y-14139952D01*
X10597000Y-14149476D01*
X10549381Y-14149476D01*
X10530333Y-14139952D01*
X10520810Y-14130428D01*
X10758905Y-13949476D02*
X10777952Y-13949476D01*
X10797000Y-13959000D01*
X10806524Y-13968524D01*
X10816048Y-13987571D01*
X10825571Y-14025667D01*
X10825571Y-14073286D01*
X10816048Y-14111381D01*
X10806524Y-14130428D01*
X10797000Y-14139952D01*
X10777952Y-14149476D01*
X10758905Y-14149476D01*
X10739857Y-14139952D01*
X10730333Y-14130428D01*
X10720810Y-14111381D01*
X10711286Y-14073286D01*
X10711286Y-14025667D01*
X10720810Y-13987571D01*
X10730333Y-13968524D01*
X10739857Y-13959000D01*
X10758905Y-13949476D01*
X10949381Y-13949476D02*
X10968429Y-13949476D01*
X10987476Y-13959000D01*
X10997000Y-13968524D01*
X11006524Y-13987571D01*
X11016048Y-14025667D01*
X11016048Y-14073286D01*
X11006524Y-14111381D01*
X10997000Y-14130428D01*
X10987476Y-14139952D01*
X10968429Y-14149476D01*
X10949381Y-14149476D01*
X10930333Y-14139952D01*
X10920810Y-14130428D01*
X10911286Y-14111381D01*
X10901762Y-14073286D01*
X10901762Y-14025667D01*
X10911286Y-13987571D01*
X10920810Y-13968524D01*
X10930333Y-13959000D01*
X10949381Y-13949476D01*
X11101762Y-14149476D02*
X11101762Y-14016143D01*
X11101762Y-14035190D02*
X11111286Y-14025667D01*
X11130333Y-14016143D01*
X11158905Y-14016143D01*
X11177952Y-14025667D01*
X11187476Y-14044714D01*
X11187476Y-14149476D01*
X11187476Y-14044714D02*
X11197000Y-14025667D01*
X11216048Y-14016143D01*
X11244619Y-14016143D01*
X11263667Y-14025667D01*
X11273190Y-14044714D01*
X11273190Y-14149476D01*
X11368428Y-14149476D02*
X11368428Y-14016143D01*
X11368428Y-14035190D02*
X11377952Y-14025667D01*
X11397000Y-14016143D01*
X11425571Y-14016143D01*
X11444619Y-14025667D01*
X11454143Y-14044714D01*
X11454143Y-14149476D01*
X11454143Y-14044714D02*
X11463667Y-14025667D01*
X11482714Y-14016143D01*
X11511286Y-14016143D01*
X11530333Y-14025667D01*
X11539857Y-14044714D01*
X11539857Y-14149476D01*
X11930333Y-13939952D02*
X11758905Y-14197095D01*
X12187476Y-13949476D02*
X12206524Y-13949476D01*
X12225571Y-13959000D01*
X12235095Y-13968524D01*
X12244619Y-13987571D01*
X12254143Y-14025667D01*
X12254143Y-14073286D01*
X12244619Y-14111381D01*
X12235095Y-14130428D01*
X12225571Y-14139952D01*
X12206524Y-14149476D01*
X12187476Y-14149476D01*
X12168428Y-14139952D01*
X12158905Y-14130428D01*
X12149381Y-14111381D01*
X12139857Y-14073286D01*
X12139857Y-14025667D01*
X12149381Y-13987571D01*
X12158905Y-13968524D01*
X12168428Y-13959000D01*
X12187476Y-13949476D01*
X12339857Y-14130428D02*
X12349381Y-14139952D01*
X12339857Y-14149476D01*
X12330333Y-14139952D01*
X12339857Y-14130428D01*
X12339857Y-14149476D01*
X12539857Y-14149476D02*
X12425571Y-14149476D01*
X12482714Y-14149476D02*
X12482714Y-13949476D01*
X12463667Y-13978048D01*
X12444619Y-13997095D01*
X12425571Y-14006619D01*
X12606524Y-13949476D02*
X12730333Y-13949476D01*
X12663667Y-14025667D01*
X12692238Y-14025667D01*
X12711286Y-14035190D01*
X12720809Y-14044714D01*
X12730333Y-14063762D01*
X12730333Y-14111381D01*
X12720809Y-14130428D01*
X12711286Y-14139952D01*
X12692238Y-14149476D01*
X12635095Y-14149476D01*
X12616048Y-14139952D01*
X12606524Y-14130428D01*
X12797000Y-13949476D02*
X12930333Y-13949476D01*
X12844619Y-14149476D01*
X13035095Y-14035190D02*
X13016048Y-14025667D01*
X13006524Y-14016143D01*
X12997000Y-13997095D01*
X12997000Y-13987571D01*
X13006524Y-13968524D01*
X13016048Y-13959000D01*
X13035095Y-13949476D01*
X13073190Y-13949476D01*
X13092238Y-13959000D01*
X13101762Y-13968524D01*
X13111286Y-13987571D01*
X13111286Y-13997095D01*
X13101762Y-14016143D01*
X13092238Y-14025667D01*
X13073190Y-14035190D01*
X13035095Y-14035190D01*
X13016048Y-14044714D01*
X13006524Y-14054238D01*
X12997000Y-14073286D01*
X12997000Y-14111381D01*
X13006524Y-14130428D01*
X13016048Y-14139952D01*
X13035095Y-14149476D01*
X13073190Y-14149476D01*
X13092238Y-14139952D01*
X13101762Y-14130428D01*
X13111286Y-14111381D01*
X13111286Y-14073286D01*
X13101762Y-14054238D01*
X13092238Y-14044714D01*
X13073190Y-14035190D01*
X13187476Y-13949476D02*
X13187476Y-13987571D01*
X13263667Y-13949476D02*
X13263667Y-13987571D01*
X13558905Y-14225667D02*
X13549381Y-14216143D01*
X13530333Y-14187571D01*
X13520809Y-14168524D01*
X13511286Y-14139952D01*
X13501762Y-14092333D01*
X13501762Y-14054238D01*
X13511286Y-14006619D01*
X13520809Y-13978048D01*
X13530333Y-13959000D01*
X13549381Y-13930428D01*
X13558905Y-13920905D01*
X13720809Y-14016143D02*
X13720809Y-14149476D01*
X13673190Y-13939952D02*
X13625571Y-14082809D01*
X13749381Y-14082809D01*
X13977952Y-14149476D02*
X13977952Y-13949476D01*
X14063667Y-14149476D02*
X14063667Y-14044714D01*
X14054143Y-14025667D01*
X14035095Y-14016143D01*
X14006524Y-14016143D01*
X13987476Y-14025667D01*
X13977952Y-14035190D01*
X14187476Y-14149476D02*
X14168428Y-14139952D01*
X14158905Y-14130428D01*
X14149381Y-14111381D01*
X14149381Y-14054238D01*
X14158905Y-14035190D01*
X14168428Y-14025667D01*
X14187476Y-14016143D01*
X14216048Y-14016143D01*
X14235095Y-14025667D01*
X14244619Y-14035190D01*
X14254143Y-14054238D01*
X14254143Y-14111381D01*
X14244619Y-14130428D01*
X14235095Y-14139952D01*
X14216048Y-14149476D01*
X14187476Y-14149476D01*
X14368428Y-14149476D02*
X14349381Y-14139952D01*
X14339857Y-14120905D01*
X14339857Y-13949476D01*
X14520809Y-14139952D02*
X14501762Y-14149476D01*
X14463667Y-14149476D01*
X14444619Y-14139952D01*
X14435095Y-14120905D01*
X14435095Y-14044714D01*
X14444619Y-14025667D01*
X14463667Y-14016143D01*
X14501762Y-14016143D01*
X14520809Y-14025667D01*
X14530333Y-14044714D01*
X14530333Y-14063762D01*
X14435095Y-14082809D01*
X14606524Y-14139952D02*
X14625571Y-14149476D01*
X14663667Y-14149476D01*
X14682714Y-14139952D01*
X14692238Y-14120905D01*
X14692238Y-14111381D01*
X14682714Y-14092333D01*
X14663667Y-14082809D01*
X14635095Y-14082809D01*
X14616048Y-14073286D01*
X14606524Y-14054238D01*
X14606524Y-14044714D01*
X14616048Y-14025667D01*
X14635095Y-14016143D01*
X14663667Y-14016143D01*
X14682714Y-14025667D01*
X14758905Y-14225667D02*
X14768428Y-14216143D01*
X14787476Y-14187571D01*
X14797000Y-14168524D01*
X14806524Y-14139952D01*
X14816048Y-14092333D01*
X14816048Y-14054238D01*
X14806524Y-14006619D01*
X14797000Y-13978048D01*
X14787476Y-13959000D01*
X14768428Y-13930428D01*
X14758905Y-13920905D01*
M02*
