G04 #@! TF.GenerationSoftware,KiCad,Pcbnew,6.0.7+dfsg-1~bpo11+1*
G04 #@! TF.ProjectId,wiscale,77697363-616c-4652-9e6b-696361645f70,1.0a*
G04 #@! TF.SameCoordinates,Original*
G04 #@! TF.FileFunction,Soldermask,Bot*
G04 #@! TF.FilePolarity,Negative*
%FSLAX46Y46*%
G04 Gerber Fmt 4.6, Leading zero omitted, Abs format (unit mm)*
%MOMM*%
%LPD*%
G01*
G04 APERTURE LIST*
%ADD10C,0.650000*%
%ADD11O,2.100000X1.000000*%
%ADD12O,1.600000X1.000000*%
%ADD13C,3.200000*%
%ADD14O,3.440000X6.880000*%
%ADD15C,1.500000*%
%ADD16C,2.000000*%
%ADD17R,2.000000X2.000000*%
%ADD18O,4.500000X1.600000*%
%ADD19O,5.000000X2.000000*%
%ADD20C,0.900000*%
%ADD21R,1.700000X1.700000*%
%ADD22O,1.700000X1.700000*%
%ADD23C,0.800000*%
%ADD24C,7.000000*%
%ADD25R,1.050000X1.500000*%
%ADD26O,1.050000X1.500000*%
G04 APERTURE END LIST*
D10*
X194900000Y-90310000D03*
X194900000Y-96090000D03*
D11*
X194370000Y-97520000D03*
D12*
X198550000Y-97520000D03*
D11*
X194370000Y-88880000D03*
D12*
X198550000Y-88880000D03*
D13*
X175610000Y-70000000D03*
X120000000Y-70000000D03*
D14*
X184620000Y-70000000D03*
X111720000Y-70000000D03*
D15*
X184622500Y-106400714D03*
X184622500Y-112400714D03*
D16*
X182022500Y-109900714D03*
X187222500Y-109900714D03*
X187222500Y-113300714D03*
X182022500Y-113300714D03*
X182022500Y-106400714D03*
X187222500Y-106400714D03*
D17*
X174870000Y-96850000D03*
X174870000Y-89650000D03*
X197870000Y-100250000D03*
X197870000Y-86250000D03*
X174870000Y-100250000D03*
X174870000Y-86250000D03*
D18*
X145170000Y-65750000D03*
D19*
X145170000Y-80750000D03*
D20*
X197015000Y-71715000D03*
X197015000Y-68715000D03*
D21*
X162192500Y-86935714D03*
D22*
X159652500Y-86935714D03*
X157112500Y-86935714D03*
X154572500Y-86935714D03*
D23*
X197545000Y-80500000D03*
D24*
X194920000Y-80500000D03*
D23*
X192295000Y-80500000D03*
X194920000Y-77875000D03*
X194920000Y-83125000D03*
X196776155Y-78643845D03*
X196776155Y-82356155D03*
X193063845Y-82356155D03*
X193063845Y-78643845D03*
X197545000Y-110500000D03*
X196776155Y-112356155D03*
X194920000Y-113125000D03*
X192295000Y-110500000D03*
X194920000Y-107875000D03*
X193063845Y-108643845D03*
D24*
X194920000Y-110500000D03*
D23*
X193063845Y-112356155D03*
X196776155Y-108643845D03*
D25*
X174546612Y-104500714D03*
D26*
X173276612Y-104500714D03*
X172006612Y-104500714D03*
D25*
X184892500Y-104440714D03*
D26*
X183622500Y-104440714D03*
X182352500Y-104440714D03*
D23*
X106776155Y-108643845D03*
X107545000Y-110500000D03*
X106776155Y-112356155D03*
D24*
X104920000Y-110500000D03*
D23*
X103063845Y-112356155D03*
X104920000Y-107875000D03*
X102295000Y-110500000D03*
X104920000Y-113125000D03*
X103063845Y-108643845D03*
D15*
X174276612Y-106375714D03*
X174276612Y-112375714D03*
D16*
X171676612Y-109875714D03*
X176876612Y-109875714D03*
X176876612Y-113275714D03*
X171676612Y-113275714D03*
X171676612Y-106375714D03*
X176876612Y-106375714D03*
D23*
X107545000Y-80500000D03*
X103063845Y-82356155D03*
X102295000Y-80500000D03*
X104920000Y-77875000D03*
X103063845Y-78643845D03*
X106776155Y-78643845D03*
D24*
X104920000Y-80500000D03*
D23*
X104920000Y-83125000D03*
X106776155Y-82356155D03*
D21*
X174982500Y-82587500D03*
D22*
X177522500Y-82587500D03*
M02*
