G04 #@! TF.GenerationSoftware,KiCad,Pcbnew,6.0.7+dfsg-1~bpo11+1*
G04 #@! TF.ProjectId,wiscale,77697363-616c-4652-9e6b-696361645f70,1.0*
G04 #@! TF.SameCoordinates,Original*
G04 #@! TF.FileFunction,Soldermask,Top*
G04 #@! TF.FilePolarity,Negative*
%FSLAX46Y46*%
G04 Gerber Fmt 4.6, Leading zero omitted, Abs format (unit mm)*
%MOMM*%
%LPD*%
G01*
G04 APERTURE LIST*
%ADD10R,1.100000X2.600000*%
%ADD11C,3.200000*%
%ADD12O,3.440000X6.880000*%
%ADD13R,7.000000X7.000000*%
%ADD14C,1.500000*%
%ADD15C,2.000000*%
%ADD16R,2.000000X2.000000*%
%ADD17O,5.000000X2.000000*%
%ADD18C,0.900000*%
%ADD19R,1.500000X0.700000*%
%ADD20R,0.800000X1.000000*%
%ADD21R,0.800000X1.300000*%
%ADD22R,1.700000X1.700000*%
%ADD23O,1.700000X1.700000*%
%ADD24C,0.800000*%
%ADD25C,7.000000*%
%ADD26R,1.050000X1.500000*%
%ADD27O,1.050000X1.500000*%
G04 APERTURE END LIST*
G36*
G01*
X138612500Y-108606843D02*
X138612500Y-104756843D01*
G75*
G02*
X138937500Y-104431843I325000J0D01*
G01*
X139587500Y-104431843D01*
G75*
G02*
X139912500Y-104756843I0J-325000D01*
G01*
X139912500Y-108606843D01*
G75*
G02*
X139587500Y-108931843I-325000J0D01*
G01*
X138937500Y-108931843D01*
G75*
G02*
X138612500Y-108606843I0J325000D01*
G01*
G37*
G36*
G01*
X141112500Y-108606843D02*
X141112500Y-104756843D01*
G75*
G02*
X141437500Y-104431843I325000J0D01*
G01*
X142087500Y-104431843D01*
G75*
G02*
X142412500Y-104756843I0J-325000D01*
G01*
X142412500Y-108606843D01*
G75*
G02*
X142087500Y-108931843I-325000J0D01*
G01*
X141437500Y-108931843D01*
G75*
G02*
X141112500Y-108606843I0J325000D01*
G01*
G37*
G36*
G01*
X143612500Y-108606843D02*
X143612500Y-104756843D01*
G75*
G02*
X143937500Y-104431843I325000J0D01*
G01*
X144587500Y-104431843D01*
G75*
G02*
X144912500Y-104756843I0J-325000D01*
G01*
X144912500Y-108606843D01*
G75*
G02*
X144587500Y-108931843I-325000J0D01*
G01*
X143937500Y-108931843D01*
G75*
G02*
X143612500Y-108606843I0J325000D01*
G01*
G37*
G36*
G01*
X146112500Y-108606843D02*
X146112500Y-104756843D01*
G75*
G02*
X146437500Y-104431843I325000J0D01*
G01*
X147087500Y-104431843D01*
G75*
G02*
X147412500Y-104756843I0J-325000D01*
G01*
X147412500Y-108606843D01*
G75*
G02*
X147087500Y-108931843I-325000J0D01*
G01*
X146437500Y-108931843D01*
G75*
G02*
X146112500Y-108606843I0J325000D01*
G01*
G37*
G36*
G01*
X135162500Y-115131842D02*
X135162500Y-111831844D01*
G75*
G02*
X135462501Y-111531843I300001J0D01*
G01*
X136662499Y-111531843D01*
G75*
G02*
X136962500Y-111831844I0J-300001D01*
G01*
X136962500Y-115131842D01*
G75*
G02*
X136662499Y-115431843I-300001J0D01*
G01*
X135462501Y-115431843D01*
G75*
G02*
X135162500Y-115131842I0J300001D01*
G01*
G37*
G36*
G01*
X149062500Y-115131842D02*
X149062500Y-111831844D01*
G75*
G02*
X149362501Y-111531843I300001J0D01*
G01*
X150562499Y-111531843D01*
G75*
G02*
X150862500Y-111831844I0J-300001D01*
G01*
X150862500Y-115131842D01*
G75*
G02*
X150562499Y-115431843I-300001J0D01*
G01*
X149362501Y-115431843D01*
G75*
G02*
X149062500Y-115131842I0J300001D01*
G01*
G37*
D10*
X101420000Y-102250000D03*
X103420000Y-102250000D03*
X105420000Y-102250000D03*
X107420000Y-102250000D03*
X109420000Y-102250000D03*
X111420000Y-102250000D03*
X113420000Y-102250000D03*
X115420000Y-102250000D03*
X115420000Y-86250000D03*
X113420000Y-86250000D03*
X111420000Y-86250000D03*
X109420000Y-86250000D03*
X107420000Y-86250000D03*
X105420000Y-86250000D03*
X103420000Y-86250000D03*
X101420000Y-86250000D03*
G36*
G01*
X168532500Y-98551607D02*
X168532500Y-97251607D01*
G75*
G02*
X168782500Y-97001607I250000J0D01*
G01*
X169607500Y-97001607D01*
G75*
G02*
X169857500Y-97251607I0J-250000D01*
G01*
X169857500Y-98551607D01*
G75*
G02*
X169607500Y-98801607I-250000J0D01*
G01*
X168782500Y-98801607D01*
G75*
G02*
X168532500Y-98551607I0J250000D01*
G01*
G37*
G36*
G01*
X171657500Y-98551607D02*
X171657500Y-97251607D01*
G75*
G02*
X171907500Y-97001607I250000J0D01*
G01*
X172732500Y-97001607D01*
G75*
G02*
X172982500Y-97251607I0J-250000D01*
G01*
X172982500Y-98551607D01*
G75*
G02*
X172732500Y-98801607I-250000J0D01*
G01*
X171907500Y-98801607D01*
G75*
G02*
X171657500Y-98551607I0J250000D01*
G01*
G37*
G36*
G01*
X189950000Y-109100000D02*
X189050000Y-109100000D01*
G75*
G02*
X188800000Y-108850000I0J250000D01*
G01*
X188800000Y-108150000D01*
G75*
G02*
X189050000Y-107900000I250000J0D01*
G01*
X189950000Y-107900000D01*
G75*
G02*
X190200000Y-108150000I0J-250000D01*
G01*
X190200000Y-108850000D01*
G75*
G02*
X189950000Y-109100000I-250000J0D01*
G01*
G37*
G36*
G01*
X189950000Y-107100000D02*
X189050000Y-107100000D01*
G75*
G02*
X188800000Y-106850000I0J250000D01*
G01*
X188800000Y-106150000D01*
G75*
G02*
X189050000Y-105900000I250000J0D01*
G01*
X189950000Y-105900000D01*
G75*
G02*
X190200000Y-106150000I0J-250000D01*
G01*
X190200000Y-106850000D01*
G75*
G02*
X189950000Y-107100000I-250000J0D01*
G01*
G37*
G36*
G01*
X122325000Y-96227736D02*
X122325000Y-97127736D01*
G75*
G02*
X122075000Y-97377736I-250000J0D01*
G01*
X121375000Y-97377736D01*
G75*
G02*
X121125000Y-97127736I0J250000D01*
G01*
X121125000Y-96227736D01*
G75*
G02*
X121375000Y-95977736I250000J0D01*
G01*
X122075000Y-95977736D01*
G75*
G02*
X122325000Y-96227736I0J-250000D01*
G01*
G37*
G36*
G01*
X120325000Y-96227736D02*
X120325000Y-97127736D01*
G75*
G02*
X120075000Y-97377736I-250000J0D01*
G01*
X119375000Y-97377736D01*
G75*
G02*
X119125000Y-97127736I0J250000D01*
G01*
X119125000Y-96227736D01*
G75*
G02*
X119375000Y-95977736I250000J0D01*
G01*
X120075000Y-95977736D01*
G75*
G02*
X120325000Y-96227736I0J-250000D01*
G01*
G37*
G36*
G01*
X149620000Y-87235714D02*
X149620000Y-88135714D01*
G75*
G02*
X149370000Y-88385714I-250000J0D01*
G01*
X148670000Y-88385714D01*
G75*
G02*
X148420000Y-88135714I0J250000D01*
G01*
X148420000Y-87235714D01*
G75*
G02*
X148670000Y-86985714I250000J0D01*
G01*
X149370000Y-86985714D01*
G75*
G02*
X149620000Y-87235714I0J-250000D01*
G01*
G37*
G36*
G01*
X147620000Y-87235714D02*
X147620000Y-88135714D01*
G75*
G02*
X147370000Y-88385714I-250000J0D01*
G01*
X146670000Y-88385714D01*
G75*
G02*
X146420000Y-88135714I0J250000D01*
G01*
X146420000Y-87235714D01*
G75*
G02*
X146670000Y-86985714I250000J0D01*
G01*
X147370000Y-86985714D01*
G75*
G02*
X147620000Y-87235714I0J-250000D01*
G01*
G37*
G36*
G01*
X165107679Y-103402736D02*
X165107679Y-102452736D01*
G75*
G02*
X165357679Y-102202736I250000J0D01*
G01*
X166032679Y-102202736D01*
G75*
G02*
X166282679Y-102452736I0J-250000D01*
G01*
X166282679Y-103402736D01*
G75*
G02*
X166032679Y-103652736I-250000J0D01*
G01*
X165357679Y-103652736D01*
G75*
G02*
X165107679Y-103402736I0J250000D01*
G01*
G37*
G36*
G01*
X167182679Y-103402736D02*
X167182679Y-102452736D01*
G75*
G02*
X167432679Y-102202736I250000J0D01*
G01*
X168107679Y-102202736D01*
G75*
G02*
X168357679Y-102452736I0J-250000D01*
G01*
X168357679Y-103402736D01*
G75*
G02*
X168107679Y-103652736I-250000J0D01*
G01*
X167432679Y-103652736D01*
G75*
G02*
X167182679Y-103402736I0J250000D01*
G01*
G37*
G36*
G01*
X179645000Y-83837500D02*
X179645000Y-82887500D01*
G75*
G02*
X179895000Y-82637500I250000J0D01*
G01*
X180570000Y-82637500D01*
G75*
G02*
X180820000Y-82887500I0J-250000D01*
G01*
X180820000Y-83837500D01*
G75*
G02*
X180570000Y-84087500I-250000J0D01*
G01*
X179895000Y-84087500D01*
G75*
G02*
X179645000Y-83837500I0J250000D01*
G01*
G37*
G36*
G01*
X181720000Y-83837500D02*
X181720000Y-82887500D01*
G75*
G02*
X181970000Y-82637500I250000J0D01*
G01*
X182645000Y-82637500D01*
G75*
G02*
X182895000Y-82887500I0J-250000D01*
G01*
X182895000Y-83837500D01*
G75*
G02*
X182645000Y-84087500I-250000J0D01*
G01*
X181970000Y-84087500D01*
G75*
G02*
X181720000Y-83837500I0J250000D01*
G01*
G37*
G36*
G01*
X116245000Y-110060714D02*
X115295000Y-110060714D01*
G75*
G02*
X115045000Y-109810714I0J250000D01*
G01*
X115045000Y-109135714D01*
G75*
G02*
X115295000Y-108885714I250000J0D01*
G01*
X116245000Y-108885714D01*
G75*
G02*
X116495000Y-109135714I0J-250000D01*
G01*
X116495000Y-109810714D01*
G75*
G02*
X116245000Y-110060714I-250000J0D01*
G01*
G37*
G36*
G01*
X116245000Y-107985714D02*
X115295000Y-107985714D01*
G75*
G02*
X115045000Y-107735714I0J250000D01*
G01*
X115045000Y-107060714D01*
G75*
G02*
X115295000Y-106810714I250000J0D01*
G01*
X116245000Y-106810714D01*
G75*
G02*
X116495000Y-107060714I0J-250000D01*
G01*
X116495000Y-107735714D01*
G75*
G02*
X116245000Y-107985714I-250000J0D01*
G01*
G37*
G36*
G01*
X165157500Y-87437500D02*
X165157500Y-86487500D01*
G75*
G02*
X165407500Y-86237500I250000J0D01*
G01*
X166082500Y-86237500D01*
G75*
G02*
X166332500Y-86487500I0J-250000D01*
G01*
X166332500Y-87437500D01*
G75*
G02*
X166082500Y-87687500I-250000J0D01*
G01*
X165407500Y-87687500D01*
G75*
G02*
X165157500Y-87437500I0J250000D01*
G01*
G37*
G36*
G01*
X167232500Y-87437500D02*
X167232500Y-86487500D01*
G75*
G02*
X167482500Y-86237500I250000J0D01*
G01*
X168157500Y-86237500D01*
G75*
G02*
X168407500Y-86487500I0J-250000D01*
G01*
X168407500Y-87437500D01*
G75*
G02*
X168157500Y-87687500I-250000J0D01*
G01*
X167482500Y-87687500D01*
G75*
G02*
X167232500Y-87437500I0J250000D01*
G01*
G37*
G36*
G01*
X136030893Y-99127736D02*
X136030893Y-98227736D01*
G75*
G02*
X136280893Y-97977736I250000J0D01*
G01*
X136980893Y-97977736D01*
G75*
G02*
X137230893Y-98227736I0J-250000D01*
G01*
X137230893Y-99127736D01*
G75*
G02*
X136980893Y-99377736I-250000J0D01*
G01*
X136280893Y-99377736D01*
G75*
G02*
X136030893Y-99127736I0J250000D01*
G01*
G37*
G36*
G01*
X138030893Y-99127736D02*
X138030893Y-98227736D01*
G75*
G02*
X138280893Y-97977736I250000J0D01*
G01*
X138980893Y-97977736D01*
G75*
G02*
X139230893Y-98227736I0J-250000D01*
G01*
X139230893Y-99127736D01*
G75*
G02*
X138980893Y-99377736I-250000J0D01*
G01*
X138280893Y-99377736D01*
G75*
G02*
X138030893Y-99127736I0J250000D01*
G01*
G37*
G36*
G01*
X161320179Y-99402736D02*
X161320179Y-98452736D01*
G75*
G02*
X161570179Y-98202736I250000J0D01*
G01*
X162245179Y-98202736D01*
G75*
G02*
X162495179Y-98452736I0J-250000D01*
G01*
X162495179Y-99402736D01*
G75*
G02*
X162245179Y-99652736I-250000J0D01*
G01*
X161570179Y-99652736D01*
G75*
G02*
X161320179Y-99402736I0J250000D01*
G01*
G37*
G36*
G01*
X163395179Y-99402736D02*
X163395179Y-98452736D01*
G75*
G02*
X163645179Y-98202736I250000J0D01*
G01*
X164320179Y-98202736D01*
G75*
G02*
X164570179Y-98452736I0J-250000D01*
G01*
X164570179Y-99402736D01*
G75*
G02*
X164320179Y-99652736I-250000J0D01*
G01*
X163645179Y-99652736D01*
G75*
G02*
X163395179Y-99402736I0J250000D01*
G01*
G37*
G36*
G01*
X163737500Y-83625000D02*
X163737500Y-84575000D01*
G75*
G02*
X163487500Y-84825000I-250000J0D01*
G01*
X162812500Y-84825000D01*
G75*
G02*
X162562500Y-84575000I0J250000D01*
G01*
X162562500Y-83625000D01*
G75*
G02*
X162812500Y-83375000I250000J0D01*
G01*
X163487500Y-83375000D01*
G75*
G02*
X163737500Y-83625000I0J-250000D01*
G01*
G37*
G36*
G01*
X161662500Y-83625000D02*
X161662500Y-84575000D01*
G75*
G02*
X161412500Y-84825000I-250000J0D01*
G01*
X160737500Y-84825000D01*
G75*
G02*
X160487500Y-84575000I0J250000D01*
G01*
X160487500Y-83625000D01*
G75*
G02*
X160737500Y-83375000I250000J0D01*
G01*
X161412500Y-83375000D01*
G75*
G02*
X161662500Y-83625000I0J-250000D01*
G01*
G37*
D11*
X175610000Y-70000000D03*
X120000000Y-70000000D03*
D12*
X184620000Y-70000000D03*
D13*
X188170000Y-70000000D03*
D12*
X111720000Y-70000000D03*
D13*
X108170000Y-70000000D03*
G36*
G01*
X137105893Y-106802736D02*
X136155893Y-106802736D01*
G75*
G02*
X135905893Y-106552736I0J250000D01*
G01*
X135905893Y-105877736D01*
G75*
G02*
X136155893Y-105627736I250000J0D01*
G01*
X137105893Y-105627736D01*
G75*
G02*
X137355893Y-105877736I0J-250000D01*
G01*
X137355893Y-106552736D01*
G75*
G02*
X137105893Y-106802736I-250000J0D01*
G01*
G37*
G36*
G01*
X137105893Y-104727736D02*
X136155893Y-104727736D01*
G75*
G02*
X135905893Y-104477736I0J250000D01*
G01*
X135905893Y-103802736D01*
G75*
G02*
X136155893Y-103552736I250000J0D01*
G01*
X137105893Y-103552736D01*
G75*
G02*
X137355893Y-103802736I0J-250000D01*
G01*
X137355893Y-104477736D01*
G75*
G02*
X137105893Y-104727736I-250000J0D01*
G01*
G37*
D14*
X184622500Y-106400714D03*
X184622500Y-112400714D03*
D15*
X182022500Y-109900714D03*
X187222500Y-109900714D03*
X187222500Y-113300714D03*
X182022500Y-113300714D03*
X182022500Y-106400714D03*
X187222500Y-106400714D03*
D16*
X174870000Y-96850000D03*
X174870000Y-89650000D03*
X197870000Y-100250000D03*
X197870000Y-86250000D03*
X174870000Y-100250000D03*
X174870000Y-86250000D03*
D17*
X145170000Y-65750000D03*
X145170000Y-80750000D03*
G36*
G01*
X169920000Y-69250000D02*
X169920000Y-71250000D01*
G75*
G02*
X168920000Y-72250000I-1000000J0D01*
G01*
X164420000Y-72250000D01*
G75*
G02*
X163420000Y-71250000I0J1000000D01*
G01*
X163420000Y-69250000D01*
G75*
G02*
X164420000Y-68250000I1000000J0D01*
G01*
X168920000Y-68250000D01*
G75*
G02*
X169920000Y-69250000I0J-1000000D01*
G01*
G37*
G36*
G01*
X169920000Y-75250000D02*
X169920000Y-77250000D01*
G75*
G02*
X168920000Y-78250000I-1000000J0D01*
G01*
X164420000Y-78250000D01*
G75*
G02*
X163420000Y-77250000I0J1000000D01*
G01*
X163420000Y-75250000D01*
G75*
G02*
X164420000Y-74250000I1000000J0D01*
G01*
X168920000Y-74250000D01*
G75*
G02*
X169920000Y-75250000I0J-1000000D01*
G01*
G37*
G36*
G01*
X151480893Y-104477736D02*
X151480893Y-105377736D01*
G75*
G02*
X151230893Y-105627736I-250000J0D01*
G01*
X150530893Y-105627736D01*
G75*
G02*
X150280893Y-105377736I0J250000D01*
G01*
X150280893Y-104477736D01*
G75*
G02*
X150530893Y-104227736I250000J0D01*
G01*
X151230893Y-104227736D01*
G75*
G02*
X151480893Y-104477736I0J-250000D01*
G01*
G37*
G36*
G01*
X149480893Y-104477736D02*
X149480893Y-105377736D01*
G75*
G02*
X149230893Y-105627736I-250000J0D01*
G01*
X148530893Y-105627736D01*
G75*
G02*
X148280893Y-105377736I0J250000D01*
G01*
X148280893Y-104477736D01*
G75*
G02*
X148530893Y-104227736I250000J0D01*
G01*
X149230893Y-104227736D01*
G75*
G02*
X149480893Y-104477736I0J-250000D01*
G01*
G37*
G36*
G01*
X192735000Y-66300714D02*
X193635000Y-66300714D01*
G75*
G02*
X193885000Y-66550714I0J-250000D01*
G01*
X193885000Y-67250714D01*
G75*
G02*
X193635000Y-67500714I-250000J0D01*
G01*
X192735000Y-67500714D01*
G75*
G02*
X192485000Y-67250714I0J250000D01*
G01*
X192485000Y-66550714D01*
G75*
G02*
X192735000Y-66300714I250000J0D01*
G01*
G37*
G36*
G01*
X192735000Y-68300714D02*
X193635000Y-68300714D01*
G75*
G02*
X193885000Y-68550714I0J-250000D01*
G01*
X193885000Y-69250714D01*
G75*
G02*
X193635000Y-69500714I-250000J0D01*
G01*
X192735000Y-69500714D01*
G75*
G02*
X192485000Y-69250714I0J250000D01*
G01*
X192485000Y-68550714D01*
G75*
G02*
X192735000Y-68300714I250000J0D01*
G01*
G37*
G36*
G01*
X119100000Y-95152736D02*
X119100000Y-94202736D01*
G75*
G02*
X119350000Y-93952736I250000J0D01*
G01*
X120025000Y-93952736D01*
G75*
G02*
X120275000Y-94202736I0J-250000D01*
G01*
X120275000Y-95152736D01*
G75*
G02*
X120025000Y-95402736I-250000J0D01*
G01*
X119350000Y-95402736D01*
G75*
G02*
X119100000Y-95152736I0J250000D01*
G01*
G37*
G36*
G01*
X121175000Y-95152736D02*
X121175000Y-94202736D01*
G75*
G02*
X121425000Y-93952736I250000J0D01*
G01*
X122100000Y-93952736D01*
G75*
G02*
X122350000Y-94202736I0J-250000D01*
G01*
X122350000Y-95152736D01*
G75*
G02*
X122100000Y-95402736I-250000J0D01*
G01*
X121425000Y-95402736D01*
G75*
G02*
X121175000Y-95152736I0J250000D01*
G01*
G37*
G36*
G01*
X135955893Y-100627736D02*
X135955893Y-100327736D01*
G75*
G02*
X136105893Y-100177736I150000J0D01*
G01*
X137280893Y-100177736D01*
G75*
G02*
X137430893Y-100327736I0J-150000D01*
G01*
X137430893Y-100627736D01*
G75*
G02*
X137280893Y-100777736I-150000J0D01*
G01*
X136105893Y-100777736D01*
G75*
G02*
X135955893Y-100627736I0J150000D01*
G01*
G37*
G36*
G01*
X135955893Y-102527736D02*
X135955893Y-102227736D01*
G75*
G02*
X136105893Y-102077736I150000J0D01*
G01*
X137280893Y-102077736D01*
G75*
G02*
X137430893Y-102227736I0J-150000D01*
G01*
X137430893Y-102527736D01*
G75*
G02*
X137280893Y-102677736I-150000J0D01*
G01*
X136105893Y-102677736D01*
G75*
G02*
X135955893Y-102527736I0J150000D01*
G01*
G37*
G36*
G01*
X137830893Y-101577736D02*
X137830893Y-101277736D01*
G75*
G02*
X137980893Y-101127736I150000J0D01*
G01*
X139155893Y-101127736D01*
G75*
G02*
X139305893Y-101277736I0J-150000D01*
G01*
X139305893Y-101577736D01*
G75*
G02*
X139155893Y-101727736I-150000J0D01*
G01*
X137980893Y-101727736D01*
G75*
G02*
X137830893Y-101577736I0J150000D01*
G01*
G37*
D18*
X197015000Y-71715000D03*
X197015000Y-68715000D03*
D19*
X195255000Y-72465000D03*
X195255000Y-69465000D03*
X195255000Y-67965000D03*
D20*
X195905000Y-66565000D03*
X195905000Y-73865000D03*
X198115000Y-73865000D03*
X198115000Y-66565000D03*
G36*
G01*
X156295179Y-96227736D02*
X156295179Y-97127736D01*
G75*
G02*
X156045179Y-97377736I-250000J0D01*
G01*
X155345179Y-97377736D01*
G75*
G02*
X155095179Y-97127736I0J250000D01*
G01*
X155095179Y-96227736D01*
G75*
G02*
X155345179Y-95977736I250000J0D01*
G01*
X156045179Y-95977736D01*
G75*
G02*
X156295179Y-96227736I0J-250000D01*
G01*
G37*
G36*
G01*
X154295179Y-96227736D02*
X154295179Y-97127736D01*
G75*
G02*
X154045179Y-97377736I-250000J0D01*
G01*
X153345179Y-97377736D01*
G75*
G02*
X153095179Y-97127736I0J250000D01*
G01*
X153095179Y-96227736D01*
G75*
G02*
X153345179Y-95977736I250000J0D01*
G01*
X154045179Y-95977736D01*
G75*
G02*
X154295179Y-96227736I0J-250000D01*
G01*
G37*
G36*
G01*
X118800000Y-100627736D02*
X118800000Y-100327736D01*
G75*
G02*
X118950000Y-100177736I150000J0D01*
G01*
X120125000Y-100177736D01*
G75*
G02*
X120275000Y-100327736I0J-150000D01*
G01*
X120275000Y-100627736D01*
G75*
G02*
X120125000Y-100777736I-150000J0D01*
G01*
X118950000Y-100777736D01*
G75*
G02*
X118800000Y-100627736I0J150000D01*
G01*
G37*
G36*
G01*
X118800000Y-102527736D02*
X118800000Y-102227736D01*
G75*
G02*
X118950000Y-102077736I150000J0D01*
G01*
X120125000Y-102077736D01*
G75*
G02*
X120275000Y-102227736I0J-150000D01*
G01*
X120275000Y-102527736D01*
G75*
G02*
X120125000Y-102677736I-150000J0D01*
G01*
X118950000Y-102677736D01*
G75*
G02*
X118800000Y-102527736I0J150000D01*
G01*
G37*
G36*
G01*
X120675000Y-101577736D02*
X120675000Y-101277736D01*
G75*
G02*
X120825000Y-101127736I150000J0D01*
G01*
X122000000Y-101127736D01*
G75*
G02*
X122150000Y-101277736I0J-150000D01*
G01*
X122150000Y-101577736D01*
G75*
G02*
X122000000Y-101727736I-150000J0D01*
G01*
X120825000Y-101727736D01*
G75*
G02*
X120675000Y-101577736I0J150000D01*
G01*
G37*
G36*
G01*
X165182500Y-83412500D02*
X165182500Y-82512500D01*
G75*
G02*
X165432500Y-82262500I250000J0D01*
G01*
X166132500Y-82262500D01*
G75*
G02*
X166382500Y-82512500I0J-250000D01*
G01*
X166382500Y-83412500D01*
G75*
G02*
X166132500Y-83662500I-250000J0D01*
G01*
X165432500Y-83662500D01*
G75*
G02*
X165182500Y-83412500I0J250000D01*
G01*
G37*
G36*
G01*
X167182500Y-83412500D02*
X167182500Y-82512500D01*
G75*
G02*
X167432500Y-82262500I250000J0D01*
G01*
X168132500Y-82262500D01*
G75*
G02*
X168382500Y-82512500I0J-250000D01*
G01*
X168382500Y-83412500D01*
G75*
G02*
X168132500Y-83662500I-250000J0D01*
G01*
X167432500Y-83662500D01*
G75*
G02*
X167182500Y-83412500I0J250000D01*
G01*
G37*
D21*
X140680893Y-96827736D03*
X141960893Y-96827736D03*
X143220893Y-96827736D03*
X144490893Y-96827736D03*
X145770893Y-96827736D03*
X147040893Y-96827736D03*
X148300893Y-96827736D03*
X149580893Y-96827736D03*
X149580893Y-90527736D03*
X148300893Y-90527736D03*
X147040893Y-90527736D03*
X145770893Y-90527736D03*
X144490893Y-90527736D03*
X143220893Y-90527736D03*
X141960893Y-90527736D03*
X140680893Y-90527736D03*
G36*
G01*
X136030893Y-93127736D02*
X136030893Y-92227736D01*
G75*
G02*
X136280893Y-91977736I250000J0D01*
G01*
X136930893Y-91977736D01*
G75*
G02*
X137180893Y-92227736I0J-250000D01*
G01*
X137180893Y-93127736D01*
G75*
G02*
X136930893Y-93377736I-250000J0D01*
G01*
X136280893Y-93377736D01*
G75*
G02*
X136030893Y-93127736I0J250000D01*
G01*
G37*
G36*
G01*
X138080893Y-93127736D02*
X138080893Y-92227736D01*
G75*
G02*
X138330893Y-91977736I250000J0D01*
G01*
X138980893Y-91977736D01*
G75*
G02*
X139230893Y-92227736I0J-250000D01*
G01*
X139230893Y-93127736D01*
G75*
G02*
X138980893Y-93377736I-250000J0D01*
G01*
X138330893Y-93377736D01*
G75*
G02*
X138080893Y-93127736I0J250000D01*
G01*
G37*
G36*
G01*
X153095179Y-93127736D02*
X153095179Y-92227736D01*
G75*
G02*
X153345179Y-91977736I250000J0D01*
G01*
X153995179Y-91977736D01*
G75*
G02*
X154245179Y-92227736I0J-250000D01*
G01*
X154245179Y-93127736D01*
G75*
G02*
X153995179Y-93377736I-250000J0D01*
G01*
X153345179Y-93377736D01*
G75*
G02*
X153095179Y-93127736I0J250000D01*
G01*
G37*
G36*
G01*
X155145179Y-93127736D02*
X155145179Y-92227736D01*
G75*
G02*
X155395179Y-91977736I250000J0D01*
G01*
X156045179Y-91977736D01*
G75*
G02*
X156295179Y-92227736I0J-250000D01*
G01*
X156295179Y-93127736D01*
G75*
G02*
X156045179Y-93377736I-250000J0D01*
G01*
X155395179Y-93377736D01*
G75*
G02*
X155145179Y-93127736I0J250000D01*
G01*
G37*
G36*
G01*
X169657500Y-92875000D02*
X169657500Y-91925000D01*
G75*
G02*
X169907500Y-91675000I250000J0D01*
G01*
X170582500Y-91675000D01*
G75*
G02*
X170832500Y-91925000I0J-250000D01*
G01*
X170832500Y-92875000D01*
G75*
G02*
X170582500Y-93125000I-250000J0D01*
G01*
X169907500Y-93125000D01*
G75*
G02*
X169657500Y-92875000I0J250000D01*
G01*
G37*
G36*
G01*
X171732500Y-92875000D02*
X171732500Y-91925000D01*
G75*
G02*
X171982500Y-91675000I250000J0D01*
G01*
X172657500Y-91675000D01*
G75*
G02*
X172907500Y-91925000I0J-250000D01*
G01*
X172907500Y-92875000D01*
G75*
G02*
X172657500Y-93125000I-250000J0D01*
G01*
X171982500Y-93125000D01*
G75*
G02*
X171732500Y-92875000I0J250000D01*
G01*
G37*
G36*
G01*
X114245000Y-113825000D02*
X113295000Y-113825000D01*
G75*
G02*
X113045000Y-113575000I0J250000D01*
G01*
X113045000Y-112900000D01*
G75*
G02*
X113295000Y-112650000I250000J0D01*
G01*
X114245000Y-112650000D01*
G75*
G02*
X114495000Y-112900000I0J-250000D01*
G01*
X114495000Y-113575000D01*
G75*
G02*
X114245000Y-113825000I-250000J0D01*
G01*
G37*
G36*
G01*
X114245000Y-111750000D02*
X113295000Y-111750000D01*
G75*
G02*
X113045000Y-111500000I0J250000D01*
G01*
X113045000Y-110825000D01*
G75*
G02*
X113295000Y-110575000I250000J0D01*
G01*
X114245000Y-110575000D01*
G75*
G02*
X114495000Y-110825000I0J-250000D01*
G01*
X114495000Y-111500000D01*
G75*
G02*
X114245000Y-111750000I-250000J0D01*
G01*
G37*
G36*
G01*
X144468393Y-99402736D02*
X144468393Y-98452736D01*
G75*
G02*
X144718393Y-98202736I250000J0D01*
G01*
X145393393Y-98202736D01*
G75*
G02*
X145643393Y-98452736I0J-250000D01*
G01*
X145643393Y-99402736D01*
G75*
G02*
X145393393Y-99652736I-250000J0D01*
G01*
X144718393Y-99652736D01*
G75*
G02*
X144468393Y-99402736I0J250000D01*
G01*
G37*
G36*
G01*
X146543393Y-99402736D02*
X146543393Y-98452736D01*
G75*
G02*
X146793393Y-98202736I250000J0D01*
G01*
X147468393Y-98202736D01*
G75*
G02*
X147718393Y-98452736I0J-250000D01*
G01*
X147718393Y-99402736D01*
G75*
G02*
X147468393Y-99652736I-250000J0D01*
G01*
X146793393Y-99652736D01*
G75*
G02*
X146543393Y-99402736I0J250000D01*
G01*
G37*
G36*
G01*
X147745000Y-100452736D02*
X147745000Y-101402736D01*
G75*
G02*
X147495000Y-101652736I-250000J0D01*
G01*
X146820000Y-101652736D01*
G75*
G02*
X146570000Y-101402736I0J250000D01*
G01*
X146570000Y-100452736D01*
G75*
G02*
X146820000Y-100202736I250000J0D01*
G01*
X147495000Y-100202736D01*
G75*
G02*
X147745000Y-100452736I0J-250000D01*
G01*
G37*
G36*
G01*
X145670000Y-100452736D02*
X145670000Y-101402736D01*
G75*
G02*
X145420000Y-101652736I-250000J0D01*
G01*
X144745000Y-101652736D01*
G75*
G02*
X144495000Y-101402736I0J250000D01*
G01*
X144495000Y-100452736D01*
G75*
G02*
X144745000Y-100202736I250000J0D01*
G01*
X145420000Y-100202736D01*
G75*
G02*
X145670000Y-100452736I0J-250000D01*
G01*
G37*
G36*
G01*
X119125000Y-93127736D02*
X119125000Y-92227736D01*
G75*
G02*
X119375000Y-91977736I250000J0D01*
G01*
X120025000Y-91977736D01*
G75*
G02*
X120275000Y-92227736I0J-250000D01*
G01*
X120275000Y-93127736D01*
G75*
G02*
X120025000Y-93377736I-250000J0D01*
G01*
X119375000Y-93377736D01*
G75*
G02*
X119125000Y-93127736I0J250000D01*
G01*
G37*
G36*
G01*
X121175000Y-93127736D02*
X121175000Y-92227736D01*
G75*
G02*
X121425000Y-91977736I250000J0D01*
G01*
X122075000Y-91977736D01*
G75*
G02*
X122325000Y-92227736I0J-250000D01*
G01*
X122325000Y-93127736D01*
G75*
G02*
X122075000Y-93377736I-250000J0D01*
G01*
X121425000Y-93377736D01*
G75*
G02*
X121175000Y-93127736I0J250000D01*
G01*
G37*
X123775000Y-96827736D03*
X125055000Y-96827736D03*
X126315000Y-96827736D03*
X127585000Y-96827736D03*
X128865000Y-96827736D03*
X130135000Y-96827736D03*
X131395000Y-96827736D03*
X132675000Y-96827736D03*
X132675000Y-90527736D03*
X131395000Y-90527736D03*
X130135000Y-90527736D03*
X128865000Y-90527736D03*
X127585000Y-90527736D03*
X126315000Y-90527736D03*
X125055000Y-90527736D03*
X123775000Y-90527736D03*
G36*
G01*
X139930893Y-101377736D02*
X139930893Y-100477736D01*
G75*
G02*
X140180893Y-100227736I250000J0D01*
G01*
X140880893Y-100227736D01*
G75*
G02*
X141130893Y-100477736I0J-250000D01*
G01*
X141130893Y-101377736D01*
G75*
G02*
X140880893Y-101627736I-250000J0D01*
G01*
X140180893Y-101627736D01*
G75*
G02*
X139930893Y-101377736I0J250000D01*
G01*
G37*
G36*
G01*
X141930893Y-101377736D02*
X141930893Y-100477736D01*
G75*
G02*
X142180893Y-100227736I250000J0D01*
G01*
X142880893Y-100227736D01*
G75*
G02*
X143130893Y-100477736I0J-250000D01*
G01*
X143130893Y-101377736D01*
G75*
G02*
X142880893Y-101627736I-250000J0D01*
G01*
X142180893Y-101627736D01*
G75*
G02*
X141930893Y-101377736I0J250000D01*
G01*
G37*
G36*
G01*
X127350000Y-99402736D02*
X127350000Y-98452736D01*
G75*
G02*
X127600000Y-98202736I250000J0D01*
G01*
X128275000Y-98202736D01*
G75*
G02*
X128525000Y-98452736I0J-250000D01*
G01*
X128525000Y-99402736D01*
G75*
G02*
X128275000Y-99652736I-250000J0D01*
G01*
X127600000Y-99652736D01*
G75*
G02*
X127350000Y-99402736I0J250000D01*
G01*
G37*
G36*
G01*
X129425000Y-99402736D02*
X129425000Y-98452736D01*
G75*
G02*
X129675000Y-98202736I250000J0D01*
G01*
X130350000Y-98202736D01*
G75*
G02*
X130600000Y-98452736I0J-250000D01*
G01*
X130600000Y-99402736D01*
G75*
G02*
X130350000Y-99652736I-250000J0D01*
G01*
X129675000Y-99652736D01*
G75*
G02*
X129425000Y-99402736I0J250000D01*
G01*
G37*
G36*
G01*
X153095179Y-99127736D02*
X153095179Y-98227736D01*
G75*
G02*
X153345179Y-97977736I250000J0D01*
G01*
X154045179Y-97977736D01*
G75*
G02*
X154295179Y-98227736I0J-250000D01*
G01*
X154295179Y-99127736D01*
G75*
G02*
X154045179Y-99377736I-250000J0D01*
G01*
X153345179Y-99377736D01*
G75*
G02*
X153095179Y-99127736I0J250000D01*
G01*
G37*
G36*
G01*
X155095179Y-99127736D02*
X155095179Y-98227736D01*
G75*
G02*
X155345179Y-97977736I250000J0D01*
G01*
X156045179Y-97977736D01*
G75*
G02*
X156295179Y-98227736I0J-250000D01*
G01*
X156295179Y-99127736D01*
G75*
G02*
X156045179Y-99377736I-250000J0D01*
G01*
X155345179Y-99377736D01*
G75*
G02*
X155095179Y-99127736I0J250000D01*
G01*
G37*
G36*
G01*
X172882500Y-85950000D02*
X172882500Y-86850000D01*
G75*
G02*
X172632500Y-87100000I-250000J0D01*
G01*
X171932500Y-87100000D01*
G75*
G02*
X171682500Y-86850000I0J250000D01*
G01*
X171682500Y-85950000D01*
G75*
G02*
X171932500Y-85700000I250000J0D01*
G01*
X172632500Y-85700000D01*
G75*
G02*
X172882500Y-85950000I0J-250000D01*
G01*
G37*
G36*
G01*
X170882500Y-85950000D02*
X170882500Y-86850000D01*
G75*
G02*
X170632500Y-87100000I-250000J0D01*
G01*
X169932500Y-87100000D01*
G75*
G02*
X169682500Y-86850000I0J250000D01*
G01*
X169682500Y-85950000D01*
G75*
G02*
X169932500Y-85700000I250000J0D01*
G01*
X170632500Y-85700000D01*
G75*
G02*
X170882500Y-85950000I0J-250000D01*
G01*
G37*
D22*
X162192500Y-86935714D03*
D23*
X159652500Y-86935714D03*
X157112500Y-86935714D03*
X154572500Y-86935714D03*
G36*
G01*
X131100000Y-103402736D02*
X131100000Y-102452736D01*
G75*
G02*
X131350000Y-102202736I250000J0D01*
G01*
X132025000Y-102202736D01*
G75*
G02*
X132275000Y-102452736I0J-250000D01*
G01*
X132275000Y-103402736D01*
G75*
G02*
X132025000Y-103652736I-250000J0D01*
G01*
X131350000Y-103652736D01*
G75*
G02*
X131100000Y-103402736I0J250000D01*
G01*
G37*
G36*
G01*
X133175000Y-103402736D02*
X133175000Y-102452736D01*
G75*
G02*
X133425000Y-102202736I250000J0D01*
G01*
X134100000Y-102202736D01*
G75*
G02*
X134350000Y-102452736I0J-250000D01*
G01*
X134350000Y-103402736D01*
G75*
G02*
X134100000Y-103652736I-250000J0D01*
G01*
X133425000Y-103652736D01*
G75*
G02*
X133175000Y-103402736I0J250000D01*
G01*
G37*
G36*
G01*
X155612500Y-108606843D02*
X155612500Y-104756843D01*
G75*
G02*
X155937500Y-104431843I325000J0D01*
G01*
X156587500Y-104431843D01*
G75*
G02*
X156912500Y-104756843I0J-325000D01*
G01*
X156912500Y-108606843D01*
G75*
G02*
X156587500Y-108931843I-325000J0D01*
G01*
X155937500Y-108931843D01*
G75*
G02*
X155612500Y-108606843I0J325000D01*
G01*
G37*
G36*
G01*
X158112500Y-108606843D02*
X158112500Y-104756843D01*
G75*
G02*
X158437500Y-104431843I325000J0D01*
G01*
X159087500Y-104431843D01*
G75*
G02*
X159412500Y-104756843I0J-325000D01*
G01*
X159412500Y-108606843D01*
G75*
G02*
X159087500Y-108931843I-325000J0D01*
G01*
X158437500Y-108931843D01*
G75*
G02*
X158112500Y-108606843I0J325000D01*
G01*
G37*
G36*
G01*
X160612500Y-108606843D02*
X160612500Y-104756843D01*
G75*
G02*
X160937500Y-104431843I325000J0D01*
G01*
X161587500Y-104431843D01*
G75*
G02*
X161912500Y-104756843I0J-325000D01*
G01*
X161912500Y-108606843D01*
G75*
G02*
X161587500Y-108931843I-325000J0D01*
G01*
X160937500Y-108931843D01*
G75*
G02*
X160612500Y-108606843I0J325000D01*
G01*
G37*
G36*
G01*
X163112500Y-108606843D02*
X163112500Y-104756843D01*
G75*
G02*
X163437500Y-104431843I325000J0D01*
G01*
X164087500Y-104431843D01*
G75*
G02*
X164412500Y-104756843I0J-325000D01*
G01*
X164412500Y-108606843D01*
G75*
G02*
X164087500Y-108931843I-325000J0D01*
G01*
X163437500Y-108931843D01*
G75*
G02*
X163112500Y-108606843I0J325000D01*
G01*
G37*
G36*
G01*
X166062500Y-115131842D02*
X166062500Y-111831844D01*
G75*
G02*
X166362501Y-111531843I300001J0D01*
G01*
X167562499Y-111531843D01*
G75*
G02*
X167862500Y-111831844I0J-300001D01*
G01*
X167862500Y-115131842D01*
G75*
G02*
X167562499Y-115431843I-300001J0D01*
G01*
X166362501Y-115431843D01*
G75*
G02*
X166062500Y-115131842I0J300001D01*
G01*
G37*
G36*
G01*
X152162500Y-115131842D02*
X152162500Y-111831844D01*
G75*
G02*
X152462501Y-111531843I300001J0D01*
G01*
X153662499Y-111531843D01*
G75*
G02*
X153962500Y-111831844I0J-300001D01*
G01*
X153962500Y-115131842D01*
G75*
G02*
X153662499Y-115431843I-300001J0D01*
G01*
X152462501Y-115431843D01*
G75*
G02*
X152162500Y-115131842I0J300001D01*
G01*
G37*
G36*
G01*
X154055893Y-106802736D02*
X153105893Y-106802736D01*
G75*
G02*
X152855893Y-106552736I0J250000D01*
G01*
X152855893Y-105877736D01*
G75*
G02*
X153105893Y-105627736I250000J0D01*
G01*
X154055893Y-105627736D01*
G75*
G02*
X154305893Y-105877736I0J-250000D01*
G01*
X154305893Y-106552736D01*
G75*
G02*
X154055893Y-106802736I-250000J0D01*
G01*
G37*
G36*
G01*
X154055893Y-104727736D02*
X153105893Y-104727736D01*
G75*
G02*
X152855893Y-104477736I0J250000D01*
G01*
X152855893Y-103802736D01*
G75*
G02*
X153105893Y-103552736I250000J0D01*
G01*
X154055893Y-103552736D01*
G75*
G02*
X154305893Y-103802736I0J-250000D01*
G01*
X154305893Y-104477736D01*
G75*
G02*
X154055893Y-104727736I-250000J0D01*
G01*
G37*
D24*
X197545000Y-80500000D03*
D25*
X194920000Y-80500000D03*
D24*
X192295000Y-80500000D03*
X194920000Y-77875000D03*
X194920000Y-83125000D03*
X196776155Y-78643845D03*
X196776155Y-82356155D03*
X193063845Y-82356155D03*
X193063845Y-78643845D03*
G36*
G01*
X194222500Y-103735714D02*
X194222500Y-104635714D01*
G75*
G02*
X193972500Y-104885714I-250000J0D01*
G01*
X193272500Y-104885714D01*
G75*
G02*
X193022500Y-104635714I0J250000D01*
G01*
X193022500Y-103735714D01*
G75*
G02*
X193272500Y-103485714I250000J0D01*
G01*
X193972500Y-103485714D01*
G75*
G02*
X194222500Y-103735714I0J-250000D01*
G01*
G37*
G36*
G01*
X192222500Y-103735714D02*
X192222500Y-104635714D01*
G75*
G02*
X191972500Y-104885714I-250000J0D01*
G01*
X191272500Y-104885714D01*
G75*
G02*
X191022500Y-104635714I0J250000D01*
G01*
X191022500Y-103735714D01*
G75*
G02*
X191272500Y-103485714I250000J0D01*
G01*
X191972500Y-103485714D01*
G75*
G02*
X192222500Y-103735714I0J-250000D01*
G01*
G37*
G36*
G01*
X198135000Y-75215000D02*
X198135000Y-76115000D01*
G75*
G02*
X197885000Y-76365000I-250000J0D01*
G01*
X197185000Y-76365000D01*
G75*
G02*
X196935000Y-76115000I0J250000D01*
G01*
X196935000Y-75215000D01*
G75*
G02*
X197185000Y-74965000I250000J0D01*
G01*
X197885000Y-74965000D01*
G75*
G02*
X198135000Y-75215000I0J-250000D01*
G01*
G37*
G36*
G01*
X196135000Y-75215000D02*
X196135000Y-76115000D01*
G75*
G02*
X195885000Y-76365000I-250000J0D01*
G01*
X195185000Y-76365000D01*
G75*
G02*
X194935000Y-76115000I0J250000D01*
G01*
X194935000Y-75215000D01*
G75*
G02*
X195185000Y-74965000I250000J0D01*
G01*
X195885000Y-74965000D01*
G75*
G02*
X196135000Y-75215000I0J-250000D01*
G01*
G37*
G36*
G01*
X126075000Y-102477736D02*
X126075000Y-103377736D01*
G75*
G02*
X125825000Y-103627736I-250000J0D01*
G01*
X125125000Y-103627736D01*
G75*
G02*
X124875000Y-103377736I0J250000D01*
G01*
X124875000Y-102477736D01*
G75*
G02*
X125125000Y-102227736I250000J0D01*
G01*
X125825000Y-102227736D01*
G75*
G02*
X126075000Y-102477736I0J-250000D01*
G01*
G37*
G36*
G01*
X124075000Y-102477736D02*
X124075000Y-103377736D01*
G75*
G02*
X123825000Y-103627736I-250000J0D01*
G01*
X123125000Y-103627736D01*
G75*
G02*
X122875000Y-103377736I0J250000D01*
G01*
X122875000Y-102477736D01*
G75*
G02*
X123125000Y-102227736I250000J0D01*
G01*
X123825000Y-102227736D01*
G75*
G02*
X124075000Y-102477736I0J-250000D01*
G01*
G37*
G36*
G01*
X170482500Y-91075000D02*
X170182500Y-91075000D01*
G75*
G02*
X170032500Y-90925000I0J150000D01*
G01*
X170032500Y-89750000D01*
G75*
G02*
X170182500Y-89600000I150000J0D01*
G01*
X170482500Y-89600000D01*
G75*
G02*
X170632500Y-89750000I0J-150000D01*
G01*
X170632500Y-90925000D01*
G75*
G02*
X170482500Y-91075000I-150000J0D01*
G01*
G37*
G36*
G01*
X172382500Y-91075000D02*
X172082500Y-91075000D01*
G75*
G02*
X171932500Y-90925000I0J150000D01*
G01*
X171932500Y-89750000D01*
G75*
G02*
X172082500Y-89600000I150000J0D01*
G01*
X172382500Y-89600000D01*
G75*
G02*
X172532500Y-89750000I0J-150000D01*
G01*
X172532500Y-90925000D01*
G75*
G02*
X172382500Y-91075000I-150000J0D01*
G01*
G37*
G36*
G01*
X171432500Y-89200000D02*
X171132500Y-89200000D01*
G75*
G02*
X170982500Y-89050000I0J150000D01*
G01*
X170982500Y-87875000D01*
G75*
G02*
X171132500Y-87725000I150000J0D01*
G01*
X171432500Y-87725000D01*
G75*
G02*
X171582500Y-87875000I0J-150000D01*
G01*
X171582500Y-89050000D01*
G75*
G02*
X171432500Y-89200000I-150000J0D01*
G01*
G37*
X197545000Y-110500000D03*
X196776155Y-112356155D03*
X194920000Y-113125000D03*
X192295000Y-110500000D03*
X194920000Y-107875000D03*
X193063845Y-108643845D03*
D25*
X194920000Y-110500000D03*
D24*
X193063845Y-112356155D03*
X196776155Y-108643845D03*
G36*
G01*
X168357679Y-100452736D02*
X168357679Y-101402736D01*
G75*
G02*
X168107679Y-101652736I-250000J0D01*
G01*
X167432679Y-101652736D01*
G75*
G02*
X167182679Y-101402736I0J250000D01*
G01*
X167182679Y-100452736D01*
G75*
G02*
X167432679Y-100202736I250000J0D01*
G01*
X168107679Y-100202736D01*
G75*
G02*
X168357679Y-100452736I0J-250000D01*
G01*
G37*
G36*
G01*
X166282679Y-100452736D02*
X166282679Y-101402736D01*
G75*
G02*
X166032679Y-101652736I-250000J0D01*
G01*
X165357679Y-101652736D01*
G75*
G02*
X165107679Y-101402736I0J250000D01*
G01*
X165107679Y-100452736D01*
G75*
G02*
X165357679Y-100202736I250000J0D01*
G01*
X166032679Y-100202736D01*
G75*
G02*
X166282679Y-100452736I0J-250000D01*
G01*
G37*
G36*
G01*
X164545179Y-102477736D02*
X164545179Y-103377736D01*
G75*
G02*
X164295179Y-103627736I-250000J0D01*
G01*
X163595179Y-103627736D01*
G75*
G02*
X163345179Y-103377736I0J250000D01*
G01*
X163345179Y-102477736D01*
G75*
G02*
X163595179Y-102227736I250000J0D01*
G01*
X164295179Y-102227736D01*
G75*
G02*
X164545179Y-102477736I0J-250000D01*
G01*
G37*
G36*
G01*
X162545179Y-102477736D02*
X162545179Y-103377736D01*
G75*
G02*
X162295179Y-103627736I-250000J0D01*
G01*
X161595179Y-103627736D01*
G75*
G02*
X161345179Y-103377736I0J250000D01*
G01*
X161345179Y-102477736D01*
G75*
G02*
X161595179Y-102227736I250000J0D01*
G01*
X162295179Y-102227736D01*
G75*
G02*
X162545179Y-102477736I0J-250000D01*
G01*
G37*
G36*
G01*
X176031612Y-108210714D02*
X176331612Y-108210714D01*
G75*
G02*
X176481612Y-108360714I0J-150000D01*
G01*
X176481612Y-110010714D01*
G75*
G02*
X176331612Y-110160714I-150000J0D01*
G01*
X176031612Y-110160714D01*
G75*
G02*
X175881612Y-110010714I0J150000D01*
G01*
X175881612Y-108360714D01*
G75*
G02*
X176031612Y-108210714I150000J0D01*
G01*
G37*
G36*
G01*
X174761612Y-108210714D02*
X175061612Y-108210714D01*
G75*
G02*
X175211612Y-108360714I0J-150000D01*
G01*
X175211612Y-110010714D01*
G75*
G02*
X175061612Y-110160714I-150000J0D01*
G01*
X174761612Y-110160714D01*
G75*
G02*
X174611612Y-110010714I0J150000D01*
G01*
X174611612Y-108360714D01*
G75*
G02*
X174761612Y-108210714I150000J0D01*
G01*
G37*
G36*
G01*
X173491612Y-108210714D02*
X173791612Y-108210714D01*
G75*
G02*
X173941612Y-108360714I0J-150000D01*
G01*
X173941612Y-110010714D01*
G75*
G02*
X173791612Y-110160714I-150000J0D01*
G01*
X173491612Y-110160714D01*
G75*
G02*
X173341612Y-110010714I0J150000D01*
G01*
X173341612Y-108360714D01*
G75*
G02*
X173491612Y-108210714I150000J0D01*
G01*
G37*
G36*
G01*
X172221612Y-108210714D02*
X172521612Y-108210714D01*
G75*
G02*
X172671612Y-108360714I0J-150000D01*
G01*
X172671612Y-110010714D01*
G75*
G02*
X172521612Y-110160714I-150000J0D01*
G01*
X172221612Y-110160714D01*
G75*
G02*
X172071612Y-110010714I0J150000D01*
G01*
X172071612Y-108360714D01*
G75*
G02*
X172221612Y-108210714I150000J0D01*
G01*
G37*
G36*
G01*
X172221612Y-113160714D02*
X172521612Y-113160714D01*
G75*
G02*
X172671612Y-113310714I0J-150000D01*
G01*
X172671612Y-114960714D01*
G75*
G02*
X172521612Y-115110714I-150000J0D01*
G01*
X172221612Y-115110714D01*
G75*
G02*
X172071612Y-114960714I0J150000D01*
G01*
X172071612Y-113310714D01*
G75*
G02*
X172221612Y-113160714I150000J0D01*
G01*
G37*
G36*
G01*
X173491612Y-113160714D02*
X173791612Y-113160714D01*
G75*
G02*
X173941612Y-113310714I0J-150000D01*
G01*
X173941612Y-114960714D01*
G75*
G02*
X173791612Y-115110714I-150000J0D01*
G01*
X173491612Y-115110714D01*
G75*
G02*
X173341612Y-114960714I0J150000D01*
G01*
X173341612Y-113310714D01*
G75*
G02*
X173491612Y-113160714I150000J0D01*
G01*
G37*
G36*
G01*
X174761612Y-113160714D02*
X175061612Y-113160714D01*
G75*
G02*
X175211612Y-113310714I0J-150000D01*
G01*
X175211612Y-114960714D01*
G75*
G02*
X175061612Y-115110714I-150000J0D01*
G01*
X174761612Y-115110714D01*
G75*
G02*
X174611612Y-114960714I0J150000D01*
G01*
X174611612Y-113310714D01*
G75*
G02*
X174761612Y-113160714I150000J0D01*
G01*
G37*
G36*
G01*
X176031612Y-113160714D02*
X176331612Y-113160714D01*
G75*
G02*
X176481612Y-113310714I0J-150000D01*
G01*
X176481612Y-114960714D01*
G75*
G02*
X176331612Y-115110714I-150000J0D01*
G01*
X176031612Y-115110714D01*
G75*
G02*
X175881612Y-114960714I0J150000D01*
G01*
X175881612Y-113310714D01*
G75*
G02*
X176031612Y-113160714I150000J0D01*
G01*
G37*
G36*
G01*
X186377500Y-108150714D02*
X186677500Y-108150714D01*
G75*
G02*
X186827500Y-108300714I0J-150000D01*
G01*
X186827500Y-109950714D01*
G75*
G02*
X186677500Y-110100714I-150000J0D01*
G01*
X186377500Y-110100714D01*
G75*
G02*
X186227500Y-109950714I0J150000D01*
G01*
X186227500Y-108300714D01*
G75*
G02*
X186377500Y-108150714I150000J0D01*
G01*
G37*
G36*
G01*
X185107500Y-108150714D02*
X185407500Y-108150714D01*
G75*
G02*
X185557500Y-108300714I0J-150000D01*
G01*
X185557500Y-109950714D01*
G75*
G02*
X185407500Y-110100714I-150000J0D01*
G01*
X185107500Y-110100714D01*
G75*
G02*
X184957500Y-109950714I0J150000D01*
G01*
X184957500Y-108300714D01*
G75*
G02*
X185107500Y-108150714I150000J0D01*
G01*
G37*
G36*
G01*
X183837500Y-108150714D02*
X184137500Y-108150714D01*
G75*
G02*
X184287500Y-108300714I0J-150000D01*
G01*
X184287500Y-109950714D01*
G75*
G02*
X184137500Y-110100714I-150000J0D01*
G01*
X183837500Y-110100714D01*
G75*
G02*
X183687500Y-109950714I0J150000D01*
G01*
X183687500Y-108300714D01*
G75*
G02*
X183837500Y-108150714I150000J0D01*
G01*
G37*
G36*
G01*
X182567500Y-108150714D02*
X182867500Y-108150714D01*
G75*
G02*
X183017500Y-108300714I0J-150000D01*
G01*
X183017500Y-109950714D01*
G75*
G02*
X182867500Y-110100714I-150000J0D01*
G01*
X182567500Y-110100714D01*
G75*
G02*
X182417500Y-109950714I0J150000D01*
G01*
X182417500Y-108300714D01*
G75*
G02*
X182567500Y-108150714I150000J0D01*
G01*
G37*
G36*
G01*
X182567500Y-113100714D02*
X182867500Y-113100714D01*
G75*
G02*
X183017500Y-113250714I0J-150000D01*
G01*
X183017500Y-114900714D01*
G75*
G02*
X182867500Y-115050714I-150000J0D01*
G01*
X182567500Y-115050714D01*
G75*
G02*
X182417500Y-114900714I0J150000D01*
G01*
X182417500Y-113250714D01*
G75*
G02*
X182567500Y-113100714I150000J0D01*
G01*
G37*
G36*
G01*
X183837500Y-113100714D02*
X184137500Y-113100714D01*
G75*
G02*
X184287500Y-113250714I0J-150000D01*
G01*
X184287500Y-114900714D01*
G75*
G02*
X184137500Y-115050714I-150000J0D01*
G01*
X183837500Y-115050714D01*
G75*
G02*
X183687500Y-114900714I0J150000D01*
G01*
X183687500Y-113250714D01*
G75*
G02*
X183837500Y-113100714I150000J0D01*
G01*
G37*
G36*
G01*
X185107500Y-113100714D02*
X185407500Y-113100714D01*
G75*
G02*
X185557500Y-113250714I0J-150000D01*
G01*
X185557500Y-114900714D01*
G75*
G02*
X185407500Y-115050714I-150000J0D01*
G01*
X185107500Y-115050714D01*
G75*
G02*
X184957500Y-114900714I0J150000D01*
G01*
X184957500Y-113250714D01*
G75*
G02*
X185107500Y-113100714I150000J0D01*
G01*
G37*
G36*
G01*
X186377500Y-113100714D02*
X186677500Y-113100714D01*
G75*
G02*
X186827500Y-113250714I0J-150000D01*
G01*
X186827500Y-114900714D01*
G75*
G02*
X186677500Y-115050714I-150000J0D01*
G01*
X186377500Y-115050714D01*
G75*
G02*
X186227500Y-114900714I0J150000D01*
G01*
X186227500Y-113250714D01*
G75*
G02*
X186377500Y-113100714I150000J0D01*
G01*
G37*
G36*
G01*
X119152500Y-88935714D02*
X119152500Y-88035714D01*
G75*
G02*
X119402500Y-87785714I250000J0D01*
G01*
X120052500Y-87785714D01*
G75*
G02*
X120302500Y-88035714I0J-250000D01*
G01*
X120302500Y-88935714D01*
G75*
G02*
X120052500Y-89185714I-250000J0D01*
G01*
X119402500Y-89185714D01*
G75*
G02*
X119152500Y-88935714I0J250000D01*
G01*
G37*
G36*
G01*
X121202500Y-88935714D02*
X121202500Y-88035714D01*
G75*
G02*
X121452500Y-87785714I250000J0D01*
G01*
X122102500Y-87785714D01*
G75*
G02*
X122352500Y-88035714I0J-250000D01*
G01*
X122352500Y-88935714D01*
G75*
G02*
X122102500Y-89185714I-250000J0D01*
G01*
X121452500Y-89185714D01*
G75*
G02*
X121202500Y-88935714I0J250000D01*
G01*
G37*
G36*
G01*
X134350000Y-100452736D02*
X134350000Y-101402736D01*
G75*
G02*
X134100000Y-101652736I-250000J0D01*
G01*
X133425000Y-101652736D01*
G75*
G02*
X133175000Y-101402736I0J250000D01*
G01*
X133175000Y-100452736D01*
G75*
G02*
X133425000Y-100202736I250000J0D01*
G01*
X134100000Y-100202736D01*
G75*
G02*
X134350000Y-100452736I0J-250000D01*
G01*
G37*
G36*
G01*
X132275000Y-100452736D02*
X132275000Y-101402736D01*
G75*
G02*
X132025000Y-101652736I-250000J0D01*
G01*
X131350000Y-101652736D01*
G75*
G02*
X131100000Y-101402736I0J250000D01*
G01*
X131100000Y-100452736D01*
G75*
G02*
X131350000Y-100202736I250000J0D01*
G01*
X132025000Y-100202736D01*
G75*
G02*
X132275000Y-100452736I0J-250000D01*
G01*
G37*
G36*
G01*
X121612500Y-108606843D02*
X121612500Y-104756843D01*
G75*
G02*
X121937500Y-104431843I325000J0D01*
G01*
X122587500Y-104431843D01*
G75*
G02*
X122912500Y-104756843I0J-325000D01*
G01*
X122912500Y-108606843D01*
G75*
G02*
X122587500Y-108931843I-325000J0D01*
G01*
X121937500Y-108931843D01*
G75*
G02*
X121612500Y-108606843I0J325000D01*
G01*
G37*
G36*
G01*
X124112500Y-108606843D02*
X124112500Y-104756843D01*
G75*
G02*
X124437500Y-104431843I325000J0D01*
G01*
X125087500Y-104431843D01*
G75*
G02*
X125412500Y-104756843I0J-325000D01*
G01*
X125412500Y-108606843D01*
G75*
G02*
X125087500Y-108931843I-325000J0D01*
G01*
X124437500Y-108931843D01*
G75*
G02*
X124112500Y-108606843I0J325000D01*
G01*
G37*
G36*
G01*
X126612500Y-108606843D02*
X126612500Y-104756843D01*
G75*
G02*
X126937500Y-104431843I325000J0D01*
G01*
X127587500Y-104431843D01*
G75*
G02*
X127912500Y-104756843I0J-325000D01*
G01*
X127912500Y-108606843D01*
G75*
G02*
X127587500Y-108931843I-325000J0D01*
G01*
X126937500Y-108931843D01*
G75*
G02*
X126612500Y-108606843I0J325000D01*
G01*
G37*
G36*
G01*
X129112500Y-108606843D02*
X129112500Y-104756843D01*
G75*
G02*
X129437500Y-104431843I325000J0D01*
G01*
X130087500Y-104431843D01*
G75*
G02*
X130412500Y-104756843I0J-325000D01*
G01*
X130412500Y-108606843D01*
G75*
G02*
X130087500Y-108931843I-325000J0D01*
G01*
X129437500Y-108931843D01*
G75*
G02*
X129112500Y-108606843I0J325000D01*
G01*
G37*
G36*
G01*
X132062500Y-115131842D02*
X132062500Y-111831844D01*
G75*
G02*
X132362501Y-111531843I300001J0D01*
G01*
X133562499Y-111531843D01*
G75*
G02*
X133862500Y-111831844I0J-300001D01*
G01*
X133862500Y-115131842D01*
G75*
G02*
X133562499Y-115431843I-300001J0D01*
G01*
X132362501Y-115431843D01*
G75*
G02*
X132062500Y-115131842I0J300001D01*
G01*
G37*
G36*
G01*
X118162500Y-115131842D02*
X118162500Y-111831844D01*
G75*
G02*
X118462501Y-111531843I300001J0D01*
G01*
X119662499Y-111531843D01*
G75*
G02*
X119962500Y-111831844I0J-300001D01*
G01*
X119962500Y-115131842D01*
G75*
G02*
X119662499Y-115431843I-300001J0D01*
G01*
X118462501Y-115431843D01*
G75*
G02*
X118162500Y-115131842I0J300001D01*
G01*
G37*
G36*
G01*
X156963572Y-101377736D02*
X156963572Y-100477736D01*
G75*
G02*
X157213572Y-100227736I250000J0D01*
G01*
X157913572Y-100227736D01*
G75*
G02*
X158163572Y-100477736I0J-250000D01*
G01*
X158163572Y-101377736D01*
G75*
G02*
X157913572Y-101627736I-250000J0D01*
G01*
X157213572Y-101627736D01*
G75*
G02*
X156963572Y-101377736I0J250000D01*
G01*
G37*
G36*
G01*
X158963572Y-101377736D02*
X158963572Y-100477736D01*
G75*
G02*
X159213572Y-100227736I250000J0D01*
G01*
X159913572Y-100227736D01*
G75*
G02*
X160163572Y-100477736I0J-250000D01*
G01*
X160163572Y-101377736D01*
G75*
G02*
X159913572Y-101627736I-250000J0D01*
G01*
X159213572Y-101627736D01*
G75*
G02*
X158963572Y-101377736I0J250000D01*
G01*
G37*
G36*
G01*
X148255893Y-103402736D02*
X148255893Y-102452736D01*
G75*
G02*
X148505893Y-102202736I250000J0D01*
G01*
X149180893Y-102202736D01*
G75*
G02*
X149430893Y-102452736I0J-250000D01*
G01*
X149430893Y-103402736D01*
G75*
G02*
X149180893Y-103652736I-250000J0D01*
G01*
X148505893Y-103652736D01*
G75*
G02*
X148255893Y-103402736I0J250000D01*
G01*
G37*
G36*
G01*
X150330893Y-103402736D02*
X150330893Y-102452736D01*
G75*
G02*
X150580893Y-102202736I250000J0D01*
G01*
X151255893Y-102202736D01*
G75*
G02*
X151505893Y-102452736I0J-250000D01*
G01*
X151505893Y-103402736D01*
G75*
G02*
X151255893Y-103652736I-250000J0D01*
G01*
X150580893Y-103652736D01*
G75*
G02*
X150330893Y-103402736I0J250000D01*
G01*
G37*
G36*
G01*
X168382500Y-84512500D02*
X168382500Y-85412500D01*
G75*
G02*
X168132500Y-85662500I-250000J0D01*
G01*
X167432500Y-85662500D01*
G75*
G02*
X167182500Y-85412500I0J250000D01*
G01*
X167182500Y-84512500D01*
G75*
G02*
X167432500Y-84262500I250000J0D01*
G01*
X168132500Y-84262500D01*
G75*
G02*
X168382500Y-84512500I0J-250000D01*
G01*
G37*
G36*
G01*
X166382500Y-84512500D02*
X166382500Y-85412500D01*
G75*
G02*
X166132500Y-85662500I-250000J0D01*
G01*
X165432500Y-85662500D01*
G75*
G02*
X165182500Y-85412500I0J250000D01*
G01*
X165182500Y-84512500D01*
G75*
G02*
X165432500Y-84262500I250000J0D01*
G01*
X166132500Y-84262500D01*
G75*
G02*
X166382500Y-84512500I0J-250000D01*
G01*
G37*
G36*
G01*
X160163572Y-102473629D02*
X160163572Y-103373629D01*
G75*
G02*
X159913572Y-103623629I-250000J0D01*
G01*
X159213572Y-103623629D01*
G75*
G02*
X158963572Y-103373629I0J250000D01*
G01*
X158963572Y-102473629D01*
G75*
G02*
X159213572Y-102223629I250000J0D01*
G01*
X159913572Y-102223629D01*
G75*
G02*
X160163572Y-102473629I0J-250000D01*
G01*
G37*
G36*
G01*
X158163572Y-102473629D02*
X158163572Y-103373629D01*
G75*
G02*
X157913572Y-103623629I-250000J0D01*
G01*
X157213572Y-103623629D01*
G75*
G02*
X156963572Y-103373629I0J250000D01*
G01*
X156963572Y-102473629D01*
G75*
G02*
X157213572Y-102223629I250000J0D01*
G01*
X157913572Y-102223629D01*
G75*
G02*
X158163572Y-102473629I0J-250000D01*
G01*
G37*
D26*
X174546612Y-104500714D03*
D27*
X173276612Y-104500714D03*
X172006612Y-104500714D03*
G36*
G01*
X122875000Y-101377736D02*
X122875000Y-100477736D01*
G75*
G02*
X123125000Y-100227736I250000J0D01*
G01*
X123825000Y-100227736D01*
G75*
G02*
X124075000Y-100477736I0J-250000D01*
G01*
X124075000Y-101377736D01*
G75*
G02*
X123825000Y-101627736I-250000J0D01*
G01*
X123125000Y-101627736D01*
G75*
G02*
X122875000Y-101377736I0J250000D01*
G01*
G37*
G36*
G01*
X124875000Y-101377736D02*
X124875000Y-100477736D01*
G75*
G02*
X125125000Y-100227736I250000J0D01*
G01*
X125825000Y-100227736D01*
G75*
G02*
X126075000Y-100477736I0J-250000D01*
G01*
X126075000Y-101377736D01*
G75*
G02*
X125825000Y-101627736I-250000J0D01*
G01*
X125125000Y-101627736D01*
G75*
G02*
X124875000Y-101377736I0J250000D01*
G01*
G37*
G36*
G01*
X119987500Y-106802736D02*
X119037500Y-106802736D01*
G75*
G02*
X118787500Y-106552736I0J250000D01*
G01*
X118787500Y-105877736D01*
G75*
G02*
X119037500Y-105627736I250000J0D01*
G01*
X119987500Y-105627736D01*
G75*
G02*
X120237500Y-105877736I0J-250000D01*
G01*
X120237500Y-106552736D01*
G75*
G02*
X119987500Y-106802736I-250000J0D01*
G01*
G37*
G36*
G01*
X119987500Y-104727736D02*
X119037500Y-104727736D01*
G75*
G02*
X118787500Y-104477736I0J250000D01*
G01*
X118787500Y-103802736D01*
G75*
G02*
X119037500Y-103552736I250000J0D01*
G01*
X119987500Y-103552736D01*
G75*
G02*
X120237500Y-103802736I0J-250000D01*
G01*
X120237500Y-104477736D01*
G75*
G02*
X119987500Y-104727736I-250000J0D01*
G01*
G37*
G36*
G01*
X153070179Y-91152736D02*
X153070179Y-90202736D01*
G75*
G02*
X153320179Y-89952736I250000J0D01*
G01*
X153995179Y-89952736D01*
G75*
G02*
X154245179Y-90202736I0J-250000D01*
G01*
X154245179Y-91152736D01*
G75*
G02*
X153995179Y-91402736I-250000J0D01*
G01*
X153320179Y-91402736D01*
G75*
G02*
X153070179Y-91152736I0J250000D01*
G01*
G37*
G36*
G01*
X155145179Y-91152736D02*
X155145179Y-90202736D01*
G75*
G02*
X155395179Y-89952736I250000J0D01*
G01*
X156070179Y-89952736D01*
G75*
G02*
X156320179Y-90202736I0J-250000D01*
G01*
X156320179Y-91152736D01*
G75*
G02*
X156070179Y-91402736I-250000J0D01*
G01*
X155395179Y-91402736D01*
G75*
G02*
X155145179Y-91152736I0J250000D01*
G01*
G37*
G36*
G01*
X189782499Y-80000000D02*
X188532501Y-80000000D01*
G75*
G02*
X188282500Y-79749999I0J250001D01*
G01*
X188282500Y-78825001D01*
G75*
G02*
X188532501Y-78575000I250001J0D01*
G01*
X189782499Y-78575000D01*
G75*
G02*
X190032500Y-78825001I0J-250001D01*
G01*
X190032500Y-79749999D01*
G75*
G02*
X189782499Y-80000000I-250001J0D01*
G01*
G37*
G36*
G01*
X189782499Y-77025000D02*
X188532501Y-77025000D01*
G75*
G02*
X188282500Y-76774999I0J250001D01*
G01*
X188282500Y-75850001D01*
G75*
G02*
X188532501Y-75600000I250001J0D01*
G01*
X189782499Y-75600000D01*
G75*
G02*
X190032500Y-75850001I0J-250001D01*
G01*
X190032500Y-76774999D01*
G75*
G02*
X189782499Y-77025000I-250001J0D01*
G01*
G37*
G36*
G01*
X136005893Y-95152736D02*
X136005893Y-94202736D01*
G75*
G02*
X136255893Y-93952736I250000J0D01*
G01*
X136930893Y-93952736D01*
G75*
G02*
X137180893Y-94202736I0J-250000D01*
G01*
X137180893Y-95152736D01*
G75*
G02*
X136930893Y-95402736I-250000J0D01*
G01*
X136255893Y-95402736D01*
G75*
G02*
X136005893Y-95152736I0J250000D01*
G01*
G37*
G36*
G01*
X138080893Y-95152736D02*
X138080893Y-94202736D01*
G75*
G02*
X138330893Y-93952736I250000J0D01*
G01*
X139005893Y-93952736D01*
G75*
G02*
X139255893Y-94202736I0J-250000D01*
G01*
X139255893Y-95152736D01*
G75*
G02*
X139005893Y-95402736I-250000J0D01*
G01*
X138330893Y-95402736D01*
G75*
G02*
X138080893Y-95152736I0J250000D01*
G01*
G37*
G36*
G01*
X116220000Y-113785714D02*
X115320000Y-113785714D01*
G75*
G02*
X115070000Y-113535714I0J250000D01*
G01*
X115070000Y-112835714D01*
G75*
G02*
X115320000Y-112585714I250000J0D01*
G01*
X116220000Y-112585714D01*
G75*
G02*
X116470000Y-112835714I0J-250000D01*
G01*
X116470000Y-113535714D01*
G75*
G02*
X116220000Y-113785714I-250000J0D01*
G01*
G37*
G36*
G01*
X116220000Y-111785714D02*
X115320000Y-111785714D01*
G75*
G02*
X115070000Y-111535714I0J250000D01*
G01*
X115070000Y-110835714D01*
G75*
G02*
X115320000Y-110585714I250000J0D01*
G01*
X116220000Y-110585714D01*
G75*
G02*
X116470000Y-110835714I0J-250000D01*
G01*
X116470000Y-111535714D01*
G75*
G02*
X116220000Y-111785714I-250000J0D01*
G01*
G37*
G36*
G01*
X164570179Y-100452736D02*
X164570179Y-101402736D01*
G75*
G02*
X164320179Y-101652736I-250000J0D01*
G01*
X163645179Y-101652736D01*
G75*
G02*
X163395179Y-101402736I0J250000D01*
G01*
X163395179Y-100452736D01*
G75*
G02*
X163645179Y-100202736I250000J0D01*
G01*
X164320179Y-100202736D01*
G75*
G02*
X164570179Y-100452736I0J-250000D01*
G01*
G37*
G36*
G01*
X162495179Y-100452736D02*
X162495179Y-101402736D01*
G75*
G02*
X162245179Y-101652736I-250000J0D01*
G01*
X161570179Y-101652736D01*
G75*
G02*
X161320179Y-101402736I0J250000D01*
G01*
X161320179Y-100452736D01*
G75*
G02*
X161570179Y-100202736I250000J0D01*
G01*
X162245179Y-100202736D01*
G75*
G02*
X162495179Y-100452736I0J-250000D01*
G01*
G37*
G36*
G01*
X122952500Y-88935714D02*
X122952500Y-88035714D01*
G75*
G02*
X123202500Y-87785714I250000J0D01*
G01*
X123902500Y-87785714D01*
G75*
G02*
X124152500Y-88035714I0J-250000D01*
G01*
X124152500Y-88935714D01*
G75*
G02*
X123902500Y-89185714I-250000J0D01*
G01*
X123202500Y-89185714D01*
G75*
G02*
X122952500Y-88935714I0J250000D01*
G01*
G37*
G36*
G01*
X124952500Y-88935714D02*
X124952500Y-88035714D01*
G75*
G02*
X125202500Y-87785714I250000J0D01*
G01*
X125902500Y-87785714D01*
G75*
G02*
X126152500Y-88035714I0J-250000D01*
G01*
X126152500Y-88935714D01*
G75*
G02*
X125902500Y-89185714I-250000J0D01*
G01*
X125202500Y-89185714D01*
G75*
G02*
X124952500Y-88935714I0J250000D01*
G01*
G37*
D21*
X157745179Y-96977736D03*
X159025179Y-96977736D03*
X160285179Y-96977736D03*
X161555179Y-96977736D03*
X162835179Y-96977736D03*
X164105179Y-96977736D03*
X165365179Y-96977736D03*
X166645179Y-96977736D03*
X166645179Y-90677736D03*
X165365179Y-90677736D03*
X164105179Y-90677736D03*
X162835179Y-90677736D03*
X161555179Y-90677736D03*
X160285179Y-90677736D03*
X159025179Y-90677736D03*
X157745179Y-90677736D03*
G36*
G01*
X130545000Y-100452736D02*
X130545000Y-101402736D01*
G75*
G02*
X130295000Y-101652736I-250000J0D01*
G01*
X129620000Y-101652736D01*
G75*
G02*
X129370000Y-101402736I0J250000D01*
G01*
X129370000Y-100452736D01*
G75*
G02*
X129620000Y-100202736I250000J0D01*
G01*
X130295000Y-100202736D01*
G75*
G02*
X130545000Y-100452736I0J-250000D01*
G01*
G37*
G36*
G01*
X128470000Y-100452736D02*
X128470000Y-101402736D01*
G75*
G02*
X128220000Y-101652736I-250000J0D01*
G01*
X127545000Y-101652736D01*
G75*
G02*
X127295000Y-101402736I0J250000D01*
G01*
X127295000Y-100452736D01*
G75*
G02*
X127545000Y-100202736I250000J0D01*
G01*
X128220000Y-100202736D01*
G75*
G02*
X128470000Y-100452736I0J-250000D01*
G01*
G37*
G36*
G01*
X111320000Y-110585714D02*
X112220000Y-110585714D01*
G75*
G02*
X112470000Y-110835714I0J-250000D01*
G01*
X112470000Y-111535714D01*
G75*
G02*
X112220000Y-111785714I-250000J0D01*
G01*
X111320000Y-111785714D01*
G75*
G02*
X111070000Y-111535714I0J250000D01*
G01*
X111070000Y-110835714D01*
G75*
G02*
X111320000Y-110585714I250000J0D01*
G01*
G37*
G36*
G01*
X111320000Y-112585714D02*
X112220000Y-112585714D01*
G75*
G02*
X112470000Y-112835714I0J-250000D01*
G01*
X112470000Y-113535714D01*
G75*
G02*
X112220000Y-113785714I-250000J0D01*
G01*
X111320000Y-113785714D01*
G75*
G02*
X111070000Y-113535714I0J250000D01*
G01*
X111070000Y-112835714D01*
G75*
G02*
X111320000Y-112585714I250000J0D01*
G01*
G37*
G36*
G01*
X183632500Y-82062500D02*
X183632500Y-81762500D01*
G75*
G02*
X183782500Y-81612500I150000J0D01*
G01*
X184957500Y-81612500D01*
G75*
G02*
X185107500Y-81762500I0J-150000D01*
G01*
X185107500Y-82062500D01*
G75*
G02*
X184957500Y-82212500I-150000J0D01*
G01*
X183782500Y-82212500D01*
G75*
G02*
X183632500Y-82062500I0J150000D01*
G01*
G37*
G36*
G01*
X183632500Y-83962500D02*
X183632500Y-83662500D01*
G75*
G02*
X183782500Y-83512500I150000J0D01*
G01*
X184957500Y-83512500D01*
G75*
G02*
X185107500Y-83662500I0J-150000D01*
G01*
X185107500Y-83962500D01*
G75*
G02*
X184957500Y-84112500I-150000J0D01*
G01*
X183782500Y-84112500D01*
G75*
G02*
X183632500Y-83962500I0J150000D01*
G01*
G37*
G36*
G01*
X185507500Y-83012500D02*
X185507500Y-82712500D01*
G75*
G02*
X185657500Y-82562500I150000J0D01*
G01*
X186832500Y-82562500D01*
G75*
G02*
X186982500Y-82712500I0J-150000D01*
G01*
X186982500Y-83012500D01*
G75*
G02*
X186832500Y-83162500I-150000J0D01*
G01*
X185657500Y-83162500D01*
G75*
G02*
X185507500Y-83012500I0J150000D01*
G01*
G37*
G36*
G01*
X198222500Y-103735714D02*
X198222500Y-104635714D01*
G75*
G02*
X197972500Y-104885714I-250000J0D01*
G01*
X197272500Y-104885714D01*
G75*
G02*
X197022500Y-104635714I0J250000D01*
G01*
X197022500Y-103735714D01*
G75*
G02*
X197272500Y-103485714I250000J0D01*
G01*
X197972500Y-103485714D01*
G75*
G02*
X198222500Y-103735714I0J-250000D01*
G01*
G37*
G36*
G01*
X196222500Y-103735714D02*
X196222500Y-104635714D01*
G75*
G02*
X195972500Y-104885714I-250000J0D01*
G01*
X195272500Y-104885714D01*
G75*
G02*
X195022500Y-104635714I0J250000D01*
G01*
X195022500Y-103735714D01*
G75*
G02*
X195272500Y-103485714I250000J0D01*
G01*
X195972500Y-103485714D01*
G75*
G02*
X196222500Y-103735714I0J-250000D01*
G01*
G37*
G36*
G01*
X112220000Y-110035714D02*
X111320000Y-110035714D01*
G75*
G02*
X111070000Y-109785714I0J250000D01*
G01*
X111070000Y-109085714D01*
G75*
G02*
X111320000Y-108835714I250000J0D01*
G01*
X112220000Y-108835714D01*
G75*
G02*
X112470000Y-109085714I0J-250000D01*
G01*
X112470000Y-109785714D01*
G75*
G02*
X112220000Y-110035714I-250000J0D01*
G01*
G37*
G36*
G01*
X112220000Y-108035714D02*
X111320000Y-108035714D01*
G75*
G02*
X111070000Y-107785714I0J250000D01*
G01*
X111070000Y-107085714D01*
G75*
G02*
X111320000Y-106835714I250000J0D01*
G01*
X112220000Y-106835714D01*
G75*
G02*
X112470000Y-107085714I0J-250000D01*
G01*
X112470000Y-107785714D01*
G75*
G02*
X112220000Y-108035714I-250000J0D01*
G01*
G37*
G36*
G01*
X172832500Y-84450000D02*
X172832500Y-84750000D01*
G75*
G02*
X172682500Y-84900000I-150000J0D01*
G01*
X171657500Y-84900000D01*
G75*
G02*
X171507500Y-84750000I0J150000D01*
G01*
X171507500Y-84450000D01*
G75*
G02*
X171657500Y-84300000I150000J0D01*
G01*
X172682500Y-84300000D01*
G75*
G02*
X172832500Y-84450000I0J-150000D01*
G01*
G37*
G36*
G01*
X172832500Y-83500000D02*
X172832500Y-83800000D01*
G75*
G02*
X172682500Y-83950000I-150000J0D01*
G01*
X171657500Y-83950000D01*
G75*
G02*
X171507500Y-83800000I0J150000D01*
G01*
X171507500Y-83500000D01*
G75*
G02*
X171657500Y-83350000I150000J0D01*
G01*
X172682500Y-83350000D01*
G75*
G02*
X172832500Y-83500000I0J-150000D01*
G01*
G37*
G36*
G01*
X172832500Y-82550000D02*
X172832500Y-82850000D01*
G75*
G02*
X172682500Y-83000000I-150000J0D01*
G01*
X171657500Y-83000000D01*
G75*
G02*
X171507500Y-82850000I0J150000D01*
G01*
X171507500Y-82550000D01*
G75*
G02*
X171657500Y-82400000I150000J0D01*
G01*
X172682500Y-82400000D01*
G75*
G02*
X172832500Y-82550000I0J-150000D01*
G01*
G37*
G36*
G01*
X170557500Y-82550000D02*
X170557500Y-82850000D01*
G75*
G02*
X170407500Y-83000000I-150000J0D01*
G01*
X169382500Y-83000000D01*
G75*
G02*
X169232500Y-82850000I0J150000D01*
G01*
X169232500Y-82550000D01*
G75*
G02*
X169382500Y-82400000I150000J0D01*
G01*
X170407500Y-82400000D01*
G75*
G02*
X170557500Y-82550000I0J-150000D01*
G01*
G37*
G36*
G01*
X170557500Y-83500000D02*
X170557500Y-83800000D01*
G75*
G02*
X170407500Y-83950000I-150000J0D01*
G01*
X169382500Y-83950000D01*
G75*
G02*
X169232500Y-83800000I0J150000D01*
G01*
X169232500Y-83500000D01*
G75*
G02*
X169382500Y-83350000I150000J0D01*
G01*
X170407500Y-83350000D01*
G75*
G02*
X170557500Y-83500000I0J-150000D01*
G01*
G37*
G36*
G01*
X170557500Y-84450000D02*
X170557500Y-84750000D01*
G75*
G02*
X170407500Y-84900000I-150000J0D01*
G01*
X169382500Y-84900000D01*
G75*
G02*
X169232500Y-84750000I0J150000D01*
G01*
X169232500Y-84450000D01*
G75*
G02*
X169382500Y-84300000I150000J0D01*
G01*
X170407500Y-84300000D01*
G75*
G02*
X170557500Y-84450000I0J-150000D01*
G01*
G37*
G36*
G01*
X130575000Y-102477736D02*
X130575000Y-103377736D01*
G75*
G02*
X130325000Y-103627736I-250000J0D01*
G01*
X129625000Y-103627736D01*
G75*
G02*
X129375000Y-103377736I0J250000D01*
G01*
X129375000Y-102477736D01*
G75*
G02*
X129625000Y-102227736I250000J0D01*
G01*
X130325000Y-102227736D01*
G75*
G02*
X130575000Y-102477736I0J-250000D01*
G01*
G37*
G36*
G01*
X128575000Y-102477736D02*
X128575000Y-103377736D01*
G75*
G02*
X128325000Y-103627736I-250000J0D01*
G01*
X127625000Y-103627736D01*
G75*
G02*
X127375000Y-103377736I0J250000D01*
G01*
X127375000Y-102477736D01*
G75*
G02*
X127625000Y-102227736I250000J0D01*
G01*
X128325000Y-102227736D01*
G75*
G02*
X128575000Y-102477736I0J-250000D01*
G01*
G37*
G36*
G01*
X168420000Y-104477736D02*
X168420000Y-105377736D01*
G75*
G02*
X168170000Y-105627736I-250000J0D01*
G01*
X167470000Y-105627736D01*
G75*
G02*
X167220000Y-105377736I0J250000D01*
G01*
X167220000Y-104477736D01*
G75*
G02*
X167470000Y-104227736I250000J0D01*
G01*
X168170000Y-104227736D01*
G75*
G02*
X168420000Y-104477736I0J-250000D01*
G01*
G37*
G36*
G01*
X166420000Y-104477736D02*
X166420000Y-105377736D01*
G75*
G02*
X166170000Y-105627736I-250000J0D01*
G01*
X165470000Y-105627736D01*
G75*
G02*
X165220000Y-105377736I0J250000D01*
G01*
X165220000Y-104477736D01*
G75*
G02*
X165470000Y-104227736I250000J0D01*
G01*
X166170000Y-104227736D01*
G75*
G02*
X166420000Y-104477736I0J-250000D01*
G01*
G37*
G36*
G01*
X143130893Y-102477736D02*
X143130893Y-103377736D01*
G75*
G02*
X142880893Y-103627736I-250000J0D01*
G01*
X142180893Y-103627736D01*
G75*
G02*
X141930893Y-103377736I0J250000D01*
G01*
X141930893Y-102477736D01*
G75*
G02*
X142180893Y-102227736I250000J0D01*
G01*
X142880893Y-102227736D01*
G75*
G02*
X143130893Y-102477736I0J-250000D01*
G01*
G37*
G36*
G01*
X141130893Y-102477736D02*
X141130893Y-103377736D01*
G75*
G02*
X140880893Y-103627736I-250000J0D01*
G01*
X140180893Y-103627736D01*
G75*
G02*
X139930893Y-103377736I0J250000D01*
G01*
X139930893Y-102477736D01*
G75*
G02*
X140180893Y-102227736I250000J0D01*
G01*
X140880893Y-102227736D01*
G75*
G02*
X141130893Y-102477736I0J-250000D01*
G01*
G37*
G36*
G01*
X156762500Y-84550000D02*
X156762500Y-83650000D01*
G75*
G02*
X157012500Y-83400000I250000J0D01*
G01*
X157712500Y-83400000D01*
G75*
G02*
X157962500Y-83650000I0J-250000D01*
G01*
X157962500Y-84550000D01*
G75*
G02*
X157712500Y-84800000I-250000J0D01*
G01*
X157012500Y-84800000D01*
G75*
G02*
X156762500Y-84550000I0J250000D01*
G01*
G37*
G36*
G01*
X158762500Y-84550000D02*
X158762500Y-83650000D01*
G75*
G02*
X159012500Y-83400000I250000J0D01*
G01*
X159712500Y-83400000D01*
G75*
G02*
X159962500Y-83650000I0J-250000D01*
G01*
X159962500Y-84550000D01*
G75*
G02*
X159712500Y-84800000I-250000J0D01*
G01*
X159012500Y-84800000D01*
G75*
G02*
X158762500Y-84550000I0J250000D01*
G01*
G37*
G36*
G01*
X139230893Y-96227736D02*
X139230893Y-97127736D01*
G75*
G02*
X138980893Y-97377736I-250000J0D01*
G01*
X138280893Y-97377736D01*
G75*
G02*
X138030893Y-97127736I0J250000D01*
G01*
X138030893Y-96227736D01*
G75*
G02*
X138280893Y-95977736I250000J0D01*
G01*
X138980893Y-95977736D01*
G75*
G02*
X139230893Y-96227736I0J-250000D01*
G01*
G37*
G36*
G01*
X137230893Y-96227736D02*
X137230893Y-97127736D01*
G75*
G02*
X136980893Y-97377736I-250000J0D01*
G01*
X136280893Y-97377736D01*
G75*
G02*
X136030893Y-97127736I0J250000D01*
G01*
X136030893Y-96227736D01*
G75*
G02*
X136280893Y-95977736I250000J0D01*
G01*
X136980893Y-95977736D01*
G75*
G02*
X137230893Y-96227736I0J-250000D01*
G01*
G37*
D26*
X184892500Y-104440714D03*
D27*
X183622500Y-104440714D03*
X182352500Y-104440714D03*
D24*
X106776155Y-108643845D03*
X107545000Y-110500000D03*
X106776155Y-112356155D03*
D25*
X104920000Y-110500000D03*
D24*
X103063845Y-112356155D03*
X104920000Y-107875000D03*
X102295000Y-110500000D03*
X104920000Y-113125000D03*
X103063845Y-108643845D03*
G36*
G01*
X147730893Y-102477736D02*
X147730893Y-103377736D01*
G75*
G02*
X147480893Y-103627736I-250000J0D01*
G01*
X146780893Y-103627736D01*
G75*
G02*
X146530893Y-103377736I0J250000D01*
G01*
X146530893Y-102477736D01*
G75*
G02*
X146780893Y-102227736I250000J0D01*
G01*
X147480893Y-102227736D01*
G75*
G02*
X147730893Y-102477736I0J-250000D01*
G01*
G37*
G36*
G01*
X145730893Y-102477736D02*
X145730893Y-103377736D01*
G75*
G02*
X145480893Y-103627736I-250000J0D01*
G01*
X144780893Y-103627736D01*
G75*
G02*
X144530893Y-103377736I0J250000D01*
G01*
X144530893Y-102477736D01*
G75*
G02*
X144780893Y-102227736I250000J0D01*
G01*
X145480893Y-102227736D01*
G75*
G02*
X145730893Y-102477736I0J-250000D01*
G01*
G37*
G36*
G01*
X179450000Y-109100000D02*
X178550000Y-109100000D01*
G75*
G02*
X178300000Y-108850000I0J250000D01*
G01*
X178300000Y-108150000D01*
G75*
G02*
X178550000Y-107900000I250000J0D01*
G01*
X179450000Y-107900000D01*
G75*
G02*
X179700000Y-108150000I0J-250000D01*
G01*
X179700000Y-108850000D01*
G75*
G02*
X179450000Y-109100000I-250000J0D01*
G01*
G37*
G36*
G01*
X179450000Y-107100000D02*
X178550000Y-107100000D01*
G75*
G02*
X178300000Y-106850000I0J250000D01*
G01*
X178300000Y-106150000D01*
G75*
G02*
X178550000Y-105900000I250000J0D01*
G01*
X179450000Y-105900000D01*
G75*
G02*
X179700000Y-106150000I0J-250000D01*
G01*
X179700000Y-106850000D01*
G75*
G02*
X179450000Y-107100000I-250000J0D01*
G01*
G37*
G36*
G01*
X129952500Y-88035714D02*
X129952500Y-88935714D01*
G75*
G02*
X129702500Y-89185714I-250000J0D01*
G01*
X129002500Y-89185714D01*
G75*
G02*
X128752500Y-88935714I0J250000D01*
G01*
X128752500Y-88035714D01*
G75*
G02*
X129002500Y-87785714I250000J0D01*
G01*
X129702500Y-87785714D01*
G75*
G02*
X129952500Y-88035714I0J-250000D01*
G01*
G37*
G36*
G01*
X127952500Y-88035714D02*
X127952500Y-88935714D01*
G75*
G02*
X127702500Y-89185714I-250000J0D01*
G01*
X127002500Y-89185714D01*
G75*
G02*
X126752500Y-88935714I0J250000D01*
G01*
X126752500Y-88035714D01*
G75*
G02*
X127002500Y-87785714I250000J0D01*
G01*
X127702500Y-87785714D01*
G75*
G02*
X127952500Y-88035714I0J-250000D01*
G01*
G37*
D14*
X174276612Y-106375714D03*
X174276612Y-112375714D03*
D15*
X171676612Y-109875714D03*
X176876612Y-109875714D03*
X176876612Y-113275714D03*
X171676612Y-113275714D03*
X171676612Y-106375714D03*
X176876612Y-106375714D03*
G36*
G01*
X152905893Y-100627736D02*
X152905893Y-100327736D01*
G75*
G02*
X153055893Y-100177736I150000J0D01*
G01*
X154230893Y-100177736D01*
G75*
G02*
X154380893Y-100327736I0J-150000D01*
G01*
X154380893Y-100627736D01*
G75*
G02*
X154230893Y-100777736I-150000J0D01*
G01*
X153055893Y-100777736D01*
G75*
G02*
X152905893Y-100627736I0J150000D01*
G01*
G37*
G36*
G01*
X152905893Y-102527736D02*
X152905893Y-102227736D01*
G75*
G02*
X153055893Y-102077736I150000J0D01*
G01*
X154230893Y-102077736D01*
G75*
G02*
X154380893Y-102227736I0J-150000D01*
G01*
X154380893Y-102527736D01*
G75*
G02*
X154230893Y-102677736I-150000J0D01*
G01*
X153055893Y-102677736D01*
G75*
G02*
X152905893Y-102527736I0J150000D01*
G01*
G37*
G36*
G01*
X154780893Y-101577736D02*
X154780893Y-101277736D01*
G75*
G02*
X154930893Y-101127736I150000J0D01*
G01*
X156105893Y-101127736D01*
G75*
G02*
X156255893Y-101277736I0J-150000D01*
G01*
X156255893Y-101577736D01*
G75*
G02*
X156105893Y-101727736I-150000J0D01*
G01*
X154930893Y-101727736D01*
G75*
G02*
X154780893Y-101577736I0J150000D01*
G01*
G37*
G36*
G01*
X136005893Y-91152736D02*
X136005893Y-90202736D01*
G75*
G02*
X136255893Y-89952736I250000J0D01*
G01*
X136930893Y-89952736D01*
G75*
G02*
X137180893Y-90202736I0J-250000D01*
G01*
X137180893Y-91152736D01*
G75*
G02*
X136930893Y-91402736I-250000J0D01*
G01*
X136255893Y-91402736D01*
G75*
G02*
X136005893Y-91152736I0J250000D01*
G01*
G37*
G36*
G01*
X138080893Y-91152736D02*
X138080893Y-90202736D01*
G75*
G02*
X138330893Y-89952736I250000J0D01*
G01*
X139005893Y-89952736D01*
G75*
G02*
X139255893Y-90202736I0J-250000D01*
G01*
X139255893Y-91152736D01*
G75*
G02*
X139005893Y-91402736I-250000J0D01*
G01*
X138330893Y-91402736D01*
G75*
G02*
X138080893Y-91152736I0J250000D01*
G01*
G37*
G36*
G01*
X176820000Y-86335714D02*
X177720000Y-86335714D01*
G75*
G02*
X177970000Y-86585714I0J-250000D01*
G01*
X177970000Y-87285714D01*
G75*
G02*
X177720000Y-87535714I-250000J0D01*
G01*
X176820000Y-87535714D01*
G75*
G02*
X176570000Y-87285714I0J250000D01*
G01*
X176570000Y-86585714D01*
G75*
G02*
X176820000Y-86335714I250000J0D01*
G01*
G37*
G36*
G01*
X176820000Y-88335714D02*
X177720000Y-88335714D01*
G75*
G02*
X177970000Y-88585714I0J-250000D01*
G01*
X177970000Y-89285714D01*
G75*
G02*
X177720000Y-89535714I-250000J0D01*
G01*
X176820000Y-89535714D01*
G75*
G02*
X176570000Y-89285714I0J250000D01*
G01*
X176570000Y-88585714D01*
G75*
G02*
X176820000Y-88335714I250000J0D01*
G01*
G37*
G36*
G01*
X156222500Y-83650000D02*
X156222500Y-84550000D01*
G75*
G02*
X155972500Y-84800000I-250000J0D01*
G01*
X155272500Y-84800000D01*
G75*
G02*
X155022500Y-84550000I0J250000D01*
G01*
X155022500Y-83650000D01*
G75*
G02*
X155272500Y-83400000I250000J0D01*
G01*
X155972500Y-83400000D01*
G75*
G02*
X156222500Y-83650000I0J-250000D01*
G01*
G37*
G36*
G01*
X154222500Y-83650000D02*
X154222500Y-84550000D01*
G75*
G02*
X153972500Y-84800000I-250000J0D01*
G01*
X153272500Y-84800000D01*
G75*
G02*
X153022500Y-84550000I0J250000D01*
G01*
X153022500Y-83650000D01*
G75*
G02*
X153272500Y-83400000I250000J0D01*
G01*
X153972500Y-83400000D01*
G75*
G02*
X154222500Y-83650000I0J-250000D01*
G01*
G37*
D24*
X107545000Y-80500000D03*
X103063845Y-82356155D03*
X102295000Y-80500000D03*
X104920000Y-77875000D03*
X103063845Y-78643845D03*
X106776155Y-78643845D03*
D25*
X104920000Y-80500000D03*
D24*
X104920000Y-83125000D03*
X106776155Y-82356155D03*
G36*
G01*
X187682500Y-83837500D02*
X187682500Y-82887500D01*
G75*
G02*
X187932500Y-82637500I250000J0D01*
G01*
X188607500Y-82637500D01*
G75*
G02*
X188857500Y-82887500I0J-250000D01*
G01*
X188857500Y-83837500D01*
G75*
G02*
X188607500Y-84087500I-250000J0D01*
G01*
X187932500Y-84087500D01*
G75*
G02*
X187682500Y-83837500I0J250000D01*
G01*
G37*
G36*
G01*
X189757500Y-83837500D02*
X189757500Y-82887500D01*
G75*
G02*
X190007500Y-82637500I250000J0D01*
G01*
X190682500Y-82637500D01*
G75*
G02*
X190932500Y-82887500I0J-250000D01*
G01*
X190932500Y-83837500D01*
G75*
G02*
X190682500Y-84087500I-250000J0D01*
G01*
X190007500Y-84087500D01*
G75*
G02*
X189757500Y-83837500I0J250000D01*
G01*
G37*
G36*
G01*
X119125000Y-99127736D02*
X119125000Y-98227736D01*
G75*
G02*
X119375000Y-97977736I250000J0D01*
G01*
X120075000Y-97977736D01*
G75*
G02*
X120325000Y-98227736I0J-250000D01*
G01*
X120325000Y-99127736D01*
G75*
G02*
X120075000Y-99377736I-250000J0D01*
G01*
X119375000Y-99377736D01*
G75*
G02*
X119125000Y-99127736I0J250000D01*
G01*
G37*
G36*
G01*
X121125000Y-99127736D02*
X121125000Y-98227736D01*
G75*
G02*
X121375000Y-97977736I250000J0D01*
G01*
X122075000Y-97977736D01*
G75*
G02*
X122325000Y-98227736I0J-250000D01*
G01*
X122325000Y-99127736D01*
G75*
G02*
X122075000Y-99377736I-250000J0D01*
G01*
X121375000Y-99377736D01*
G75*
G02*
X121125000Y-99127736I0J250000D01*
G01*
G37*
G36*
G01*
X119100000Y-91152736D02*
X119100000Y-90202736D01*
G75*
G02*
X119350000Y-89952736I250000J0D01*
G01*
X120025000Y-89952736D01*
G75*
G02*
X120275000Y-90202736I0J-250000D01*
G01*
X120275000Y-91152736D01*
G75*
G02*
X120025000Y-91402736I-250000J0D01*
G01*
X119350000Y-91402736D01*
G75*
G02*
X119100000Y-91152736I0J250000D01*
G01*
G37*
G36*
G01*
X121175000Y-91152736D02*
X121175000Y-90202736D01*
G75*
G02*
X121425000Y-89952736I250000J0D01*
G01*
X122100000Y-89952736D01*
G75*
G02*
X122350000Y-90202736I0J-250000D01*
G01*
X122350000Y-91152736D01*
G75*
G02*
X122100000Y-91402736I-250000J0D01*
G01*
X121425000Y-91402736D01*
G75*
G02*
X121175000Y-91152736I0J250000D01*
G01*
G37*
G36*
G01*
X151505893Y-100452736D02*
X151505893Y-101402736D01*
G75*
G02*
X151255893Y-101652736I-250000J0D01*
G01*
X150580893Y-101652736D01*
G75*
G02*
X150330893Y-101402736I0J250000D01*
G01*
X150330893Y-100452736D01*
G75*
G02*
X150580893Y-100202736I250000J0D01*
G01*
X151255893Y-100202736D01*
G75*
G02*
X151505893Y-100452736I0J-250000D01*
G01*
G37*
G36*
G01*
X149430893Y-100452736D02*
X149430893Y-101402736D01*
G75*
G02*
X149180893Y-101652736I-250000J0D01*
G01*
X148505893Y-101652736D01*
G75*
G02*
X148255893Y-101402736I0J250000D01*
G01*
X148255893Y-100452736D01*
G75*
G02*
X148505893Y-100202736I250000J0D01*
G01*
X149180893Y-100202736D01*
G75*
G02*
X149430893Y-100452736I0J-250000D01*
G01*
G37*
D22*
X174982500Y-82587500D03*
D23*
X177522500Y-82587500D03*
G36*
G01*
X134362500Y-104477736D02*
X134362500Y-105377736D01*
G75*
G02*
X134112500Y-105627736I-250000J0D01*
G01*
X133412500Y-105627736D01*
G75*
G02*
X133162500Y-105377736I0J250000D01*
G01*
X133162500Y-104477736D01*
G75*
G02*
X133412500Y-104227736I250000J0D01*
G01*
X134112500Y-104227736D01*
G75*
G02*
X134362500Y-104477736I0J-250000D01*
G01*
G37*
G36*
G01*
X132362500Y-104477736D02*
X132362500Y-105377736D01*
G75*
G02*
X132112500Y-105627736I-250000J0D01*
G01*
X131412500Y-105627736D01*
G75*
G02*
X131162500Y-105377736I0J250000D01*
G01*
X131162500Y-104477736D01*
G75*
G02*
X131412500Y-104227736I250000J0D01*
G01*
X132112500Y-104227736D01*
G75*
G02*
X132362500Y-104477736I0J-250000D01*
G01*
G37*
G36*
G01*
X110220000Y-113785714D02*
X109320000Y-113785714D01*
G75*
G02*
X109070000Y-113535714I0J250000D01*
G01*
X109070000Y-112835714D01*
G75*
G02*
X109320000Y-112585714I250000J0D01*
G01*
X110220000Y-112585714D01*
G75*
G02*
X110470000Y-112835714I0J-250000D01*
G01*
X110470000Y-113535714D01*
G75*
G02*
X110220000Y-113785714I-250000J0D01*
G01*
G37*
G36*
G01*
X110220000Y-111785714D02*
X109320000Y-111785714D01*
G75*
G02*
X109070000Y-111535714I0J250000D01*
G01*
X109070000Y-110835714D01*
G75*
G02*
X109320000Y-110585714I250000J0D01*
G01*
X110220000Y-110585714D01*
G75*
G02*
X110470000Y-110835714I0J-250000D01*
G01*
X110470000Y-111535714D01*
G75*
G02*
X110220000Y-111785714I-250000J0D01*
G01*
G37*
G36*
G01*
X114245000Y-110060714D02*
X113295000Y-110060714D01*
G75*
G02*
X113045000Y-109810714I0J250000D01*
G01*
X113045000Y-109135714D01*
G75*
G02*
X113295000Y-108885714I250000J0D01*
G01*
X114245000Y-108885714D01*
G75*
G02*
X114495000Y-109135714I0J-250000D01*
G01*
X114495000Y-109810714D01*
G75*
G02*
X114245000Y-110060714I-250000J0D01*
G01*
G37*
G36*
G01*
X114245000Y-107985714D02*
X113295000Y-107985714D01*
G75*
G02*
X113045000Y-107735714I0J250000D01*
G01*
X113045000Y-107060714D01*
G75*
G02*
X113295000Y-106810714I250000J0D01*
G01*
X114245000Y-106810714D01*
G75*
G02*
X114495000Y-107060714I0J-250000D01*
G01*
X114495000Y-107735714D01*
G75*
G02*
X114245000Y-107985714I-250000J0D01*
G01*
G37*
G36*
G01*
X168532500Y-95300000D02*
X168532500Y-94000000D01*
G75*
G02*
X168782500Y-93750000I250000J0D01*
G01*
X169607500Y-93750000D01*
G75*
G02*
X169857500Y-94000000I0J-250000D01*
G01*
X169857500Y-95300000D01*
G75*
G02*
X169607500Y-95550000I-250000J0D01*
G01*
X168782500Y-95550000D01*
G75*
G02*
X168532500Y-95300000I0J250000D01*
G01*
G37*
G36*
G01*
X171657500Y-95300000D02*
X171657500Y-94000000D01*
G75*
G02*
X171907500Y-93750000I250000J0D01*
G01*
X172732500Y-93750000D01*
G75*
G02*
X172982500Y-94000000I0J-250000D01*
G01*
X172982500Y-95300000D01*
G75*
G02*
X172732500Y-95550000I-250000J0D01*
G01*
X171907500Y-95550000D01*
G75*
G02*
X171657500Y-95300000I0J250000D01*
G01*
G37*
G36*
G01*
X153070179Y-95152736D02*
X153070179Y-94202736D01*
G75*
G02*
X153320179Y-93952736I250000J0D01*
G01*
X153995179Y-93952736D01*
G75*
G02*
X154245179Y-94202736I0J-250000D01*
G01*
X154245179Y-95152736D01*
G75*
G02*
X153995179Y-95402736I-250000J0D01*
G01*
X153320179Y-95402736D01*
G75*
G02*
X153070179Y-95152736I0J250000D01*
G01*
G37*
G36*
G01*
X155145179Y-95152736D02*
X155145179Y-94202736D01*
G75*
G02*
X155395179Y-93952736I250000J0D01*
G01*
X156070179Y-93952736D01*
G75*
G02*
X156320179Y-94202736I0J-250000D01*
G01*
X156320179Y-95152736D01*
G75*
G02*
X156070179Y-95402736I-250000J0D01*
G01*
X155395179Y-95402736D01*
G75*
G02*
X155145179Y-95152736I0J250000D01*
G01*
G37*
M02*
